<svg version="1.1" id="Layer_1" xmlns="http://www.w3.org/2000/svg" xmlns:xlink="http://www.w3.org/1999/xlink" x="0px" y="0px"
	 width="100%" viewBox="0 0 385 143" enable-background="new 0 0 385 143" xml:space="preserve">
<path fill="#3DA6F8" opacity="1.000000" stroke="none" 
	d="
M385.757629,68.703552 
	C386.000000,78.687561 386.000000,88.375122 386.000000,98.531342 
	C385.402893,99.620483 385.135925,100.372482 384.977051,101.215126 
	C381.148529,121.522575 367.395081,133.109467 349.717529,141.181686 
	C345.576935,143.072449 340.882782,142.291199 336.290039,143.758667 
	C329.978851,144.000000 323.957703,144.000000 317.468262,144.000000 
	C316.262787,143.195602 315.297150,143.058914 314.272430,143.004440 
	C302.347595,142.370453 292.709167,136.846375 284.218475,128.898026 
	C280.245819,125.179146 279.529449,125.019829 275.706696,129.101105 
	C266.337097,139.104218 254.816116,143.472351 241.245804,143.020584 
	C233.134338,142.750549 224.940369,143.656067 217.067474,140.721649 
	C209.897568,138.049255 203.794693,133.834732 198.587433,128.293655 
	C196.461227,126.031136 194.524551,125.067162 191.926590,127.781937 
	C183.355484,136.738480 173.032623,142.307205 160.276138,143.761414 
	C157.629440,144.000000 155.258896,144.000000 152.444168,144.000000 
	C149.591019,142.947510 147.074020,143.704605 144.305450,143.779449 
	C141.629440,144.000000 139.258896,144.000000 136.444168,144.000000 
	C130.101074,141.944427 123.730881,141.681824 118.121101,138.305862 
	C111.116051,134.090225 110.129524,131.809006 114.312584,124.830330 
	C116.383690,121.375092 117.690765,117.590858 119.329445,113.949165 
	C121.742317,108.586914 124.005211,107.958771 128.937317,111.302063 
	C142.144211,120.254562 156.274979,120.082664 168.940109,110.815445 
	C183.721176,99.999969 186.193741,76.363258 173.966309,62.767078 
	C163.845627,51.513458 150.152054,47.681797 136.948013,52.408806 
	C123.428757,57.248665 114.905495,69.381004 114.268684,84.691444 
	C113.207573,110.203087 96.737633,132.950104 73.768051,140.749207 
	C68.803101,142.434998 63.668896,142.909164 58.529285,142.950409 
	C42.031502,143.082794 25.531975,143.018097 9.033187,142.988998 
	C3.718977,142.979630 3.071083,142.289581 3.008507,136.886215 
	C2.967981,133.386887 3.294471,129.855835 2.929906,126.394447 
	C2.410180,121.459892 4.631860,118.146675 8.256546,115.296921 
	C22.908213,103.777664 36.928684,91.492188 51.347988,79.689278 
	C56.358437,75.587982 59.648090,70.370766 57.997139,63.528069 
	C56.379971,56.825397 52.111816,52.441818 45.268406,50.855782 
	C37.901028,49.148315 30.475266,53.413094 27.390400,61.055790 
	C24.095510,69.218834 24.090399,69.415749 15.102797,69.182259 
	C10.582029,69.064812 5.750834,70.699745 1.284204,67.272110 
	C1.000000,62.975456 1.000000,58.950912 1.000000,54.463184 
	C2.946574,48.947651 3.926355,43.596390 7.636971,39.176876 
	C15.999648,29.216543 26.273109,23.649359 39.369381,22.686274 
	C55.468704,21.502348 67.904335,27.939510 77.635963,40.119064 
	C89.494057,54.959969 89.422661,80.097382 76.113113,94.587044 
	C68.891678,102.448784 60.238201,108.695557 52.338203,115.633476 
	C52.459419,116.807594 53.264832,116.659767 53.845562,116.635551 
	C69.390465,115.987144 83.331184,103.263351 85.891678,87.863121 
	C86.712929,82.923622 86.649048,77.947006 87.517982,73.011658 
	C93.205666,40.706955 124.459740,17.351494 159.195068,23.565958 
	C170.995178,25.677109 181.288345,30.564775 189.813293,39.080666 
	C194.325241,43.587830 194.744156,43.512733 198.288940,38.299374 
	C208.669098,23.033030 222.322250,11.810557 239.384232,4.668381 
	C243.924881,2.767653 248.799561,2.784650 253.709839,1.241222 
	C260.021149,1.000000 266.042297,1.000000 272.531738,1.000000 
	C274.511780,2.248606 275.162170,3.855422 275.194183,5.812454 
	C275.270416,10.474671 275.294891,15.134735 275.164398,19.796705 
	C275.052338,23.801014 273.078156,25.817276 269.053009,26.213745 
	C264.590881,26.653250 260.155334,27.316418 255.842941,28.705462 
	C251.227081,30.192240 246.782516,32.018108 242.398575,34.560844 
	C260.466003,36.936150 274.815247,45.234936 284.430695,60.688004 
	C289.022095,68.066872 291.885559,76.174423 292.328430,85.092949 
	C293.259399,103.841263 309.517273,118.592628 327.878937,117.666344 
	C346.821777,116.710739 361.716980,100.736794 360.593536,81.817062 
	C359.798401,68.425865 352.879608,58.478920 340.568390,53.084942 
	C327.249359,47.249416 314.827911,49.778698 303.787354,59.035473 
	C297.929108,63.947178 296.526520,63.872326 293.041504,57.266762 
	C291.004791,53.406288 288.250244,50.070957 285.775879,46.530022 
	C282.732056,42.174206 282.910767,40.544930 286.644928,36.619781 
	C294.115112,28.767544 303.793671,25.193346 313.985657,23.183725 
	C329.721680,20.080952 344.788483,22.438034 358.653625,30.779890 
	C368.855896,36.918030 376.676971,45.324135 382.152679,55.971066 
	C384.193359,59.938877 384.297424,64.292778 385.757629,68.703552 
z"/>
<path fill="#000000" opacity="1.000000" stroke="none" 
	d="
M386.000000,68.531342 
	C384.669586,70.298897 384.277618,68.768906 384.122223,68.148125 
	C379.859955,51.121235 369.244080,39.057919 354.186005,30.884739 
	C347.976074,27.514124 341.060242,25.830067 333.852386,24.796314 
	C323.100586,23.254286 313.270050,25.455021 303.270538,28.816935 
	C296.369080,31.137257 291.207825,35.700684 285.783661,40.063690 
	C284.430939,41.151760 284.839478,42.278595 285.905670,43.381950 
	C291.047089,48.702621 294.759216,54.991280 297.999084,61.919399 
	C304.155426,54.117527 311.969391,49.440647 321.304047,48.115612 
	C332.493225,46.527325 343.113831,49.096008 351.328094,57.031731 
	C366.047028,71.251602 367.614532,91.713173 353.851227,107.507561 
	C337.063171,126.773064 307.062500,123.739998 293.656891,99.987000 
	C291.553040,96.259293 290.159027,91.838188 290.082153,87.488480 
	C289.674652,64.435722 273.337555,44.554634 251.689377,38.931587 
	C249.040176,38.243462 246.397583,37.403591 243.698120,37.071381 
	C241.107834,36.752609 238.447540,37.002514 234.918945,37.002514 
	C245.470566,28.867886 256.563599,24.572580 268.981567,24.107391 
	C272.272125,23.984123 273.204163,23.146551 273.070526,19.922138 
	C272.822449,13.936481 272.999359,7.933213 272.999634,1.468639 
	C309.411560,1.000000 345.823273,1.041967 382.234467,0.923828 
	C385.292419,0.913906 386.113556,1.536109 386.087952,4.717238 
	C385.918121,25.831257 386.000000,46.947300 386.000000,68.531342 
z"/>
<path fill="#000000" opacity="1.000000" stroke="none" 
	d="
M253.531342,1.000000 
	C254.563416,3.254591 252.866409,2.705585 251.650162,3.041122 
	C228.095428,9.539334 209.759369,23.025417 197.462936,44.244148 
	C195.448593,47.720078 194.290665,47.116863 192.231888,44.751415 
	C184.515244,35.885323 175.071335,29.740419 163.595749,26.924326 
	C142.966812,21.862013 124.385002,25.881491 108.469910,40.121906 
	C95.643188,51.598927 89.712372,66.125336 88.822945,83.434822 
	C87.653687,106.189995 68.508621,121.573402 44.948631,118.550110 
	C49.912075,114.499611 54.581886,110.828445 59.096573,106.975517 
	C68.645218,98.826500 78.844070,91.359718 82.466118,78.181107 
	C89.297333,53.326073 73.457642,28.942692 49.426323,25.257000 
	C28.486397,22.045437 10.300334,32.156971 3.016364,52.815308 
	C2.706241,53.694855 2.175985,54.169254 1.272298,54.338413 
	C1.000000,37.856472 1.120541,21.711351 0.907295,5.570642 
	C0.859577,1.958915 1.500232,0.886386 5.417884,0.893095 
	C87.965965,1.034444 170.514359,1.000000 253.531342,1.000000 
z"/>
<path fill="#000000" opacity="1.000000" stroke="none" 
	d="
M1.000000,67.468658 
	C7.665478,66.999367 14.331219,66.965897 20.996262,67.019402 
	C22.841431,67.034218 23.763498,66.885345 24.111874,64.480865 
	C25.514601,54.799282 32.864983,48.130398 41.635685,47.994213 
	C51.510693,47.840889 59.032753,54.675922 60.797478,64.201805 
	C62.262554,72.110184 57.454811,77.912155 51.663380,82.723541 
	C42.349236,90.461533 32.982063,98.135658 23.650747,105.853020 
	C19.230301,109.508904 15.096457,113.583740 10.357172,116.758888 
	C6.521156,119.328873 4.498089,122.078171 4.929963,126.801865 
	C5.277466,130.602753 5.237284,134.479935 4.928593,138.287552 
	C4.662642,141.567978 5.994389,142.083481 8.905681,142.060974 
	C25.401752,141.933441 41.923187,142.540604 58.388233,141.814590 
	C69.927788,141.305756 80.224464,136.516693 89.430000,129.207764 
	C100.345139,120.541466 106.987648,109.474342 110.489952,96.154503 
	C112.086945,90.080879 112.051476,83.852699 112.797371,77.725563 
	C114.457329,64.089989 128.821289,51.381874 141.530579,48.655556 
	C158.539902,45.006828 178.016312,57.847912 182.474060,72.926132 
	C188.942535,94.805626 176.480026,115.475365 154.843048,119.753555 
	C145.212570,121.657745 135.620071,119.577072 127.503105,113.080711 
	C125.297836,111.315742 122.811783,107.798920 121.520828,114.518021 
	C120.477882,119.946350 117.320679,125.018959 114.056068,129.724442 
	C112.883263,131.414871 113.012154,132.520691 115.128647,133.766006 
	C121.176483,137.324432 127.333199,140.532257 134.254715,141.949051 
	C135.355209,142.174301 136.050766,142.612823 136.336487,143.702652 
	C92.257294,144.000000 48.514503,143.965469 4.772071,144.074585 
	C1.726271,144.082184 0.890198,143.481293 0.911639,140.286804 
	C1.073498,116.171204 1.000000,92.054008 1.000000,67.468658 
z"/>
<path fill="#000000" opacity="1.000000" stroke="none" 
	d="
M160.468658,144.000000 
	C158.699707,143.091034 160.022583,142.375900 160.407852,142.299164 
	C174.577148,139.476746 185.954437,132.035904 195.159027,121.146919 
	C205.700424,134.069275 218.511429,141.665741 235.384598,142.107727 
	C247.394791,142.422333 258.354980,139.746231 268.111328,132.890289 
	C271.727905,130.348877 274.711792,126.861534 277.795044,123.625359 
	C279.426453,121.913078 280.509674,121.755760 282.148346,123.593269 
	C291.387177,133.953156 303.042358,139.927200 316.626678,142.346375 
	C317.024445,142.417221 317.326813,143.023911 317.336823,143.690384 
	C264.979095,144.000000 212.958206,144.000000 160.468658,144.000000 
z"/>
<path fill="#000000" opacity="1.000000" stroke="none" 
	d="
M336.468658,144.000000 
	C335.120941,142.429123 336.290649,142.229813 337.354980,142.035446 
	C361.244354,137.673340 376.339844,123.380920 383.918488,100.685646 
	C384.258240,99.668129 384.611572,98.911057 385.716370,98.660583 
	C386.000000,112.935211 385.893982,126.871895 386.087616,140.804413 
	C386.127258,143.658203 385.403168,144.102493 382.723694,144.075241 
	C367.462891,143.920074 352.199707,144.000000 336.468658,144.000000 
z"/>
<path fill="#309FEF" opacity="1.000000" stroke="none" 
	d="
M144.444168,144.000000 
	C146.379257,142.529953 148.858963,142.771545 151.685593,143.783722 
	C149.629440,144.000000 147.258896,144.000000 144.444168,144.000000 
z"/>
<path fill="#000000" opacity="1.000000" stroke="none" 
	d="
M267.005432,84.068130 
	C269.741791,94.115440 266.076599,102.105728 260.184418,109.205696 
	C253.597412,117.142906 244.765427,120.954979 234.545624,119.663513 
	C220.985077,117.949883 211.838959,109.966537 208.505753,96.820511 
	C204.063889,79.301857 216.102341,61.841301 234.657211,59.897099 
	C250.146881,58.274075 265.195251,70.030937 267.005432,84.068130 
z"/>
</svg>