<svg xmlns="http://www.w3.org/2000/svg" width="76" height="63" viewBox="0 0 76 63"><g transform="translate(-23769 4847)"><g transform="translate(22138.053 -4900)"><rect width="76" height="63" rx="8" transform="translate(1630.947 53)" fill="#073b4c"/></g><path d="M27.349,0A27.579,27.579,0,0,0,18.7,53.689c1.359.274,1.856-.593,1.856-1.322,0-.639-.045-2.828-.045-5.109C12.9,48.9,11.32,43.973,11.32,43.973,10.1,40.78,8.286,39.96,8.286,39.96c-2.49-1.688.181-1.688.181-1.688A5.735,5.735,0,0,1,12.679,41.1c2.445,4.2,6.384,3.011,7.969,2.281a5.87,5.87,0,0,1,1.721-3.695C16.3,39.047,9.916,36.675,9.916,26.092A10.786,10.786,0,0,1,12.723,18.7,10.021,10.021,0,0,1,13,11.4s2.309-.73,7.516,2.828a26.072,26.072,0,0,1,13.674,0C39.393,10.674,41.7,11.4,41.7,11.4a10.02,10.02,0,0,1,.272,7.3,10.579,10.579,0,0,1,2.807,7.389c0,10.583-6.384,12.909-12.5,13.594,1,.867,1.856,2.508,1.856,5.109,0,3.695-.045,6.66-.045,7.572,0,.73.5,1.6,1.856,1.323A27.58,27.58,0,0,0,27.349,0Z" transform="translate(23780 -4842)" fill="#fff" fill-rule="evenodd"/></g></svg>