<?xml version="1.0" encoding="utf-8" ?><svg xmlns="http://www.w3.org/2000/svg" xmlns:xlink="http://www.w3.org/1999/xlink" width="3072" height="1536" viewBox="0 0 3072 1536"><path fill="#ffffff" d="M0 0L3072 0L3072 1536L0 1536L0 0Z"/><path fill="#09090F" d="M1866.92 69.0862L2012.3 101.123C2036.65 106.643 2077.77 117.022 2100.92 120.606C2086.16 173.621 2077.37 232.08 2062.18 286.208L2445.49 286.583L2562.45 286.362C2581.51 286.333 2600.63 286.102 2619.7 286.641C2626.04 286.82 2631.49 290.412 2636.07 294.514C2642.22 300.013 2643.21 308.408 2643.47 316.413C2643.92 330.359 2643.64 344.568 2643.59 358.585L2643.43 432.13L2643.37 668.685L2643.56 1345.01C2643.33 1384.45 2604.59 1375.75 2577 1375.74L2490.45 1375.83L2219.76 1375.84L1400.36 1375.84L774.299 1375.81L565.851 1375.79C531.769 1375.78 497.452 1375.89 463.349 1375.67C454.829 1375.62 448.667 1371.35 443.189 1365.25C439.806 1361.48 438.39 1351.61 438.287 1346.59C437.835 1324.56 438.045 1302.06 438.051 1280.02L438.1 1152.64L438.122 1064.79C438.087 1052.26 436.71 1015.57 440.003 1005.89C442.362 1014.92 441.661 1075.06 441.678 1089.41L441.53 1291.79C441.442 1313.43 440.18 1336.35 442.967 1357.69C443.419 1361.15 449.331 1367.61 452.139 1368.84C468.18 1375.9 497.935 1372.65 515.289 1372.63L615.766 1372.74L941.534 1372.77L2243.88 1372.79L2526.35 1372.78C2544.87 1372.77 2563.86 1373.25 2582.35 1372.77C2605.1 1372.18 2640.35 1380.1 2640.37 1346.56C2640.4 1300.68 2640.39 1255.11 2640.43 1209.38L2640.41 900.82L2640.42 522.447C2640.45 455.165 2641.74 387.678 2640.58 320.424C2640.48 314.487 2639.99 307.589 2637.9 301.971C2636.17 297.305 2629.74 292.774 2625.13 291.118C2614.76 287.4 2490.48 289.62 2468.47 289.621L2061.02 289.284C2055 311.797 2048.43 327.702 2038.74 348.727L2020.8 345.05C2007.55 408.684 1991.44 471.994 1977.81 535.572C1973.69 554.788 1966.79 565.633 1946.75 570.621C1946.08 571.66 1945.49 572.629 1944.85 573.683C1958.22 579.726 1966.89 587.361 1972.12 601.396C1974.42 607.58 1977.03 617.907 1977.1 624.409C1977.36 649.103 1977.23 673.988 1977.22 698.676L1977.15 843.22L1977.18 1000.26C1977.18 1027.18 1977.26 1054.11 1977.04 1081.03C1976.99 1086.96 1976.22 1097.93 1973.78 1103.21C1966.62 1118.63 1950.81 1134.7 1932.86 1135.41L1931.8 1134.63C1936.17 1131.67 1942.36 1129.79 1947.08 1127.72C1958.27 1122.82 1971.69 1106.22 1973.01 1093.92C1975.01 1075.48 1974.06 1050.67 1974.02 1031.66L1973.99 908.616L1974 716.812L1974.08 656.342C1974.1 635.085 1977.16 615.789 1964.38 597.24C1944.15 567.87 1907.26 574.712 1875.17 575.02L1875.35 589.414L1802.44 589.183L1802.18 577.237L1439.42 577.277L1327.95 577.341C1313.43 577.326 1284.89 576.377 1271.23 577.391C1271.45 581.846 1271.53 585.815 1271.82 590.302L1198.53 590.365C1198.64 585.781 1198.71 581.149 1198.92 576.58C1181.37 577.246 1163.84 576.178 1146.22 576.815C1124.3 576.555 1101.07 599.257 1099.63 620.971C1098.29 641.304 1099.11 666.329 1099.13 687.339L1099.09 822.804L1099.17 999.942C1099.18 1029.01 1098.81 1058.94 1099.58 1087.76C1100.12 1108.07 1116.48 1126.82 1135.05 1131.37C1148.04 1134.56 1182.26 1133.2 1197.83 1133.16L1285.71 1133.12L1697.79 1133.18L1838.32 1133.16C1847.01 1133.16 1908.45 1131.92 1911.9 1134.8L1911.03 1136.04C1905.98 1136.81 1892.51 1136.45 1886.93 1136.44L1839.84 1136.36L1679.3 1136.37L1318.44 1136.38C1263.04 1136.36 1207.72 1136.3 1152.22 1136.51C1130.08 1137.62 1108.84 1125.04 1100.16 1104.46C1097.4 1097.91 1096.1 1090.42 1096 1083.14C1095.68 1057.59 1095.94 1031.65 1095.96 1006.13L1095.9 860.279L1095.93 692.067C1095.93 667.452 1095.82 642.738 1095.6 618.118C1095.55 612.754 1097.17 602.333 1099.41 597.42C1105.81 583.386 1114.72 577.415 1128.29 571.828C1098.23 563.46 1096.18 550.972 1089.9 522.543C1087.19 510.278 1084.01 497.226 1081.13 484.896L1051.4 359.012C1046.87 339.777 1039.95 306.282 1034.24 288.484C1030.65 286.145 979.948 288.153 969.492 286.824C989.025 285.64 1013.86 286.366 1033.92 286.248C1029.33 267.043 1024.66 247.81 1020.24 228.568C1015.51 207.963 1008.14 184.111 1020.29 164.754C1025.95 155.665 1035.03 149.233 1045.48 146.908C1052.42 145.409 1097.68 146.104 1107.96 146.13L1247.8 146.128L1845.99 146.102C1853.92 119.437 1860.85 96.2371 1866.92 69.0862Z"/><path fill="#ffffff" d="M1201.88 565.316C1207.12 565.293 1266.38 564.501 1267.51 565.659C1268.92 567.096 1268.21 573.229 1268.2 575.137C1268.64 574.515 1269.08 573.77 1269.63 573.269C1269.99 573.562 1269.79 575.225 1271.23 577.391C1271.45 581.846 1271.53 585.815 1271.82 590.302L1198.53 590.365C1198.64 585.781 1198.71 581.149 1198.92 576.58C1199.05 576.077 1199.12 575.513 1199.44 575.102C1201.13 574.895 1200.64 585.014 1201.19 587.367C1202.27 581.315 1201.88 571.833 1201.88 565.316Z"/><path fill="#09090F" d="M1268.2 575.137C1268.64 574.515 1269.08 573.77 1269.63 573.269C1269.99 573.562 1269.79 575.225 1271.23 577.391C1271.45 581.846 1271.53 585.815 1271.82 590.302L1198.53 590.365C1198.64 585.781 1198.71 581.149 1198.92 576.58C1199.05 576.077 1199.12 575.513 1199.44 575.102C1201.13 574.895 1200.64 585.014 1201.19 587.367L1268.13 587.278C1268.22 583.232 1268.24 579.184 1268.2 575.137Z"/><path fill="#F4F3F6" d="M1946.75 570.621C1946.08 571.66 1945.49 572.629 1944.85 573.683C1937.77 571.221 1940.38 571.16 1946.75 570.621Z"/><path fill="#ffffff" d="M1967.28 334.891C1957.68 377.347 1949.59 420.977 1939.96 463.389C1936.99 476.462 1929.03 520.577 1923.95 529.776C1912.36 531.52 1895.87 531.076 1883.91 531.099L1823.11 531.149L1611.74 531.14L1288.7 531.146L1200.63 531.136C1188.02 531.128 1161.67 531.782 1150.57 529.706C1146.61 526.856 1146.41 524.224 1145.21 519.343C1130.4 458.767 1116.06 397.992 1101.5 337.363L1082.68 259.202C1080.5 250.104 1068.88 207.906 1072.44 201.861C1082.11 198.536 1143.31 199.809 1157.08 199.801L1301.56 199.846L1652.68 199.814C1710.3 199.833 1768.5 199.36 1826.06 200.042C1820.97 215.876 1809.76 238.04 1801.83 252.647L1533.29 252.757C1518.49 252.755 1401.23 251.51 1395.39 254.472C1399.68 257.763 1768.54 255.805 1800.17 255.769C1797.38 261.339 1787.02 276.989 1786.72 280.875L1789.72 283.124C1788.54 286.596 1781.59 291.611 1778.49 293.955L1778.96 295.302L1782.04 296.172C1798.41 295.509 1856.76 311.803 1874.85 316.083C1905.48 323.23 1936.3 329.502 1967.28 334.891Z"/><path fill="#09090F" d="M1782.04 296.172C1771.16 296.057 1693 296.955 1688.73 294.553C1696.9 292.479 1771.59 291.473 1778.49 293.955L1778.96 295.302L1782.04 296.172Z"/><path fill="#09090F" d="M1293.81 377.423C1311.21 376.114 1345.33 377.116 1363.65 377.113L1503.29 377.121L1559.51 377.116C1565.88 377.11 1573.73 376.681 1580.09 377.254C1581.77 377.405 1581.45 377.837 1582.63 379.79C1566.5 380.86 1542.54 380.147 1525.67 380.145L1420.84 380.176L1337.26 380.2C1326.74 380.204 1304.32 380.798 1294.96 379.87L1293.81 377.423Z"/><path fill="#09090F" d="M1403.65 498.463C1409.56 497.493 1426.07 497.849 1433.08 497.847L1489.18 497.84L1604.62 497.861C1624.23 497.868 1643.94 497.808 1663.55 497.975C1668.1 498.013 1668.35 497.968 1670.77 500.554C1659.06 502.21 1636.18 501.028 1623.74 501.031L1535.32 501.043L1452.06 501.06C1438.17 501.065 1424.01 501.166 1410.1 500.929C1405.74 500.855 1406.4 500.849 1403.65 498.463Z"/><path fill="#09090F" d="M1621.18 377.471C1622.35 377.321 1623.51 377.197 1624.7 377.193C1684.85 376.955 1744.99 377.165 1805.14 377.083C1811.7 377.074 1818.27 376.857 1824.77 377.626C1825.43 378.264 1826.08 378.902 1826.74 379.541C1820.72 380.676 1771.56 380.147 1762.26 380.162C1717.88 380.237 1672.89 380.203 1628.46 380.093C1623.85 380.082 1623.65 380.13 1621.18 377.471Z"/><path fill="#09090F" d="M1165.02 253.472C1170.69 252.358 1221.97 252.804 1230.68 252.801L1306.55 252.796C1319.86 252.799 1333.36 252.728 1346.68 252.958C1350.93 253.031 1350.59 253.097 1352.8 255.524C1351.69 255.615 1350.32 255.8 1348.64 255.794C1288.19 255.586 1227.51 256.505 1167.11 255.445C1166.42 254.788 1165.72 254.13 1165.02 253.472Z"/><path fill="#09090F" d="M1616.3 416.488C1622.61 415.06 1677.49 415.6 1687.41 415.602L1769.72 415.649C1784.18 415.663 1798.83 415.633 1813.29 415.846C1817.95 415.915 1817.53 415.902 1819.86 418.537L1682.51 418.475C1673.75 418.48 1621.18 419.833 1616.3 416.488Z"/><path fill="#09090F" d="M1501.63 293.387C1512.91 291.751 1645.51 291.634 1654.34 293.477L1655.69 295.795C1646.85 296.442 1633.67 296.013 1624.33 296.023L1564.92 296.071C1545.44 296.085 1523.35 296.606 1503.9 295.592C1502.67 295.528 1502.76 294.931 1501.63 293.387Z"/><path fill="#09090F" d="M1339.29 337.445C1374.3 337.146 1409.32 337.059 1444.33 337.183C1454.65 337.17 1489.47 336.515 1497.27 337.761L1498.71 339.967C1469.41 341.792 1431.31 339.236 1401.07 340.289C1391.85 340.61 1346.39 340.764 1340.07 339.807L1339.29 337.445Z"/><path fill="#09090F" d="M1536.04 337.444C1584.75 335.853 1634.75 338.158 1683.56 337.255C1687.4 337.184 1688.84 337.001 1691.38 339.721C1681.69 341.042 1541.18 340.971 1536.64 339.704L1536.04 337.444Z"/><path fill="#09090F" d="M1224.61 498.473C1225.85 498.298 1227.09 498.153 1228.33 498.041C1239.88 496.965 1369.34 497.346 1371.43 498.305C1372.15 498.639 1372.66 499.325 1373.28 499.835C1370.15 501.202 1364.7 501.027 1361.26 501.011C1316.57 500.799 1271.76 501.734 1227.1 500.608C1227.1 500.608 1224.83 498.662 1224.61 498.473Z"/><path fill="#09090F" d="M1175.81 293.467C1176.8 293.285 1179.26 292.944 1181.11 292.945C1221.4 292.954 1262.15 292.101 1302.4 293.382C1303.1 294.002 1303.8 294.622 1304.5 295.242C1303.39 295.588 1300.66 296.068 1299.04 296.06C1258.84 295.879 1218.24 296.749 1178.11 295.527C1177.19 294.7 1176.42 294.014 1175.81 293.467Z"/><path fill="#09090F" d="M1809.32 451.516C1810.99 451.472 1810.57 451.597 1812.3 452.462L1812.33 454.11C1809.82 455.558 1704.05 454.868 1691.75 454.851C1690.78 454.821 1689.86 454.434 1688.87 454.134L1688.4 452.596C1691.21 451.02 1798.63 451.53 1809.32 451.516Z"/><path fill="#09090F" d="M1373.79 452.341C1385.74 449.628 1479.44 452.684 1497.74 451.801C1498.94 451.743 1499.09 453.108 1499.76 454.647C1461.41 456.689 1420.44 453.538 1381.78 454.787C1378.05 454.908 1376.29 454.973 1373.79 452.341Z"/><path fill="#09090F" d="M1529.62 452.471C1531.34 452.062 1533 451.765 1534.78 451.751C1569.17 451.502 1603.58 451.692 1637.97 451.591C1643.17 451.575 1651.81 450.522 1655.35 453.861C1652.24 455.079 1647.8 454.889 1644.47 454.869C1607.03 454.647 1569.5 455.449 1532.09 454.398C1532.09 454.398 1529.84 452.641 1529.62 452.471Z"/><path fill="#09090F" d="M1344.24 293.464C1345.66 293.271 1348.49 292.871 1350.49 292.884C1388.14 293.138 1426.31 291.959 1463.88 293.414C1464.8 294.262 1465.56 294.971 1466.18 295.541C1456.89 296.798 1431.65 295.916 1421.22 296.049C1398.26 296.342 1374.39 295.942 1351.32 296.003C1346.93 296.014 1346.61 295.976 1344.24 293.464Z"/><path fill="#09090F" d="M1215.91 452.445C1221.1 451.174 1251.46 451.649 1258.76 451.625C1282.48 451.547 1306.89 451.532 1330.65 451.652C1335.64 451.677 1335.45 451.776 1338.01 454.537C1334.08 454.899 1314.28 455.191 1310.81 454.833C1296.29 453.336 1223.42 457.755 1215.91 452.445Z"/><path fill="#09090F" d="M1185.03 337.434C1218.97 335.59 1255.3 338.312 1289.5 337.121C1294.11 336.961 1301.81 336.058 1304.49 339.693C1297.51 340.712 1187.87 340.554 1185.62 339.756L1185.03 337.434Z"/><path fill="#09090F" d="M1206.36 416.491C1207.8 416.223 1210.99 415.819 1213.6 415.827C1252.77 415.948 1292.33 414.974 1331.46 416.014C1332.12 416.639 1332.79 417.263 1333.45 417.888C1332.96 417.991 1332.47 418.094 1331.98 418.197C1292.04 419.075 1251.9 418.498 1211.92 418.3C1209.69 418.289 1208.08 417.632 1206.36 416.491Z"/><path fill="#09090F" d="M1454.79 416.478C1460.74 415.249 1490.35 415.714 1497.86 415.686C1523.07 415.589 1548.9 415.566 1574.17 415.694C1578.11 415.714 1578.43 415.747 1580.55 418.027C1568.25 419.15 1459.66 419.561 1454.79 416.478Z"/><path fill="#09090F" d="M1704.14 498.341C1712.23 497.152 1798.76 496.96 1805.31 498.605L1806.41 500.594C1797.62 501.619 1713.61 501.941 1705.42 500.329L1704.14 498.341Z"/><path fill="#09090F" d="M1729.92 337.443C1748.35 337.249 1766.78 337.161 1785.21 337.182C1793 337.169 1808.41 336.744 1815.6 337.661L1816.98 339.629C1808.03 340.825 1737.32 341.112 1730.69 339.527L1729.92 337.443Z"/><path fill="#09090F" d="M1198.25 377.393C1213.45 376.13 1240.03 377.666 1256.38 377.23C1257.13 377.21 1257.94 379.122 1258.21 379.634C1248.94 380.816 1211.01 380.184 1199.22 379.732C1198.7 379.712 1198.36 377.866 1198.25 377.393Z"/><path fill="#09090F" d="M1366.68 416.418C1378.25 414.495 1405.93 416.264 1418.98 415.729C1420.06 415.685 1420.84 417.085 1421.46 417.927C1407.71 419.477 1383.78 417.789 1369.01 418.38C1367.98 418.421 1367.27 417.181 1366.68 416.418Z"/><path fill="#553C9A" d="M1869.27 72.832C1927.69 86.7097 1987.27 97.7063 2045.72 111.725C2062.56 115.766 2080.19 119.9 2097.18 123.029C2092.75 137.886 2089.54 153.635 2085.37 168.622C2070.56 221.863 2053.74 283.671 2027.93 332.554L2021.32 331.717C2013.37 329.812 2004.88 328.194 1996.83 326.732C1927.1 314.07 1858.99 296.058 1790.25 279.007C1825.92 225.589 1854.52 135.033 1869.27 72.832Z"/><path fill="#ffffff" d="M1052.59 149.467L1844.76 149.286L1840.92 161.579C1811.17 162.578 1778.03 161.946 1747.99 161.968L1576.67 161.958L1052.12 161.67C1052 156.766 1052.08 154.376 1052.59 149.467Z"/><path fill="#ffffff" d="M1805.49 564.782C1827.68 565.052 1849.87 565.087 1872.06 564.887C1872.11 571.968 1872.12 579.05 1872.09 586.132L1805.21 586.091C1805.42 578.756 1805.49 572.156 1805.49 564.782Z"/><path fill="#F4F3F6" d="M1042.07 151.104C1051.3 150.307 1048.94 151.687 1048.94 161.341C1035.78 165.338 1030.34 166.484 1021.09 177.68C1020.39 178.727 1018.33 182.149 1017.52 182.759L1017.38 182.686C1016.82 180.903 1018.54 175.42 1019.26 173.561C1023.57 162.389 1031.58 155.839 1042.07 151.104Z"/><path fill="#09090F" d="M2319.58 810.334C2399.91 804.472 2462.81 849.26 2479.51 929.017C2494.53 929.092 2538.31 925.702 2543.93 934.625C2576.14 985.84 2491.92 974.214 2478.58 974.18C2472.65 1005.04 2461.31 1021.23 2442.57 1044.45C2426.7 1064.13 2425.05 1068.61 2403.28 1084.24C2387.57 1094.02 2372.38 1100.13 2353.9 1102.7C2319.99 1107.54 2285.56 1098.45 2258.45 1077.5C2243.04 1065.69 2242.01 1060.99 2231.32 1047.53C2210.85 1021.77 2196.69 1000.95 2192.27 967.002C2187.77 931.069 2197.74 894.823 2219.97 866.235C2244.85 834.031 2279.43 815.426 2319.58 810.334Z"/><path fill="#ffffff" d="M2318.9 811.3C2394.98 801.811 2464.38 855.715 2474.01 931.779C2483.64 1007.84 2429.87 1077.34 2353.83 1087.12C2277.58 1096.92 2207.85 1042.97 2198.2 966.703C2188.54 890.437 2242.62 820.814 2318.9 811.3Z"/><path fill="#09090F" d="M2319.29 826.636C2387.11 817.389 2449.54 865.023 2458.53 932.884C2467.52 1000.74 2419.64 1062.99 2351.75 1071.71C2284.22 1080.39 2222.39 1032.83 2213.45 965.342C2204.51 897.848 2251.83 835.834 2319.29 826.636Z"/><path fill="#ffffff" d="M2426.51 913.393C2435.51 912.36 2444.48 913.402 2453.4 914.48C2461.08 943.075 2460.66 970.122 2447.79 997.319C2433.89 1026.96 2408.58 1049.7 2377.63 1060.37C2344.91 1071.78 2310.62 1069.26 2279.53 1054.24C2257.03 1041.57 2244.35 1031.73 2230.66 1009.39L2231.28 1008.66C2255.87 979.697 2284.12 983.241 2315.5 970.359C2323.52 967.069 2334.67 954.755 2341.6 948.872C2366.71 927.548 2393.57 916.379 2426.51 913.393Z"/><path fill="#ffffff" d="M2480 932.221C2491.58 932.18 2533.3 929.054 2541.47 936.325C2544.81 939.295 2546.67 944.091 2546.94 948.484C2547.44 956.614 2546.22 961.297 2540.74 967.392C2529.04 973.855 2493.93 970.698 2479.02 970.863C2481.79 955.797 2481.46 947.244 2480 932.221Z"/><path fill="#09090F" d="M386.807 661.516C401.974 659.502 420.769 655.592 436.094 652.81L523.896 636.785C544.567 632.961 570.779 628.822 590.773 623.695C597.689 621.922 625.313 603.929 632.745 599.468L714.501 550.643C720.379 563.479 732.981 584.611 740.24 597.233C777.186 589.914 815.23 583.913 852.486 576.607L893.293 794.187C902.719 844.586 912.016 899.903 922.885 949.666C930.885 939.719 950.632 916.06 963.406 911.633C969.523 909.512 975.491 919.419 971.339 926.365C968.04 931.883 964.053 936.953 959.84 942.456L970.585 952.425C958.997 965.773 947.571 980.396 936.442 994.207C940.066 1012.67 949.365 1025.31 958.744 1041.21C970.024 1060.33 981.402 1079.4 992.88 1098.4C982.627 1103.45 969.489 1111.38 959.143 1117.11C962.473 1137.03 966.174 1156.89 970.245 1176.66C960.227 1177.79 923.666 1185.47 916.7 1185.23C922.028 1180.58 956.712 1175.64 966.392 1173.79C960.252 1142.91 954.413 1111.96 948.878 1080.96C943.71 1053.08 938.007 1025.23 934.035 997.161C929.347 1003.06 918.254 1018.47 912.432 1021.88C911.593 1021.69 909.114 1021.11 908.464 1021.34C901.338 1025.85 889.532 1043.76 884.749 1050.83C860.671 1086.47 842.522 1111.64 809.123 1138.99C781.497 1161.6 774.143 1173.53 738.908 1187.26C743.634 1174.25 747.535 1163.19 754.708 1151.23C759.707 1142.89 788.283 1113.02 789.058 1107.06L784.142 1102.49C801.918 1079.44 819.346 1055.34 837.443 1032.74L849.784 1039.24C872.586 1009.86 896.019 980.97 920.067 952.596L849.839 580.379L390.33 664.265L420.972 830.449C423.961 846.598 434.689 899.142 434.647 912.738L433.733 912.093C430.958 906.084 426.152 875.448 424.607 867.231C416.497 824.903 408.76 782.504 401.398 740.039C378.958 754.81 354.057 767.912 331.143 782.455C335.821 790.306 340.537 798.503 345.004 806.483C392.003 890.449 442.602 972.997 489.401 1056.99C490.564 1057.55 491.676 1058.12 492.824 1058.71C489.61 1047.42 486.67 1028.41 484.476 1016.41L470.931 941.978C469.563 934.425 462.02 896.484 463.431 892.421L464.621 892.834C467.044 898.328 469.144 914.924 470.477 922.258L481.591 982.152C497.87 1071.16 513.455 1164.05 531.427 1252.5C559.147 1246.91 588.607 1242.15 616.621 1237.07L793.369 1205.36L855.98 1194.19C862.093 1193.09 880.911 1189.26 886.091 1189.4L886.87 1190.5C881.888 1194.94 775.398 1209.79 760.677 1214.96C745.949 1220.13 726.904 1231.72 712.588 1239.15C671.605 1260.42 631.192 1282.8 590.194 1303.91C580.611 1286.12 571.248 1268.22 562.107 1250.2C551.14 1251.96 539.887 1254.12 528.926 1256.08C516.532 1196.15 507.008 1134.23 494.65 1074.24C493.386 1068.1 481.031 1048.45 477.014 1041.57L448.533 992.541L326.782 780.795C350.712 767.668 377.142 751.248 400.73 737.1C395.609 713.018 391.229 685.956 386.807 661.516Z"/><path fill="#8B8A8E" d="M489.401 1056.99C490.564 1057.55 491.676 1058.12 492.824 1058.71C492.877 1059.23 493.318 1061.28 492.351 1061.38C491.129 1060.77 489.945 1058.21 489.401 1056.99Z"/><path fill="#ffffff" d="M738.747 1218.31C741.353 1217.9 741.521 1217.39 743.385 1218.37C737.482 1224.56 608.289 1290.91 591.446 1299.54L585.597 1288.69C578.7 1275.77 571.974 1262.75 565.421 1249.65C622.864 1238.64 681.128 1228.56 738.747 1218.31Z"/><path fill="#ffffff" d="M867.439 1022.59C871.551 1024.55 884.586 1035.79 888.729 1039.23C880.279 1052.01 869.854 1065.96 861.077 1078.52C856.397 1085.22 843.333 1103.92 837.994 1108.93C821.645 1124.28 803.426 1139.46 786.609 1154.59C781.86 1154.32 771.527 1144.04 767.424 1140.4C775.171 1131.06 783.503 1118.96 792.196 1110.61C793.661 1109.2 794.811 1109.9 797.282 1110.24C801.088 1108.88 859.575 1032.12 867.439 1022.59Z"/><path fill="#ffffff" d="M607.276 618.673C641.339 597.196 678.575 575.438 713.423 555.208C720.802 569.113 728.914 584.506 736.879 598.099L611.52 620.637C610.083 620.873 604.312 622.12 603.487 621.252C603.714 619.894 606.165 619.118 607.276 618.673Z"/><path fill="#F4F3F6" d="M607.276 618.673L611.52 620.637C610.083 620.873 604.312 622.12 603.487 621.252C603.714 619.894 606.165 619.118 607.276 618.673Z"/><path fill="#ffffff" d="M942.622 931.658C946.23 934.449 952.664 940.977 956.185 944.351C940.594 965.973 919.416 989.195 902.409 1010.99L886.957 998.059C891.119 991.919 900.404 981.272 905.427 975.271C917.669 960.601 930.068 946.063 942.622 931.658Z"/><path fill="#F4F3F6" d="M940.261 1016.81C944.66 1020.65 982.611 1087.51 988.071 1097.4L977.46 1103.27L958.343 1113.82C951.743 1085.15 945.843 1046.73 940.261 1016.81Z"/><path fill="#ffffff" d="M838.433 1036.74C841.632 1038.41 844.966 1040.04 848.19 1041.69C831.472 1062.78 814.147 1086.74 796.983 1107.02C794.152 1105.74 790.989 1103.86 788.321 1102.24C802.876 1082.99 823.602 1054.52 838.433 1036.74Z"/><path fill="#ffffff" d="M959.069 946.006C961.376 948.128 963.757 950.219 966.084 952.33C948.703 974.847 929.623 996.675 912.27 1019.02L904.989 1012.6C923.019 991.682 941.67 967.567 959.069 946.006Z"/><path fill="#ffffff" d="M961.594 913.543C979.709 916.576 963.023 933.432 957.315 940.498C953.704 937.012 950.049 933.573 946.352 930.179C951.553 924.547 956.201 919.077 961.594 913.543Z"/><path fill="#ffffff" d="M884.375 1000.51L905.873 1017.87L898.761 1026.36C892.782 1023.33 883.104 1014.02 877.858 1009.21C880.096 1006.15 882.008 1003.5 884.375 1000.51Z"/><path fill="#F4F3F6" d="M765.294 1143.66C767.14 1144.36 779.579 1155.22 782.894 1157.72C780.474 1159.96 777.995 1162.14 775.461 1164.25C771.907 1166.84 761.643 1155.26 758.337 1152.19C760.739 1149.13 762.758 1146.61 765.294 1143.66Z"/><path fill="#F4F3F6" d="M765.121 1162.35C766.627 1163.53 769.715 1165.71 770.357 1167.6C770.255 1168.03 770.368 1167.81 769.866 1168.17C761.109 1165.4 745.946 1146.96 762.988 1160.72C764.331 1161.4 764.343 1161.26 765.121 1162.35Z"/><path fill="#09090F" d="M1445.6 993.171C1504.13 991.628 1564.08 993.707 1622.58 993.317C1651.36 995.873 1653.46 1021.96 1652.14 1043.79C1650.36 1073.24 1660.54 1100.38 1624.81 1110.6C1610.38 1111.38 1594.15 1110.83 1579.55 1110.82C1535.67 1110.77 1491.69 1111.22 1447.83 1110.49C1429.33 1110.18 1416.1 1090.73 1418.14 1073.75C1421.96 1042.03 1405.18 1004.34 1445.6 993.171Z"/><path fill="#ffffff" d="M1445.25 996.263C1503.49 995.619 1562.08 996.391 1620.34 996.399C1624.11 996.4 1629.27 997.484 1632.66 999.008C1639.1 1001.93 1644.11 1007.29 1646.58 1013.91C1649.79 1022.45 1651.2 1082.02 1645.32 1092.35C1640.1 1101.51 1634.56 1104.23 1625.29 1107.13C1619.76 1107.48 1613.93 1107.38 1608.36 1107.39C1556.17 1107.46 1503.94 1108.05 1451.74 1107.39C1447.6 1107.34 1442.63 1106.71 1438.79 1105.15C1432.16 1102.44 1426.9 1097.19 1424.18 1090.56C1420.25 1080.76 1419.85 1023.45 1424.51 1012.27C1428.32 1003.13 1436.43 999.416 1445.25 996.263Z"/><path fill="#09090F" d="M591.824 728.137C599.711 727.465 604.915 727.452 612.446 730.151C622.526 733.702 630.776 741.122 635.372 750.77C641.064 762.843 639.905 773.74 635.604 785.829L772.952 835.605C792.308 793.114 846.52 802.502 851.546 842.603C853.025 853.714 849.987 864.953 843.114 873.806C826.492 895.145 801.898 892.748 782.425 876.906C741.51 913.419 698.942 954.121 658.764 991.655C660.98 995.095 662.57 997.677 664.119 1001.5C668.344 1011.89 668.181 1023.56 663.667 1033.83C658.554 1045.33 650.379 1051.59 638.942 1055.86C612.951 1061.93 589.352 1049.16 586.469 1021.4C585.367 1010.28 588.81 999.182 596.014 990.637C613.234 969.978 637.333 972.668 656.402 989.016C669.818 977.486 684.251 963.486 697.413 951.336L780.174 874.671C771.521 861.697 770.469 853.963 772.072 838.87C730.165 821.712 677.17 804.173 634.156 788.721C627.516 797.487 620.348 804.269 609.499 807.431C599.358 810.407 588.444 809.149 579.246 803.945C569.64 798.449 562.601 789.374 559.665 778.704C556.866 768.197 558.371 757.007 563.846 747.613C570.371 736.493 579.72 731.184 591.824 728.137Z"/><path fill="#ffffff" d="M624.458 979.674C644.991 978.494 662.643 994.072 664.025 1014.59C665.408 1035.11 650.005 1052.92 629.499 1054.5C608.706 1056.11 590.596 1040.44 589.194 1019.63C587.792 998.825 603.637 980.871 624.458 979.674Z"/><path fill="#ffffff" d="M805.36 811.562C825.816 808.025 845.248 821.8 848.684 842.274C852.12 862.747 838.25 882.111 817.759 885.445C797.411 888.757 778.212 875.004 774.8 854.673C771.388 834.342 785.046 815.075 805.36 811.562Z"/><path fill="#ffffff" d="M591.14 731.59C604.337 728.842 617.992 733.403 626.889 743.531C635.786 753.658 638.549 767.787 634.124 780.52C629.699 793.253 618.768 802.623 605.509 805.05C585.349 808.74 565.971 795.531 562.037 775.418C558.103 755.305 571.076 735.768 591.14 731.59Z"/><path fill="#09090F" d="M1400.58 926.089C1416.32 925.457 1435.75 925.966 1451.69 925.951L1549.91 925.871C1565.41 925.861 1644.78 923.908 1655.73 927.166C1661.04 933.582 1661.19 964.043 1656.13 969.921C1641.54 971.823 1405.05 970.574 1401.18 969.139C1396.02 962.657 1395.96 932.167 1400.58 926.089Z"/><path fill="#ffffff" d="M1401.68 929.125C1479.37 929.033 1557.07 928.974 1634.76 929.032C1639.48 929.036 1651.35 928.184 1654.34 931.083C1656.81 937.712 1656.85 960.753 1654.81 967.024C1633.14 967.026 1405.78 968.101 1402.67 965.749C1399.94 959.459 1400.07 935.317 1401.68 929.125Z"/><path fill="#09090F" d="M1818.18 873.254C1857.46 874.204 1897.23 872.205 1936.52 873.554C1938.94 873.637 1940.41 874.078 1942.19 875.626C1945.18 880.264 1945.03 885.666 1944.5 890.986C1943.66 899.56 1947.68 911.724 1941.14 918.301C1928.48 919.088 1821.82 919.05 1817.1 916.443C1813.84 911.451 1814.23 904.952 1814.72 899.169C1815.43 890.7 1811.82 879.688 1818.18 873.254Z"/><path fill="#ffffff" d="M1819.62 876.377C1856.3 878.015 1903.12 876.199 1941.05 876.807C1941.28 884.718 1942.37 908.604 1940.25 915.185C1899.62 915.087 1858.56 915.469 1817.96 914.985C1817.82 907.932 1816.11 880.589 1819.62 876.377Z"/><path fill="#09090F" d="M1146.22 873.23C1159.3 873.298 1247.87 872.146 1255.15 874.852C1258.45 879.919 1257.5 887.663 1257.21 893.579C1256.76 902.534 1260.05 912.041 1253.01 918.758C1240.67 918.75 1149.19 919.891 1144.44 917.031C1140.45 911.114 1141.95 902.976 1141.99 896.045C1142.03 887.667 1139.13 879.006 1146.22 873.23Z"/><path fill="#ffffff" d="M1147.68 876.398C1182.56 875.958 1219.34 876.659 1254.43 876.666C1254.32 887.34 1255.26 901.702 1253.65 912.201C1253.32 914.395 1251.71 914.753 1249.84 915.75C1237.05 915.443 1150 916.725 1146.2 913.723C1143.89 907.804 1145.42 893.987 1144.8 886.962C1144.36 881.938 1144.56 879.632 1147.68 876.398Z"/><path fill="#09090F" d="M1144.66 823.042C1159.55 822.229 1181.01 823.179 1196.26 822.831C1205.85 822.613 1238.79 822.209 1246.84 824.133C1252.11 828.887 1251.17 861.526 1246.91 867.656C1236.29 868.946 1148.17 868.382 1144.29 866.164C1140.06 860.028 1142.05 850.321 1141.92 842.999C1141.79 836.186 1140.31 828.659 1144.66 823.042Z"/><path fill="#ffffff" d="M1145.82 826.072C1179.31 825.931 1212.8 825.962 1246.3 826.164C1246.79 834.079 1247.85 857.868 1245.31 864.729C1240.42 865.027 1235.2 864.998 1230.29 864.914C1202.08 864.432 1173.49 865.461 1145.32 864.414C1145.1 856.696 1144.15 832.626 1145.82 826.072Z"/><path fill="#09090F" d="M1930.96 822.917C1934.34 823.099 1936.59 823.162 1940.02 823.07C1941.71 823.862 1942.35 824.788 1943.65 826.153C1945.57 831.241 1946.36 862.985 1941.45 866.821C1931.14 869.199 1850.94 869.113 1841.96 865.253C1839.35 860.304 1839.34 828.752 1842.46 824.952C1848.36 821.348 1918.09 823.393 1930.96 822.917Z"/><path fill="#ffffff" d="M1844.14 826.076L1941.19 826.228C1941.34 833.658 1942.34 858.79 1939.96 864.695C1927.8 865.04 1852.17 865.66 1844.93 863.264C1842.3 857.389 1842.92 832.495 1844.14 826.076Z"/><path fill="#09090F" d="M1860.21 717.357C1872.87 717.307 1934.81 715.573 1942.02 719.522C1945.01 723.848 1945.05 729.466 1944.57 734.544C1943.69 744.053 1948.32 755.513 1940.67 762.614C1928.07 762.634 1864.6 764.416 1858.1 760.165C1855.07 754.805 1855.51 747.854 1855.98 741.832C1856.66 732.988 1852.5 723.354 1860.21 717.357Z"/><path fill="#ffffff" d="M1859.24 720.901C1878.05 719.96 1922.47 719.959 1941.16 720.969C1941.81 728.927 1942.49 752.27 1940.56 759.322C1929.33 760.007 1866.74 760.297 1860.45 757.324C1857.65 751.569 1858.91 728.371 1859.24 720.901Z"/><path fill="#09090F" d="M1145.43 775.028C1157.27 774.969 1220.32 773.446 1227.08 776.612C1230.55 781.212 1230.42 786.88 1230 792.42C1229.29 801.887 1233.07 812.228 1226.19 819.696C1211.81 819.814 1152.7 821.485 1144.31 818.017C1141.27 813.925 1141.6 807.057 1141.98 802.093C1142.67 793.018 1138.93 782.141 1145.43 775.028Z"/><path fill="#ffffff" d="M1146.22 778.127C1172.92 777.957 1199.62 777.993 1226.32 778.234C1227.15 785.548 1227.95 810.215 1225.75 816.534C1200.93 817.107 1169.87 817.319 1145.18 816.472C1144.95 808.707 1143.8 784.756 1146.22 778.127Z"/><path fill="#09090F" d="M1681.26 926.145L1725.13 926.123C1733.17 926.111 1753.54 922.484 1751.15 934.674C1749.06 945.337 1755.71 963.483 1746.75 970.54C1729.06 971.061 1711.07 970.472 1693.47 970.727C1683.86 971.15 1675.05 971.398 1676.98 958.719C1678.6 948.042 1672.87 933.73 1681.26 926.145Z"/><path fill="#ffffff" d="M1681.17 929.236C1700.43 929.136 1729.72 928.378 1747.93 929.513C1748.21 937.02 1749.11 961.908 1746.55 967.493C1725.44 967.37 1703.93 967.8 1682.92 967.04C1678.06 966.864 1680.14 932.378 1681.17 929.236Z"/><path fill="#09090F" d="M1907.44 820.056C1901.3 819.762 1881.1 821.794 1877.36 817.701C1873.42 813.4 1874.79 788.202 1875.31 781.472C1875.46 779.499 1876.02 777.869 1877.56 776.589C1880.97 773.774 1932.26 774.315 1939.01 775.155C1940.88 775.387 1942.34 775.995 1943.4 777.558C1945.59 780.787 1945.27 810.541 1944.27 815.001C1943.82 816.999 1942.63 818.427 1940.87 819.434C1940.7 819.532 1940.52 819.618 1940.35 819.717C1939.86 820.004 1939.38 820.312 1938.89 820.611C1939.25 821.553 1939.57 822.173 1940.02 823.07C1936.59 823.162 1934.34 823.099 1930.96 822.917C1929.68 818.773 1910.47 824.231 1907.44 820.056Z"/><path fill="#F4F3F6" d="M1907.44 820.056C1911.58 819.587 1935.53 819.451 1938.89 820.611C1939.25 821.553 1939.57 822.173 1940.02 823.07C1936.59 823.162 1934.34 823.099 1930.96 822.917C1929.68 818.773 1910.47 824.231 1907.44 820.056Z"/><path fill="#ffffff" d="M1879.96 778.173C1897.8 778.076 1924.09 777.388 1941.3 778.393C1941.69 785.484 1942.11 810.497 1940.61 816.725C1924.12 817.034 1894.57 817.534 1878.9 816.44C1878.5 810.172 1877.73 783.34 1879.96 778.173Z"/><path fill="#09090F" d="M1319.35 926.186C1327.64 926.108 1378.21 923.933 1382.97 928.01C1384.15 929.021 1384.44 931.084 1384.54 932.538C1384.99 939.445 1385.79 959.034 1384.27 964.989C1383.72 967.175 1382.06 968.741 1380.61 970.372C1369.97 970.925 1331.45 970.922 1319.42 969.163C1318.1 968.598 1316.32 965.65 1316.44 964.418C1317.52 953.908 1313.1 934.424 1319.35 926.186Z"/><path fill="#ffffff" d="M1320.27 929.164C1340.14 928.963 1361.52 928.923 1381.32 929.254C1381.67 936.575 1381.88 959.979 1381.08 966.538C1376.54 967.32 1323.53 968.501 1320.36 965.591C1319 964.35 1319.28 933.863 1320.27 929.164Z"/><path fill="#09090F" d="M1835.48 921.78C1847.74 921.497 1875.81 921.732 1888.84 922.303C1889.67 922.497 1891.91 924.719 1891.88 925.467C1891.51 936.868 1895.02 961.686 1889.57 971.054C1872.71 971.085 1853.38 971.542 1836.75 970.35C1829.9 969.859 1831.96 927.969 1835.48 921.78Z"/><path fill="#ffffff" d="M1835.94 944.094L1889.09 944.177C1889.09 950.613 1889.5 961.641 1888.61 967.657C1875.2 967.999 1848.99 968.311 1836.22 967.367C1835.71 960.025 1835.84 951.521 1835.94 944.094Z"/><path fill="#ffffff" d="M1836.14 925.004L1889.04 925.075C1889.12 930.366 1889.13 935.657 1889.05 940.948L1835.98 940.977C1835.95 935.773 1835.77 930.155 1836.14 925.004Z"/><path fill="#09090F" d="M1034.24 288.484C1026.14 291.143 941.868 289.613 928.454 289.621L613.116 289.647L517.029 289.487C499.881 289.413 482.57 289.232 465.604 289.51C456.65 289.656 443.909 296.072 442.73 304.928C440.52 321.531 441.443 342.473 441.489 359.116L441.47 515.554L441.443 556.764C441.454 560.95 442.617 576.909 439.533 579.076C439.115 578.543 438.698 578.011 438.28 577.478C438.127 490.392 437.874 403.269 438.214 316.186C438.221 312.221 439.097 308.466 439.712 304.603C441.283 294.732 453.652 286.822 463.163 286.653C489.353 286.19 515.666 286.403 541.893 286.413L707.161 286.568L884.622 286.466C907.945 286.487 947.502 285.233 969.492 286.824C979.948 288.153 1030.65 286.145 1034.24 288.484Z"/><path fill="#09090F" d="M1145.19 926.066C1151.04 926.038 1195.02 924.791 1196.27 927.749C1199.31 934.97 1200.85 963.726 1194.29 970.637C1187.25 970.871 1140.2 974.81 1141.88 964.05C1143.54 953.411 1138.58 933.922 1145.19 926.066Z"/><path fill="#ffffff" d="M1146.03 929.127C1160.8 929.043 1180.48 928.539 1194.91 929.207C1195.27 937.073 1195.79 960.467 1194.05 967.262C1188.28 967.261 1145.91 969.068 1145.57 965.085C1144.98 958.187 1144.08 935.508 1146.03 929.127Z"/><path fill="#09090F" d="M1426.25 820.272C1429.14 819.667 1461.31 819.446 1464.45 820.028C1467.84 823.341 1477.56 820.759 1483.3 822.166C1485.09 823.379 1488.97 825.357 1488.71 827.509C1485.84 851.75 1501.7 873.462 1465.5 868.122C1458.18 867.042 1435.84 871.875 1436.72 861.519C1437.39 853.672 1433.96 827.188 1439.81 823.601L1441.97 822.282C1436.97 819.562 1429.59 822.522 1426.25 820.272Z"/><path fill="#F4F3F6" d="M1426.25 820.272C1429.14 819.667 1461.31 819.446 1464.45 820.028C1467.84 823.341 1477.56 820.759 1483.3 822.166C1477.67 823.3 1447.78 823.501 1441.97 822.282C1436.97 819.562 1429.59 822.522 1426.25 820.272Z"/><path fill="#ffffff" d="M1440.7 826.126C1455.49 826.105 1470.75 825.945 1485.51 826.148C1485.91 833.453 1486.59 858.906 1484.52 864.676C1479.78 864.926 1441.08 866.444 1440.6 862.917C1439.69 856.259 1439.06 832.314 1440.7 826.126Z"/><path fill="#09090F" d="M1509.08 873.222C1516.14 873.244 1553.39 871.622 1556.38 875.633C1558.49 878.463 1560.68 912.709 1553.95 918.806C1545.74 918.895 1511.8 920.642 1507.01 916.496C1504.6 914.417 1502.97 879.24 1509.08 873.222Z"/><path fill="#ffffff" d="M1508.81 876.759C1522.82 876.608 1540.91 876.206 1554.62 876.84C1555.04 884.506 1555.38 908.404 1554.12 915.361C1549.09 915.663 1510.15 917.045 1509.54 914.093C1507.97 906.569 1508.15 884.909 1508.81 876.759Z"/><path fill="#09090F" d="M1146.95 717.265C1160.45 717.276 1174.07 717.062 1187.51 717.314C1195.96 717.724 1195.71 727.048 1194.95 733.097C1193.66 743.451 1198.74 755.923 1189.95 762.634C1176.22 762.676 1161.07 762.693 1147.03 762.329C1137.45 762.081 1143.25 728.426 1142.21 722.007C1141.96 720.461 1145.65 717.965 1146.95 717.265Z"/><path fill="#ffffff" d="M1146.13 720.774C1158.68 720.473 1179.08 720.23 1191.43 720.939C1191.94 729.306 1192.4 751.723 1190.33 759.248C1186.71 759.43 1146.09 760.829 1145.66 757.435C1144.72 750.035 1143.94 727.449 1146.13 720.774Z"/><path fill="#09090F" d="M1319.53 823.132C1325.73 822.901 1370.53 819.788 1369.66 827.98C1368.45 839.302 1372.62 858.616 1366.84 867.712C1360.72 868.503 1316.4 871.823 1317.15 862.511C1317.98 852.227 1313.97 831 1319.53 823.132Z"/><path fill="#ffffff" d="M1321.05 826.062C1335.07 825.967 1352.57 825.71 1366.4 826.257C1366.64 833.452 1366.94 858.686 1365.45 864.655C1360.91 864.983 1320.68 866.662 1320.47 862.588C1320.13 856.11 1318.94 832.045 1321.05 826.062Z"/><path fill="#09090F" d="M1559.47 823.203C1573.12 823.02 1593.2 822.132 1605.99 824.241C1610.43 824.973 1610.25 861.242 1605.46 868.122C1604.15 868.204 1602.83 868.267 1601.51 868.312C1596.03 868.464 1559.8 869.495 1557.84 866.167C1554.81 861.044 1553.27 829.319 1559.47 823.203Z"/><path fill="#ffffff" d="M1560.09 826.218C1574.18 826.215 1591.64 825.349 1605.4 826.679C1605.39 834.903 1606.19 858.476 1603.92 864.96C1599.18 865.019 1559.9 866.549 1559.6 862.792C1559.1 856.461 1557.81 831.932 1560.09 826.218Z"/><path fill="#09090F" d="M1630.1 873.327C1637.4 873.332 1673.35 871.911 1676.31 875.71C1678.58 878.615 1681.09 913.036 1673.96 918.917C1667.19 919.04 1630.56 920.268 1627.89 917.099C1624.84 913.479 1622.67 879.393 1630.1 873.327Z"/><path fill="#ffffff" d="M1629.23 876.931C1640.25 876.121 1663.05 876.428 1674.58 876.678C1675.07 883.991 1675.45 908.579 1674.07 915.46C1667.42 916.062 1634.23 917.091 1629.8 914.078C1628.23 913.005 1628.82 881.108 1629.23 876.931Z"/><path fill="#09090F" d="M1682.19 717.29C1695.54 717.131 1710.32 717.319 1724.02 717.154C1734.57 717.027 1728.31 750.09 1729.55 756.706C1729.94 758.789 1726.81 761.62 1725.18 762.711C1711.63 762.8 1698.01 762.762 1684.49 762.641C1678.94 761.879 1677.19 758.184 1677.27 753.013C1677.42 743.141 1677.08 733.367 1677.39 723.536C1677.48 720.734 1680.12 718.746 1682.19 717.29Z"/><path fill="#ffffff" d="M1681.16 720.965C1694.61 720.189 1712.55 720.517 1726.33 720.505C1726.95 728.766 1727.5 752.001 1725.52 759.265C1720.9 759.438 1684.77 759.945 1682.24 758.512C1679.24 756.819 1680.26 725.797 1681.16 720.965Z"/><path fill="#09090F" d="M1499.28 823.045C1507.01 822.969 1550.15 819.289 1548.81 828.983C1547.26 840.102 1552.36 859.869 1545.71 868.077C1539.38 868.285 1495.28 871.406 1496.27 862.515C1497.45 851.932 1493.24 831.277 1499.28 823.045Z"/><path fill="#ffffff" d="M1500.38 826.17C1514.12 826 1531.81 825.745 1545.4 826.358C1545.87 832.729 1546.28 859.552 1544.84 864.96C1539.61 865.004 1500.28 866.633 1499.85 862.572C1499.15 855.763 1498.35 832.945 1500.38 826.17Z"/><path fill="#09090F" d="M1450.24 873.166C1463.99 873.273 1477.76 873.244 1491.49 873.397C1498.01 873.24 1498.43 882.958 1497.67 887.501C1496.06 897.014 1501.97 913.116 1493.15 918.762C1479.64 918.992 1466.2 918.852 1452.48 918.883C1442.02 918.907 1445.99 902.23 1445.32 895.565C1444.88 891.207 1445.47 884.075 1445.42 879.577C1445.38 876.684 1448.56 874.367 1450.24 873.166Z"/><path fill="#ffffff" d="M1451.59 876.46C1465.68 876.492 1480.21 876.17 1494.23 876.533C1494.35 878.719 1494.43 880.907 1494.47 883.096C1494.57 890.386 1496.18 911.54 1492.19 915.644C1479.67 915.851 1461.1 916.229 1448.9 915.377C1448.42 905.135 1448.68 889.594 1448.96 879.06C1448.98 878.052 1450.81 876.96 1451.59 876.46Z"/><path fill="#09090F" d="M1678.09 823.158C1692.05 822.909 1711.07 822.282 1724.48 824.011C1730.3 824.76 1728.88 861.929 1724.65 868.056C1710.97 868.449 1693.56 868.105 1680.07 867.678C1672.17 867.427 1673.3 828.411 1678.09 823.158Z"/><path fill="#ffffff" d="M1678.95 826.06C1693.09 826.035 1707.41 825.905 1721.5 826.363C1725.78 826.502 1724.86 837.312 1724.71 839.742C1724.25 847.351 1725.81 857.521 1723.57 864.67C1718.16 864.943 1680 866.567 1679.11 862.421C1678.06 857.549 1677.46 831.297 1678.95 826.06Z"/><path fill="#09090F" d="M1569.93 873.308C1578.6 873.354 1610.42 871.893 1615.68 875.343C1618.69 877.317 1620.57 912.156 1613.91 918.807C1600.44 918.9 1586.93 918.88 1573.49 918.86C1571.52 919.119 1568.08 917.703 1566.99 916.073C1564.75 912.723 1565.56 907.03 1565.53 902.751C1565.48 895.433 1565.46 887.37 1565.64 879.993C1565.71 876.924 1567.79 874.962 1569.93 873.308Z"/><path fill="#ffffff" d="M1569.32 876.983C1580.28 876.206 1603.21 876.455 1614.5 876.731C1614.95 884.365 1615.47 908.715 1613.61 915.215C1604.46 916.026 1578.25 915.922 1569.04 915.262C1568.74 908.684 1568.42 882.986 1569.32 876.983Z"/><path fill="#09090F" d="M1617.69 823.002C1624.42 822.82 1668.97 819.876 1667.84 828.481C1666.29 840.33 1671.63 858.497 1664.67 867.722C1657.86 868.56 1627.38 868.415 1618.93 867.194C1617.48 866.796 1615.51 863.443 1615.57 862.242C1616.06 852.602 1612.65 830.966 1617.69 823.002Z"/><path fill="#ffffff" d="M1619.06 826.12C1633.22 826.28 1650.93 825.758 1664.69 826.539C1664.87 833.742 1665.59 859.147 1663.64 864.708C1658.74 864.946 1619.96 866.2 1619.31 863.081C1618.13 857.487 1617.54 831.935 1619.06 826.12Z"/><path fill="#09090F" d="M1260.43 823.156C1272.64 822.955 1295.81 822.137 1307.02 823.978C1311.29 824.679 1311.61 860.765 1306.2 868.023C1299.35 868.19 1255.71 871.745 1257.08 862.022C1258.69 850.641 1253.47 831.445 1260.43 823.156Z"/><path fill="#ffffff" d="M1261.96 826.176L1306.18 826.144C1306.56 833.618 1307.84 859.691 1304.11 864.807C1290.7 864.882 1275.76 865.247 1262.49 864.321C1258.58 864.048 1259.76 829.971 1261.22 827.472L1261.96 826.176Z"/><path fill="#09090F" d="M1380.2 823.069C1392.88 822.914 1416.5 821.731 1427.58 824.466C1430.05 825.076 1431.79 861.406 1425.79 868.202C1416.71 868.244 1374.95 872.106 1376.81 861.016C1378.55 850.618 1373.5 830.814 1380.2 823.069Z"/><path fill="#ffffff" d="M1381.1 826.189C1395.18 826.018 1412.18 825.807 1426.17 826.221C1426.33 834.4 1426.97 858.198 1425.04 865.031C1420.42 865.057 1380.87 866.454 1380.63 862.83C1380.18 856.173 1378.85 832.153 1381.1 826.189Z"/><path fill="#09090F" d="M1477.21 775.1C1484.1 774.941 1527.24 771.836 1526.55 779.574C1525.58 790.594 1530.14 811.116 1523.39 819.874C1510.19 819.95 1488.77 821.051 1476.86 818.536C1472.31 817.575 1472.3 780.96 1477.21 775.1Z"/><path fill="#ffffff" d="M1479.22 778.138C1493.02 778.071 1510 777.639 1523.55 778.211C1523.95 785.733 1524.95 811.019 1522 816.648C1509.74 816.716 1489.16 817.247 1477.46 816.371C1477.01 808.354 1475.82 783.996 1479.22 778.138Z"/><path fill="#09090F" d="M1389.18 873.225C1439.24 873.723 1439.37 863.112 1437.7 911.526C1437.58 915.233 1435.84 916.54 1433.55 918.767C1426.41 918.8 1393.04 920.084 1387.29 916.687C1383.23 914.289 1385.93 886.501 1385.04 880.983C1384.55 877.958 1386.88 875.412 1389.18 873.225Z"/><path fill="#ffffff" d="M1389.07 876.845C1404.03 876.674 1419.29 876.825 1434.28 876.81C1434.5 884.131 1435.45 910.166 1433.23 915.373C1428.37 915.419 1390.18 916.731 1389.35 913.697C1387.77 907.918 1387.71 882.845 1389.07 876.845Z"/><path fill="#09090F" d="M1563.81 717.364C1570.21 717.369 1607.56 715.268 1610.06 720.43C1613.01 726.498 1611.13 748.116 1611.42 756.016C1611.52 758.866 1608.87 761.091 1606.75 762.55C1600.72 762.685 1594.18 762.849 1587.48 762.621C1560.63 761.705 1557.3 768.731 1559.05 738.038C1559.49 730.276 1556.15 721.844 1563.81 717.364Z"/><path fill="#ffffff" d="M1575.88 720.5C1585.78 720.435 1598.49 720.136 1608.19 720.844C1608.25 722.213 1608.3 723.582 1608.34 724.952C1608.42 729.161 1609.31 754.839 1606.88 758.182C1605.44 760.169 1597.55 759.548 1594.5 759.51C1589.79 759.453 1565.8 759.966 1563.94 758.563C1560.97 756.316 1562.17 726.043 1562.3 720.686C1566.91 720.518 1571.29 720.507 1575.88 720.5Z"/><path fill="#09090F" d="M1748.99 873.29L1789.26 873.222C1797.4 873.193 1797.88 880.545 1796.93 886.94C1795.44 896.988 1800.76 911.9 1792.97 918.719C1779.53 918.962 1764.73 918.637 1750.96 918.752C1739.81 918.845 1746.76 886.96 1744.97 879.487C1744.5 877.541 1747.63 874.475 1748.99 873.29Z"/><path fill="#ffffff" d="M1748.27 876.798C1761.68 876.271 1780.01 876.466 1793.57 876.579C1793.91 883.936 1794.22 908.782 1793.12 915.303C1786.98 915.817 1753.82 916.579 1749.12 914.256C1747.24 913.323 1747.89 881.346 1748.27 876.798Z"/><path fill="#09090F" d="M1596.75 774.981C1652.62 774.382 1646.79 766.39 1645.78 814.994C1645.75 816.489 1643.52 818.869 1642.75 819.744C1636.06 819.896 1592.21 822.879 1593.26 814.544C1594.79 802.387 1589.56 784.43 1596.75 774.981Z"/><path fill="#ffffff" d="M1597.84 778.101C1611.09 778.087 1629.73 777.577 1642.55 778.332C1643.02 785.203 1644.17 811.907 1641.11 816.721C1628.16 816.857 1609.36 817.169 1596.7 816.368C1596.34 809.015 1595.36 783.677 1597.84 778.101Z"/><path fill="#09090F" d="M1270.21 873.345C1283.16 873.269 1296.12 873.26 1309.08 873.319C1310.75 873.321 1315.72 873.585 1316.42 875.215C1319.96 883.501 1317.23 902.717 1317.98 912.515C1318.18 915.094 1315.37 917.703 1314.2 918.706C1264.67 918.66 1263.38 929.387 1265.88 879.48C1266.03 876.565 1268.32 874.936 1270.21 873.345Z"/><path fill="#ffffff" d="M1269.37 876.982C1282.57 876.345 1301.19 876.632 1314.69 876.752C1315.03 884.597 1315.42 908.543 1313.99 915.343C1309.04 915.481 1270.27 917.153 1269.89 913.56C1269.04 905.34 1268.5 885.336 1269.37 876.982Z"/><path fill="#09090F" d="M1446 717.402L1483.51 717.417C1499.71 717.386 1490.82 735.866 1493 747.442C1494.03 752.955 1493.62 759.937 1487.82 762.517C1474.15 762.874 1460.19 762.672 1446.54 762.564C1439.69 762.257 1439.97 750.49 1440.69 746.284C1442.47 735.878 1436.07 723.234 1446 717.402Z"/><path fill="#ffffff" d="M1445.05 720.816C1458.82 720.411 1475.7 720.542 1489.57 720.791C1489.94 728.107 1490.46 753.194 1488.82 759.234C1475.64 759.609 1457.25 759.711 1444.07 759.291C1443.8 752.044 1442.99 726.526 1445.05 720.816Z"/><path fill="#09090F" d="M1207 717.393C1212.37 717.246 1252.6 715.121 1253.46 720.183C1255.09 729.83 1254.7 747.475 1253.96 758.006C1253.82 759.888 1250.68 761.683 1249.15 762.383C1241.7 762.474 1209.46 764.737 1203.62 759.684C1201.87 757.268 1201.77 748.45 1202.2 746.088C1203.98 736.422 1197.77 722.906 1207 717.393Z"/><path fill="#ffffff" d="M1206.21 720.823C1219.6 720.231 1237.4 720.499 1250.97 720.667C1251.35 728.381 1252.01 752.711 1250.09 759.11C1236.44 759.517 1222.59 759.319 1208.95 759.226C1205.59 759.141 1205.22 754.412 1205.37 751.947C1205.94 742.331 1204.42 730.044 1206.21 720.823Z"/><path fill="#09090F" d="M1622.28 717.245C1629.23 717.171 1664.93 715.656 1668.6 719.413C1671.19 722.065 1672.86 755.983 1666.13 762.497C1658.67 762.476 1621.41 763.92 1619.85 760.145C1617.53 754.533 1615.32 724.215 1622.28 717.245Z"/><path fill="#ffffff" d="M1623.84 720.361C1637.73 720.447 1653.35 720.033 1667.05 720.634C1667.37 728.506 1668.84 754.625 1664.92 759.316C1660.78 759.321 1623.19 760.2 1622.51 757.897C1620.71 751.891 1619.18 725.38 1623.84 720.361Z"/><path fill="#09090F" d="M1715.34 775.092C1723.16 774.871 1766.73 770.672 1764.88 781.977C1762.95 793.748 1768.96 811.161 1761.17 819.782C1755.81 820.036 1718.44 820.465 1715.99 819.041C1714.48 818.161 1713.38 816.72 1712.93 815.032C1711.08 808.306 1713.37 791.215 1712.55 783.492C1712.18 779.934 1713.43 777.935 1715.34 775.092Z"/><path fill="#ffffff" d="M1717.07 778.075C1730.45 778.024 1748.63 777.579 1761.54 778.268C1761.89 785.164 1762.73 811.333 1760.41 816.505C1749.5 817.071 1726.76 817.09 1716.01 816.294C1715.56 809.679 1714.86 783.262 1717.07 778.075Z"/><path fill="#09090F" d="M1536.63 775.065C1545.52 774.589 1573.05 774.711 1583.03 775.752C1583.99 776.102 1586.02 778.49 1585.94 779.443C1585.17 789.171 1588.84 812.403 1583.81 819.881C1568.94 819.916 1552.73 820.258 1537.99 819.186C1531.36 818.704 1534.26 794.472 1533.78 789.746C1533.16 783.637 1533.11 779.971 1536.63 775.065Z"/><path fill="#ffffff" d="M1538.05 778.072C1552.63 778.095 1568.62 777.797 1583.05 778.251C1583.2 785.179 1584 811.582 1581.75 816.554C1569.12 816.78 1549.71 817.075 1537.44 816.32C1537.02 810.499 1536.36 783.044 1538.05 778.072Z"/><path fill="#09090F" d="M1330.18 873.34C1334.96 873.34 1375.04 871.852 1376.28 875.782C1378.8 883.721 1376.93 902.852 1377.4 911.999C1377.55 914.703 1375.17 917.111 1373.18 918.649C1366.43 918.749 1329.25 920.344 1327.4 916.586C1325.22 912.186 1322.29 879.802 1330.18 873.34Z"/><path fill="#ffffff" d="M1329.19 876.903C1341.85 876.268 1361.09 876.651 1374.09 876.792C1374.4 884.244 1375.35 909.86 1372.51 915.476C1367.74 915.48 1330.32 916.464 1329.78 914.249C1328.17 907.748 1328.28 883.884 1329.19 876.903Z"/><path fill="#09090F" d="M1298.7 775.087C1305.69 774.924 1340.86 773.824 1345.61 776.444C1349.28 778.464 1349.77 813.291 1345.09 818.683L1344.12 819.843C1338.88 819.909 1298.64 821.105 1297.06 817.468C1294.72 812.091 1293.54 781.303 1298.7 775.087Z"/><path fill="#ffffff" d="M1300.09 778.179C1313.72 778.05 1331.14 777.693 1344.61 778.266C1344.95 785.611 1345.64 810.811 1343.51 816.45C1331.29 816.854 1310.96 817.006 1298.96 816.266C1298.75 809.291 1297.93 782.878 1300.09 778.179Z"/><path fill="#09090F" d="M1266.86 717.404C1319.25 716.665 1315.4 709.58 1313.41 758.221C1313.33 760.188 1310.3 761.991 1309.12 762.633C1296.74 762.721 1284.36 762.512 1271.99 762.548C1269.47 763.165 1263.8 761.916 1262.68 759.176C1261.37 755.963 1261.77 750.002 1261.83 746.153C1261.95 738.477 1261.55 730.13 1262.14 722.492C1262.31 720.304 1265.26 718.311 1266.86 717.404Z"/><path fill="#ffffff" d="M1265.85 720.852C1270.43 720.779 1309.32 719.671 1309.85 722.469C1311.27 729.926 1311.65 751.859 1309.53 759.255C1304.87 759.379 1266.72 760.665 1265.94 757.596C1264.51 751.965 1264.41 726.786 1265.85 720.852Z"/><path fill="#09090F" d="M1327.57 717.461C1341.27 717.352 1356.03 716.787 1369.51 718.04C1374.68 718.695 1374.29 732.348 1373.74 735.508C1372.17 744.638 1378.2 758.489 1368.25 762.432C1354.32 762.439 1339.77 762.914 1326.01 761.914C1321.1 761.044 1320.67 752.607 1321.38 749.499C1323.48 740.216 1316.29 720.825 1327.57 717.461Z"/><path fill="#ffffff" d="M1325.39 720.931C1337.62 720.202 1357.67 720.624 1370.17 720.825C1370.6 727.598 1371.03 752.572 1370.14 758.634C1363.46 759.723 1332.39 759.548 1324.96 759.197C1324.63 752.297 1324.27 726.917 1325.39 720.931Z"/><path fill="#09090F" d="M1386.11 717.481C1439.25 717.033 1433.68 708.51 1432.76 757.004C1432.71 759.436 1429.46 761.645 1428.01 762.579C1415.67 762.464 1403.32 762.568 1390.99 762.548C1388.03 762.888 1383.12 762.346 1381.81 759.056C1380.32 755.28 1380.74 749.439 1380.87 745.148C1381.09 737.681 1380.35 729.389 1381.35 722.041C1381.64 719.943 1384.53 718.217 1386.11 717.481Z"/><path fill="#ffffff" d="M1385.04 720.874C1398.94 720.513 1415.61 720.497 1429.58 720.791C1430.12 727.87 1430.81 752.946 1428.77 759.037C1417.11 759.655 1395.77 759.643 1384.25 759.14C1383.85 752.671 1383.44 726.355 1385.04 720.874Z"/><path fill="#09090F" d="M1740.27 717.256C1787.74 717.514 1791.34 706.623 1788.95 752.508C1788.63 758.522 1789.08 758.156 1784.77 762.508C1730.59 762.924 1735.95 771.029 1737.14 722.007C1737.17 720.588 1739.52 718.081 1740.27 717.256Z"/><path fill="#ffffff" d="M1742.95 720.469C1756.54 720.573 1771.86 720.187 1785.28 720.809C1785.83 728.331 1787.16 753.6 1783.63 759.279C1770.43 759.229 1753.05 759.802 1740.25 758.983C1739.65 749.029 1739.96 733.843 1740.23 723.49C1740.27 722.227 1741.85 721.098 1742.95 720.469Z"/><path fill="#09090F" d="M1800.14 717.267C1811.12 717.239 1837.37 715.545 1845.95 719.089C1848.87 720.295 1850.49 755.7 1844.08 762.42C1793.99 763.202 1793.93 771.878 1796.05 723.475C1796.18 720.433 1798.17 718.98 1800.14 717.267Z"/><path fill="#ffffff" d="M1803.25 720.496C1815.83 720.496 1832.49 720.001 1844.74 720.82C1845.16 729.814 1845.3 746.734 1844.49 756.145C1844.37 757.503 1842.42 758.804 1841.12 759.436C1827.3 759.232 1813.5 759.482 1799.72 759.252C1799.18 752.117 1798.66 730.266 1799.59 722.395C1799.71 721.385 1802.11 720.737 1803.25 720.496Z"/><path fill="#09090F" d="M1240.19 775.12C1253.21 774.955 1275.04 773.692 1286.56 776.493C1290.17 777.371 1291.16 813.424 1285.73 819.779C1275.67 820.052 1246.99 821.274 1238.94 818.096C1235.56 816.764 1234.58 781.389 1240.19 775.12Z"/><path fill="#ffffff" d="M1241.01 778.154C1254.34 778.114 1272.62 777.663 1285.6 778.324C1286.12 785.687 1286.83 810.724 1284.44 816.651C1279.77 816.83 1240.67 818.32 1240.44 814.666C1240 807.605 1238.86 784.194 1241.01 778.154Z"/><path fill="#09090F" d="M1426.25 820.272C1423.75 820.028 1416.11 819.906 1415.44 816.662C1414.5 812.012 1411.55 776.468 1418.01 775.765C1428.88 774.583 1451.24 774.846 1462.45 775.513C1470.52 775.993 1465.28 808.791 1466.71 813.995C1466.96 814.889 1464.88 819.121 1464.45 820.028C1461.31 819.446 1429.14 819.667 1426.25 820.272Z"/><path fill="#ffffff" d="M1419.06 778.08C1424.37 778.094 1462.39 776.655 1462.81 780.079C1463.72 787.402 1464.61 809.714 1462.42 816.5C1449.02 816.835 1431.16 816.858 1417.89 816.305C1417.66 809.004 1416.68 783.558 1419.06 778.08Z"/><path fill="#09090F" d="M1506.5 717.498C1557.06 717.81 1553.68 707.201 1551.84 758.47C1551.78 760.206 1548.25 762.118 1547.09 762.689C1535.01 762.713 1515.02 763.092 1503.43 761.519C1498.01 760.784 1500.01 725.375 1501.04 720.647C1501.43 718.88 1504.98 717.876 1506.5 717.498Z"/><path fill="#ffffff" d="M1504.08 720.918C1517.67 720.508 1533 720.641 1546.51 721.06C1551.19 721.204 1549.37 755.548 1547.67 759.592C1543.13 759.682 1504.57 760.283 1504 757.582C1502.72 751.565 1502.58 726.698 1504.08 720.918Z"/><path fill="#09090F" d="M1689.82 873.335C1744.03 873.267 1737.46 864.487 1736.71 913.998C1736.68 915.95 1733.5 917.973 1732.35 918.604C1718.45 918.745 1704.37 918.9 1690.51 918.625C1684.04 917.535 1685.15 909.992 1685.23 904.997C1685.38 896.163 1684.86 886.925 1685.41 878.137C1685.55 876.035 1688.18 874.248 1689.82 873.335Z"/><path fill="#ffffff" d="M1689.1 876.857C1702.26 876.431 1720.5 876.297 1733.57 876.668C1734.08 884.314 1734.66 908.763 1732.78 915.242C1722.92 916.02 1698.97 915.862 1688.7 915.512C1688.44 908.363 1688.22 882.905 1689.1 876.857Z"/><path fill="#09090F" d="M1358.27 775.066C1366.11 774.937 1408.97 770.706 1407.05 781.474C1405.17 792.02 1410.69 812.072 1403.76 819.82C1395.76 819.854 1361.08 821.5 1356.88 817.592C1354.26 815.153 1352.48 780.803 1358.27 775.066Z"/><path fill="#ffffff" d="M1358.86 778.085C1373.61 778.048 1388.79 777.912 1403.51 778.116C1404.01 784.866 1404.47 810.161 1403.33 816.336C1398.36 816.45 1359.12 818.119 1358.69 814.326C1358.03 808.46 1357.08 783.504 1358.86 778.085Z"/><path fill="#09090F" d="M1656.27 775.276C1662.17 775.049 1702.2 773.537 1703.61 777.35C1706.39 784.86 1707.43 813.102 1702.31 819.733C1693.87 819.846 1650.89 824.203 1653.13 812.52C1655.15 801.927 1649.49 783.161 1656.27 775.276Z"/><path fill="#ffffff" d="M1657.15 778.101C1671.18 778.014 1688.07 777.73 1701.93 778.269C1702.26 784.353 1703.78 812.988 1699.98 816.392C1685.5 816.546 1671.03 816.558 1656.55 816.425C1656.26 809.888 1655.74 783.303 1657.15 778.101Z"/><path fill="#09090F" d="M1738.74 823.079C1750.17 822.76 1761.86 823.265 1773.16 823.024C1783.62 822.8 1786.23 822.917 1785.85 834.481C1785.61 841.702 1785.96 849.503 1785.9 856.791C1785.84 863.279 1786.34 863.132 1782.37 868.281C1735.7 867.975 1732.52 876.675 1735.09 836.081C1735.59 828.234 1733.59 828.899 1738.74 823.079Z"/><path fill="#ffffff" d="M1739.2 826.108C1753.6 826.022 1768 826.027 1782.41 826.122C1782.69 833.391 1783.07 858.679 1781.56 864.732C1772.87 865.243 1746.94 865.137 1738.56 864.439C1738.15 858.013 1737.51 831.158 1739.2 826.108Z"/><path fill="#09090F" d="M1260.61 926.049C1311.18 925.423 1308.03 917.186 1306.85 963.521C1306.76 966.995 1304.98 968.416 1302.75 970.402C1299.38 970.589 1293.29 970.629 1290.25 970.628C1252.75 970.625 1256.46 975.913 1256.86 937.552C1256.93 931.411 1255.7 931.537 1260.61 926.049Z"/><path fill="#ffffff" d="M1261.25 929.202C1274.72 929.167 1290.04 928.943 1303.38 929.412C1303.87 936.109 1304.3 961.278 1302.78 967.077C1297.66 967.319 1261.11 968.942 1260.72 965.289C1260.03 958.728 1258.93 935.18 1261.25 929.202Z"/><path fill="#09090F" d="M1776.28 775.201C1784.36 775.118 1822.07 771.192 1819.9 781.961C1817.58 793.422 1824.19 811.513 1815.98 819.98C1803.32 819.688 1790.61 819.882 1777.99 819.747C1773.32 819.161 1771.84 815.706 1771.88 811.518C1771.98 800.965 1771.48 790.494 1771.9 779.984C1771.98 777.989 1774.84 776.208 1776.28 775.201Z"/><path fill="#ffffff" d="M1776.05 778.198C1787.8 778.139 1805.17 777.724 1816.66 778.492C1816.97 786.14 1817.41 809.851 1815.9 816.402C1803.46 816.583 1787.53 816.745 1775.21 816.212C1774.96 809.645 1774.11 782.933 1776.05 778.198Z"/><path fill="#09090F" d="M1210.19 926.113L1240.71 926.047C1250.9 926.063 1249.16 936.884 1248.72 944.58C1248.15 954.727 1251.76 963.543 1244.27 970.481C1239.56 970.732 1212.08 971.767 1208.88 969.16C1203.79 965.012 1207.21 940.389 1206.23 932.967C1205.85 930.074 1208.15 928.056 1210.19 926.113Z"/><path fill="#ffffff" d="M1210.95 929.312C1221.72 929.218 1234.44 929.007 1245.16 929.411C1245.68 936.852 1246.34 960.647 1244.61 967.046C1235.58 967.78 1219.14 967.596 1209.82 967.207C1209.45 960.699 1208.61 934.459 1210.95 929.312Z"/><path fill="#09090F" d="M1829.29 775.147C1835.57 775.105 1868.08 771.724 1866.79 780.96C1865.19 792.442 1870.82 811.37 1863.42 819.723C1857.37 819.912 1824.51 823.068 1825.83 813.535C1827.35 802.569 1821.99 782.63 1829.29 775.147Z"/><path fill="#ffffff" d="M1830.88 778.297C1841.46 778.256 1852.82 778.083 1863.36 778.328C1863.89 784.922 1865 811.774 1862.04 816.675C1858.17 816.717 1829.41 818.308 1829.38 814.295C1829.34 808.974 1827.64 783.043 1830.13 779.429L1830.88 778.297Z"/><path fill="#09090F" d="M1899.55 665.98C1903.33 665.862 1938.27 665.034 1940.85 667.206C1944.52 670.298 1944.82 692.859 1940.11 698.458C1928.62 698.992 1911.78 699.223 1900.55 697.807C1895.02 697.109 1896.56 671.067 1899.55 665.98Z"/><path fill="#ffffff" d="M1900.89 669.054C1913.91 669.136 1926.99 668.985 1939.99 669.162C1940.08 675.759 1940.56 689.533 1939.27 695.258C1926.55 695.301 1913.27 695.369 1900.57 695.18C1900.47 688.627 1900.13 675.149 1900.89 669.054Z"/><path fill="#09090F" d="M1796.25 823.134C1815.84 822.925 1828.75 817.267 1825.29 840.881C1823.88 850.466 1829.04 860.219 1821.71 867.942C1816.14 867.964 1791.46 870.948 1792.79 862.012C1794.39 851.301 1789.3 831.072 1796.25 823.134Z"/><path fill="#ffffff" d="M1797.05 826.196C1805.25 826.107 1813.93 826.024 1822.1 826.312C1822.29 832.781 1822.91 860.112 1820.77 864.61C1813 864.874 1803.72 864.981 1795.98 864.464C1795.89 858.079 1795.38 830.877 1797.05 826.196Z"/><path fill="#09090F" d="M1490.23 665.992C1494.66 665.846 1527.25 664.898 1529.83 667.224C1533.54 670.557 1533.69 692.841 1529.06 698.476C1520.62 698.949 1499.52 699.135 1491.48 697.875C1485.79 696.982 1487.05 671.818 1490.23 665.992Z"/><path fill="#ffffff" d="M1491.93 669.142C1504.05 669.066 1516.96 668.913 1529.01 669.211C1529.08 675.71 1529.58 689.493 1528.25 695.273C1516.56 695.48 1502.89 695.606 1491.21 695.251C1490.94 689.719 1490.43 673.809 1491.93 669.142Z"/><path fill="#09090F" d="M1143.48 666.214C1147.14 665.991 1180.45 664.94 1182.77 667.276C1186.52 671.053 1186.53 692.935 1182.23 698.575C1174.42 698.812 1163.2 698.325 1156.25 698.657C1136.92 699.58 1141.55 695.398 1140.9 678.998C1140.65 672.612 1139.92 671.222 1143.48 666.214Z"/><path fill="#ffffff" d="M1145.16 669.136C1157 669.104 1169.99 668.885 1181.74 669.268C1182.04 675.125 1182.38 689.833 1181.29 695.287C1169.39 695.431 1156.14 695.612 1144.3 695.385C1143.96 689.408 1143.15 674.394 1145.16 669.136Z"/><path fill="#09090F" d="M1311.39 666.038C1318.9 665.779 1343.08 665.091 1350.02 666.946C1354.04 668.022 1353.56 693.082 1350.71 697.182L1349.9 698.395C1339.67 699.06 1321.83 699.209 1312.03 697.679C1306.44 696.807 1308.3 671.263 1311.39 666.038Z"/><path fill="#ffffff" d="M1312.95 669.115C1325.1 669.056 1337.25 669.068 1349.4 669.151C1349.46 675.911 1350.09 689.528 1348.48 695.28C1336.38 695.366 1324.27 695.376 1312.16 695.311C1311.92 689.382 1311.41 674.112 1312.95 669.115Z"/><path fill="#09090F" d="M1373.29 666.062C1377.7 665.914 1411.34 664.947 1412.62 667.43C1415.35 672.751 1415.96 692.455 1411.16 698.555C1406.58 698.686 1370.82 701.365 1371.11 694.054C1371.44 685.77 1368.99 672.793 1373.29 666.062Z"/><path fill="#ffffff" d="M1374.8 669.086C1386.69 669.086 1399.28 668.915 1411.12 669.28C1411.16 675.933 1411.81 689.422 1410.33 695.286C1398.56 695.314 1385.86 695.595 1374.17 695.167C1373.89 689.519 1373.43 673.926 1374.8 669.086Z"/><path fill="#09090F" d="M2330.78 395.853L2331.6 396.678C2331.33 399.192 2310.08 420.518 2306.87 425.013C2261.89 488.023 2278.73 550.051 2329.37 603.402C2337.12 613.405 2346.04 626.398 2351.84 637.248C2376.51 683.414 2349.7 710.581 2334.97 752.06C2331.47 761.916 2340.97 782.972 2338.89 789.343C2336.05 785.568 2334.6 780.469 2333.34 775.94C2322.92 738.558 2355.27 717.797 2358.12 682.542C2361.35 642.424 2331.75 610.938 2308.18 582.621C2289.51 560.199 2273.84 519.728 2277.52 491.025C2282.35 453.35 2301.83 419.674 2330.78 395.853Z"/><path fill="#09090F" d="M1781.24 939.13C1786.56 939.078 1814.9 938.253 1818.4 940.642C1822.76 943.61 1822.52 965.216 1817.89 971.142C1810.13 971.065 1802.46 971.25 1794.63 971.202C1789.27 971.063 1778.25 973.525 1778.5 964.628C1778.74 955.625 1776.14 946.711 1781.24 939.13Z"/><path fill="#ffffff" d="M1782.03 942.694C1793.2 942.47 1806.85 942.461 1818 942.855C1818.03 949.604 1818.33 961.573 1817.5 967.667C1805.93 968.036 1793.54 967.771 1781.86 967.887C1781.63 961.532 1781.36 948.69 1782.03 942.694Z"/><path fill="#09090F" d="M1904.66 939.132C1914.77 938.757 1931.38 938.447 1941.02 939.98C1945.95 940.763 1945.44 965.12 1941.27 970.745C1936.11 971.094 1901.79 973.839 1901.97 966.563C1902.18 957.503 1899.35 946.572 1904.66 939.132Z"/><path fill="#ffffff" d="M1906.61 942.361C1918.04 942.539 1929.43 942.445 1940.85 942.55C1941.05 948.956 1942.06 962.78 1939.26 967.827C1928.51 967.882 1915.75 968.167 1905.12 967.649C1904.8 961.87 1903.78 946.561 1906.61 942.361Z"/><path fill="#09090F" d="M1258.15 665.984C1262.57 665.929 1291.77 664.772 1293.4 667.617C1296.56 673.17 1297.31 693.173 1292.01 698.714C1288.27 698.732 1260.13 699.673 1257.68 697.28C1253.75 693.437 1253.57 671.786 1258.15 665.984Z"/><path fill="#ffffff" d="M1258.93 669.073C1269.98 668.993 1281.03 669.033 1292.07 669.194C1292.14 675.714 1292.65 689.631 1291.42 695.287C1280.84 695.332 1269.28 695.578 1258.76 695.286C1258.52 689.191 1257.89 674.68 1258.93 669.073Z"/><path fill="#09090F" d="M1208.22 665.994C1213.06 665.885 1237.53 665.084 1242.45 667.067C1244.89 668.049 1245.11 674.526 1244.85 677.62C1244.11 686.511 1247.33 691.32 1241.36 698.732C1234.48 698.737 1212.41 700.06 1207.5 696.948C1203.61 694.476 1203.79 671.413 1208.22 665.994Z"/><path fill="#ffffff" d="M1209.13 669.185C1219.67 669.051 1231.15 668.933 1241.62 669.242C1241.91 676.156 1242.39 688.937 1240.79 695.296C1230.7 695.531 1218.61 695.597 1208.54 695.315C1208.18 689.056 1207.52 674.855 1209.13 669.185Z"/><path fill="#09090F" d="M1849.51 666.107C1853.49 665.939 1880.91 665.202 1883.49 666.949C1888.06 670.034 1887.55 693.135 1883.33 698.77C1873.6 698.878 1859.65 699.316 1850.42 698.18C1845.15 697.531 1846.02 671.473 1849.51 666.107Z"/><path fill="#ffffff" d="M1850.44 669.144C1861.31 669.068 1872.17 669.105 1883.03 669.255C1883.17 675.811 1883.61 689.809 1882.42 695.499C1872.58 695.669 1860.12 695.846 1850.42 695.321C1850.08 689.015 1849.89 675.396 1850.44 669.144Z"/><path fill="#09090F" d="M1596.19 666.007L1622.61 665.901C1629.87 665.869 1633.35 666.923 1632.39 675.001C1631.33 683.934 1635.58 692.426 1628.94 698.707C1621.66 698.775 1601.32 699.968 1595.59 697.374C1591.86 695.684 1591.77 671.727 1596.19 666.007Z"/><path fill="#ffffff" d="M1597.04 669.15C1607.79 669.084 1618.53 669.087 1629.27 669.156C1629.27 675.425 1630.22 690.88 1627.88 695.536C1617.65 695.6 1606.8 695.72 1596.63 695.427C1596.4 689.815 1595.93 673.904 1597.04 669.15Z"/><path fill="#09090F" d="M1646.2 666.009C1650.36 665.973 1678.88 665.014 1680.84 667.21C1684.54 671.34 1684.78 692.935 1680.01 698.508C1672.31 698.844 1654.6 699.089 1647.54 697.834C1641.61 696.778 1643.09 671.136 1646.2 666.009Z"/><path fill="#F4F3F6" d="M1647.76 669.251C1658.45 669.135 1669.14 669.094 1679.83 669.128C1680.12 675.044 1680.31 690.072 1679.31 695.361C1668.88 695.431 1657.7 695.553 1647.3 695.3C1647.11 690.41 1646.69 673.393 1647.76 669.251Z"/><path fill="#09090F" d="M1701.1 665.967C1706.76 665.914 1732.51 664.665 1735.39 667.618C1738.58 670.892 1739.15 692.981 1733.62 698.815C1729.17 698.692 1702.75 699.47 1700.63 697.335C1696.7 693.365 1696.97 671.234 1701.1 665.967Z"/><path fill="#ffffff" d="M1701.99 669.092C1712.68 669.04 1723.36 669.044 1734.05 669.103C1734.08 675.657 1734.57 689.659 1733.33 695.388L1701.55 695.357C1701.32 689.943 1700.77 673.624 1701.99 669.092Z"/><path fill="#09090F" d="M1800.5 666.091C1806.67 665.756 1813.97 665.836 1819.6 665.86C1834.75 665.925 1838.6 663.578 1837.43 680.874C1837.08 685.99 1838.77 692.468 1835.79 697.224L1835.03 698.472C1825.87 699.151 1811.47 698.929 1802.45 698.209C1795.89 697.687 1798.19 670.781 1800.5 666.091Z"/><path fill="#ffffff" d="M1802.02 669.108C1812.76 669.005 1823.5 669.002 1834.23 669.101C1834.27 676.109 1834.56 688.695 1833.81 695.297C1823.07 695.517 1812.33 695.55 1801.6 695.394C1801.52 689.309 1801.15 674.577 1802.02 669.108Z"/><path fill="#09090F" d="M1750.52 666.074C1755.78 665.914 1782.5 664.694 1785.35 667.663C1788.31 670.741 1788.91 692.853 1783.81 698.512C1776.01 699.033 1758.84 699.22 1751.58 697.807C1745.89 696.7 1747.44 671.089 1750.52 666.074Z"/><path fill="#ffffff" d="M1752.07 669.114L1783.91 669.13C1784.03 675.826 1784.36 689.052 1783.22 695.179C1773.05 695.317 1761.9 695.414 1751.76 695.214C1751.27 688.877 1750.69 675.11 1752.07 669.114Z"/><path fill="#09090F" d="M1433.22 666.053C1438.16 665.943 1469.48 663.593 1468.96 669.934C1468.2 679.073 1471.68 691.496 1466.38 698.741C1461.54 698.778 1455.66 698.804 1450.42 698.748C1432.39 698.552 1429.87 701.719 1430.92 681.44C1431.29 674.4 1429.15 672.849 1433.22 666.053Z"/><path fill="#ffffff" d="M1434.23 669.117C1444.79 669.052 1455.35 669.061 1465.91 669.145C1465.95 675.669 1466.3 689.357 1465.3 695.379C1454.95 695.478 1444.59 695.511 1434.24 695.479C1433.95 688.028 1433.82 676.514 1434.23 669.117Z"/><path fill="#09090F" d="M1548.14 666.004C1551.68 665.968 1559.4 666.091 1561.96 665.95C1589.67 664.424 1581.93 668.245 1583.2 691.701C1583.41 695.439 1582.62 696.061 1580.02 698.659C1573.46 698.722 1545.95 701.467 1545.84 694.058C1545.74 686.771 1543.8 672.314 1548.14 666.004Z"/><path fill="#ffffff" d="M1549.3 669.081C1559.41 669.143 1569.74 668.943 1579.81 669.311C1580.16 675.368 1580.31 689.42 1579.8 695.283C1569.67 695.623 1558.91 695.471 1548.74 695.465C1548.76 688.896 1548.42 674.833 1549.3 669.081Z"/><path fill="#09090F" d="M635.866 661.319C639.683 660.945 638.658 660.498 641.593 662.035C639.721 664.076 496.038 688.71 481.277 691.448C479.241 691.872 479.292 691.767 477.216 691.392L476.71 690.09C481.667 686.66 616.081 664.511 635.866 661.319Z"/><path fill="#09090F" d="M438.867 731.271C440.284 731.74 440.31 731.921 441.588 732.76C444.238 741.478 447.202 761.549 448.986 771.219L462.671 845.301C460.446 845.662 461.441 845.871 459.571 844.753C452.049 807.042 445.147 769.209 438.867 731.271Z"/><path fill="#09090F" d="M756.424 640.283C757.694 640.032 759.236 640.053 760.561 640.004L761.733 641.282C759.821 643.36 678.571 657.675 670.09 659.226L666.498 659.43L666.032 658.346C671.63 654.6 744.212 642.42 756.424 640.283Z"/><path fill="#09090F" d="M524.865 1011.3L527.139 1012.27C530.874 1020.3 541.897 1091.81 543.755 1104.57L541.77 1103.9C537.854 1096.49 526.736 1023.62 524.865 1011.3Z"/><path fill="#09090F" d="M2665.61 287.47C2679.83 284.955 2721.3 287.708 2738.01 286.747C2739.68 286.651 2740.23 287.594 2741.27 288.79C2739.45 289.316 2737.91 289.681 2736.01 289.722C2728.61 289.882 2669.18 290.975 2666.96 288.796C2666.85 288.684 2666.74 288.565 2666.63 288.453L2665.61 287.47Z"/><path fill="#09090F" d="M344.255 1373.39C358.1 1372.12 397.322 1373.43 413.316 1373.25C413.762 1373.25 414.56 1375.46 414.762 1375.94C401.85 1376.65 360.322 1376.24 345.191 1375.77C344.701 1375.76 344.366 1373.9 344.255 1373.39Z"/><path fill="#09090F" d="M2665.83 1373.46C2684.13 1371.61 2712.92 1374.16 2732.01 1373.2C2735.22 1373.04 2735.12 1373.41 2737.17 1375.52C2734.61 1375.98 2728.34 1376.6 2725.86 1376.26C2718.82 1375.3 2669.42 1378.05 2666.75 1374.58L2665.83 1373.46Z"/><path fill="#09090F" d="M506.945 914.615C507.292 914.855 508.842 915.859 508.893 916.14C510.774 926.599 521.413 976.489 520.75 983.945C517.762 981.47 517.814 981.305 517.196 976.509C515.89 966.382 505.768 921.493 506.945 914.615Z"/><path fill="#09090F" d="M439.845 1397.52C440.184 1397.77 441.81 1398.92 441.818 1399.17C442.181 1410.6 442.866 1450.4 441.535 1459.33C441.349 1459.15 439.417 1457.44 439.426 1457.28C440.224 1442.65 436.657 1410.86 439.845 1397.52Z"/><path fill="#09090F" d="M2639.37 205.428C2639.47 205.473 2639.58 205.518 2639.69 205.563C2639.27 205.19 2641.69 206.321 2641.71 206.632C2642.31 217.935 2642.7 256.307 2641.81 265.55C2641.71 265.498 2641.6 265.443 2641.49 265.392C2640.99 265.153 2639.92 264.78 2639.48 264.237C2637.71 262.034 2638.86 211.486 2639.37 205.428Z"/><path fill="#09090F" d="M2639.02 1400.19C2639.57 1400.41 2641.61 1401.18 2641.63 1401.41C2642.34 1411.62 2642.58 1451.68 2641.63 1459.28C2641.37 1459.17 2639.51 1458.39 2639.49 1458.16C2638.56 1447.05 2638.83 1409.54 2639.02 1400.19Z"/><path fill="#09090F" d="M355.846 287.377C361.038 286.693 414.648 286.353 415.989 287.146C416.329 287.351 416.57 287.686 416.655 288.074C416.752 288.576 416.849 289.079 416.945 289.581C400.33 290.72 374.96 289.331 357.622 289.728C356.881 289.745 356.08 287.831 355.846 287.377Z"/><path fill="#09090F" d="M439.341 208.523C439.441 208.573 439.539 208.624 439.639 208.673C440.109 208.901 441.108 209.247 441.501 209.774C443.153 211.994 442.255 260.3 441.641 265.834C441.16 265.701 439.264 265.252 439.238 264.785C438.609 253.558 438.314 216.869 439.341 208.523Z"/><path fill="#09090F" d="M551.683 1129.5C553.871 1130.68 554.763 1130.78 554.976 1133.45C555.983 1146.12 564.017 1167.61 563.542 1179.51C563.127 1179.24 561.317 1178.13 561.229 1177.8C559.358 1170.79 551.32 1134.48 551.683 1129.5Z"/><path fill="#09090F" d="M439.655 601.462C441.739 603.115 442.307 603.962 442.075 606.754C441.378 615.153 443.374 627.65 441.062 635.42C437.288 632.366 438.503 606.431 439.655 601.462Z"/><path fill="#09090F" d="M814.042 629.366C818.004 633.526 795.639 636.046 792.366 636.721C788.819 631.802 810.568 629.934 814.042 629.366Z"/></svg>