<?xml version="1.0" encoding="utf-8" ?><svg xmlns="http://www.w3.org/2000/svg" xmlns:xlink="http://www.w3.org/1999/xlink" width="2432" height="1792" viewBox="0 0 2432 1792"><path fill="#FDFDFD" d="M0 0L276.566 0L280.07 0L2155.36 0L2158.94 0L2432 0L2432 1458.46L2432 1460.71L2432 1792L0 1792L0 1461.9L0 1459.7L0 0Z"/><path fill="#FDFDFD" d="M839.387 1154.84L1400.71 1154.97C1394.98 1169.9 1382.21 1203.48 1386.13 1218.16C1395.38 1252.75 1475.66 1252.18 1490.34 1222.97C1498.97 1205.79 1483.57 1172.67 1477.91 1154.92L1604.16 1154.97C1622.96 1165.56 1644.9 1179.93 1663.67 1191.41L1736.35 1235.61C1750.75 1244.34 1768.07 1254.23 1781.8 1263.36L1783.06 1262.15C1785.4 1262.86 1803.74 1273.83 1805.47 1275.34L1810.08 1277.92L1810.6 1278.46L1883.83 1323.24C1888.76 1326.26 1913.49 1340.89 1917.05 1343.84L1915.39 1345.3C1920.01 1348.21 1927 1352.31 1931.28 1355.35L2109.91 1465.79C2131.86 1479.57 2156.76 1494.15 2177.96 1508.34L2179.03 1508.81L2297.51 1581.86C2303.29 1585.43 2312.6 1591.63 2318.26 1594.66L2322.09 1595.05C2322.97 1573.49 2326.96 1545.44 2330.07 1523.78C2334.71 1490.47 2340.18 1457.28 2346.5 1424.24C2346.67 1423.16 2346.79 1422.43 2347.05 1421.37C2350.75 1423.4 2354.8 1424.78 2358.63 1426.58C2382.43 1437.8 2408.34 1447.17 2432 1458.46L2432 1460.71L2432 1792L0 1792L0 1461.9L0 1459.7C7.16744 1457.11 22.1508 1449.76 29.6374 1446.25C47.813 1437.57 66.1594 1429.26 84.6657 1421.31C85.1843 1421.08 85.7029 1420.86 86.2215 1420.63C86.4884 1421.29 86.7472 1421.95 86.9979 1422.62C93.8886 1459.63 99.941 1496.8 105.15 1534.1C107.714 1553.13 109.218 1572.13 111.731 1591.17L113.097 1593.67C119.895 1589.64 126.671 1585.58 133.423 1581.48L132.331 1579.24C149.926 1569.84 173.2 1554.62 190.525 1543.94L294.822 1479.65C310.125 1470.23 330.079 1457.32 345.616 1449.11L346.896 1450.2C364.64 1440.31 384.434 1427.63 401.945 1416.97L499.642 1357.56C505.337 1353.95 511.101 1350.45 516.93 1347.06C566.321 1317.3 615.85 1287.7 665.36 1258.15C722.658 1223.94 783.076 1190.4 839.387 1154.84Z"/><path fill="#2D2C2C" d="M345.616 1449.11L346.896 1450.2C277.976 1494.34 203.492 1538.67 133.423 1581.48L132.331 1579.24C149.926 1569.84 173.2 1554.62 190.525 1543.94L294.822 1479.65C310.125 1470.23 330.079 1457.32 345.616 1449.11Z"/><path fill="#454444" d="M1810.6 1278.46L1883.83 1323.24C1888.76 1326.26 1913.49 1340.89 1917.05 1343.84L1915.39 1345.3C1880.68 1324.81 1844.97 1302.29 1810.61 1281.04L1810.6 1278.46Z"/><path fill="#2D2C2C" d="M2318.26 1594.66L2322.09 1595.05C2334.18 1600.41 2366.65 1622.45 2379.34 1629.92C2388.66 1635.41 2416.78 1651.94 2424.38 1657.74L2423.43 1658.78C2414.49 1654.73 2397.87 1643.8 2388.58 1638.09C2365.49 1623.91 2340.77 1609.57 2318.26 1594.66Z"/><path fill="#2D2C2C" d="M111.731 1591.17L113.097 1593.67C109.268 1597.1 12.2432 1656.35 7.47329 1657.94L6.57212 1657.27C9.64524 1653.99 20.9826 1647.87 25.6903 1645L84.3334 1609.11C91.0884 1604.97 106.786 1596.23 111.731 1591.17Z"/><path fill="#454444" d="M0 1459.7C7.16744 1457.11 22.1508 1449.76 29.6374 1446.25C47.813 1437.57 66.1594 1429.26 84.6657 1421.31C85.1843 1421.08 85.7029 1420.86 86.2215 1420.63C86.4884 1421.29 86.7472 1421.95 86.9979 1422.62C61.2 1431.74 26.2174 1452.36 0 1461.9L0 1459.7Z"/><path fill="#454444" d="M2347.05 1421.37C2350.75 1423.4 2354.8 1424.78 2358.63 1426.58C2382.43 1437.8 2408.34 1447.17 2432 1458.46L2432 1460.71C2427.01 1459.05 2415.8 1453.81 2410.58 1451.56L2366 1432.19C2361.31 1430.14 2350.77 1424.97 2346.5 1424.24C2346.67 1423.16 2346.79 1422.43 2347.05 1421.37Z"/><path fill="#454444" d="M1783.06 1262.15C1785.4 1262.86 1803.74 1273.83 1805.47 1275.34L1804.51 1277.38C1797.06 1272.75 1789.02 1268.2 1781.8 1263.36L1783.06 1262.15Z"/><path fill="#2D2C2C" d="M1805.47 1275.34L1810.08 1277.92L1807.67 1279.38C1806.44 1278.55 1805.8 1278.09 1804.51 1277.38L1805.47 1275.34Z"/><path fill="#666766" d="M1810.08 1277.92L1810.6 1278.46L1810.61 1281.04C1809.57 1280.48 1808.69 1279.99 1807.67 1279.38L1810.08 1277.92Z"/><path fill="#FDFDFD" d="M1899.56 1618.41C1892.8 1615.21 1815.38 1541.01 1804.92 1531.14C1803.41 1529.71 1804.03 1528.17 1804.36 1526.66L1806.6 1525.55C1819.52 1526.77 1835.21 1526.42 1848.44 1526.49L1914.67 1526.84L2141.95 1528.01C2152.14 1534.81 2168.17 1545.08 2177.23 1552.45L2180.15 1553.97L2182.66 1556.05C2209.91 1575.12 2244.55 1601.35 2271.44 1618.48C2240.59 1617.5 2207.45 1618.07 2176.46 1618.05L2014.94 1617.84L1937.46 1617.72C1929.19 1617.72 1906.28 1617.23 1899.56 1618.41Z"/><path fill="#454444" d="M2182.66 1556.05C2209.91 1575.12 2244.55 1601.35 2271.44 1618.48C2240.59 1617.5 2207.45 1618.07 2176.46 1618.05L2014.94 1617.84L1937.46 1617.72C1929.19 1617.72 1906.28 1617.23 1899.56 1618.41L1902.97 1614.43C1908.76 1615.31 1931.77 1614.98 1938.32 1614.99L2012.45 1615.11L2263.96 1616.19C2236.47 1596.5 2208.83 1577.02 2181.04 1557.75L2182.66 1556.05Z"/><path fill="#1F1C1D" d="M1899.56 1618.41C1892.8 1615.21 1815.38 1541.01 1804.92 1531.14C1803.41 1529.71 1804.03 1528.17 1804.36 1526.66L1806.6 1525.55C1811.06 1527.19 1810.64 1526.23 1812.73 1529.44C1825.32 1540.54 1898.03 1605.46 1902.97 1614.43L1899.56 1618.41Z"/><path fill="#454444" d="M1806.6 1525.55C1819.52 1526.77 1835.21 1526.42 1848.44 1526.49L1914.67 1526.84L2141.95 1528.01C2152.14 1534.81 2168.17 1545.08 2177.23 1552.45L2180.15 1553.97L2178.85 1556.81C2173.3 1551.37 2149.18 1535.49 2141.34 1530.19L1920.46 1529.12L1851.58 1528.74C1841.42 1528.69 1822.04 1528.16 1812.73 1529.44C1810.64 1526.23 1811.06 1527.19 1806.6 1525.55Z"/><path fill="#454444" d="M2177.23 1552.45L2180.15 1553.97L2178.85 1556.81C2178.09 1555.04 2177.75 1554.33 2177.23 1552.45Z"/><path fill="#909191" d="M2180.15 1553.97L2182.66 1556.05L2181.04 1557.75L2178.85 1556.81L2180.15 1553.97Z"/><path fill="#1F1C1D" d="M1978.4 1544.6C2013.11 1548.96 2047.78 1553.67 2082.4 1558.72L2079.73 1580.19L1976.01 1566.73L1978.4 1544.6Z"/><path fill="#1F1C1D" d="M1898.69 1534.22C1923.73 1536.7 1947.24 1540.03 1972.18 1543.52L1969.76 1566.1L1948.93 1563.15C1932.5 1560.32 1914.4 1559.35 1898 1555.64C1892.45 1554.38 1896.95 1552.32 1891.58 1550.52C1882.98 1547.62 1874.47 1544.73 1865.94 1541.62C1870.73 1541.14 1875.52 1540.64 1880.31 1540.12C1886.34 1539.45 1894.89 1538.96 1898.69 1534.22Z"/><path fill="#1F1C1D" d="M2086.99 1559.54C2089.09 1559.78 2096.26 1561.04 2098.01 1560.95C2108.14 1560.47 2112.31 1570.94 2106.58 1579.06L2105.72 1580.32C2097.79 1583.59 2093.32 1581.4 2084.86 1580.64C2085.35 1573.59 2086.06 1566.55 2086.99 1559.54Z"/><path fill="#FDFDFD" d="M620.466 1525.62C624.224 1526.35 623.764 1525.62 625.511 1527.93C625.303 1528.89 625.096 1529.85 624.889 1530.8C598.416 1557.19 559.132 1592.51 533.003 1617.61C530.41 1618 531.611 1618.17 529.263 1617.17C424.793 1619.59 319.386 1616.73 214.817 1618.07C195.001 1618.32 175.254 1617.87 155.426 1618.56C168.504 1611.11 187.006 1597.79 200.026 1588.99C230.052 1568.57 260.183 1548.3 290.42 1528.19L408.981 1527.82C418.501 1526.81 451.58 1526.82 461.544 1527.22C497.504 1525.99 535.844 1527.65 571.957 1526.84C584.386 1526.56 609.303 1527.62 620.466 1525.62Z"/><path fill="#454444" d="M461.544 1527.22C497.504 1525.99 535.844 1527.65 571.957 1526.84C584.386 1526.56 609.303 1527.62 620.466 1525.62L616.883 1527.78L616.699 1529.07C559.599 1527.99 497.828 1529.23 440.579 1529.8L291.413 1530.05C251.016 1556.38 202.663 1588.49 163.568 1616.34L427.071 1614.95L493.959 1614.91C500.865 1614.9 522.181 1615.24 527.852 1614.26L529.263 1617.17C424.793 1619.59 319.386 1616.73 214.817 1618.07C195.001 1618.32 175.254 1617.87 155.426 1618.56C168.504 1611.11 187.006 1597.79 200.026 1588.99C230.052 1568.57 260.183 1548.3 290.42 1528.19L408.981 1527.82C418.501 1526.81 451.58 1526.82 461.544 1527.22Z"/><path fill="#909191" d="M408.981 1527.82C418.501 1526.81 451.58 1526.82 461.544 1527.22C454.795 1528.51 416.448 1528.42 408.981 1527.82Z"/><path fill="#1F1C1D" d="M620.466 1525.62C624.224 1526.35 623.764 1525.62 625.511 1527.93C625.303 1528.89 625.096 1529.85 624.889 1530.8C598.416 1557.19 559.132 1592.51 533.003 1617.61C530.41 1618 531.611 1618.17 529.263 1617.17L527.852 1614.26C531.844 1607.22 554.886 1587.07 562.234 1580.2L616.699 1529.07L616.883 1527.78L620.466 1525.62Z"/><path fill="#2D2C2C" d="M795.235 1322.52L842.487 1322.08C827.625 1337.97 801.341 1359.8 784.665 1375.96C760.615 1374.4 730.008 1375.18 705.407 1375.19L574.75 1375.1C558.984 1374.96 543.217 1375.12 527.457 1375.6C548.401 1360.76 584.38 1339.88 602.831 1324.04L795.235 1322.52Z"/><path fill="#FDFDFD" d="M718.498 1325.53C755.024 1324.38 795.609 1324.95 832.594 1324.61C815.865 1340.58 795.944 1356.76 780.231 1373.04L648.5 1373.01L535.361 1373.07C550.001 1363.96 591.146 1336.81 603.554 1326.36C641.87 1326.31 680.185 1326.03 718.498 1325.53Z"/><path fill="#FDFDFD" d="M1650.98 1376.89C1648.99 1377.4 1649.04 1377.87 1647.71 1376.64C1628.85 1359.23 1609.07 1342.57 1590.71 1324.69C1588.36 1322.41 1594.93 1321.34 1595.3 1321.27C1607.85 1322.99 1649.21 1322.05 1664.28 1322.22L1825.4 1324.06L1871.43 1356.54C1879.15 1361.98 1891.1 1369.84 1897.99 1375.5L1742.71 1375.45C1714.35 1375.35 1685.79 1375.04 1657.42 1375.23C1653.99 1375.25 1653.22 1375.15 1650.98 1376.89Z"/><path fill="#2D2C2C" d="M1595.3 1321.27C1607.85 1322.99 1649.21 1322.05 1664.28 1322.22L1825.4 1324.06L1871.43 1356.54C1879.15 1361.98 1891.1 1369.84 1897.99 1375.5L1742.71 1375.45C1714.35 1375.35 1685.79 1375.04 1657.42 1375.23C1653.99 1375.25 1653.22 1375.15 1650.98 1376.89C1650.61 1375.21 1650.38 1373.76 1650.11 1372.07C1655.68 1373.56 1690.23 1372.67 1698.6 1372.75L1890.98 1373.26L1824.71 1326.34L1680.12 1324.96C1657.37 1324.79 1618.71 1325.68 1598.01 1323.66C1596.85 1322.04 1597.05 1321.95 1595.3 1321.27Z"/><path fill="#1F1C1D" d="M1650.98 1376.89C1648.99 1377.4 1649.04 1377.87 1647.71 1376.64C1628.85 1359.23 1609.07 1342.57 1590.71 1324.69C1588.36 1322.41 1594.93 1321.34 1595.3 1321.27C1597.05 1321.95 1596.85 1322.04 1598.01 1323.66C1601.94 1330.05 1609.53 1334.21 1614.63 1339.38C1623.61 1348.48 1642.51 1363.04 1650.11 1372.07C1650.38 1373.76 1650.61 1375.21 1650.98 1376.89Z"/><path fill="#FDFDFD" d="M884.721 1182.9C892.183 1182 915.793 1174.94 921.795 1176.23C929.119 1177.81 933.319 1177.61 940.638 1177.85C935.865 1179.68 927.515 1181.56 925.202 1185.88L940.351 1185.81C942.659 1184.97 979.475 1184.63 982.638 1185.45C981.153 1185.67 979.922 1185.83 978.422 1185.98C977.724 1186.88 976.83 1187.78 976.055 1188.61L975.446 1188.99C969.172 1194.9 946.075 1216.61 940.989 1220.11L941.18 1221.4C934.252 1222.73 891.819 1222.01 882.649 1221.98L746.769 1221.49C760.301 1215.52 793.54 1195.2 806.596 1186.55C821.808 1186.4 836.5 1186.21 851.724 1186.8C865.25 1187.19 867.949 1187.43 881.181 1183.39C882.85 1182.74 882.754 1182.87 884.721 1182.9Z"/><path fill="#454444" d="M806.596 1186.55C821.808 1186.4 836.5 1186.21 851.724 1186.8C853.026 1187.58 856.648 1189.06 856.927 1189.58C856.874 1190.36 854.872 1189.93 854.525 1189.9L849.515 1188.76C842.263 1189.23 828.76 1189.13 821.47 1188.82L807.978 1188.98C790.902 1198.92 773.964 1209.09 757.171 1219.5C798.311 1219.33 839.452 1219.39 880.591 1219.7C896.954 1219.78 925.901 1218.95 940.989 1220.11L941.18 1221.4C934.252 1222.73 891.819 1222.01 882.649 1221.98L746.769 1221.49C760.301 1215.52 793.54 1195.2 806.596 1186.55Z"/><path fill="#909191" d="M821.47 1188.82C827.963 1187.78 843.129 1187.52 849.515 1188.76C842.263 1189.23 828.76 1189.13 821.47 1188.82Z"/><path fill="#1F1C1D" d="M881.181 1183.39C882.85 1182.74 882.754 1182.87 884.721 1182.9C885.433 1188.15 886.123 1191.14 886.187 1196.54C885.27 1196.91 885.217 1196.83 884.207 1196.79C876.419 1197.67 839.795 1204.4 832.494 1206.43C831.999 1202.43 831.913 1200.37 830.975 1196.4C832.249 1195.11 833.082 1194.4 834.967 1194.05C841.521 1192.83 848.042 1191.45 854.525 1189.9C854.872 1189.93 856.874 1190.36 856.927 1189.58C856.648 1189.06 853.026 1187.58 851.724 1186.8C865.25 1187.19 867.949 1187.43 881.181 1183.39Z"/><path fill="#DBDBDB" d="M881.181 1183.39C882.85 1182.74 882.754 1182.87 884.721 1182.9C885.433 1188.15 886.123 1191.14 886.187 1196.54C885.27 1196.91 885.217 1196.83 884.207 1196.79C884.076 1193.2 883.331 1186.44 881.181 1183.39Z"/><path fill="#1F1C1D" d="M884.721 1182.9C892.183 1182 915.793 1174.94 921.795 1176.23C929.119 1177.81 933.319 1177.61 940.638 1177.85C935.865 1179.68 927.515 1181.56 925.202 1185.88L926.177 1187.97C918.948 1189.14 892.171 1194.19 886.187 1196.54C886.123 1191.14 885.433 1188.15 884.721 1182.9Z"/><path fill="#1F1C1D" d="M830.389 1207.03C826.604 1207.45 819.88 1209.61 818.134 1205.04C816.807 1201.56 818.064 1197.01 822.441 1196.81C825.265 1196.69 825.228 1195.87 828.543 1196.44L830.975 1196.4C831.913 1200.37 831.999 1202.43 832.494 1206.43C831.458 1206.82 831.45 1206.87 830.389 1207.03Z"/><path fill="#DBDBDB" d="M828.543 1196.44L830.975 1196.4C831.913 1200.37 831.999 1202.43 832.494 1206.43C831.458 1206.82 831.45 1206.87 830.389 1207.03C830.273 1206.43 830.157 1205.82 830.042 1205.22L828.543 1196.44Z"/><path fill="#454444" d="M940.351 1185.81C942.659 1184.97 979.475 1184.63 982.638 1185.45C981.153 1185.67 979.922 1185.83 978.422 1185.98C977.724 1186.88 976.83 1187.78 976.055 1188.61L975.446 1188.99C969.908 1187.04 952.048 1188.18 944.466 1187.82C939.09 1188 931.506 1188.12 926.177 1187.97L925.202 1185.88L940.351 1185.81Z"/><path fill="#AFAFB0" d="M940.351 1185.81C942.659 1184.97 979.475 1184.63 982.638 1185.45C981.153 1185.67 979.922 1185.83 978.422 1185.98C968.641 1185.83 949.079 1186.85 940.351 1185.81Z"/><path fill="#909191" d="M944.466 1187.82C949.592 1186.94 972.913 1185.32 976.055 1188.61L975.446 1188.99C969.908 1187.04 952.048 1188.18 944.466 1187.82Z"/><path fill="#666766" d="M623.473 1554.76C625.003 1556.38 624.481 1555.42 624.551 1557.96C616.715 1566.82 596.964 1584.39 587.642 1593.07C568.637 1610.78 548.776 1630.27 529.402 1647.27L161.463 1646.51L161.018 1646.26L161.231 1645.55C282.634 1643.91 406.65 1645.02 528.215 1644.98C548.91 1624.49 571.614 1604.62 592.679 1584.48C601.48 1576.06 616.032 1563.56 623.473 1554.76Z"/><path fill="#454444" d="M532.334 1692.09C502.813 1691.4 472.182 1691.85 442.556 1691.79L255.665 1691.79L191.535 1691.9C186.451 1691.92 161.651 1693.23 159.312 1689.7C174.709 1688.19 211.036 1689.21 227.843 1689.19L366.781 1689.04L469.672 1689.23C482.431 1689.16 516.458 1688.1 527.32 1689.59L532.334 1692.09Z"/><path fill="#454444" d="M1902.79 1689.44L2157.5 1689.11C2171.61 1689.1 2259.99 1687.58 2267.33 1690.23L2266.75 1691.19C2259.78 1692.31 2236.91 1691.8 2229.01 1691.8L2148.4 1691.75L1983.13 1691.59C1955.41 1691.63 1926.38 1692.44 1898.82 1691.92C1902.15 1690.92 1900.98 1691.88 1902.79 1689.44Z"/><path fill="#2D2C2C" d="M527.32 1689.59C528.077 1687.42 529.72 1684.38 531.478 1682.99C543.914 1673.21 616.976 1595.34 623.992 1592.95C625.523 1594.87 625.809 1597.02 625.457 1599.53C624.807 1604.18 542.008 1681.58 532.334 1692.09L527.32 1689.59Z"/><path fill="#2D2C2C" d="M1590.05 1365.36C1594.09 1367.66 1607.41 1380.66 1611.52 1384.57C1626.25 1398.57 1640.9 1412.65 1655.46 1426.82C1734.66 1427.81 1814.2 1426.26 1893.42 1426.98C1895.84 1427 1895.25 1426.88 1896.72 1428.53C1889.44 1429.32 1875.37 1429 1867.76 1429L1817.22 1428.94L1649.78 1429.01C1633.42 1412.49 1615.09 1396.71 1598.59 1380.24C1592.36 1374.02 1590.02 1373.03 1590.05 1365.36Z"/><path fill="#1F1C1D" d="M1898.82 1691.92L1830.12 1626.51C1823.05 1619.69 1802.22 1603.22 1804.04 1593.66L1805.46 1592.93C1809.46 1596.22 1822.67 1608.87 1825.63 1612.27C1836.35 1624.64 1900.64 1679.53 1902.79 1689.44C1900.98 1691.88 1902.15 1690.92 1898.82 1691.92Z"/><path fill="#AFAFB0" d="M528.218 1658.12L528.552 1657.98L530.083 1659.25L529.188 1660.23C523.37 1661.35 501 1660.97 493.955 1660.97L425.282 1661C357.303 1661.37 289.323 1661.05 221.351 1660.03C202.61 1659.62 177.638 1660.69 159.711 1659.31C165.488 1657.95 186.97 1658.47 193.986 1658.48L264.419 1658.49L528.218 1658.12Z"/><path fill="#666766" d="M528.218 1658.12L528.552 1657.98L530.083 1659.25L529.188 1660.23C524.414 1659.89 506.644 1660.42 504.024 1659.58L503.996 1659.5C507.896 1657.97 521.766 1659.91 528.218 1658.12Z"/><path fill="#666766" d="M982.551 1201.45C982.752 1202.92 982.832 1204.03 982.932 1205.5L982.996 1206.89C983.056 1207.97 982.902 1209.07 982.802 1210.15L982.45 1213.32C975.841 1219.11 961.176 1233.56 955.168 1240.22L953.432 1238.75C952.51 1239.54 952.559 1239.49 951.656 1240.42C948.633 1243.57 945.566 1246.68 942.456 1249.74L940.784 1250.04L941.856 1245.29C909.686 1244.83 877.512 1244.69 845.338 1244.86C823.926 1244.81 800.7 1244.03 779.558 1244.71C773.584 1245.13 758.871 1245.43 753.295 1243.82C757.591 1242.87 802.647 1242.91 810.915 1243.02C853.877 1243.58 899.055 1241.77 941.775 1243.16C941.591 1241.65 941.412 1240.22 941.276 1238.7C945.794 1237.1 976.888 1206.96 982.551 1201.45Z"/><path fill="#DBDBDB" d="M982.996 1206.89C983.056 1207.97 982.902 1209.07 982.802 1210.15L982.45 1213.32C975.841 1219.11 961.176 1233.56 955.168 1240.22L953.432 1238.75C952.51 1239.54 952.559 1239.49 951.656 1240.42C948.633 1243.57 945.566 1246.68 942.456 1249.74L940.784 1250.04L941.856 1245.29C943.921 1245.35 977.85 1211.94 982.996 1206.89Z"/><path fill="#2D2C2C" d="M953.432 1238.75C961.945 1230.55 974.222 1217.24 982.802 1210.15L982.45 1213.32C975.841 1219.11 961.176 1233.56 955.168 1240.22L953.432 1238.75Z"/><path fill="#DBDBDB" d="M982.551 1201.45C982.752 1202.92 982.832 1204.03 982.932 1205.5C979.376 1205.47 948.209 1238.1 941.775 1243.16C941.591 1241.65 941.412 1240.22 941.276 1238.7C945.794 1237.1 976.888 1206.96 982.551 1201.45Z"/><path fill="#DBDBDB" d="M753.295 1243.82C759.919 1243.46 773.204 1243.38 779.558 1244.71C773.584 1245.13 758.871 1245.43 753.295 1243.82Z"/><path fill="#454444" d="M955.168 1240.22C961.176 1233.56 975.841 1219.11 982.45 1213.32C982.589 1214.87 982.74 1216.42 982.904 1217.96C982.329 1224.76 950.558 1251.07 943.152 1260.68L816.516 1260.91C804.79 1260.93 764.623 1261.68 755.108 1259.69C766.214 1258.07 794.013 1258.75 806.556 1258.75L902.661 1258.7C909.1 1258.7 939.312 1259.82 942.394 1256.92C941.898 1255.64 941.522 1254.26 941.116 1252.94C942.395 1252.4 942.993 1252.24 944.105 1251.43L942.456 1249.74C945.566 1246.68 948.633 1243.57 951.656 1240.42C952.559 1239.49 952.51 1239.54 953.432 1238.75L955.168 1240.22Z"/><path fill="#DBDBDB" d="M955.168 1240.22C961.176 1233.56 975.841 1219.11 982.45 1213.32C982.589 1214.87 982.74 1216.42 982.904 1217.96C978.836 1218.86 945.971 1251.97 942.394 1256.92C941.898 1255.64 941.522 1254.26 941.116 1252.94C942.395 1252.4 942.993 1252.24 944.105 1251.43L942.456 1249.74C945.566 1246.68 948.633 1243.57 951.656 1240.42C952.559 1239.49 952.51 1239.54 953.432 1238.75L955.168 1240.22Z"/><path fill="#1F1C1D" d="M951.656 1240.42L951.978 1243.16C948.978 1245.79 946.393 1248.17 944.105 1251.43L942.456 1249.74C945.566 1246.68 948.633 1243.57 951.656 1240.42Z"/><path fill="#454444" d="M953.432 1238.75L955.168 1240.22C954.068 1241.28 953.107 1242.15 951.978 1243.16L951.656 1240.42C952.559 1239.49 952.51 1239.54 953.432 1238.75Z"/><path fill="#1F1C1D" d="M978.422 1185.98C979.922 1185.83 981.153 1185.67 982.638 1185.45L982.646 1188.54C982.585 1190.3 982.636 1191.83 982.688 1193.58L982.77 1195.82C974.243 1202.58 947.136 1230.86 941.136 1231.88C932.195 1229.21 848.463 1230.84 833.642 1230.81C826.304 1228.45 822.906 1229.91 814.984 1229.21C854.244 1229.06 903.647 1227.57 942.109 1229.31L942.082 1227.32C941.848 1225.12 941.789 1223.5 941.18 1221.4L940.989 1220.11C946.075 1216.61 969.172 1194.9 975.446 1188.99L976.055 1188.61C976.83 1187.78 977.724 1186.88 978.422 1185.98Z"/><path fill="#454444" d="M982.688 1193.58L982.77 1195.82C974.243 1202.58 947.136 1230.86 941.136 1231.88C932.195 1229.21 848.463 1230.84 833.642 1230.81C826.304 1228.45 822.906 1229.91 814.984 1229.21C854.244 1229.06 903.647 1227.57 942.109 1229.31C952.326 1222.91 974.735 1196.83 982.688 1193.58Z"/><path fill="#DBDBDB" d="M942.082 1227.32C954.036 1214.76 970.799 1201.39 982.646 1188.54C982.585 1190.3 982.636 1191.83 982.688 1193.58C974.735 1196.83 952.326 1222.91 942.109 1229.31L942.082 1227.32Z"/><path fill="#454444" d="M778.368 1386.99C796.872 1371.24 819.72 1348.69 837.917 1331.84L838.349 1332.62C834.927 1340.7 825.152 1347.79 818.191 1354.05C817.034 1355.49 815.669 1356.74 814.141 1357.77L804.175 1366.95C803.247 1368.15 803.124 1368.33 801.798 1369.06C794.33 1376.12 787.206 1382.94 779.348 1389.58C754.721 1390.32 532.847 1388.96 530.759 1387.96C537.265 1385.95 589.703 1387.09 600.635 1387.1C659.879 1387.41 719.125 1387.38 778.368 1386.99Z"/><path fill="#666766" d="M818.191 1354.05C817.034 1355.49 815.669 1356.74 814.141 1357.77C815.318 1355.63 815.689 1354.44 818.191 1354.05Z"/><path fill="#909191" d="M804.175 1366.95C803.247 1368.15 803.124 1368.33 801.798 1369.06C802.466 1367.53 802.514 1367.33 804.175 1366.95Z"/><path fill="#909191" d="M528.445 1634.82C522.514 1635.72 499.056 1635.19 492.042 1635.15L416.447 1634.72L161.031 1633.5L160.528 1632.56L416.516 1632.42L487.812 1632.42C498.873 1632.4 517.13 1631.89 527.489 1632.89L528.445 1634.82Z"/><path fill="#AFAFB0" d="M982.77 1195.82C982.453 1197.47 982.609 1198.41 981.755 1199.24L982.551 1201.45C976.888 1206.96 945.794 1237.1 941.276 1238.7C936.67 1237.3 905.876 1237.81 898.655 1237.83C894.892 1238.51 870.291 1238.32 865.001 1238.19C843.554 1237.69 819.903 1238.55 798.668 1237.17L757.284 1237.04C755.378 1237.03 754.706 1237.19 753.537 1236.02C758.57 1234.5 795.274 1234.91 802.509 1234.92L909.463 1235.37C913.938 1235.4 937.32 1235.99 940.434 1234.94L941.136 1231.88C947.136 1230.86 974.243 1202.58 982.77 1195.82Z"/><path fill="#454444" d="M981.755 1199.24L982.551 1201.45C976.888 1206.96 945.794 1237.1 941.276 1238.7C936.67 1237.3 905.876 1237.81 898.655 1237.83C894.763 1236.7 847.876 1237.26 838.829 1236.55C842.403 1235.89 864.545 1236.16 869.897 1236.15L942.045 1236.07C954.919 1225.8 969.185 1210.87 981.755 1199.24Z"/><path fill="#666766" d="M753.537 1236.02C762.957 1236.48 833.769 1234.86 837.25 1236.4C837.265 1236.47 837.28 1236.55 837.295 1236.62C836.41 1237.2 803.599 1236.87 798.668 1237.17L757.284 1237.04C755.378 1237.03 754.706 1237.19 753.537 1236.02Z"/><path fill="#AFAFB0" d="M1903.08 1658.39C1911.14 1657.14 1935.84 1657.83 1945.3 1657.92C1969.18 1658.17 1993.06 1658.26 2016.93 1658.19L2183.52 1658.95L2237.69 1659.21C2244.95 1659.28 2259.11 1659.11 2265.58 1660.02C2238.06 1661.96 2199.26 1660.76 2171.22 1660.62C2115.19 1660.26 2059.17 1660.2 2003.15 1660.45C1974.4 1660.38 1930.97 1659.07 1902.89 1660.65L1903.08 1658.39Z"/><path fill="#AFAFB0" d="M1902.66 1632.21C1925.72 1632.73 1949.61 1632.22 1972.8 1632.3L2160 1632.36L2226.13 1632.39C2237.5 1632.4 2254.07 1631.95 2264.87 1633.08C2249.58 1634.74 2218.5 1633.93 2201.79 1633.97L2084.45 1634.3C2040.39 1634.82 1996.32 1634.99 1952.26 1634.81C1944.58 1634.82 1905.43 1635.36 1900.73 1634.29L1902.88 1633.89L1902.72 1633.1L1902.66 1632.21Z"/><path fill="#909191" d="M1902.72 1633.1C1910.46 1633.05 1955.7 1632.38 1959.02 1633.41L1959.12 1633.54C1958.76 1634.02 1907.46 1634.04 1902.88 1633.89L1902.72 1633.1Z"/><path fill="#909191" d="M1650.88 1389.25C1644.62 1383.87 1591.61 1336.58 1591.26 1333.04C1596.8 1335.18 1643.85 1379.74 1652.45 1387.33C1668.81 1386.36 1690.31 1386.95 1706.96 1386.95L1804.92 1387.11L1865.02 1387.23C1871.91 1387.23 1889.46 1386.82 1895.56 1387.64L1895.6 1388.7C1889.02 1389.76 1800.01 1390.13 1793.52 1388.95C1746.61 1389.74 1697.94 1389.24 1650.88 1389.25Z"/><path fill="#2D2C2C" d="M1650.88 1389.25C1644.62 1383.87 1591.61 1336.58 1591.26 1333.04C1596.8 1335.18 1643.85 1379.74 1652.45 1387.33C1663.61 1388.73 1683.98 1388.16 1695.91 1388.1C1717.82 1387.99 1739.72 1388 1761.63 1388.13C1767.88 1388.16 1787.84 1387.96 1793.52 1388.95C1746.61 1389.74 1697.94 1389.24 1650.88 1389.25Z"/><path fill="#666766" d="M837.798 1340.01L838.612 1341.12C838.495 1341.91 838.379 1342.69 838.262 1343.48C823.639 1357.55 793.399 1387.92 778.698 1399.04L532.366 1398.61L531.729 1398.25L531.899 1397.33C557.254 1396.18 590.42 1397.04 616.229 1396.99L777.477 1396.68C783.251 1392.66 796.913 1379.44 802.337 1374.26C813.743 1363.37 827.097 1351.42 837.798 1340.01Z"/><path fill="#666766" d="M1602.06 1353.59C1597.89 1349.8 1593.98 1346.78 1591.39 1341.79L1591.84 1341.09C1608.57 1353.78 1635.88 1381.93 1652.47 1396.8L1824.18 1397L1868.74 1397.18C1874.72 1397.2 1888.69 1396.95 1894.14 1397.87L1894.18 1397.93C1892.66 1397.73 1885.69 1398.49 1882.97 1398.49C1867.68 1398.53 1852.21 1398.54 1836.94 1398.55L1689.59 1399.07C1683.94 1399.08 1653.22 1399.94 1649.98 1397.85C1649.32 1397.31 1649.7 1397.65 1648.89 1396.76C1643.93 1392.26 1639.02 1387.59 1634.12 1383.02C1632.28 1382.97 1632.6 1382.92 1631.87 1381.19L1622.07 1372.19C1620.58 1371.57 1620.08 1370.8 1619.1 1369.56C1618.16 1369.06 1618.23 1369.06 1617.7 1368.11L1608.09 1359.25C1605.12 1357.89 1604.11 1356.04 1602.06 1353.59Z"/><path fill="#AFAFB0" d="M1602.06 1353.59C1604.19 1355.28 1606.45 1357.07 1608.09 1359.25C1605.12 1357.89 1604.11 1356.04 1602.06 1353.59Z"/><path fill="#909191" d="M1631.87 1381.19C1633.57 1381.31 1633.46 1381.45 1634.12 1383.02C1632.28 1382.97 1632.6 1382.92 1631.87 1381.19Z"/><path fill="#454444" d="M1604.77 1373C1600.3 1368.86 1595.03 1364.32 1591.42 1359.51L1592 1359.12L1590.89 1358.14C1599.05 1363.29 1612.65 1376.6 1620.16 1383.63C1620.78 1384.02 1620.73 1383.98 1621.17 1384.58L1633.9 1396.72C1636.16 1397.79 1637 1398.63 1638.34 1400.85L1652.3 1414.56C1672.11 1415.65 1697.14 1414.97 1717.5 1415L1837.55 1415.29C1844.7 1415.32 1889.61 1415.28 1893.28 1416.1C1874.45 1418.07 1832.97 1416.95 1812.72 1416.97L1651.52 1417.06L1641.31 1407.21C1640.18 1406.94 1640.26 1406.97 1639.85 1405.81C1635.06 1401.08 1629.09 1395.84 1624.07 1391.21C1621.41 1390.05 1620.84 1388.71 1619.1 1386.41C1618.59 1385.62 1608.52 1376.31 1607.13 1375.01C1605.99 1374.68 1605.54 1374.7 1605.08 1373.65L1604.77 1373Z"/><path fill="#AFAFB0" d="M1633.9 1396.72C1636.16 1397.79 1637 1398.63 1638.34 1400.85C1636.57 1399.95 1635.16 1398.25 1633.9 1396.72Z"/><path fill="#AFAFB0" d="M1619.1 1386.41C1621.05 1388.06 1622.56 1389.16 1624.07 1391.21C1621.41 1390.05 1620.84 1388.71 1619.1 1386.41Z"/><path fill="#AFAFB0" d="M1604.77 1373C1606.25 1373.41 1606.15 1373.58 1607.13 1375.01C1605.99 1374.68 1605.54 1374.7 1605.08 1373.65L1604.77 1373Z"/><path fill="#666766" d="M777.633 1405.75C790.596 1393.88 803.432 1381.86 816.136 1369.71C822.147 1363.96 831.456 1353.63 838.018 1349.62L838.828 1350.25C834.614 1356.52 821.274 1368.41 815.269 1374.04C814.758 1375.06 814.863 1375.04 813.805 1375.43C802.808 1385.83 790.045 1397.33 779.532 1408L634.072 1407.86C619.878 1407.83 580.763 1406.4 568.57 1407.72C562.814 1408.13 535.526 1408.04 530.918 1406.84C535.051 1405.93 586.691 1406.13 594.515 1406.11L777.633 1405.75Z"/><path fill="#DBDBDB" d="M530.918 1406.84C537.543 1406.23 562.437 1406.33 568.57 1407.72C562.814 1408.13 535.526 1408.04 530.918 1406.84Z"/><path fill="#909191" d="M1901.94 1645.04C1972.93 1643.6 2049.34 1644.88 2120.57 1645.09L2208.02 1645.47C2225.76 1645.49 2247.2 1644.98 2264.65 1645.93C2250.89 1647.05 2232.22 1646.57 2218.15 1646.62L2143.29 1646.9C2083.1 1647.03 2017.62 1648.47 1958.02 1646.85C1948.23 1647.13 1936.71 1647.04 1926.89 1646.84C1921.03 1647.46 1908.69 1647.08 1901.71 1647.45L1901.94 1645.04Z"/><path fill="#AFAFB0" d="M1926.89 1646.84C1933.39 1645.92 1951.54 1646.03 1958.02 1646.85C1948.23 1647.13 1936.71 1647.04 1926.89 1646.84Z"/><path fill="#AFAFB0" d="M1903.08 1671.39C1913.46 1670.31 1939.25 1671.19 1950.56 1671.24L2045.93 1671.5C2104.14 1671.52 2162.37 1671.26 2220.58 1672.09C2225.37 1672.16 2229.88 1672.03 2234.66 1672.55C2214.09 1673.66 2191.74 1673.1 2170.97 1673.35C2105.96 1673.71 2040.96 1673.72 1975.95 1673.38C1952.92 1673.42 1925.73 1672.77 1902.88 1673.56L1903.08 1671.39Z"/><path fill="#AFAFB0" d="M253.448 1672.04C334.082 1670.44 415.131 1672.06 495.825 1671.01C506.182 1670.88 517.243 1670.76 527.57 1671.41L521.371 1672.23L521.185 1672.75C523.828 1672.88 526.307 1672.88 528.899 1673.35C520.485 1674.92 470.663 1673.54 458.595 1673.52L283.526 1673.51C274.148 1671.96 263.558 1673.97 253.448 1672.04Z"/><path fill="#666766" d="M521.185 1672.75C518.432 1672.95 515.686 1673.01 512.929 1673.06L512.219 1672.5L511.469 1672.68L511.366 1672.49L511.446 1672.29C511.993 1672.52 511.756 1672.47 512.169 1672.49C512.966 1671.88 512.632 1671.91 513.456 1671.92C516.097 1671.95 518.736 1672.05 521.371 1672.23L521.185 1672.75Z"/><path fill="#909191" d="M284.674 1672.5C290.167 1672.45 302.566 1671.98 307.497 1672.5C302.592 1673.04 290.299 1672.56 284.674 1672.5Z"/><path fill="#909191" d="M308.498 1672.5C312.277 1672.38 319.88 1672.08 323.496 1672.5C319.96 1672.92 312.19 1672.62 308.498 1672.5Z"/><path fill="#454444" d="M777.465 1414.86L794.3 1398.6L795.25 1401.17L778.672 1417.21L600.63 1416.97C589.811 1416.95 536.921 1417.87 530.941 1415.84C538.851 1413.79 585.179 1415.09 597.269 1415.08L777.465 1414.86Z"/><path fill="#909191" d="M1643.42 1397.54C1647.22 1400.5 1649.28 1402.37 1652.69 1405.66L1806.59 1405.78C1833.66 1405.84 1867.42 1405.11 1894.12 1406.72C1884.17 1407.9 1869.23 1407.54 1858.98 1407.56L1802.79 1407.73C1753.36 1407.94 1703.93 1408.15 1654.5 1408.13C1650.86 1408.13 1648.6 1405.46 1646.01 1403.14C1644.01 1402.97 1644.01 1402.57 1643.28 1400.74L1640.59 1398.49L1643.42 1397.54Z"/><path fill="#AFAFB0" d="M1643.28 1400.74C1645.01 1401.53 1644.93 1401.52 1646.01 1403.14C1644.01 1402.97 1644.01 1402.57 1643.28 1400.74Z"/><path fill="#909191" d="M1643.42 1397.54L1643.28 1400.74L1640.59 1398.49L1643.42 1397.54Z"/><path fill="#454444" d="M780.096 1428.74C774.711 1429.76 762.318 1429.05 756.205 1429.05L704.287 1429C690.602 1428.99 533.321 1429.7 530.721 1427.78C536.043 1425.67 676.62 1426.94 692.731 1426.94L745.555 1426.8C754.884 1426.76 768.825 1426.3 777.669 1427.38C778.478 1427.83 779.287 1428.28 780.096 1428.74Z"/><path fill="#1F1C1D" d="M777.669 1427.38C777.826 1426.55 777.984 1425.72 778.141 1424.9C778.308 1423.8 778.701 1422.78 779.531 1422.01C794.181 1408.45 808.384 1393.81 823.031 1380.33C825.21 1378.32 838.623 1362.92 839.031 1367.51C839.336 1370.93 838.075 1373.74 835.18 1375.56C822.248 1388.07 809.504 1400.78 796.513 1413.23C791.124 1418.39 785.322 1423.54 780.096 1428.74C779.287 1428.28 778.478 1427.83 777.669 1427.38Z"/><path fill="#666766" d="M942.456 1249.74L944.105 1251.43C942.993 1252.24 942.395 1252.4 941.116 1252.94C935.525 1251.71 901.447 1252.45 893.663 1252.26C848.724 1251.19 800.363 1253.49 755.739 1251.27L755.664 1250.86C774.056 1249.13 803.213 1250.01 822.502 1250.02L940.784 1250.04L942.456 1249.74Z"/><path fill="#2D2C2C" d="M527.489 1632.89C539.464 1621.29 616.144 1547.23 623.609 1544.13C620.233 1551.19 558.138 1607.51 549.171 1615.86C548.526 1616.75 548.673 1616.55 547.705 1617.21C542.354 1622.4 534.275 1630.72 528.445 1634.82L527.489 1632.89Z"/><path fill="#2D2C2C" d="M1845.9 1582.72C1832.47 1570.4 1817.47 1557.16 1805.13 1543.91L1805.87 1543.68C1817.94 1551.23 1828.43 1563.22 1839.26 1573.07C1860.54 1592.44 1881.39 1612.81 1902.66 1632.21L1902.72 1633.1L1902.88 1633.89L1900.73 1634.29L1847.36 1584.1C1846.42 1583.53 1846.41 1583.61 1845.9 1582.72Z"/><path fill="#2D2C2C" d="M1826.89 1602.78C1822.41 1598.7 1807.76 1586.05 1806.2 1581.13C1813.51 1585.9 1828.09 1600.45 1835.16 1607.16L1883.02 1652.71C1886.6 1656.12 1900.07 1669.34 1903.08 1671.39L1902.88 1673.56C1898.41 1671.94 1892.03 1664.82 1888.3 1661.15C1887.35 1660.46 1887.48 1660.65 1886.84 1659.75C1868.71 1642.8 1850.71 1625.72 1832.85 1608.5C1831.05 1607.05 1828.1 1604.71 1826.89 1602.78Z"/><path fill="#666766" d="M1826.89 1602.78C1829.61 1603.75 1831.09 1606.18 1832.85 1608.5C1831.05 1607.05 1828.1 1604.71 1826.89 1602.78Z"/><path fill="#2D2C2C" d="M527.57 1671.41C549.101 1653.08 571.857 1628.18 593.229 1608.97C603.082 1600.11 612.753 1588.7 623.802 1581.21C624.046 1581.61 623.925 1581.34 624.012 1582.07C613.488 1594.81 589.778 1615.93 576.692 1628.34C562.907 1641.41 542.932 1661.68 528.899 1673.35C526.307 1672.88 523.828 1672.88 521.185 1672.75L521.371 1672.23L527.57 1671.41Z"/><path fill="#2D2C2C" d="M1835.89 1598.71C1830.91 1594.15 1805.96 1572.18 1805 1567.96C1815.28 1574.07 1826.61 1586.7 1835.84 1595.46L1883.47 1640.53C1887.05 1643.91 1899.68 1656.21 1903.08 1658.39L1902.89 1660.65C1898.35 1658.69 1895.7 1655.39 1892.17 1651.83C1890.77 1650.7 1890.62 1650.47 1889.43 1649.05C1888.36 1648.42 1888.49 1648.63 1887.9 1647.7C1870.94 1632.19 1854.23 1616.43 1837.76 1600.41C1836.6 1599.71 1836.63 1599.81 1835.89 1598.71Z"/><path fill="#2D2C2C" d="M528.552 1657.98C547.003 1639.16 568.739 1619.8 587.994 1601.46C596.828 1593.04 614.584 1575.43 623.143 1568.93C621.322 1574.69 541.48 1649.72 530.083 1659.25L528.552 1657.98Z"/><path fill="#2D2C2C" d="M1865.93 1614.69L1826.34 1577.61C1821.26 1572.85 1809.43 1562.64 1806.15 1557.57L1806.7 1556.77C1811.56 1559.59 1842.45 1589.09 1849.01 1595.51C1865.62 1611.77 1885.84 1628.88 1901.94 1645.04L1901.71 1647.45C1897.89 1645 1872.38 1620.72 1867.37 1616.04C1866.43 1615.5 1866.42 1615.58 1865.93 1614.69Z"/><path fill="#2D2C2C" d="M1595.02 1355.55C1592.29 1352.73 1590.71 1352.52 1590.99 1348.74C1592.63 1349.28 1592.14 1349.01 1593.38 1350.04L1594.28 1350.74C1595.1 1351.35 1595.73 1351.97 1596.26 1352.85C1600.23 1356.8 1604.65 1361.12 1608.88 1364.79C1610.15 1364.94 1609.99 1364.94 1610.33 1366.13C1614.98 1370.62 1620.03 1375.47 1624.87 1379.74C1625.97 1380.22 1625.98 1380.11 1626.41 1381.19C1631.89 1386.64 1637.83 1392.14 1643.42 1397.54L1640.59 1398.49C1638.32 1395.51 1635.94 1393.61 1633.11 1391.12C1630.06 1390.02 1627.1 1386.03 1625.05 1383.51C1621.33 1380 1617.99 1376.65 1614.13 1373.22C1611.33 1372 1610.91 1370.82 1609.04 1368.36C1606.89 1366.13 1604.5 1364.05 1602.13 1362.07C1599.7 1361.24 1596.15 1357.76 1595.02 1355.55Z"/><path fill="#AFAFB0" d="M1595.02 1355.55C1597.07 1356.53 1601.02 1360.25 1602.13 1362.07C1599.7 1361.24 1596.15 1357.76 1595.02 1355.55Z"/><path fill="#AFAFB0" d="M1625.05 1383.51C1627.08 1385.16 1631.71 1389.03 1633.11 1391.12C1630.06 1390.02 1627.1 1386.03 1625.05 1383.51Z"/><path fill="#AFAFB0" d="M1609.04 1368.36C1611.11 1370.02 1612.67 1371.03 1614.13 1373.22C1611.33 1372 1610.91 1370.82 1609.04 1368.36Z"/><path fill="#DBDBDB" d="M283.526 1673.51L194.829 1673.62C187.841 1673.58 166.135 1673.98 160.651 1672.78C170.05 1670.85 242.917 1670.63 253.448 1672.04C263.558 1673.97 274.148 1671.96 283.526 1673.51Z"/><path fill="#454444" d="M811.097 1382.68C815.879 1378.54 832.523 1362.07 837.96 1357.04C838.189 1356.83 838.381 1357.18 838.578 1357.4C838.95 1357.81 838.504 1359.66 838.242 1359.98C830.976 1368.68 816.728 1379.99 809.311 1387.79C808.879 1388.75 808.745 1389.02 807.733 1389.31C803.793 1392.74 798.94 1397.42 795.25 1401.17L794.3 1398.6C798.521 1395.15 805.512 1388.17 809.56 1384.12C810.019 1383.1 810.037 1383.2 811.097 1382.68Z"/><path fill="#AFAFB0" d="M833.642 1230.81C822.05 1231.52 763.71 1231.83 754.186 1229.62L754.505 1229.37L754.186 1229.48L754.108 1229.27C754.955 1228.07 809.597 1228.5 814.984 1229.21C822.906 1229.91 826.304 1228.45 833.642 1230.81Z"/><path fill="#AFAFB0" d="M2239.52 1672.5C2242.47 1671.41 2265.15 1672.07 2268.85 1672.5C2265.06 1672.99 2242.6 1673.63 2239.52 1672.5Z"/><path fill="#FDFDFD" d="M2155.36 0L2158.94 0L2432 0L2432 1458.46C2408.34 1447.17 2382.43 1437.8 2358.63 1426.58C2354.8 1424.78 2350.75 1423.4 2347.05 1421.37C2346.79 1422.43 2346.67 1423.16 2346.5 1424.24C2340.18 1457.28 2334.71 1490.47 2330.07 1523.78C2326.96 1545.44 2322.97 1573.49 2322.09 1595.05L2318.26 1594.66C2312.6 1591.63 2303.29 1585.43 2297.51 1581.86L2179.03 1508.81L2177.96 1508.34C2156.76 1494.15 2131.86 1479.57 2109.91 1465.79L1931.28 1355.35L1934.49 1353.94C1936.49 1347.1 1939.88 1320.1 1941.33 1311.17C1944.68 1290.53 1950.12 1268.08 1952.95 1247.79L1953.06 1245.72C1956.36 1237.46 1958.46 1223.77 1960.9 1214.42C1971.47 1173.82 1979.58 1129.09 2007.39 1096.12C2010.61 1092.3 2014.96 1090.39 2017.61 1086L2016.76 1084.31L2010.5 1082.46L1943.86 1065.74C1895.86 1053.42 1870.37 1036.91 1833.08 1079.77C1831.79 1054.39 1832.88 1016.93 1832.84 990.297L1832.79 806.539L1832.65 260.65L1913.38 196.303L1914.38 195.584L1912.28 194.232L2155.36 0Z"/><path fill="#FDFDFD" d="M1952.95 1247.79C2008.1 1269.4 2065.3 1297.55 2121.4 1319.51C2112.74 1347.99 2104.33 1376.54 2096.18 1405.17C2092.46 1418.09 2088.39 1434.34 2084.3 1446.72L1987.46 1387.2C1972.36 1377.89 1947.99 1363.84 1934.49 1353.94C1936.49 1347.1 1939.88 1320.1 1941.33 1311.17C1944.68 1290.53 1950.12 1268.08 1952.95 1247.79Z"/><path fill="#1F1C1D" d="M2300.64 1580.72C2301.85 1576.05 2304.24 1553.93 2305.04 1547.79C2307.41 1529.01 2310.27 1510.29 2313.63 1491.66C2322.36 1439.86 2333.35 1388.47 2346.56 1337.62C2359.86 1286.89 2374.88 1224.76 2419.85 1192.97C2419.79 1197.85 2419.41 1204.04 2420.44 1208.66C2375.82 1253.99 2367.66 1334.63 2352.5 1394.23C2350.28 1402.94 2349.28 1412.67 2347.05 1421.37C2346.79 1422.43 2346.67 1423.16 2346.5 1424.24C2340.18 1457.28 2334.71 1490.47 2330.07 1523.78C2326.96 1545.44 2322.97 1573.49 2322.09 1595.05L2318.26 1594.66C2312.6 1591.63 2303.29 1585.43 2297.51 1581.86L2300.64 1580.72Z"/><path fill="#454444" d="M2121.9 1317.76C2132.23 1283.8 2145.38 1238.09 2158.76 1205.71L2160.12 1205.14C2160.99 1209.29 2153.24 1225.93 2151.49 1231.52C2145.05 1252.14 2138.25 1272.68 2131.75 1293.29C2115.91 1344.73 2100.8 1396.39 2086.41 1448.25C2106.55 1461.08 2126.79 1473.76 2147.13 1486.28C2154.31 1490.73 2171.77 1502.14 2178.58 1505.27C2179.18 1505.8 2179.78 1506.33 2180.37 1506.87L2179.03 1508.81L2177.96 1508.34C2156.76 1494.15 2131.86 1479.57 2109.91 1465.79L1931.28 1355.35L1934.49 1353.94C1947.99 1363.84 1972.36 1377.89 1987.46 1387.2L2084.3 1446.72C2088.39 1434.34 2092.46 1418.09 2096.18 1405.17C2104.33 1376.54 2112.74 1347.99 2121.4 1319.51C2065.3 1297.55 2008.1 1269.4 1952.95 1247.79L1953.06 1245.72C1974.68 1254.1 1998.57 1265.07 2020.04 1274.33L2121.9 1317.76Z"/><path fill="#666766" d="M2178.58 1505.27C2179.18 1505.8 2179.78 1506.33 2180.37 1506.87L2179.03 1508.81L2177.96 1508.34L2178.58 1505.27Z"/><path fill="#2D2C2C" d="M2155.36 0L2158.94 0L1992.02 133.254C1967.44 152.911 1937.88 175.356 1914.38 195.584L1912.28 194.232L2155.36 0Z"/><path fill="#2D2C2C" d="M2419.85 1192.97C2413.34 1189.93 2402.07 1187.42 2394.77 1185.42L2344.41 1171.61L2275.58 1152.63C2263.41 1149.25 2246.91 1143.85 2234.67 1142.23C2214.23 1139.53 2191 1153.36 2179.78 1169.81C2177.9 1172.56 2174.95 1178.04 2172.44 1179.56C2171.91 1175.51 2177.44 1169.35 2179.9 1166.06C2212.56 1122.54 2257.01 1145.2 2299.95 1156.98L2421.21 1190.51C2421.18 1193.91 2421.32 1206.23 2420.44 1208.66C2419.41 1204.04 2419.79 1197.85 2419.85 1192.97Z"/><path fill="#454444" d="M2180.37 1506.87C2218.81 1530.61 2261.8 1558.62 2300.64 1580.72L2297.51 1581.86L2179.03 1508.81L2180.37 1506.87Z"/><path fill="#FDFDFD" d="M425.126 1085.45C443.546 1079.11 470.93 1073.69 490.36 1068.41C504.225 1064.65 534.885 1055.44 547.352 1054.74C556.636 1054.31 565.879 1056.23 574.218 1060.33C599.461 1072.52 607.554 1097.65 615.953 1122.48C626.566 1154.27 635.921 1186.46 643.996 1218.99C647.258 1232.19 651.707 1249.32 653.605 1262.52C621.423 1281 589.731 1301.08 557.721 1319.87C544.778 1327.46 528.41 1338.24 515.557 1344.9L516.93 1347.06C511.101 1350.45 505.337 1353.95 499.642 1357.56C499.486 1356 499.092 1354.75 498.708 1353.2C493.761 1317.73 487.836 1282.4 480.938 1247.25L480.957 1246.11C477.773 1235.89 476.095 1225.03 473.414 1214.59C463.227 1174.93 455.39 1130.95 429.097 1098.23C425.846 1094.19 420.038 1090.85 417.98 1086.62L418.762 1084.95L424.016 1083.29L425.126 1085.45Z"/><path fill="#1F1C1D" d="M480.957 1246.11C477.773 1235.89 476.095 1225.03 473.414 1214.59C463.227 1174.93 455.39 1130.95 429.097 1098.23C425.846 1094.19 420.038 1090.85 417.98 1086.62L418.762 1084.95L424.016 1083.29L425.126 1085.45C468.514 1112.27 482.166 1178.59 493.358 1225.94C499.426 1251.42 504.626 1277.09 508.947 1302.92C510.073 1309.73 514.157 1340.43 515.557 1344.9L516.93 1347.06C511.101 1350.45 505.337 1353.95 499.642 1357.56C499.486 1356 499.092 1354.75 498.708 1353.2C493.761 1317.73 487.836 1282.4 480.938 1247.25L480.957 1246.11Z"/><path fill="#FDFDFD" d="M1115.35 1043.49C1118.72 1016.7 1124.6 1011.71 1151.71 1011.75C1201.34 1011.84 1251.38 1010.32 1300.99 1012.03C1315.07 1012.52 1320.24 1023.61 1322.15 1036.09L1319.62 1035.35C1322.65 1072.63 1325.54 1112.2 1329.65 1149.23L1328.98 1151.88C1324.62 1153.62 1300.78 1152.63 1293.88 1152.64L1167.34 1152.79C1156.46 1152.78 1118.87 1151.84 1109.76 1153.02C1112.85 1123.91 1116.14 1082.56 1117.29 1053.8C1115.88 1047.25 1119.15 1050.02 1115.35 1043.49Z"/><path fill="#454444" d="M1115.35 1043.49C1118.72 1016.7 1124.6 1011.71 1151.71 1011.75C1201.34 1011.84 1251.38 1010.32 1300.99 1012.03C1315.07 1012.52 1320.24 1023.61 1322.15 1036.09L1319.62 1035.35C1317.6 1023.48 1313.81 1015.15 1300.19 1014.25C1288.31 1013.47 1276.32 1013.81 1264.41 1013.82L1200.88 1013.93C1180.42 1013.98 1157.17 1013.54 1136.67 1014.72C1131.77 1015 1125.36 1019.68 1122.25 1024.02C1117.08 1031.21 1119.58 1047.69 1117.29 1053.8C1115.88 1047.25 1119.15 1050.02 1115.35 1043.49Z"/><path fill="#FDFDFD" d="M313.302 1319.91C329.889 1311.71 353.342 1302.44 370.635 1295.01C407.489 1279.29 444.257 1263.37 480.938 1247.25C487.836 1282.4 493.761 1317.73 498.708 1353.2C496.905 1358.29 456.269 1381.18 448.97 1385.63L348.021 1447.02C338.437 1404.48 325.007 1362.02 313.302 1319.91Z"/><path fill="#454444" d="M601.614 1081.74C601.988 1047.88 602.085 1014.02 601.904 980.16C601.878 967.454 600.647 901.236 603.443 893.413C604.588 909.991 604.135 930.234 604.135 947.073L604.104 1034.7C604.1 1041.35 603.374 1081.79 604.746 1085.55C625.032 1141.22 645.78 1202.6 655.775 1261.24L838.788 1152.76L1028.84 1152.71C1039.72 1152.7 1087.66 1151.09 1095.45 1153.07C1098.75 1153.8 1106.75 1154.41 1109.76 1153.02C1118.87 1151.84 1156.46 1152.78 1167.34 1152.79L1293.88 1152.64C1300.78 1152.63 1324.62 1153.62 1328.98 1151.88L1329.65 1149.23C1330.21 1150.99 1330.33 1151.36 1331.1 1153.09C1335.07 1154.53 1340.5 1154.38 1344.38 1153.04C1351.72 1151.2 1390.81 1152.72 1401.31 1152.77C1404.62 1144.43 1409.84 1132.84 1410.13 1124.2C1410.66 1108.78 1399.56 1090.08 1389.53 1079.15C1428.81 1062.84 1445.31 1069.18 1484.28 1075.25C1489.28 1076.03 1499.56 1072.46 1504.91 1070.77C1486.17 1086.26 1474.5 1099.28 1468.52 1123.11C1469.06 1127.11 1468.95 1127.79 1468.66 1131.88C1471.42 1138.52 1474.75 1146.01 1477.08 1152.73L1605.29 1152.71C1621.37 1162.62 1651.21 1179.68 1665.82 1190.11L1663.67 1191.41C1644.9 1179.93 1622.96 1165.56 1604.16 1154.97L1477.91 1154.92C1483.57 1172.67 1498.97 1205.79 1490.34 1222.97C1475.66 1252.18 1395.38 1252.75 1386.13 1218.16C1382.21 1203.48 1394.98 1169.9 1400.71 1154.97L839.387 1154.84C783.076 1190.4 722.658 1223.94 665.36 1258.15C615.85 1287.7 566.321 1317.3 516.93 1347.06L515.557 1344.9C528.41 1338.24 544.778 1327.46 557.721 1319.87C589.731 1301.08 621.423 1281 653.605 1262.52C651.707 1249.32 647.258 1232.19 643.996 1218.99C635.921 1186.46 626.566 1154.27 615.953 1122.48C607.554 1097.65 599.461 1072.52 574.218 1060.33C565.879 1056.23 556.636 1054.31 547.352 1054.74C534.885 1055.44 504.225 1064.65 490.36 1068.41C470.93 1073.69 443.546 1079.11 425.126 1085.45L424.016 1083.29C459.375 1072.4 497.342 1065.19 533.01 1054.77C548.417 1050.28 562.579 1051.47 576.858 1059.08C586.853 1064.47 595.357 1072.26 601.614 1081.74Z"/><path fill="#666766" d="M1468.52 1123.11C1469.06 1127.11 1468.95 1127.79 1468.66 1131.88C1467.73 1127.9 1467.42 1126.95 1468.52 1123.11Z"/><path fill="#FDFDFD" d="M1491.47 1077.12L1491.96 1077.27C1492.11 1078.72 1466.14 1105.61 1466.59 1123.42C1467.36 1153.31 1499.05 1194.33 1488.67 1221.41C1478.78 1247.18 1423.46 1244.05 1402.04 1234.61C1380.67 1220.41 1387.31 1203.76 1393.47 1183.41C1408.49 1133.8 1424.8 1130.99 1396.67 1083.51C1433.16 1096.29 1455.4 1087.73 1491.47 1077.12Z"/><path fill="#FDFDFD" d="M1394.1 1079.55C1428.69 1067.39 1439.18 1069.77 1474.18 1076.3C1476.03 1076.59 1480.61 1077.69 1476.34 1079.08C1439.88 1087.64 1430.82 1093.93 1394.1 1079.55Z"/><path fill="#AFAFB0" d="M1474.18 1076.3C1476.03 1076.59 1480.61 1077.69 1476.34 1079.08L1474.18 1076.3Z"/><path fill="#1F1C1D" d="M12.63 1191.03L14.6766 1192.58C60.0557 1225.96 73.6665 1285.76 87.3357 1337.68C102.366 1394 114.343 1451.08 123.216 1508.69C125.483 1523.52 127.46 1538.4 129.145 1553.31C129.831 1559.27 131.162 1574.22 132.331 1579.24L133.423 1581.48C126.671 1585.58 119.895 1589.64 113.097 1593.67L111.731 1591.17C109.218 1572.13 107.714 1553.13 105.15 1534.1C99.941 1496.8 93.8886 1459.63 86.9979 1422.62C86.7472 1421.95 86.4884 1421.29 86.2215 1420.63C80.1806 1387.69 72.998 1354.03 64.7637 1321.57C54.562 1281.35 44.0553 1237.12 12.4767 1208.01C12.5616 1202.35 12.6127 1196.69 12.63 1191.03Z"/><path fill="#1F1C1D" d="M2010.5 1082.46L2016.76 1084.31L2017.61 1086C2014.96 1090.39 2010.61 1092.3 2007.39 1096.12C1979.58 1129.09 1971.47 1173.82 1960.9 1214.42C1958.46 1223.77 1956.36 1237.46 1953.06 1245.72L1952.95 1247.79C1950.12 1268.08 1944.68 1290.53 1941.33 1311.17C1939.88 1320.1 1936.49 1347.1 1934.49 1353.94L1931.28 1355.35C1927 1352.31 1920.01 1348.21 1915.39 1345.3L1917.05 1343.84C1917.68 1343.48 1919.43 1342.12 1919.54 1341.4C1931.06 1266.85 1943.44 1186.21 1976.66 1118.04C1983.75 1103.5 1995.98 1095.25 2007.28 1085.61L2008.3 1084.73L2010.5 1082.46Z"/><path fill="#454444" d="M290.121 7.73982L486.627 165.489C526.322 197.22 567.956 229.649 606.96 262.104L1200.19 262.116C1218.14 262.117 1372.05 260.628 1379.08 263.231C1369.77 265.431 1330.02 264.318 1317.95 264.312L1180.97 264.299L604.139 264.264L604.014 651.909L604.049 780.002C604.053 789.332 605.227 842.292 602.596 847.364C601.026 834.671 601.833 799.51 601.83 785.251L601.829 665.861L601.788 260.884C577.674 241.111 550.638 220.903 527.27 201.022C526.39 200.524 526.579 200.635 525.849 199.857L396.424 96.1522C395.437 95.5309 395.509 95.6683 394.818 94.8566C359.449 67.5138 322.429 36.9616 287.604 8.79671L290.121 7.73982Z"/><path fill="#454444" d="M1912.28 194.232L1914.38 195.584L1913.38 196.303L1832.65 260.65L1832.79 806.539L1832.84 990.297C1832.88 1016.93 1831.79 1054.39 1833.08 1079.77C1870.37 1036.91 1895.86 1053.42 1943.86 1065.74L2010.5 1082.46L2008.3 1084.73C1986.33 1078.63 1963.29 1073.23 1941.28 1067.49C1891.31 1054.47 1864.09 1039.18 1830.11 1088.65C1830.72 1055.65 1830.19 1021.49 1830.17 988.394L1830.14 801.786L1830.08 264.551C1788.25 264.523 1454.84 265.83 1450.97 263.69L1451.71 262.506C1458.26 261.285 1472.84 262.138 1480.37 262.114L1554.36 262.059L1826.57 262.109C1854.68 241.087 1882.02 216.973 1910.13 196.047L1912.28 194.232Z"/><path fill="#454444" d="M1912.28 194.232L1914.38 195.584L1913.38 196.303L1910.13 196.047L1912.28 194.232Z"/><path fill="#454444" d="M345.616 1449.11C346.566 1436.51 298.78 1280.77 291.416 1256.97C289.011 1249.2 276.865 1213.65 276.236 1206.64C282.457 1216.26 308.138 1302.19 312.331 1317.9L428.426 1267.86C437.193 1264.06 474.044 1247.3 480.957 1246.11L480.938 1247.25C444.257 1263.37 407.489 1279.29 370.635 1295.01C353.342 1302.44 329.889 1311.71 313.302 1319.91C325.007 1362.02 338.437 1404.48 348.021 1447.02L448.97 1385.63C456.269 1381.18 496.905 1358.29 498.708 1353.2C499.092 1354.75 499.486 1356 499.642 1357.56L401.945 1416.97C384.434 1427.63 364.64 1440.31 346.896 1450.2L345.616 1449.11Z"/><path fill="#1F1C1D" d="M1319.62 1035.35L1322.15 1036.09C1328.91 1073.03 1336.7 1116.47 1344.38 1153.04C1340.5 1154.38 1335.07 1154.53 1331.1 1153.09C1330.33 1151.36 1330.21 1150.99 1329.65 1149.23C1325.54 1112.2 1322.65 1072.63 1319.62 1035.35Z"/><path fill="#1F1C1D" d="M1115.35 1043.49C1119.15 1050.02 1115.88 1047.25 1117.29 1053.8C1116.14 1082.56 1112.85 1123.91 1109.76 1153.02C1106.75 1154.41 1098.75 1153.8 1095.45 1153.07C1103.07 1118.66 1107.71 1079.23 1115.35 1043.49Z"/><path fill="#2D2C2C" d="M1778.18 1258.31C1782.28 1234.86 1790.54 1205.9 1796.75 1182.69C1799.85 1171.14 1821.95 1099.56 1826.31 1096.26C1827.38 1098.5 1795.08 1189.72 1793.52 1203.2C1792.25 1214.18 1779.05 1249.82 1781.05 1260.01L1783.06 1262.15L1781.8 1263.36C1768.07 1254.23 1750.75 1244.34 1736.35 1235.61L1663.67 1191.41L1665.82 1190.11C1702.17 1211.08 1742.12 1236.17 1778.18 1258.31Z"/><path fill="#454444" d="M12.63 1191.03C17.894 1188.26 35.9561 1183.84 42.5524 1182.05L97.9455 1167.03L157.141 1150.62C178.021 1144.81 199.445 1136.38 220.491 1142.17C234.155 1145.93 259.065 1164.94 261.917 1178.43L261.178 1178.87C245.802 1159.56 237.718 1147.13 210.179 1142.09C206.374 1141.39 193.841 1143.13 189.952 1144.16C154.132 1153.6 117.13 1164 81.5237 1173.77C70.5789 1176.78 21.454 1189.34 14.6766 1192.58L12.63 1191.03Z"/><path fill="#2D2C2C" d="M276.566 0L280.07 0L290.121 7.73982L287.604 8.79671L276.566 0Z"/><path fill="#FDFDFD" d="M1159.71 426.053C1180.83 399.445 1238.81 350.521 1271.14 348.661C1332.79 345.114 1265.41 413.579 1253.75 426.125L1395.13 426.022C1395.01 431.329 1393.35 440.728 1397.76 443.581C1403.12 443.138 1406.41 442.933 1411.84 443.047L1397.8 754.777C1396.61 776.896 1395.99 799.042 1395.96 821.193C1395.97 829.446 1396.44 880.541 1395.24 885.64C1380.65 885.825 1366.06 885.92 1351.46 885.925C1351.06 897.528 1351.22 909.067 1351.29 920.674C1343.43 914.684 1333.73 906.864 1325.57 901.634C1316.79 908.249 1309.21 914.13 1300.84 921.267L1300.83 887.833C1289.61 887.907 1274.7 888.415 1263.79 887.829L1052.12 889.932L1052.1 876.176L1033.89 876.308L1033.93 425.994L1159.71 426.053Z"/><path fill="#2D2C2C" d="M1159.71 426.053C1180.83 399.445 1238.81 350.521 1271.14 348.661C1332.79 345.114 1265.41 413.579 1253.75 426.125L1395.13 426.022C1395.01 431.329 1393.35 440.728 1397.76 443.581C1396.78 444.012 1395.8 444.437 1394.82 444.857C1392.7 455.747 1395.76 467.435 1393.22 477.587L1392.95 428.323L1036.01 428.139L1035.97 874.09C1122.33 874.026 1214.13 872.413 1300.01 874.191L1300.1 875.245C1300.96 879.918 1300.78 882.36 1300.72 887.049C1289.03 887.14 1275.26 886.942 1263.79 887.829L1052.12 889.932L1052.1 876.176L1033.89 876.308L1033.93 425.994L1159.71 426.053Z"/><path fill="#1F1C1D" d="M1300.1 875.245C1300.96 879.918 1300.78 882.36 1300.72 887.049C1289.03 887.14 1275.26 886.942 1263.79 887.829L1052.12 889.932L1052.1 876.176L1051.93 875.97C1053.63 874.86 1279.45 875.351 1300.1 875.245Z"/><path fill="#FDFDFD" d="M1268.41 351.23C1329.48 345.331 1264.95 411.264 1250.15 426.154L1192.5 426.091L1162.59 426.136C1186.6 398.717 1232.26 358.513 1268.41 351.23Z"/><path fill="#6E47C1" d="M1300.88 823.772L1351.23 823.822C1351.14 840.582 1351.23 857.342 1351.49 874.101C1351.62 878.197 1351.65 881.838 1351.46 885.925C1351.06 897.528 1351.22 909.067 1351.29 920.674C1343.43 914.684 1333.73 906.864 1325.57 901.634C1316.79 908.249 1309.21 914.13 1300.84 921.267L1300.83 887.833C1289.61 887.907 1274.7 888.415 1263.79 887.829C1275.26 886.942 1289.03 887.14 1300.72 887.049C1300.78 882.36 1300.96 879.918 1300.1 875.245L1300.01 874.191C1301.75 867.248 1300.88 833.455 1300.88 823.772Z"/><path fill="#1F1C1D" d="M1397.76 443.581C1403.12 443.138 1406.41 442.933 1411.84 443.047L1397.8 754.777L1395.58 753.959C1391.97 747.406 1396.74 689.931 1393.23 678.392C1392.09 657.151 1393.1 625.626 1393.09 603.747C1392.9 561.693 1392.94 519.639 1393.22 477.587C1395.76 467.435 1392.7 455.747 1394.82 444.857C1395.8 444.437 1396.78 444.012 1397.76 443.581Z"/><path fill="#2D2C2C" d="M1393.23 678.392C1396.74 689.931 1391.97 747.406 1395.58 753.959L1397.8 754.777C1396.61 776.896 1395.99 799.042 1395.96 821.193C1395.97 829.446 1396.44 880.541 1395.24 885.64C1394.72 881.657 1394.97 878.917 1394.6 875.773L1394.6 876.097C1394.51 875.645 1394.64 874.991 1394.24 874.761C1394.13 874.694 1394.02 874.709 1393.9 874.784C1393.13 875.259 1393.46 875.298 1392.52 875.552C1391.78 875.748 1390.6 875.505 1389.97 875.088C1389.73 874.928 1389.5 874.748 1389.26 874.578L1391.91 873.991C1394.33 870.17 1393.1 698.338 1393.23 678.392Z"/><path fill="#1F1C1D" d="M1351.49 874.101C1363 874.114 1377.99 873.725 1389.26 874.578C1389.5 874.748 1389.73 874.928 1389.97 875.088C1390.6 875.505 1391.78 875.748 1392.52 875.552C1393.46 875.298 1393.13 875.259 1393.9 874.784C1394.02 874.709 1394.13 874.694 1394.24 874.761C1394.64 874.991 1394.51 875.645 1394.6 876.097L1394.6 875.773C1394.97 878.917 1394.72 881.657 1395.24 885.64C1380.65 885.825 1366.06 885.92 1351.46 885.925C1351.65 881.838 1351.62 878.197 1351.49 874.101Z"/><path fill="#454444" d="M1217.44 520.823C1194.26 522.103 1164.78 520.798 1140.88 521.53C1127.51 521.939 1091.7 522.605 1080.24 521.056C1080.44 520.932 1080.63 520.786 1080.84 520.686C1086.8 517.907 1305.77 517.199 1328.14 517.644C1332.68 517.734 1338.61 517.582 1342.87 519.241C1324.62 521.22 1286.14 520.17 1266.1 520.175C1256.03 521.164 1227.78 521.267 1217.44 520.823Z"/><path fill="#909191" d="M1217.44 520.823C1224.45 519.385 1258.59 519.579 1266.1 520.175C1256.03 521.164 1227.78 521.267 1217.44 520.823Z"/><path fill="#2D2C2C" d="M1190.75 695.497L1293.75 694.835C1303.48 694.785 1334.56 694.037 1343.14 695.591C1334.82 698.501 1251.06 697.532 1234.5 697.721C1218.94 697.805 1083 699.234 1080.63 697.736C1087.48 694.921 1176.63 695.761 1190.75 695.497Z"/><path fill="#454444" d="M1213.75 588.5C1227.55 588.359 1338.42 586.515 1342.11 589.338C1328.68 590.684 1308.33 590.167 1294.2 590.286L1206.34 591.035L1132.72 591.494C1122.02 591.606 1089.38 592.783 1080.42 590.433C1085.8 588.067 1196.8 589.01 1213.75 588.5Z"/><path fill="#2D2C2C" d="M1213.67 456.428C1215.7 455.487 1218.08 455.725 1219.89 457.048C1221.69 458.371 1222.63 460.571 1222.34 462.79C1222.06 465.008 1220.58 466.894 1218.5 467.713C1215.41 468.927 1211.92 467.465 1210.61 464.413C1209.31 461.362 1210.66 457.825 1213.67 456.428Z"/></svg>