<svg width="3960" height="972" viewBox="0 0 3960 972" fill="none" xmlns="http://www.w3.org/2000/svg">
<path d="M0 0H3960V972H0V0Z" fill="#FBFAFB"/>
<path d="M3650.38 207.046C3668.5 206.556 3673.13 217.986 3673.09 233.556C3672.95 289.166 3673.56 344.817 3672.73 400.407C3672.37 424.577 3653.69 421.437 3635.7 421.137C3646.82 450.247 3656.22 480.066 3668.45 508.706C3670.26 512.946 3672.55 523.097 3666.77 525.137C3660.95 522.127 3652.41 494.036 3649.55 486.166L3625.87 421.166L3547.32 421.137L3539.63 454.736C3535.66 474.466 3530.63 494.057 3527.15 513.897C3526.35 518.447 3524.72 521.966 3520.77 524.366C3517.34 524.206 3518.77 524.856 3516.39 522.246C3514.84 516.406 3534.83 432.496 3537.5 420.976C3524.14 421.186 3503.89 420.796 3502.62 403.816C3500.88 380.566 3542.23 385.326 3555.14 385.326L3638.05 385.356C3645.78 385.386 3657.09 386.576 3663.25 386.336C3663.29 381.476 3664.18 357.856 3662.19 355.356C3656.61 356.566 3651.67 357.387 3646.18 355.277C3641.41 353.447 3636.56 349.647 3634.71 344.747C3631.01 334.927 3631.34 224.046 3635.63 216.566C3638.94 210.776 3644.4 208.896 3650.38 207.046Z" fill="#262726"/>
<path d="M3650.68 215.926C3651.95 215.996 3651.87 215.966 3653.34 216.206C3657 216.796 3660.08 217.936 3662.12 221.206C3664.46 224.946 3664.86 332.236 3662.77 340.756C3661.87 344.396 3658.48 345.886 3655.5 347.646C3649.64 346.746 3643.07 345.346 3642.88 337.736C3642.22 305.496 3642.29 273.166 3642.24 240.916C3642.23 228.916 3639.8 222.416 3650.68 215.926Z" fill="#FBFAFB"/>
<path d="M3518.25 395.156C3530.75 394.216 3551.29 394.816 3564.29 394.806L3643.57 394.516C3648.65 394.506 3658.89 393.896 3662.16 398.316C3666.08 403.606 3662.21 408.476 3658.22 411.766C3657.39 411.826 3656.56 411.866 3655.73 411.906C3612.66 413.446 3565.59 411.336 3522.22 411.586C3512.48 411.646 3509.05 402.866 3518.25 395.156Z" fill="#FBFAFB"/>
<path d="M3152.2 207.107C3155.84 206.997 3159.28 207.187 3162.78 208.337C3167.75 209.977 3171.91 213.987 3174.01 218.767C3177.12 225.827 3176.88 337.657 3173.73 345.027C3171.87 349.347 3168.03 353.387 3163.61 355.127C3156.8 357.797 3151.48 356.417 3145.1 353.767L3145.12 387.087C3147 386.657 3149.93 385.977 3151.8 385.917C3188.04 384.747 3224.42 385.587 3260.69 385.277C3269.43 385.207 3278.51 384.987 3287.19 385.837C3301.52 387.237 3310.14 402.987 3299.85 414.407C3292.32 422.837 3281.26 421.147 3270.94 421.037L3284.89 483.997C3287.31 494.897 3289.9 506.177 3292.05 517.137C3292.78 520.837 3292.31 521.377 3290.62 523.637C3286.75 524.617 3288.6 524.707 3284.84 523.367C3282.17 520.067 3271.69 467.757 3269.96 459.647L3261.6 420.967L3183.74 421.237L3159.44 485.937C3156.77 493.097 3147.74 521.157 3142.4 524.427C3138.85 524.107 3140.51 524.677 3137.47 522.187C3137.24 521.257 3137.02 520.337 3136.8 519.407C3147.4 491.037 3163.5 448.267 3173.66 421.197C3161.58 421.067 3146.31 424.057 3138.02 413.617C3136.67 408.707 3135.93 403.877 3135.68 398.787C3134.77 380.317 3134.5 226.387 3137.15 219.107C3139.6 212.407 3146.11 209.587 3152.2 207.107Z" fill="#262726"/>
<path d="M3153.81 215.807C3161.68 216.547 3165.98 220.097 3165.92 228.327C3165.65 265.667 3166.88 303.287 3165.34 340.537C3165.21 343.507 3159.63 346.627 3157.53 347.907C3153.63 347.157 3149.23 346.607 3146.92 342.937C3144.37 338.867 3143.51 230.577 3145.86 223.657C3147.22 219.627 3150.41 217.947 3153.81 215.807Z" fill="#FBFAFB"/>
<path d="M3149.56 395.087C3180.38 392.727 3215.42 396.287 3246.66 394.697C3259.58 395.127 3273.49 393.797 3286.28 395.077C3296.03 396.057 3298.1 405.347 3289.76 411.467C3288.51 411.647 3287.25 411.797 3285.99 411.907C3281.86 412.297 3276.25 412.097 3272.02 412.037C3232.58 411.547 3193.05 412.657 3153.64 411.657C3143.17 411.387 3141.48 402.017 3149.56 395.087Z" fill="#FBFAFB"/>
<path d="M3307.89 318.037C3324.6 317.607 3495.96 317.287 3499.69 319.247C3503.28 326.097 3501.9 342.507 3501.73 350.897C3477.2 352.577 3434.39 351.157 3408.47 351.157C3409.36 405.117 3408.61 461.027 3408.4 515.097C3420 515.147 3431.86 514.877 3443.47 514.947C3446.19 514.967 3447.78 516.377 3449.48 518.247C3450.13 521.477 3450.42 520.037 3448.78 522.727C3441.88 526.287 3380.8 522.927 3368.64 524.287C3364.46 524.757 3359.4 524.437 3357.17 520.327C3357.94 512.847 3368.76 515.197 3374.76 515.077C3382.88 514.907 3391.16 515.067 3399.29 515.057C3398.1 461.807 3399.07 404.827 3399.02 351.247C3369.89 351.187 3335.48 351.977 3306.77 350.637C3306.48 342.927 3305.29 324.217 3307.89 318.037Z" fill="#262726"/>
<path d="M3316.04 327.197L3492.51 327.307L3492.52 342.257L3316.02 342.107L3316.04 327.197Z" fill="#FBFAFB"/>
<path d="M2330.54 261.316C2333.08 261.836 2332.93 261.766 2335.09 263.206C2338.51 269.376 2336.98 306.526 2336.9 316.626C2347.04 322.196 2359.93 327.456 2370.55 332.646C2399.21 346.636 2429.76 359.496 2458 374.156L2458.01 300.326C2458.02 293.036 2456.55 268.136 2459.54 263.566C2462.96 262.076 2461.27 262.206 2464.75 262.946C2468.74 267.646 2467.24 293.976 2467.24 301.716L2467.26 373.616C2506.87 356.306 2547.56 334.806 2587.56 316.906L2587.5 275.476C2587.28 269.036 2586.88 263.426 2593.88 261.086L2591.33 261.566L2591.73 261.216L2594.99 262.656C2598.2 271.676 2596.71 310.306 2596.77 322.456C2587.25 327.886 2566.66 336.666 2555.86 341.776L2467.49 383.886C2467.42 395.616 2469.19 450.116 2465.33 457.446C2464.22 459.546 2463.3 460.616 2461.05 461.316C2455.83 457.386 2457.7 394.616 2457.68 383.976C2416.67 366.076 2368.31 341.996 2327.64 322.576C2327.51 310.466 2324.32 269.696 2330.54 261.316Z" fill="#262726"/>
<path d="M2197.27 767.877C2240.3 766.027 2294.84 767.787 2338.79 767.787L2568.93 767.687C2615.99 767.667 2663.4 768.207 2710.39 767.227C2716.12 767.107 2720.4 767.027 2724.45 770.967C2725.25 774.257 2724.82 774.757 2723.62 777.877L2373.17 777.977L2252.38 777.907C2236.42 777.867 2219.96 777.637 2203.94 778.167C2200.85 778.267 2198.14 777.307 2196.05 774.947C2195.25 771.667 2195.9 770.957 2197.27 767.877Z" fill="#6747C0"/>
<path d="M3150.98 767.787C3194.5 766.667 3242.48 767.656 3286.18 767.706L3510.51 767.556L3607.69 767.796C3616.16 767.836 3637.12 764.827 3641.65 771.397C3641.9 774.827 3641.39 775.306 3639.81 778.306C3595.31 777.216 3546.78 778.007 3501.95 778.017L3269.12 778.037L3180.52 777.966C3172.47 777.926 3153.4 780.846 3149 774.556C3148.77 771.166 3149.31 770.697 3150.98 767.787Z" fill="#6747C0"/>
<path d="M2308.91 201.206C2315.79 201.096 2358.01 198.146 2356.98 205.426C2355.6 215.216 2360.01 244.086 2354.91 250.666C2349.17 250.676 2306.73 252.846 2307.03 247.526C2307.6 237.216 2304.2 208.856 2308.91 201.206Z" fill="#262726"/>
<path d="M2316.34 210.327L2347.58 210.297C2347.63 219.677 2347.97 232.287 2347.49 241.487L2316.07 241.587C2315.99 231.167 2316.08 220.747 2316.34 210.327Z" fill="#FBFAFB"/>
<path d="M2454.52 468.477C2465.27 468.447 2477.31 468.037 2487.9 468.677C2488.32 482.057 2488.55 504.447 2487.83 517.677C2482.66 517.967 2477.58 517.897 2472.41 517.907C2463.35 517.977 2448.75 518.307 2440.09 517.647C2435.79 517.327 2437.69 473.907 2438.93 470.087C2439.68 467.777 2452.57 468.487 2454.52 468.477Z" fill="#262726"/>
<path d="M2447.11 477.266H2478.63C2478.69 487.806 2478.67 498.336 2478.56 508.876C2468.15 508.896 2457.74 508.826 2447.33 508.656C2446.87 498.516 2447.07 487.476 2447.11 477.266Z" fill="#FBFAFB"/>
<path d="M2570.67 201.207C2585.11 201.287 2603.96 200.537 2617.89 201.537C2618.46 210.177 2619.55 244.947 2616.38 250.747C2602.4 250.927 2583.31 251.547 2569.99 249.707C2566.94 249.287 2566.33 206.447 2570.67 201.207Z" fill="#262726"/>
<path d="M2577.63 210.637C2587.87 210.337 2598.51 210.517 2608.77 210.537L2608.79 241.147C2598.44 241.257 2588.09 241.297 2577.74 241.267L2577.63 210.637Z" fill="#FBFAFB"/>
<path d="M2439.72 201.246C2447.11 201.246 2489.66 197.676 2487.92 206.426C2486.13 215.466 2490.84 244.806 2485.53 250.606C2476.87 250.706 2447.17 251.006 2439.76 249.866C2435.88 249.266 2436.86 205.306 2438.92 202.396L2439.72 201.246Z" fill="#262726"/>
<path d="M2447 210.397C2457.5 210.317 2468 210.327 2478.51 210.427C2478.61 219.657 2478.87 232.417 2478.36 241.437L2447 241.637C2446.92 231.697 2446.62 220.267 2447 210.397Z" fill="#FBFAFB"/>
<path d="M2664.63 703.147C2667.97 703.127 2673.52 703.107 2675.82 704.807C2680.03 708.297 2678.5 705.227 2681.6 703.997C2689.91 700.717 2684.05 725.707 2685.79 729.807C2686.85 732.327 2685.23 744.327 2682.56 746.387C2680.23 748.187 2676.03 751.487 2672.28 751.067C2666.18 751.097 2662.03 751.537 2657.39 747.387C2660.3 742.327 2659.57 744.217 2665.29 744.907C2667.4 745.167 2675.4 745.237 2676.76 742.887C2686.9 725.447 2662.7 747.567 2656.31 730.437C2653.09 722.127 2653.84 718.287 2655.84 710.977C2657.01 706.677 2661.44 704.527 2664.63 703.147Z" fill="#0B0B0B"/>
<path d="M2667.23 708.947C2680.06 709.887 2679.24 714.307 2678.73 725.997C2678.6 729.017 2674.18 731.307 2672.03 732.497C2657.73 730.257 2657.76 714.607 2667.23 708.947Z" fill="#FBFAFB"/>
<path d="M2323.66 703.188C2333.02 702.898 2337.05 706.728 2338.13 706.728C2340.96 703.108 2345.01 703.298 2345.19 705.018C2346.01 712.878 2345.84 735.078 2344.86 741.988C2343.42 752.238 2320.67 754.588 2318.24 746.628L2317.69 744.928C2322.62 741.438 2332.18 749.318 2337.68 741.968C2338.61 740.328 2341.18 732.698 2336.87 735.098C2316.01 746.678 2304.33 715.358 2323.66 703.188Z" fill="#0B0B0B"/>
<path d="M2326.38 709.037C2339.88 709.757 2338.98 714.177 2338.55 726.507C2338.47 728.647 2336.08 730.417 2334.46 731.377L2333.06 732.247C2318.76 730.657 2317.54 717.727 2326.38 709.037Z" fill="#FBFAFB"/>
<path d="M3580.39 703.147C3592.4 703.137 3588.85 704.957 3594.68 706.147C3595.24 705.807 3601.55 701.426 3601.63 704.976C3601.88 715.886 3603.12 733.247 3600.93 743.507C3599.12 751.987 3576.76 754.497 3574.46 746.537L3573.94 744.956C3576.69 743.766 3580.9 743.897 3582.78 745.037C3589.03 748.817 3599.69 738.617 3595.17 734.997C3592.56 734.877 3588.11 739.226 3581.77 737.186C3566.77 732.366 3566.75 710.427 3580.39 703.147Z" fill="#0B0B0B"/>
<path d="M3582.34 708.977C3595.04 709.197 3595.91 712.347 3595.56 724.527C3595.45 728.147 3593.24 729.757 3590.82 731.887C3575.38 731.697 3573.72 718.107 3582.34 708.977Z" fill="#FBFAFB"/>
<path d="M3247.92 703.067C3274.75 702.937 3274.63 731.097 3255.79 738.077C3252.28 738.097 3249.09 738.347 3245.76 737.217C3241.9 735.917 3238.74 733.097 3237.02 729.397C3231.61 717.567 3236.08 707.607 3247.92 703.067Z" fill="#0B0B0B"/>
<path d="M3247.35 708.887C3255.84 708.927 3260.88 709.627 3261.53 719.967C3261.83 724.587 3260.14 727.757 3256.91 730.887L3255.75 732.057C3239.34 733.327 3238.26 717.927 3247.35 708.887Z" fill="#FBFAFB"/>
<path d="M2228.1 690.107C2231.53 690.127 2260.29 689.927 2260.82 690.477C2268.9 698.867 2239.73 695.977 2235.22 695.977L2235.21 710.167C2237.74 710.167 2256.59 709.927 2257.12 710.607C2263.44 718.657 2241.14 715.927 2235.9 715.937C2235.05 719.507 2235.41 727.197 2235.42 731.227C2239.72 731.237 2256.09 730.667 2261 731.707C2261.96 731.907 2262.05 736.597 2260.66 736.727C2253.08 737.457 2234.78 737.147 2228.08 737.157L2228.1 690.107Z" fill="#0B0B0B"/>
<path d="M2455.9 703.127C2466.43 703.417 2472.33 705.717 2474.99 716.987C2475.29 717.337 2475.84 722.177 2474.84 722.457C2468.73 724.177 2457.03 722.187 2450.7 723.027C2445.98 723.647 2450.93 729.537 2453.37 730.647C2458.84 733.137 2463.2 731.987 2468.76 730.317C2470.14 729.057 2471.76 729.557 2472.24 730.757C2475.73 738.097 2457.6 738.887 2453.26 737.097C2436.38 730.127 2437.76 708.527 2455.9 703.127Z" fill="#0B0B0B"/>
<path d="M2454.6 708.907C2468.7 708.027 2471.39 717.517 2464.02 717.517C2460.6 717.517 2457.18 717.547 2453.75 717.587C2444.6 717.817 2451.15 712.017 2454.6 708.907Z" fill="#FBFAFB"/>
<path d="M2498.06 703.117C2509.65 703.487 2519.23 708.277 2517.42 721.947C2517.08 724.517 2490.92 721.107 2491.21 723.557C2492.67 735.827 2506.73 731.847 2510.38 730.437C2512.98 726.917 2518.53 733.267 2512.62 735.687C2506.2 738.307 2501.16 739.117 2494.38 736.597C2490.36 735.137 2487.12 732.087 2485.41 728.157C2480.13 716.147 2486.9 707.237 2498.06 703.117Z" fill="#0B0B0B"/>
<path d="M2497.68 709.047C2509.8 709.037 2515.99 717.687 2506.02 717.727C2498.05 717.787 2481.84 719.717 2497.68 709.047Z" fill="#FBFAFB"/>
<path d="M3209.19 689.107C3217.5 689.497 3223.93 691.257 3227.7 699.487C3229.28 702.937 3222.16 703.807 3220.93 701.357C3218.35 696.187 3213.31 693.867 3207.78 695.817C3197.93 699.117 3196.83 715.517 3200.21 723.617C3203.81 732.217 3210.77 733.697 3218.32 730.087C3225.32 719.427 3228.59 727.997 3226.88 729.947C3199.4 761.317 3171.22 698.667 3209.19 689.107Z" fill="#0B0B0B"/>
<path d="M2287.64 703.107C2307.18 702.887 2303.37 713.337 2303.91 728.507C2303.83 729.507 2304.27 736.107 2303.41 736.557C2293.51 741.727 2297.37 725.637 2296.98 719.977C2296.33 710.667 2296.19 710.097 2287.21 709.087C2283.98 710.967 2280.95 711.457 2280.98 715.417C2280.93 717.187 2281.48 735.097 2280.95 735.527C2270.02 744.567 2275.09 720.787 2274 716.477C2273.71 715.347 2273.93 705.227 2274.59 704.637C2277.64 701.947 2279.96 705.167 2281.32 706.517C2282.08 706.377 2286.42 703.737 2287.64 703.107Z" fill="#0B0B0B"/>
<path d="M2415.48 703.047C2431.05 703.437 2431.84 708.697 2431.43 723.477C2431.38 725.477 2432.14 736.317 2430.65 736.627C2414.66 740.047 2435.26 714.267 2417.04 708.707C2415.65 709.217 2409.95 711.167 2409.35 712.567C2406.61 718.927 2410.5 730.447 2407.77 736.757C2407.49 737.407 2401.82 737.437 2401.78 736.337C2401.48 726.147 2401.06 714.757 2402.07 704.677C2402.43 701.087 2409.69 706.227 2409.31 706.087C2409.87 705.947 2414.28 703.587 2415.48 703.047Z" fill="#0B0B0B"/>
<path d="M3292.73 703.116C3309.38 702.786 3309.87 708.876 3309.59 723.876C3309.46 731.036 3312.21 739.316 3304.23 737.286C3301.75 736.346 3302.99 730.406 3302.77 728.476C3301.61 718.496 3306.61 711.786 3295.05 708.696C3284.45 712.316 3286.68 712.356 3286.45 723.476C3286.47 727.286 3286.51 731.226 3286.4 735.006C3286.31 738.416 3279.95 737.256 3279.9 736.016C3279.53 725.816 3279.2 714.776 3279.95 704.646C3280.93 702.986 3285.02 703.476 3285.49 704.896C3286.65 708.316 3290.83 704.286 3292.73 703.116Z" fill="#0B0B0B"/>
<path d="M3330.98 703.097C3336.15 702.967 3354.54 704.237 3346.19 711.247C3345.06 712.197 3337.13 707.117 3332.31 709.097C3318.04 714.947 3341.95 718.867 3345.58 720.377C3355.38 728.797 3348.82 735.137 3338.46 738.057C3334.69 738.007 3322.45 737.787 3321.2 734.627C3320.7 728.187 3321.79 729.327 3326.32 730.757C3344.51 736.497 3351.79 725.666 3328.36 721.666C3319.24 720.106 3315.66 708.977 3330.98 703.097Z" fill="#0B0B0B"/>
<path d="M3544.73 703.057C3562.63 703.427 3560.13 711.307 3560.42 726.667C3560.03 729.387 3562.52 739.357 3556.07 737.327C3548.8 735.037 3560.09 710.207 3547.4 709.157L3544.84 708.957C3543.29 709.627 3538.36 711.757 3537.93 713.147C3536.29 716.357 3538.46 735.277 3536.79 736.397C3525.35 744.067 3532.61 710.237 3530.54 706.457C3529.66 704.847 3534.2 700.667 3537.61 707.137L3537.46 706.927L3537.67 707.157C3539.38 706.497 3542.54 704.137 3544.73 703.057Z" fill="#0B0B0B"/>
<path d="M3361.62 703.806C3366.27 704.176 3367.8 702.746 3368.4 707.896C3369.43 716.716 3363.5 735.596 3378.76 731.676C3385.83 731.846 3386.26 719.516 3384.99 713.986C3382.45 702.916 3391.84 698.866 3391.64 709.726C3391.64 718.326 3391.99 727.466 3391.47 735.986C3391.27 739.346 3383.59 734.866 3381.33 736.046C3379.3 737.126 3377.07 737.756 3374.77 737.926C3356.88 739.046 3361.6 716.466 3361.62 703.806Z" fill="#0B0B0B"/>
<path d="M2627.74 703.037C2631.78 703.107 2635.62 702.907 2639.19 705.137C2641.87 706.797 2643.1 709.427 2643.58 712.477C2644 715.147 2644.82 735.087 2643.39 736.487C2642.66 737.217 2640.71 737.127 2639.75 737.027C2634.53 736.467 2639.53 715.987 2635.23 710.997C2633.27 708.727 2630.64 708.897 2627.89 708.657C2627.52 708.837 2625.25 709.987 2625.22 709.987C2616.39 713.067 2622.75 729.067 2620.39 736.007C2619.7 738.047 2614.1 737.537 2614.1 736.037C2614.18 725.907 2613.42 714.577 2614.49 704.597C2614.74 702.307 2619.46 703.847 2621.27 706.367C2621.39 706.397 2627.02 703.377 2627.74 703.037Z" fill="#0B0B0B"/>
<path d="M3453.54 692.307C3462.75 693.567 3459.19 693.527 3459.79 702.487C3460.1 707.087 3480.49 699.497 3475.75 708.917C3475.01 710.387 3462.46 709.777 3459.95 709.777C3459.97 727.267 3456.28 733.587 3475.37 731.177C3475.62 732.277 3476.36 735.657 3475.41 736.397C3471.48 739.437 3461.24 738.377 3457.85 735.467C3451.28 729.837 3454.39 719.337 3453.65 711.887C3453.26 707.897 3446.16 711.017 3443.93 709.397C3443.25 708.917 3443.35 707.297 3443.44 706.457C3443.92 701.737 3450.73 705.357 3452.87 703.397C3454.07 702.297 3453.53 694.397 3453.54 692.307Z" fill="#0B0B0B"/>
<path d="M3404.01 690.197C3409.86 689.847 3415.87 689.987 3421.75 690.007L3421.73 731.297C3423.72 731.407 3431.98 731.157 3432.37 731.597C3438.96 739.017 3422.69 737.067 3421.52 737.057C3417.02 737.037 3412.49 736.917 3407.78 737.067C3405.52 737.147 3403.16 736.707 3403.72 733.357C3404.28 729.937 3412.72 732.877 3414.32 731.147C3415.53 729.827 3414.74 722.467 3414.96 720.527C3414.54 714.477 3415.68 702.837 3414.88 697.637C3413.95 691.607 3406.04 702.207 3404.01 690.197Z" fill="#0B0B0B"/>
<path d="M2573.56 704.167L2591.09 704.137L2591.05 731.457C2593.71 731.467 2606.08 729.427 2602.08 736.257C2601.24 737.697 2590.86 737.037 2588.73 737.037C2586.56 737.027 2564.91 738.977 2574.78 731.447C2575.07 731.227 2582.93 731.327 2584.41 731.307C2584.39 727.587 2584.93 714.417 2584.3 711.507C2582.9 705.087 2574.66 716.497 2573.56 704.167Z" fill="#0B0B0B"/>
<path d="M2360.7 703.926L2378.66 703.916C2378.69 713.206 2378.7 722.026 2378.51 731.316C2380.6 731.406 2382.69 731.426 2384.77 731.366C2386.76 731.316 2391.74 731.106 2389.15 736.336C2388.52 737.606 2380.27 737.076 2378.27 737.086C2372.99 737.066 2366.15 737.566 2361.08 736.606C2360.34 736.466 2360.04 733.286 2361.07 732.646C2363.51 731.126 2369.11 731.706 2371.98 731.526L2371.99 709.866C2366.1 709.336 2361.35 712.046 2360.93 705.686L2360.7 703.926Z" fill="#0B0B0B"/>
<path d="M3491.4 703.977L3508.58 703.957C3508.64 712.717 3508.39 721.457 3508.89 730.387C3509.1 734.107 3523.68 727.407 3518.55 736.647C3518.25 737.187 3510.52 737.037 3509.02 737.027C3506.61 737.037 3491.28 737.557 3490.49 736.547C3485.51 730.087 3499.22 731.767 3501.96 731.667C3501.94 727.507 3502.64 712.137 3501.17 710.217C3498.42 706.617 3492.79 715.537 3491.4 703.977Z" fill="#0B0B0B"/>
<path d="M2547.46 703.236C2550.32 703.226 2560.6 701.426 2557.28 709.186C2556.52 710.146 2552.07 709.766 2551.5 709.706C2536.13 708.166 2539.79 727.796 2539.78 737.166C2531.12 736.596 2533.14 737.306 2532.95 727.636C2533.25 720.846 2532.55 712.136 2533.1 705.516C2533.26 703.606 2538.32 701.976 2540.44 706.786C2540.55 706.756 2546.16 703.786 2547.46 703.236Z" fill="#0B0B0B"/>
<path d="M2342.8 799.207C2343.34 799.467 2345.4 800.177 2345.36 800.967C2345.04 807.577 2346.61 815.937 2344.88 822.197C2344.79 822.537 2343.73 822.447 2343.49 822.437C2338.05 822.047 2339.73 823.567 2332.96 822.677C2330.87 818.847 2328.51 813.917 2331.24 809.367C2334.5 803.937 2340.4 807.717 2342.09 807.417C2342.67 806.757 2342.74 800.197 2342.8 799.207Z" fill="#0B0B0B"/>
<path d="M2336.54 807.486C2344.42 810.466 2344.43 815.896 2339.33 821.996C2331.91 818.296 2330.78 813.916 2336.54 807.486Z" fill="#FBFAFB"/>
<path d="M3458.79 799.307C3460.42 800.457 3461.55 801.247 3461.26 803.457C3460.42 809.847 3463.98 805.427 3468.2 806.377C3475.33 807.987 3474.03 815.597 3472.66 820.907C3470.21 822.087 3459.44 824.307 3458.99 821.817C3457.9 815.817 3458.45 805.627 3458.79 799.307Z" fill="#0B0B0B"/>
<path d="M3463.4 809.707C3465.28 808.717 3467.57 808.907 3469.26 810.197C3470.95 811.487 3471.75 813.637 3471.3 815.717C3470.85 817.797 3469.24 819.427 3467.17 819.907C3464.48 820.517 3461.76 819.047 3460.8 816.457C3459.85 813.877 3460.96 810.987 3463.4 809.707Z" fill="#FBFAFB"/>
<path d="M3234.14 799.326C3238.81 801.796 3235.91 816.996 3236.02 822.146C3236.03 822.576 3235.06 823.016 3234.39 822.536C3233.03 821.556 3227.37 823.176 3224.8 823.266C3218.26 813.916 3219.74 804.286 3233.16 807.256C3233.9 806.336 3234.01 800.776 3234.14 799.326Z" fill="#0B0B0B"/>
<path d="M3225.43 808.447C3234.61 808.977 3235.64 812.497 3231.71 821.037C3222.57 820.057 3223.06 816.407 3225.43 808.447Z" fill="#FBFAFB"/>
<path d="M3582.32 806.667C3586.6 805.257 3591.23 807.467 3592.81 811.687C3594.4 815.907 3592.36 820.627 3588.21 822.367C3585.37 823.557 3582.11 823.107 3579.71 821.177C3577.31 819.257 3576.15 816.177 3576.7 813.147C3577.25 810.117 3579.4 807.637 3582.32 806.667Z" fill="#0B0B0B"/>
<path d="M3582.12 809.737C3583.94 808.687 3586.18 808.747 3587.95 809.867C3589.72 810.997 3590.72 813.017 3590.55 815.107C3590.37 817.197 3589.05 819.017 3587.12 819.827C3584.37 820.997 3581.19 819.817 3579.87 817.137C3578.54 814.467 3579.53 811.217 3582.12 809.737Z" fill="#FBFAFB"/>
<path d="M3483.13 806.687C3487.35 805.517 3491.75 807.817 3493.21 811.937C3494.66 816.067 3492.68 820.617 3488.67 822.357C3485.81 823.587 3482.5 823.137 3480.09 821.167C3477.68 819.197 3476.56 816.047 3477.2 812.997C3477.85 809.947 3480.13 807.517 3483.13 806.687Z" fill="#0B0B0B"/>
<path d="M3482.28 808.377C3491.22 809.077 3491.61 812.607 3488.63 820.747C3479.39 820.457 3479 816.517 3482.28 808.377Z" fill="#FBFAFB"/>
<path d="M2316.69 806.506C2319.65 805.996 2322.65 807.116 2324.55 809.446C2326.45 811.776 2326.94 814.946 2325.85 817.746C2324.75 820.536 2322.23 822.526 2319.26 822.946C2314.76 823.576 2310.58 820.476 2309.88 815.986C2309.18 811.496 2312.21 807.276 2316.69 806.506Z" fill="#262726"/>
<path d="M2315.09 809.727C2316.9 808.657 2319.17 808.687 2320.95 809.807C2322.74 810.927 2323.75 812.957 2323.58 815.057C2323.4 817.157 2322.07 818.987 2320.13 819.797C2317.39 820.947 2314.23 819.777 2312.9 817.117C2311.57 814.467 2312.53 811.237 2315.09 809.727Z" fill="#FBFAFB"/>
<path d="M3385.27 806.666C3389.52 805.586 3393.88 808.016 3395.19 812.206C3396.51 816.396 3394.32 820.876 3390.21 822.426C3387.35 823.506 3384.12 822.906 3381.82 820.876C3379.53 818.846 3378.54 815.716 3379.26 812.736C3379.99 809.756 3382.3 807.426 3385.27 806.666Z" fill="#0B0B0B"/>
<path d="M3386.48 807.656C3394.36 811.266 3393.67 815.356 3388.91 821.626C3380.73 818.956 3379.89 812.806 3386.48 807.656Z" fill="#FBFAFB"/>
<path d="M2355.46 805.707C2359.97 806.487 2365.2 807.407 2365.55 813.667C2365.53 817.837 2353.79 814.227 2353.17 816.327C2352.09 820.037 2358.12 820.697 2359.91 820.567L2361.51 820.487C2364.33 817.637 2364.64 821.267 2362.93 821.987C2351.21 826.897 2343.58 813.437 2355.46 805.707Z" fill="#262726"/>
<path d="M2353.73 808.786C2358.12 808.616 2361.79 807.756 2361.4 813.206C2355.68 812.986 2351.98 814.816 2353.73 808.786Z" fill="#FBFAFB"/>
<path d="M3440.72 805.926C3455.76 806.506 3449.43 809.846 3452.39 819.876C3452.6 820.576 3453.93 820.376 3453.91 821.966C3453.49 822.616 3441.78 823.216 3439.95 823.306C3436.33 817.236 3437.07 814.316 3444.78 813.136C3447.23 813.856 3450.27 811.726 3448.02 809.466C3445.22 806.646 3436.61 812.916 3440.72 805.926Z" fill="#262726"/>
<path d="M3442.82 814.477C3448.23 815.667 3450.81 815.817 3446.6 821.527C3441.1 819.897 3439.16 819.737 3442.82 814.477Z" fill="#FBFAFB"/>
<path d="M2612.44 805.707C2614.63 805.927 2625.45 806.817 2622.33 814.787C2621.77 816.227 2614.54 815.267 2612.75 815.537C2607.78 816.277 2612.51 821.327 2616.29 820.127C2625.8 818.047 2620.67 823.207 2616.79 823.077C2605.6 822.707 2604.39 813.007 2612.44 805.707Z" fill="#262726"/>
<path d="M2613.54 807.697C2616.97 808.717 2620.65 809.327 2618.38 813.467C2615.02 813.147 2607.84 813.947 2612.45 808.937L2613.54 807.697Z" fill="#FBFAFB"/>
<path d="M2394.13 805.846C2404.78 806.926 2403.94 808.486 2403.77 818.476C2403.76 819.516 2409.92 824.286 2402.51 822.456C2399.6 821.746 2396.15 823.176 2392.26 823.506C2391.94 822.896 2391.6 822.286 2391.26 821.696C2385.82 812.286 2399.87 814.056 2400.42 812.706C2403.79 804.486 2385.47 813.256 2393.49 806.456L2394.13 805.846Z" fill="#0B0B0B"/>
<path d="M2392.81 816.136C2398.78 815.446 2401.8 813.876 2400.44 820.826C2397.55 820.776 2393.44 821.626 2393.01 817.726L2392.81 816.136Z" fill="#FBFAFB"/>
<path d="M2514.49 805.777C2516.5 806.097 2525.65 807.397 2524.47 814.407C2524.11 816.527 2513.71 814.547 2512.78 815.777C2510.21 819.167 2515.97 820.827 2519.03 820.777L2520.72 820.787C2522.99 817.487 2523.65 821.127 2522.32 821.747C2510.6 827.177 2502.78 814.527 2514.49 805.777Z" fill="#262726"/>
<path d="M2512.75 808.777L2513.9 808.787C2517.84 808.797 2521.15 808.387 2520.5 813.267C2516.7 813.097 2511.09 814.637 2512.47 809.837L2512.75 808.777Z" fill="#FBFAFB"/>
<path d="M3522.17 805.676C3529.2 806.796 3531.44 807.306 3531.2 814.976C3531.15 816.616 3530.88 819.166 3532.26 820.306C3532.73 820.706 3533.73 821.496 3532.99 822.156C3531.48 823.526 3528.87 821.926 3527.16 822.516C3524.41 823.476 3522.07 823.246 3519.21 823.206C3517.31 817.816 3516.42 813.706 3524.74 813.296C3527.76 813.136 3529.59 812.676 3527.42 809.596C3526.1 807.706 3520.76 809.706 3519.35 809.426C3517.92 809.236 3522.23 805.626 3522.17 805.676Z" fill="#0B0B0B"/>
<path d="M3520.42 815.876C3526.67 815.316 3528.72 813.946 3528.28 820.456C3522.46 820.916 3521.44 821.766 3520.42 815.876Z" fill="#FBFAFB"/>
<path d="M2295.51 799.846C2298.66 799.906 2302.39 799.366 2304.69 802.026C2305.55 803.016 2306.81 805.056 2305.1 805.866C2304.9 805.846 2295.65 797.666 2293.39 806.836C2291.58 814.146 2292.55 819.586 2300.48 821.376C2301.52 820.486 2304.33 817.506 2305.54 817.536C2306.62 818.356 2306.33 819.666 2305.57 820.646C2304.42 822.146 2302.69 823.086 2300.81 823.246C2287.88 824.226 2286.25 808.906 2295.51 799.846Z" fill="#0B0B0B"/>
<path d="M2450.84 798.486C2455.33 801.916 2451.39 803.046 2453.31 807.486H2453.3C2463.07 805.616 2464.16 804.986 2464.4 817.996C2464.41 818.646 2464.66 823.706 2462.26 822.536C2461.22 822.026 2461.63 812.686 2461.63 811.146C2459.76 808.776 2458.92 807.996 2455.77 808.706C2449.73 810.066 2455.51 821.616 2451.42 822.896C2449.11 821.026 2450.14 801.956 2450.84 798.486Z" fill="#0B0B0B"/>
<path d="M3318.55 806.477C3323.63 807.937 3324.99 814.397 3327.28 819.257C3334.33 801.547 3337.25 803.377 3329.66 820.617C3328.26 823.667 3327.65 826.787 3324.79 828.927C3321.97 831.087 3316.35 828.597 3322.23 826.907C3327.28 825.457 3324.82 820.097 3323.24 817.207C3321.36 813.787 3319.74 810.047 3318.55 806.477Z" fill="#0B0B0B"/>
<path d="M3183.77 800.456C3186.02 800.416 3195.26 799.906 3196.27 800.926C3198.49 803.156 3191.89 802.556 3191.8 803.976C3191.51 808.626 3191.11 814.846 3191.99 819.316C3192.29 820.846 3195.29 818.236 3196.91 822.566C3195.19 822.706 3185.06 823.266 3184.39 822.566C3180.97 818.996 3188.56 821.356 3188.6 818.476C3188.66 814.376 3189.26 807.616 3188.26 803.936C3187.78 802.186 3184.53 804.956 3183.77 800.456Z" fill="#262726"/>
<path d="M3399.44 800.316C3410.37 798.406 3408.7 799.806 3408.72 808.766C3408.73 811.946 3408.22 816.156 3408.93 819.076C3409.29 820.596 3413.94 819.706 3413.7 822.016C3412.45 822.786 3412.51 822.686 3410.95 822.866C3408.33 822.846 3401.16 823.886 3400.4 821.326C3401.56 819.716 3403.88 820.606 3405.33 819.466C3405.99 817.416 3405.63 806.166 3405.5 803.486C3405.46 802.496 3401.36 801.366 3399.44 800.316Z" fill="#0B0B0B"/>
<path d="M3241.95 806.277C3247.21 808.387 3243.38 812.697 3244.79 817.467C3245.67 820.427 3247.09 821.637 3250.09 820.427C3255.29 818.337 3251.4 811.667 3253.23 807.597C3253.93 806.107 3255.2 807.557 3255.73 808.177C3255.71 812.567 3255.87 817.017 3255.64 821.367C3255.6 822.187 3254.68 823.037 3253.95 822.517C3251.59 820.837 3250.74 823.067 3248.28 823.207C3239.42 823.717 3241.67 811.927 3241.95 806.277Z" fill="#262726"/>
<path d="M3210.46 806.588C3215.67 805.818 3216.97 810.778 3216.79 814.978C3216.77 815.478 3217.13 823.698 3215.13 822.638C3212.3 821.128 3215.34 812.068 3212.65 809.218C3212.56 809.098 3212.47 808.968 3212.38 808.838L3211.62 807.677C3200.16 812.277 3208.32 817.728 3204.95 822.528C3200.91 822.328 3202.75 807.967 3203.16 807.297C3203.45 807.137 3209.37 806.748 3210.46 806.588Z" fill="#262726"/>
<path d="M2569.04 806.357C2574.68 808.817 2570.02 812.537 2571.95 817.947C2573.38 821.387 2574.49 820.357 2576.34 820.617C2582.97 821.577 2577.39 802.127 2582.75 808.197C2582.74 812.517 2582.89 817.127 2582.58 821.417C2582.52 822.277 2575.22 823.017 2574.29 823.057C2566.73 823.327 2568.75 811.137 2569.04 806.357Z" fill="#0B0B0B"/>
<path d="M3605.2 806.588C3605.64 806.538 3606.09 806.488 3606.53 806.438C3607.8 806.438 3609.02 806.918 3609.94 807.788C3611.87 809.588 3612.84 822.848 3609.41 822.748C3608.01 821.658 3609.63 813.557 3606.6 807.927C3593.51 812.517 3603.55 818.087 3599.24 822.307C3598.55 822.437 3598.88 822.458 3598.22 822.238C3597.02 820.818 3596.92 808.538 3598.12 807.248C3601.63 807.258 3601.58 807.388 3605.2 806.588Z" fill="#0B0B0B"/>
<path d="M3263.93 805.887L3265.58 805.997C3268.17 806.147 3272.18 805.987 3273.6 808.737C3273.25 811.547 3268.24 806.747 3264.3 809.557C3262.25 815.737 3281.46 810.827 3272.62 823.097C3269.71 823.087 3263.86 823.807 3261.9 821.077C3262.17 818.287 3268.75 822.867 3272.12 819.277C3273.31 813.437 3255.01 818.227 3263.93 805.887Z" fill="#262726"/>
<path d="M2493.71 800.486C2494.64 801.386 2495.83 802.516 2495.6 803.986C2494.71 809.606 2503.46 804.806 2503.3 808.376C2502.64 810.106 2496.96 808.516 2496.47 809.726C2494.8 813.866 2494.71 820.516 2500.22 820.826L2502.96 820.976C2504.66 823.796 2497.47 823.196 2496.34 822.806C2489.5 820.226 2496.15 810.526 2490.41 808.866C2485.59 807.466 2491.99 806.426 2492.08 806.336C2492.93 805.496 2493.39 801.726 2493.71 800.486Z" fill="#0B0B0B"/>
<path d="M3419.25 800.327C3429.42 799.157 3428.08 799.047 3428.25 807.757C3428.33 811.437 3427.62 816.567 3428.87 819.717C3429.19 820.507 3432.59 819.987 3433.31 820.727C3434.96 823.117 3430.45 822.747 3430.02 822.747C3428.92 822.737 3421.64 822.807 3421.36 822.667C3417.2 820.567 3424.81 819.907 3424.92 819.847C3425.81 818.327 3425.28 805.887 3425.29 803.547C3425.3 802.767 3421.01 801.327 3419.25 800.327Z" fill="#0B0B0B"/>
<path d="M3284.83 801.486C3286.92 803.446 3286.23 803.446 3287.03 805.996C3287.55 807.676 3292.21 806.306 3293.24 807.206C3294.7 808.566 3292.19 809.336 3291.29 809.046C3284.61 806.926 3285.96 816.726 3288 819.726C3289.05 821.276 3293.2 821.006 3295.22 821.186C3292.97 823.506 3289.77 824.026 3286.76 822.516C3282.48 820.366 3284.34 813.436 3283.5 809.936C3283.21 808.766 3280.4 809.276 3280.26 807.486C3282.28 804.556 3282.02 810.196 3284.83 801.486Z" fill="#0B0B0B"/>
<path d="M2553.96 802.766C2556.01 803.226 2554.84 803.996 2555.39 805.656C2556.41 808.696 2562.75 804.966 2563.28 808.466C2560.96 809.736 2556.37 808.446 2555.98 809.586C2554.76 813.096 2554.55 818.586 2558.14 820.496L2560.72 821.846C2561.45 821.886 2562.26 821.796 2562.49 822.336C2561.93 823.636 2556.94 823.096 2555.77 822.486C2551.12 820.066 2553.33 814.206 2552.38 810.176C2551.99 808.546 2548.58 809.426 2549.07 807.226C2550.3 805.946 2551.44 807.526 2552.87 804.856L2553.96 802.766Z" fill="#0B0B0B"/>
<path d="M3365.51 805.816C3368 806.096 3372.58 806.266 3374.18 808.666C3374.53 809.166 3374.61 809.796 3374.41 810.376C3374.09 811.316 3372.61 810.986 3371.94 810.436C3361.83 802.156 3359.35 823.026 3369.02 820.456C3376.56 816.856 3374.31 821.006 3373.21 821.656C3363.09 827.656 3353.39 815.406 3365.51 805.816Z" fill="#0B0B0B"/>
<path d="M3542.28 802.477C3545.9 801.777 3541.42 807.367 3546.76 806.917C3547.41 806.867 3551.64 806.537 3550.91 808.387C3549.54 809.397 3546.82 808.717 3545.36 809.197C3544.74 809.407 3544.25 809.877 3544.02 810.477C3542.62 814.107 3543.62 819.787 3547.97 821.347L3549.38 821.917C3549.94 821.857 3550.49 821.797 3551.05 821.737L3550.98 821.987C3543.4 827.947 3539.4 816.357 3541.03 810.947C3541.42 809.657 3538.48 808.907 3538.18 808.037C3538.09 808.327 3541.37 804.357 3542.28 802.477Z" fill="#0B0B0B"/>
<path d="M2534.56 805.746C2537.7 806.006 2540.72 805.836 2542.94 808.416C2543.89 808.836 2543.86 810.876 2542.71 810.806C2540.79 810.696 2539.68 808.916 2537.28 808.776C2533.02 808.526 2531.44 812.346 2531.87 815.986C2532.05 817.636 2532.92 819.146 2534.27 820.126C2535.58 821.096 2536.73 820.896 2538.2 820.646C2539.73 819.866 2541.52 818.506 2543.25 818.676L2543.62 819.306C2539.42 829.046 2519.08 819.176 2534.56 805.746Z" fill="#0B0B0B"/>
<path d="M2436.59 808.056L2435.66 809.086C2432.72 812.216 2431.86 816.736 2435.32 819.986C2438.41 822.896 2443.77 817.426 2444.72 820.156C2443.48 823.636 2438.16 823.836 2435.34 822.696C2433.4 821.896 2431.85 820.346 2431.06 818.396C2429.91 815.646 2430.57 813.746 2431.11 811.196C2432.43 804.996 2445.48 804.126 2444.51 810.756C2444.33 812.006 2439.49 808.886 2439.47 808.866L2436.59 808.056Z" fill="#0B0B0B"/>
<path d="M2471.51 806.438C2489.94 807.377 2470.34 817.847 2483.57 820.547C2485.4 820.917 2484.16 822.838 2481.02 822.898C2478.74 822.868 2472.27 823.497 2470.91 822.057C2470.21 819.107 2476.21 821.778 2476.18 818.998C2476.16 817.458 2476.61 810.418 2475.78 809.528C2474.19 807.828 2471.26 810.688 2471.51 806.438Z" fill="#0B0B0B"/>
<path d="M3558.15 807.396C3560.45 807.026 3563.79 806.456 3565.94 806.966C3569.62 808.556 3565.95 816.746 3568.03 819.806C3568.53 820.726 3571.01 820.116 3571.4 820.606C3573.33 822.996 3569.31 822.876 3569.02 822.896C3567.09 822.856 3558.68 824.006 3559.71 820.876C3560.98 819.946 3563.93 820.126 3564.1 819.546C3564.46 818.326 3565.7 809.266 3562.84 809.196C3560.66 809.146 3559.79 808.436 3558.15 807.396Z" fill="#0B0B0B"/>
<path d="M2598.52 806.626C2599.74 806.206 2601.93 806.046 2602.62 807.446C2601.19 813.656 2593.62 799.896 2593.38 821.646C2588.74 826.496 2591.11 810.236 2590.53 808.746C2589.96 807.286 2596.13 807.386 2598.52 806.626Z" fill="#0B0B0B"/>
<path d="M3508.38 806.816C3509.67 806.206 3511.1 805.866 3511.95 807.326C3508.76 813.426 3503.62 800.336 3503.56 822.456C3497.73 822.936 3501.15 807.226 3501.36 807.036C3505.67 807.156 3503.01 808.426 3508.38 806.816Z" fill="#0B0B0B"/>
<path d="M2420.51 806.677C2421.75 806.317 2423.98 806.047 2424.71 807.427C2423.2 813.597 2416.11 800.367 2415.86 821.747C2411.18 826.147 2413.94 810.107 2413.09 808.227C2412.64 807.217 2417.83 807.877 2420.51 806.677Z" fill="#0B0B0B"/>
<path d="M3302.47 806.127C3303.94 806.917 3304.1 807.227 3305.39 808.007C3307.51 807.347 3312.36 804.107 3314.38 807.717C3313.14 809.707 3310.92 807.617 3305.14 810.867C3305.01 812.957 3305.04 821.037 3304.8 821.407C3301.04 827.247 3302.43 808.237 3302.47 806.127Z" fill="#0B0B0B"/>
<path d="M3501.12 689.827C3502.68 687.977 3505.44 687.727 3507.31 689.277C3509.18 690.817 3509.44 693.587 3507.9 695.457C3506.35 697.347 3503.56 697.617 3501.68 696.057C3499.8 694.497 3499.55 691.707 3501.12 689.827Z" fill="#0B0B0B"/>
<path d="M2583.82 689.797C2584.81 688.537 2586.42 687.947 2587.99 688.267C2589.56 688.587 2590.82 689.767 2591.23 691.307C2591.64 692.857 2591.15 694.507 2589.95 695.567C2588.31 697.017 2585.85 696.977 2584.25 695.477C2582.66 693.987 2582.48 691.517 2583.82 689.797Z" fill="#0B0B0B"/>
<path d="M2371.29 689.777C2372.79 688.077 2375.38 687.897 2377.11 689.367C2378.84 690.837 2379.07 693.427 2377.62 695.177C2376.67 696.337 2375.16 696.897 2373.68 696.627C2372.2 696.367 2370.98 695.327 2370.48 693.907C2369.99 692.487 2370.3 690.907 2371.29 689.777Z" fill="#0B0B0B"/>
<path d="M2476.31 800.026C2477.88 799.456 2480.05 798.657 2478.3 801.037C2477.4 801.327 2476.59 801.716 2475.68 801.626C2475.24 800.946 2475.76 800.896 2476.31 800.026Z" fill="#0B0B0B"/>
<path d="M3565.18 800.207C3565.45 800.127 3566.74 799.817 3566.9 799.777C3566.98 800.237 3566.61 800.677 3566.4 801.107C3565.77 801.267 3565.05 801.627 3564.4 801.497C3564.39 801.087 3564.72 800.817 3565.18 800.207Z" fill="#0B0B0B"/>
<path d="M650.974 141.006C683.239 140.772 717.292 147.889 746.181 162.156C746.884 168.309 746.707 183.768 746.792 190.639C759.73 195.2 770.942 199.532 783.273 205.466C783.895 230.589 783.235 258.014 783.136 283.287L783.025 415.163L783.101 494.001C783.103 507.665 783.722 529.207 781.769 542.204C776.659 544.314 747.226 530.711 738.688 528.351C667.76 508.747 603.447 509.301 537.933 544.44C505.749 525.991 462.86 516.28 425.777 515.477L395.293 545.21C378.732 561.736 353.098 592.993 330.956 595.851C319.841 597.312 308.616 594.114 299.941 587.013C291.764 580.258 286.749 570.417 286.089 559.831C285.446 549.852 288.272 541.065 294.68 533.451C293.712 486.275 294.486 436.779 294.525 389.427L294.693 204.422C306.597 199.036 318.809 194.357 331.264 190.409L331.201 162.204C341.388 156.739 354.901 152.156 366.033 149.178C424.209 133.188 486.367 141.181 538.604 171.37C578.029 149.484 606.179 142.52 650.974 141.006Z" fill="#262726"/>
<path d="M542.719 179.879C602.866 142.987 672.528 142.264 736.911 167.683L736.923 489.385C663.389 461.277 604.45 462.101 542.906 515.883C542.746 509.223 544.071 491.715 541.675 486.742C538.603 486.11 538.634 485.923 535.577 487.063C530.85 492.05 532.874 506.182 533.012 514.318C515.06 496.602 492.99 483.619 468.783 476.534C464.625 475.334 462.471 474.767 458.794 476.767C458.313 477.617 456.497 483.21 457.279 483.502C466.007 486.755 473.665 488.02 482.63 491.85C505.062 501.432 520.152 512.973 534.918 532.313C501.454 517.3 471.409 508.654 434.552 506.243C442.272 495.85 443.992 490.878 445.688 478.263C453.653 469.783 461.755 461.433 469.991 453.216L473.109 451C478.57 452.298 488.002 459.366 493.718 461.898C535.085 480.226 579.453 477.404 617.801 453.508C646.492 435.592 666.867 406.987 674.423 374.016C682.171 340.919 676.138 306.094 657.709 277.531C638.895 248.299 609.159 227.816 575.14 220.657C541.161 213.367 505.678 219.911 476.535 238.843C447.52 257.545 427.318 287.204 420.539 321.052C413.433 356.598 421.511 389.437 441.532 419.177C432.705 426.974 423.854 435.264 415.144 443.233C391.538 444.293 382.385 453.812 365.236 469.033L340.599 491.003L340.781 167.684C363.666 157.935 384.263 153.355 408.846 150.917C447.818 147.532 499.797 156.895 532.716 179.15C533.266 187.141 529.873 203.608 537.377 206.648C545.63 204.617 542.821 187.196 542.719 179.879Z" fill="#FBFAFB"/>
<path d="M597.721 191.41C621.206 190.516 676.716 191.001 702.295 191.877C703.012 192.47 703.729 193.064 704.446 193.657C705.195 196.865 704.7 197.369 703.364 200.356C679.589 201.045 626.087 200.783 599.836 199.931C599.059 199.312 598.282 198.692 597.504 198.073C596.451 195.208 596.957 194.362 597.721 191.41Z" fill="#262726"/>
<path d="M371.836 191.478C404.871 191.018 438.421 191.312 471.491 191.307C475.945 191.307 476.418 191.473 478.829 194.014C479.202 197.766 479.093 196.592 477.271 200.485C477.101 200.488 476.931 200.491 476.761 200.495L410.896 200.575C403.314 200.582 374.965 202.057 370.749 197.993C369.979 194.395 370.219 195.52 371.836 191.478Z" fill="#262726"/>
<path d="M621.997 227.522C629.343 227.081 700.851 225.845 703.644 228.542C704.875 229.73 704.999 231.358 704.889 232.969C704.829 233.864 704.732 234.762 704.66 235.657C697.778 237.171 643.995 236.531 632.871 236.529C628.714 232.815 626.273 230.977 621.997 227.522Z" fill="#262726"/>
<path d="M373.356 264.839C392.961 265.39 414.619 264.896 434.407 264.818L427.48 274.161C410.306 274.823 392.426 273.936 375.184 274.18C370.317 274.249 367.898 268.57 373.356 264.839Z" fill="#262726"/>
<path d="M371.852 227.534C390.717 227.17 410.274 227.143 429.066 227.833C433.405 227.992 430.854 234.544 429.974 236.34C411.569 237.145 392.11 236.315 373.67 236.241C369.855 236.226 370.058 231.42 371.303 228.758L371.852 227.534Z" fill="#262726"/>
<path d="M372.61 416.593C376.992 416.579 427.493 411.915 411.439 425.995C400.242 426.154 382.448 426.636 371.734 424.611C368.109 423.926 370.999 418.476 372.61 416.593Z" fill="#262726"/>
<path d="M372.108 302.604C385 302.042 400.912 302.476 413.959 302.552C413.04 305.611 412.081 308.658 411.081 311.692C402.58 311.783 394.015 311.831 385.516 311.898C378.206 311.956 365.548 314.307 372.108 302.604Z" fill="#262726"/>
<path d="M371.916 378.307C384.134 378.253 397.389 377.852 409.458 378.736C410.086 378.782 412.897 385.033 410.497 387.667C398.376 387.574 385.659 388.102 373.666 387.252C368.399 386.88 370.643 380.863 371.916 378.307Z" fill="#262726"/>
<path d="M661.633 265.19L698.902 265.168C704.094 265.187 705.185 266.779 704.63 271.844L704.459 273.606C696.238 274.979 676.627 274.456 667.645 274.431C665.499 271.379 663.594 268.357 661.633 265.19Z" fill="#262726"/>
<path d="M667.257 416.529C678.61 416.365 691.164 415.957 702.354 416.869C706.571 417.213 704.107 423.828 702.964 425.819C690.485 425.767 677.695 425.963 665.296 425.36C662.879 425.243 666.93 417.142 667.257 416.529Z" fill="#262726"/>
<path d="M372.665 340.628C383.238 340.514 396.718 339.903 407.128 341.183C407.079 341.177 409.775 348.067 405.749 349.656C399.763 349.626 359.709 354.047 372.665 340.628Z" fill="#262726"/>
<path d="M682.261 302.633C692.134 302.613 708.146 298.331 703.811 311.643C689.256 312.262 684.827 316.509 682.261 302.633Z" fill="#262726"/>
<path d="M686.417 378.39C695.94 378.18 708.081 374.83 703.695 387.57C699.767 387.642 694.781 387.418 690.977 387.652C682.791 388.158 685.084 385.955 686.417 378.39Z" fill="#262726"/>
<path d="M688.081 340.462C699.142 340.477 704.6 337.209 704.949 348.857C703.989 349.09 701.646 349.754 700.7 349.724C687.679 349.306 688.669 353.063 688.081 340.462Z" fill="#262726"/>
<path d="M534.114 227.351C599.34 219.777 658.398 266.407 666.16 331.612C673.923 396.816 627.464 456.008 562.282 463.959C496.833 471.943 437.345 425.251 429.551 359.78C421.757 294.308 468.62 234.956 534.114 227.351Z" fill="#FBFAFB"/>
<path d="M534.502 244.401C590.682 236.985 642.179 276.669 649.326 332.883C656.473 389.098 616.544 440.405 560.296 447.283C504.427 454.114 453.541 414.513 446.442 358.677C439.343 302.842 478.701 251.767 534.502 244.401Z" fill="#262726"/>
<path d="M540.564 253.651C591.424 249.635 635.918 287.589 639.971 338.446C644.024 389.303 606.103 433.825 555.249 437.915C504.342 442.009 459.764 404.039 455.707 353.13C451.65 302.221 489.652 257.671 540.564 253.651Z" fill="#FBFAFB"/>
<path d="M542.404 280.973C545.452 280.933 545.47 280.821 548.514 281.798C549.095 282.565 549.677 283.333 550.258 284.1C551.617 298.647 550.852 325.946 550.775 339.6C568.085 339.694 586.347 339.002 603.624 340.006C607.236 340.216 607.943 341.051 609.837 343.5C609.456 353.031 559.667 349.269 551.041 349.184C551.051 364.092 551.806 388.049 550.526 402.155C547.468 402.883 547.498 403.031 544.267 402.436C543.611 401.712 542.955 400.989 542.3 400.265C540.55 387.927 541.351 360.833 541.395 349.274C525.791 349.43 509.577 349.772 493.977 349.382C489.772 349.277 486.831 348.886 484.16 345.7C483.602 335.795 533.012 339.637 541.304 339.723C541.568 328.226 540.283 289.484 542.404 280.973Z" fill="#262726"/>
<path d="M747.257 200.693C755.103 203.111 766.247 207.994 773.505 211.438C774.596 317.706 773.367 425.32 773.548 531.708C763.71 526.708 749.4 522.095 738.729 518.937C680.965 501.846 625.477 501.471 568.313 520.28C560.256 523.383 552.308 526.766 544.484 530.421C584.976 480.32 648.368 471.352 707.307 489.429C714.8 491.727 739.029 500.403 744.701 500.306C748.211 493.747 746.686 428.352 746.691 415.743L746.723 261.088C746.692 246.316 745.83 215.418 747.157 201.629L747.257 200.693Z" fill="#FBFAFB"/>
<path d="M402.947 453.765C429.173 451.337 443.773 472.98 429.84 496.105C422.737 504.476 411.152 517.862 402.813 524.59C382.264 541.171 354.081 581.782 328.551 586.806C299.129 585.301 284.02 558.26 304.679 536.287C315.882 524.371 333.522 509.343 346.013 498.757C361.72 485.446 384.397 461.275 402.947 453.765Z" fill="#FBFAFB"/>
<path d="M329.015 200.518L330.536 201.156C331.554 207.464 331.072 224.178 331.061 231.271L331.08 286.334L331.053 499.071L305.638 521.861L304.96 521.603C303.534 517.962 304.266 470.226 304.236 462.281L304.248 209.996C312.436 206.663 320.693 203.503 329.015 200.518Z" fill="#FBFAFB"/>
<path d="M446.296 427.168C447.894 427.998 462.342 441.816 465.263 444.351C457.827 451.827 450.998 458.454 443.456 465.759C442.286 465.299 441.729 464.93 441.175 463.66C437.667 455.618 432.393 451.966 425.38 447.224C432.384 440.244 439.51 434.284 446.296 427.168Z" fill="#FBFAFB"/>
<path d="M1172.95 767.32L1488.95 767.373C1587.25 767.908 1685.54 767.767 1783.83 766.95C1789.82 766.868 1793.93 766.602 1798.1 770.607C1798.56 774.624 1798.5 773.256 1796.73 777.386C1785.72 778.203 1767.79 777.684 1756.39 777.699L1676.83 777.61L1444.88 777.573L1259.34 777.666L1206.05 777.499C1197.44 777.551 1176.42 780.674 1171.12 774.034C1170.67 770.751 1171.31 770.194 1172.95 767.32Z" fill="#6747C0"/>
<path d="M1661.12 173.984C1665.19 174.42 1664.4 173.76 1667.29 175.874C1670.59 182.87 1669.34 208.866 1669.36 218.366C1740.19 218.658 1730.77 210.846 1730.89 282.966L1730.98 363.414V444.48C1730.91 513.265 1739.91 508.155 1671.46 507.564C1671.57 517.518 1673.01 544.043 1669.36 551.418C1666.23 551.012 1665.77 551.271 1663.47 549.12C1660.9 543.874 1660.02 504.218 1664.5 499.707C1670.99 493.155 1721.25 506.68 1721.69 491.56C1721.89 484.558 1721.56 469.941 1721.51 463.821L1721.38 406.212C1721.39 350.817 1721.61 295.26 1721.55 239.86C1721.55 237.559 1721.36 232.23 1719.81 230.801C1710.05 221.765 1670.24 233.779 1661.4 224.175C1659.47 222.089 1659.06 179.512 1661.12 173.984Z" fill="#262726"/>
<path d="M1279.95 174.074C1283.22 174.223 1284.53 173.944 1287.09 175.944C1288.2 180.61 1288.95 224.126 1285.57 225.717C1273.84 231.224 1239.21 222.975 1228.7 230.143C1225.73 234.791 1226.81 282.878 1226.8 291.213L1226.88 396.191L1227 457.206C1227.02 468.646 1226.58 483.293 1227.92 494.385C1234.21 503.918 1272.37 495.076 1283.51 499.452C1290.24 502.097 1288.47 546.002 1285.9 551.025C1282.03 550.707 1282.52 551.332 1279.85 549.384C1276.43 542.349 1277.99 517.098 1278.04 507.53C1207.67 506.625 1217.49 515.433 1217.52 442.196L1217.54 358.492L1217.4 282.259C1217.36 268.919 1215.71 234.493 1220.85 223.678C1230.96 215.402 1263.49 218.155 1278.39 218.259C1278.49 208.792 1277.19 181.579 1279.95 174.074Z" fill="#262726"/>
<path d="M319.101 767.442C346.126 766.588 377.769 767.367 405.07 767.395L570.775 767.358L694.947 767.458C713.721 767.481 732.971 767.413 751.763 767.382C755.497 767.376 756.859 768.428 758.881 770.883C759.093 774.343 758.717 774.617 756.904 777.494L430.66 777.59L348.609 777.45C340.731 777.431 321.073 780.067 316.96 774.063C316.696 770.751 317.336 770.241 319.101 767.442Z" fill="#6747C0"/>
<path d="M1332.09 343.392C1331.84 355.842 1332.76 389.884 1330.76 403.663C1329.65 404.919 1326.59 403.82 1326.55 402.514C1325.8 379.329 1325.42 353.022 1326.49 330.07C1327.18 315.332 1354.57 373.802 1355.1 374.691C1358.64 368.613 1377.1 329.475 1380.69 328.666C1381.63 328.454 1382.68 328.564 1383.47 329.153C1384.57 329.982 1384.6 331.184 1384.64 332.461C1384.87 339.981 1385.63 401.47 1383.77 403.549C1383.23 404.152 1382.5 404.44 1381.7 404.429C1380.72 404.416 1379.74 403.999 1378.82 403.719C1378.64 403.663 1378.45 403.612 1378.27 403.558C1376 392.349 1379.65 352.886 1376.38 346.722C1370.44 358.14 1364.26 369.49 1358.62 381.053C1358.1 382.113 1355.33 385.477 1354.3 383.936C1345.97 371.518 1340.12 356.439 1332.09 343.392Z" fill="#262726"/>
<path d="M1376.38 346.722C1377.28 344.397 1378.24 344.22 1378.25 344.522C1378.42 361.524 1379.96 384.143 1378.52 400.967L1378.27 403.558C1376 392.349 1379.65 352.886 1376.38 346.722Z" fill="#E1E1E1"/>
<path d="M366.312 693.988C373.738 694.065 383.369 693.213 390.356 694.968C398.926 697.121 403.304 705.311 400.218 713.621C398.119 719.276 394.143 720.204 389.483 722.768C391.179 725.247 402.277 740.831 401.268 742.031C400.121 742.459 396.048 742.4 394.54 742.461C390.48 736.686 387.234 730.591 383.395 724.722C382.152 722.823 374.206 723.223 373.714 724.162C371.571 728.251 374.156 736.513 372.969 741.13C372.72 742.097 368.091 742.425 367.35 741.564C365.706 733.136 366.319 700.803 366.312 693.988Z" fill="#0B0B0B"/>
<path d="M373.289 700.268C383.829 700.225 400.291 699.187 391.905 715.12C384.633 718.593 381.532 717.596 373.326 717.552L373.289 700.268Z" fill="#FBFAFB"/>
<path d="M1506.27 327.819C1519.81 326.989 1534.71 329.226 1541.07 343.468C1541.77 345.028 1540.26 347.166 1538.71 347.236C1534.6 347.418 1534.19 339.812 1529.94 338.22C1522.52 332.996 1515.4 333.191 1506.7 333.592C1499.33 333.931 1488.45 342.654 1491.72 350.532C1497.43 364.28 1522.77 361.695 1534.29 370.948C1542.76 377.748 1544.6 385.255 1538.42 394.91C1534.18 401.335 1525.35 403.774 1518.54 405.071C1508.94 405.494 1501.14 404.858 1492.69 399.38C1491.3 398.477 1479.29 388.394 1486.35 385.712C1489.66 384.456 1491.59 392.548 1496.69 395.471C1504.8 400.747 1513.69 400.133 1522.7 398.428C1529.89 397.065 1538.9 388.798 1535.55 381.066C1530.2 368.751 1506.44 368.803 1495.7 362.53C1491.53 360.092 1486.99 357.174 1485.75 352.012C1483.07 337.099 1494.45 330.439 1506.27 327.819Z" fill="#262726"/>
<path d="M1257.61 707.637C1264.39 708.018 1270.07 708.563 1273.36 715.71C1280.09 730.298 1270.68 748.408 1253.3 742.116C1250.97 741.274 1250.33 740.014 1249.46 742.428C1249.45 744.754 1249.85 753.768 1249.01 754.286C1240.06 759.768 1242.44 746.662 1242.44 745.84C1242.34 734.263 1242.41 723.984 1242.39 712.53C1242.39 711.952 1242.5 709.765 1243.02 709.165C1247.81 706.649 1248.35 709.879 1250.26 711.165C1251.28 710.966 1254.13 708.808 1255.96 708.218L1257.61 707.637Z" fill="#0B0B0B"/>
<path d="M1255.71 713.57C1271.74 714.478 1271.26 729.064 1261.86 737.479C1245.72 737.828 1250.06 732.095 1249.6 718.98C1249.52 716.881 1254.38 714.413 1255.71 713.57Z" fill="#FBFAFB"/>
<path d="M1404.52 327.834C1405.12 327.946 1405.73 328.051 1406.34 328.148C1407.13 328.278 1407.87 328.353 1408.57 328.777C1411.52 330.549 1408.79 378.6 1410.78 386.023C1412.1 390.971 1415.69 394.707 1420.14 397.055C1427.05 400.694 1435.86 401.317 1443.22 398.691C1448.47 396.816 1452.68 393.203 1454.88 388.056C1458.4 379.791 1456.4 350.385 1456.38 340.021C1456.37 337.478 1455.59 331.929 1456.91 329.667C1457.28 329.019 1457.97 328.529 1458.7 328.38C1459.5 328.217 1460.31 328.425 1460.92 328.963C1462.31 330.183 1462.14 332.099 1462.19 333.773C1462.28 349.875 1462.8 367.453 1462.02 383.532C1460.4 414.409 1405.45 410.893 1404.23 384.918C1403.63 372.22 1402.81 339.609 1404.52 327.834Z" fill="#262726"/>
<path d="M1692.5 707.778C1700.63 707.529 1710.89 708.941 1712.98 717.948C1716.03 731.051 1712.84 739.412 1700.63 743.466C1674.48 742.976 1673.75 715.107 1692.5 707.778Z" fill="#0B0B0B"/>
<path d="M1693.39 713.504C1710.56 714.326 1711.4 729.559 1699.84 737.876C1685.04 736.405 1682.75 722.159 1693.39 713.504Z" fill="#FBFAFB"/>
<path d="M1557.67 328.597C1575.73 326.216 1603.41 328.638 1622.03 328.89C1623.85 328.915 1623.72 333.144 1622.07 333.416C1613.81 334.774 1602.48 334.088 1593.95 333.958L1593.84 373.559C1593.84 381.854 1593.67 391.34 1593.82 399.517C1596.19 402.533 1589.02 406.446 1588.73 403.479C1587.11 387.288 1587.89 348.415 1587.87 333.911C1579.47 333.909 1571.06 333.976 1562.66 333.979C1558.61 333.98 1558.18 332.172 1557.67 328.597Z" fill="#262726"/>
<path d="M509.39 707.809C519.975 707.483 524.037 707.722 529.812 718.507C539.872 737.292 501.7 721.158 504.089 730.482C506.079 738.25 516.507 738.205 523.51 735.451C526.335 731.769 531.566 737.739 525.221 741.026C520.128 743.687 514.196 744.252 508.693 742.599C492.221 737.568 492.165 715.77 509.39 707.809Z" fill="#0B0B0B"/>
<path d="M511.454 713.398C522.112 714.043 530.927 722.457 517.952 722.283C509.592 722.378 494.315 723.587 511.454 713.398Z" fill="#FBFAFB"/>
<path d="M1298.58 707.739C1308.23 707.641 1315.95 709.079 1319.41 719.537C1319.8 720.716 1320.49 726.597 1319.56 726.909C1317.07 728.897 1293.04 725.7 1293.03 728.473C1292.98 739.513 1306.71 737.275 1311.88 735.821C1315.32 732.078 1320.95 737.599 1314.44 740.997C1305.99 745.401 1290.94 743.865 1287.23 733.99C1282.73 722.01 1286.76 712.389 1298.58 707.739Z" fill="#0B0B0B"/>
<path d="M1299.51 713.34C1311.6 713.687 1317.69 722.455 1307.95 722.384C1299.38 722.411 1284.07 724.592 1299.51 713.34Z" fill="#FBFAFB"/>
<path d="M425.691 707.764C431.583 707.915 437.009 708.721 439.544 711.723C446.413 719.857 451.031 730.419 435.544 727.576C432.884 727.088 415.925 725.844 418.331 730.432C423.181 739.678 430.98 738.19 439.039 734.754L439.534 734.432C441.518 733.122 447.235 737.946 438.72 741.382C421.065 748.506 405.238 735.021 413.129 716.87C415.465 711.496 420.533 709.336 425.691 707.764Z" fill="#0B0B0B"/>
<path d="M424.451 713.428C436.214 713.668 444.004 722.305 432.952 722.35C423.683 722.369 410.035 724.94 424.451 713.428Z" fill="#FBFAFB"/>
<path d="M1208.76 693.668C1214.21 693.443 1230.82 693.967 1230.17 704.829C1230.07 706.482 1225.11 706.702 1224.12 704.884C1220.05 697.427 1201.13 696.831 1204.19 708.495C1207.16 717.068 1227.84 713.315 1231.22 726.809C1232.09 730.285 1231.42 733.971 1229.38 736.916C1226.19 741.458 1220.61 742.36 1215.64 743.277L1214.38 743.214C1206.57 742.878 1199.33 741.082 1195.08 733.449C1193.68 730.953 1198.81 729.83 1200.34 729.472C1201.33 729.8 1209.59 741.62 1217.91 736.952C1236.88 724.372 1211.45 722.187 1204.7 718.566C1189.58 710.456 1196.57 698.106 1208.76 693.668Z" fill="#0B0B0B"/>
<path d="M551.803 707.819C574.84 707.565 568.168 718.738 570.244 735.65C570.81 737.323 573.686 736.916 574.214 737.365C579.514 741.798 571.833 745.7 567.229 741.575C563.003 737.788 558.5 743.73 548.752 743.102C545.045 740.93 541.358 739.315 540.773 734.511C540.435 731.759 541.262 728.99 543.053 726.873C548.737 720.278 554.975 724.104 560.771 722.487C567.403 718.13 557.65 711.122 549.832 714.962C543.973 717.839 538.594 711.734 551.803 707.819Z" fill="#0B0B0B"/>
<path d="M551.9 727.787C557.047 727.69 568.932 727.705 559.896 736.091L558.907 737.032C550.965 737.644 543.143 735.874 551.9 727.787Z" fill="#FBFAFB"/>
<path d="M1559.26 707.725C1583.42 707.958 1572.74 721.622 1576.89 736.266C1577.28 737.656 1583.24 736.76 1582.49 739.422C1579.95 748.505 1571.82 738.11 1569.13 739.824C1564.36 744.497 1558.52 743.326 1553.17 742.334C1550.76 740.516 1546.91 738.545 1547.05 732.526C1547.47 714.267 1579.36 731.627 1566.53 714.771C1563.36 712.243 1554.09 716.624 1552.47 715.759C1543.78 711.128 1557.77 708.111 1559.26 707.725Z" fill="#0B0B0B"/>
<path d="M1558.13 727.674L1559.5 727.657C1568.54 727.561 1573.63 728.971 1564.89 737.355C1559.07 737.613 1549.44 736.132 1556.96 728.831L1558.13 727.674Z" fill="#FBFAFB"/>
<path d="M670.791 693.248C685.148 694.852 673.231 701.388 678.311 711.045C704.463 697.705 702.817 725.119 700.858 741.68C700.811 742.073 694.106 745.301 694.231 738.545C694.349 733.147 694.393 727.748 694.362 722.35C693.828 713.998 691.184 713.669 684.209 714.025C669.027 714.8 686.782 748.607 671.507 741.683C670.267 741.12 671.134 733.771 670.936 732.528C670.926 719.788 670.557 705.946 670.791 693.248Z" fill="#0B0B0B"/>
<path d="M1741.77 707.697C1758.73 708.482 1757.37 715.354 1757.39 730.533C1757.39 733.09 1757.77 739.179 1757.11 741.317C1756.51 743.274 1749.45 743.132 1750.38 739.539C1750.56 734.856 1750.43 729.922 1750.5 725.265C1750.61 717.114 1749.7 714.682 1741.8 713.193C1741.36 713.395 1740.91 713.596 1740.47 713.798C1728.2 715.422 1736.71 739.195 1733.22 741.829C1721.91 750.362 1728.51 713.418 1727.38 709.725C1726.91 708.181 1734.08 708.495 1734.79 710.279C1735.06 710.936 1741.02 707.989 1741.77 707.697Z" fill="#0B0B0B"/>
<path d="M469.026 707.787C472.532 707.8 487.161 708.333 483.956 714.943C480.102 717.567 465.7 708.297 464.932 718.088C464.589 722.459 480.407 723.368 483.433 726.849C492.139 736.866 481.613 742.429 471.596 743.461C467.107 742.891 463.142 742.789 459.155 740.654C453.102 737.414 458.655 731.459 463.73 736.342C465.798 738.017 478.588 738.714 479.102 734.801C480.431 724.688 450.351 730.819 458.404 713.318C460.046 709.749 465.731 708.545 469.026 707.787Z" fill="#0B0B0B"/>
<path d="M1435.26 693.737C1440.08 693.519 1445.71 691.986 1448.2 696.562C1447.68 701.703 1442.19 698.618 1438.21 699.664C1434.56 700.622 1433.92 704.627 1434.81 707.533C1435.84 710.925 1453.57 704.753 1447.91 713.732C1446.99 715.146 1436.56 714.542 1434.34 714.544L1434.27 734.294C1434.17 739.654 1435.4 742.756 1430.05 742.518C1424.4 742.268 1429.73 717.689 1426.98 715.012C1424.96 713.04 1415.56 717.287 1417.82 710.045C1418.69 707.151 1426.1 709.597 1426.66 708.268C1430.01 700.262 1427.15 699.166 1435.26 693.737Z" fill="#0B0B0B"/>
<path d="M1600.54 696.934C1609.72 697.924 1607.12 698.427 1607.2 708.737C1609.35 708.743 1620.59 708.336 1622.26 709.21C1623.33 709.766 1623.55 714.131 1621.24 714.34C1617.48 714.681 1611.44 714.457 1607.43 714.463C1607.5 734.093 1603.03 738.705 1623.47 736.117C1623.37 736.929 1623.16 741.674 1622.12 741.935C1613.69 743.864 1603.17 744.025 1600.9 733.507C1599.93 729.004 1601.55 718.877 1599.79 715.067C1598.7 712.699 1589.6 717.145 1590.72 711.014C1591.56 706.396 1597.42 710.477 1600.06 708.059C1600.89 707.209 1600.51 701.51 1600.52 700.187L1600.54 696.934Z" fill="#0B0B0B"/>
<path d="M1343.95 707.736C1365.46 707.714 1364.04 723.632 1355.15 718.114C1351.93 716.112 1349.08 711.067 1342.28 714.811C1329.73 721.721 1338.33 743.803 1353.12 735.812C1355.14 734.222 1359.15 730.848 1361.25 734.862C1361.57 735.485 1361.6 736.216 1361.34 736.864C1357.73 745.701 1333.08 746.135 1330.29 732.75C1327.49 719.294 1330.24 711.543 1343.95 707.736Z" fill="#0B0B0B"/>
<path d="M1517.98 707.758C1534.06 707.528 1540.94 717.095 1533.15 718.733C1530.71 719.244 1520.17 706.753 1512.79 718.503C1510.99 721.373 1510.4 724.844 1511.17 728.147C1512.98 735.949 1518.97 738.528 1526.28 736.571C1538.2 729.012 1539.03 737.713 1530.22 741.531C1505.02 752.448 1491.16 715.535 1517.98 707.758Z" fill="#0B0B0B"/>
<path d="M640.751 707.774C647.039 707.632 654.359 707.711 658.163 713.747C658.722 714.797 660.088 716.929 658.463 717.867C650.898 722.235 654.678 713.134 644.701 713.774C641.676 713.94 638.855 715.353 636.912 717.678C629.988 726.02 635.804 739.167 650.555 736.628C656.649 730.821 659.9 734.515 659.055 736.663C655.432 745.874 632.256 745.652 628.936 733.944C625.19 720.735 627.474 712.589 640.751 707.774Z" fill="#0B0B0B"/>
<path d="M1463.37 708.553L1481.23 708.649L1481.1 736.696C1483.58 736.774 1489.81 736.115 1491.88 737.346C1492.83 737.913 1492.95 741.016 1491.97 741.743C1490.18 743.069 1485.05 742.475 1482.95 742.464C1479.86 742.451 1463.51 742.72 1463.08 742.122C1457.45 734.399 1473.18 736.624 1473.64 736.616L1474.36 736.6L1474.41 714.628C1465.76 714.292 1463.94 717.062 1463.37 708.553Z" fill="#0B0B0B"/>
<path d="M1376.26 708.615L1394.35 708.596L1394.59 736.653C1396.15 736.695 1403.85 736.251 1405.12 736.877C1407.2 737.906 1407.05 742.448 1403.76 742.483C1400.45 742.518 1396.1 742.477 1392.45 742.482C1390.52 742.48 1378.69 742.854 1376.31 742.108C1375.4 741.821 1374.76 737.246 1377.23 736.961C1379.9 736.653 1384.8 736.876 1387.81 736.861C1387.78 732.32 1388.6 716.781 1386.79 714.631C1384.13 711.449 1377.73 720.018 1376.26 708.615Z" fill="#0B0B0B"/>
<path d="M1639.86 708.615L1657.91 708.584L1657.88 736.617C1660.64 736.681 1665.92 736.02 1668.32 737.237C1669.45 737.81 1669.56 741.285 1668.49 741.809C1665.73 743.162 1659.32 742.471 1656.2 742.469C1650.56 742.449 1635.29 744.966 1640.08 737.201C1640.77 736.082 1650.12 736.784 1651.44 736.803L1651.54 714.532C1645.56 714.268 1640.15 716.817 1640 710.289L1639.86 708.615Z" fill="#0B0B0B"/>
<path d="M605.69 707.701C609.006 707.775 616.713 706.874 614.709 712.663C613.414 716.405 606.603 712.946 602.226 715.478C592.753 720.957 598.916 733.559 595.868 743.469C595.08 743.267 594.288 743.079 593.493 742.907C592.653 742.73 590.238 742.225 590.17 741.615C589.295 731.729 589.913 720.549 590.08 710.5C590.129 707.537 594.887 707.163 597.386 712.179C597.603 712.127 603.65 708.478 605.69 707.701Z" fill="#0B0B0B"/>
<path d="M732.46 806.141C736.026 806.39 736.771 806.388 740.081 807.499C746.807 805.552 742.145 815.162 743.709 820.537C745.953 828.254 735.17 833.023 730.64 827.838L729.682 826.792C730.946 826.828 744.65 828.283 740.423 821.772C739.26 821.332 737.459 823.105 736.224 823.033C727.352 822.518 726.325 812.994 731.362 807.424L732.46 806.141Z" fill="#0B0B0B"/>
<path d="M733.423 808.004C742.555 809.728 742.359 813.649 738.335 821.549C729.988 818.788 729.564 815.706 733.423 808.004Z" fill="#FBFAFB"/>
<path d="M1406.52 799.02C1409.91 801.597 1409.32 820.272 1408.35 822.365C1406.69 822.645 1398.69 823.281 1397.13 823.182C1390 814.006 1391.82 805.2 1405.18 807.012C1405.94 806.336 1406.25 800.508 1406.52 799.02Z" fill="#0B0B0B"/>
<path d="M1398.32 807.887C1407.58 809.463 1407.89 813.841 1403.51 821.699C1395.16 819.001 1394.35 816.455 1398.32 807.887Z" fill="#FBFAFB"/>
<path d="M1512.85 806.586C1514.92 807.461 1515.18 808.252 1517.44 807.347C1529.05 802.7 1531.9 816.326 1523.26 823.813C1521.86 823.615 1517.18 822.564 1516.35 822.671C1515.47 823.526 1516.53 827.795 1515.73 828.545C1512.01 832.055 1512.91 823.351 1512.91 822.535C1512.95 817.144 1512.95 811.937 1512.85 806.586Z" fill="#0B0B0B"/>
<path d="M1519.14 809.39C1521.87 808.674 1524.69 810.166 1525.64 812.824C1526.58 815.483 1525.33 818.422 1522.76 819.588C1520.9 820.436 1518.71 820.16 1517.11 818.875C1515.52 817.589 1514.78 815.514 1515.21 813.509C1515.63 811.504 1517.16 809.91 1519.14 809.39Z" fill="#FBFAFB"/>
<path d="M1347.72 799.039C1351.23 801.689 1350.47 820.565 1349.41 822.401C1346.82 822.689 1340.48 823.19 1338.22 823.035C1335.42 819.422 1334.2 818.231 1334.57 813.534C1335.39 803.231 1345.18 807.586 1346.79 806.942C1347.22 805.864 1347.36 801.014 1347.72 799.039Z" fill="#0B0B0B"/>
<path d="M1339.3 808.045C1348.23 809.264 1348.8 811.929 1345.71 820.648C1336.45 820.303 1335.87 816.835 1339.3 808.045Z" fill="#FBFAFB"/>
<path d="M1485.73 799.135C1489.35 801.999 1488.15 821.024 1487.26 822.203C1486.96 822.283 1476.75 823.207 1476.22 823.181C1473.65 819.788 1471.87 817.41 1472.56 813.036C1473.97 804.109 1479.61 806.985 1484.48 807.157C1484.92 806.506 1485.36 800.84 1485.73 799.135Z" fill="#0B0B0B"/>
<path d="M1477.31 807.947C1486.17 809.449 1486.29 812.511 1483.27 821.133C1474.52 819.751 1473.76 816.662 1477.31 807.947Z" fill="#FBFAFB"/>
<path d="M721.348 799.816C722.237 800.461 723.844 801.402 723.749 803.014C723.509 807.131 724.67 818.84 723.239 822.106C722.957 822.75 712.402 822.669 710.838 822.453C706.704 812.607 709.792 801.152 720.254 807.996C721.45 807.115 721.248 801.228 721.348 799.816Z" fill="#0B0B0B"/>
<path d="M714.381 807.869C722.2 810.836 723.035 814.355 718.529 821.71C710.188 818.692 709.754 815.21 714.381 807.869Z" fill="#FBFAFB"/>
<path d="M633.8 807.148C636.508 805.801 639.731 806.015 642.238 807.706C644.745 809.398 646.149 812.306 645.914 815.321C645.68 818.337 643.843 820.993 641.104 822.276C636.938 824.229 631.975 822.466 629.975 818.322C627.974 814.178 629.68 809.196 633.8 807.148Z" fill="#0B0B0B"/>
<path d="M635.439 809.368C638.297 808.201 641.564 809.53 642.795 812.36C644.026 815.191 642.771 818.487 639.968 819.781C638.099 820.644 635.908 820.428 634.244 819.216C632.579 818.003 631.702 815.985 631.95 813.941C632.198 811.897 633.533 810.147 635.439 809.368Z" fill="#FBFAFB"/>
<path d="M497.273 807.178C501.378 805.039 506.441 806.627 508.588 810.729C510.735 814.83 509.156 819.896 505.059 822.05C500.95 824.211 495.869 822.626 493.716 818.514C491.563 814.402 493.157 809.324 497.273 807.178Z" fill="#0B0B0B"/>
<path d="M498.975 809.351C501.817 808.123 505.118 809.416 506.367 812.248C507.617 815.081 506.349 818.391 503.526 819.662C500.673 820.947 497.32 819.662 496.056 816.799C494.793 813.937 496.104 810.593 498.975 809.351Z" fill="#FBFAFB"/>
<path d="M1635.48 807.229C1638.13 805.816 1641.34 805.943 1643.87 807.561C1646.41 809.178 1647.87 812.035 1647.7 815.035C1647.53 818.035 1645.76 820.712 1643.07 822.038C1638.99 824.043 1634.06 822.408 1631.99 818.365C1629.92 814.321 1631.47 809.365 1635.48 807.229Z" fill="#0B0B0B"/>
<path d="M1637.18 809.369C1639.96 808.153 1643.2 809.363 1644.51 812.102C1645.81 814.841 1644.7 818.12 1642.01 819.51C1640.19 820.449 1638 820.321 1636.3 819.177C1634.6 818.032 1633.65 816.052 1633.84 814.011C1634.02 811.97 1635.3 810.191 1637.18 809.369Z" fill="#FBFAFB"/>
<path d="M1556.5 807.145C1559.2 805.886 1562.38 806.191 1564.79 807.941C1567.21 809.691 1568.49 812.613 1568.13 815.576C1567.78 818.538 1565.85 821.077 1563.09 822.209C1558.96 823.905 1554.23 821.991 1552.43 817.898C1550.64 813.805 1552.45 809.031 1556.5 807.145Z" fill="#0B0B0B"/>
<path d="M1558.11 809.373C1560.95 808.442 1564.01 809.912 1565.06 812.705C1566.11 815.499 1564.77 818.621 1562.02 819.783C1560.14 820.579 1557.97 820.28 1556.38 819.004C1554.78 817.728 1554.01 815.68 1554.38 813.67C1554.74 811.66 1556.17 810.011 1558.11 809.373Z" fill="#FBFAFB"/>
<path d="M1596.89 807.236C1599.61 806.01 1602.78 806.363 1605.16 808.157C1607.54 809.951 1608.76 812.9 1608.33 815.852C1607.91 818.804 1605.91 821.288 1603.11 822.334C1598.99 823.881 1594.38 821.873 1592.7 817.797C1591.02 813.722 1592.87 809.048 1596.89 807.236Z" fill="#0B0B0B"/>
<path d="M1598.15 809.406C1600.94 808.325 1604.08 809.649 1605.26 812.4C1606.44 815.151 1605.23 818.341 1602.52 819.616C1600.68 820.482 1598.52 820.275 1596.88 819.076C1595.24 817.878 1594.38 815.879 1594.65 813.864C1594.91 811.849 1596.25 810.139 1598.15 809.406Z" fill="#FBFAFB"/>
<path d="M691.671 806.527L692.97 806.398C698.917 805.757 703.181 806.675 703.762 814.152C704.008 817.321 690.91 813.707 691.712 817.052C692.399 819.918 694.227 820.413 696.934 820.064C710.01 818.151 698.101 826.436 691.63 821.711C689.792 820.342 688.591 818.283 688.303 816.01C687.797 811.951 689.423 809.634 691.671 806.527Z" fill="#0B0B0B"/>
<path d="M692.979 808.174C696.908 808.692 700.819 808.458 700.219 813.412C693.758 813.186 690.286 814.991 692.979 808.174Z" fill="#FBFAFB"/>
<path d="M752.47 806.199C755.294 806.298 764.487 806.41 763.896 814.362C763.688 817.152 752.889 814.62 751.811 816.182C749.948 818.882 753.473 820.913 756.894 820.298C766.439 819.116 761.398 823.129 758.208 823.25C747.19 823.67 744.388 814.251 752.47 806.199Z" fill="#0B0B0B"/>
<path d="M753.122 807.98C756.238 808.593 762.339 809.115 759.328 813.752C755.15 813.43 749.273 814.739 752.387 809.436L753.122 807.98Z" fill="#FBFAFB"/>
<path d="M1456.46 806.329H1457.85C1463.06 806.281 1466.67 806.515 1468.55 812.528C1470.42 818.518 1457.68 813.449 1455.88 816.621C1455.93 818.916 1458.91 820.203 1460.85 820.515C1462.11 820.279 1466.24 819.074 1467.25 820.023C1468.39 826.169 1442.87 823.425 1456.46 806.329Z" fill="#0B0B0B"/>
<path d="M1462.79 808.209C1464.22 808.89 1464.61 809.594 1465.7 810.812C1463.38 818.121 1446.81 810.081 1462.79 808.209Z" fill="#FBFAFB"/>
<path d="M1356.41 806.925C1370.69 804.729 1367.39 809.711 1368.97 819.889C1369.08 820.608 1370.66 821.205 1370.3 822.352C1370.74 822.042 1360.53 823.625 1358.89 824.093C1347.86 815.451 1359.56 813.536 1365.14 812.625C1367.13 812.301 1363.89 807.134 1360.2 808.897C1358.1 809.901 1356.83 809.535 1356.41 806.925Z" fill="#0B0B0B"/>
<path d="M1358.61 815.279C1364.59 815.667 1366.23 814.604 1364.61 820.901L1363.49 820.922C1358.31 821.059 1356.73 820.635 1358.61 815.279Z" fill="#FBFAFB"/>
<path d="M1297.62 806.851C1312.49 804.561 1307.54 810.332 1310.13 819.836C1309.9 818.998 1314.29 824.589 1308.72 822.65C1304.73 821.263 1303.81 823.021 1299.32 823.799C1285.64 809.781 1311.47 817.309 1305.59 809.502C1303.47 806.671 1295.76 811.982 1297.62 806.851Z" fill="#0B0B0B"/>
<path d="M1302.42 814.748C1308.06 817.246 1306.97 817.774 1303.2 821.887C1297.85 818.992 1296.95 818.546 1302.42 814.748Z" fill="#FBFAFB"/>
<path d="M534.906 806.942C549.869 804.661 544.438 811.161 546.998 819.876C547.171 820.466 548.215 820.613 548.466 821.924C547.95 823.248 546.3 823.028 545.288 822.475C543.202 821.335 538.885 823.165 536.232 823.717C531.733 818.804 531.871 813.302 537.195 813.49C543.723 813.722 547.903 809.563 538.242 808.964C536.126 808.833 534.966 810.964 534.906 806.942Z" fill="#0B0B0B"/>
<path d="M535.872 815.667C542.028 815.663 543.574 814.155 543.306 820.378C537.805 820.6 536.153 821.468 535.872 815.667Z" fill="#FBFAFB"/>
<path d="M1260.46 799.408C1274.02 800.416 1271.21 807.454 1267.89 804.323C1262.29 799.052 1257.74 805.019 1259.08 806.527C1263.05 810.981 1282.65 815.709 1264.63 823.792C1261.81 823.184 1254.64 822.036 1255.58 817.644C1257.23 816.124 1264.78 823.985 1267.55 819.467C1273.25 810.169 1244.68 813.621 1260.46 799.408Z" fill="#0B0B0B"/>
<path d="M662.061 826.216C660.594 823.054 658.937 818.121 657.389 815.449C655.751 816.219 656.294 820.996 654.294 822.817C651.628 823.27 645.947 804.798 649.676 806.468C651.116 807.112 652.1 812.682 653.146 815.175L654.094 814.905C658.641 802.685 658.385 810.203 660.657 816.547C660.873 816.679 661.089 816.811 661.305 816.943C663.672 814.332 661.479 807.111 665.409 806.252C667.287 807.916 662.804 823.161 662.061 826.216Z" fill="#0B0B0B"/>
<path d="M592.656 799.111C596.333 802.205 594.778 809.76 594.787 814.783C596.056 813.487 603.337 804.228 605.373 806.984C605.913 812.3 595.135 805.793 604.36 820.106C604.818 820.735 605.303 821.245 605.518 821.968C603.891 826.881 599.297 816.061 598.114 816.093C593.772 816.213 595.87 822.627 593.1 822.617C590.688 821.177 591.832 802.366 592.656 799.111Z" fill="#262726"/>
<path d="M315.294 800.931C317.882 800.593 328.467 799.034 329.378 801.785C329.083 803.183 325.054 802.576 324.897 803.652C324.366 808.44 324.479 814.147 324.841 818.924C324.964 820.542 327.838 819.06 329.618 822.113C328.071 822.313 315.028 824.267 316.849 820.619C317.552 819.209 321.208 820.923 321.422 819.252C322.044 814.416 321.77 808.911 321.455 804.036C321.406 803.31 316.414 801.546 315.294 800.931Z" fill="#0B0B0B"/>
<path d="M1674.03 806.338C1675.98 806.358 1683.66 805.86 1684.46 808.742C1683.13 810.686 1674.76 806.661 1675.23 810.985C1678.07 814.984 1692.74 812.979 1682.35 823.801C1678.69 823.459 1676.45 823.525 1673.08 821.891L1672.78 820.678L1672.64 820.592C1674.45 818.794 1678.31 821.909 1680.69 820.617C1686.7 817.346 1678.27 815.924 1676.2 815.294C1670.49 813.547 1671.84 810.484 1674.03 806.338Z" fill="#0B0B0B"/>
<path d="M1315.68 806.521C1320.95 807.449 1328.11 803.992 1329.68 810.524C1330.22 812.789 1331.23 822.054 1327.87 822.763C1326.24 821.234 1326.94 813.844 1326.94 811.484C1325.51 808.653 1323.56 807.992 1320.53 809.176C1315.77 811.036 1320.93 821.729 1316.95 822.826C1314.4 821.381 1315.67 809.646 1315.68 806.521Z" fill="#0B0B0B"/>
<path d="M335.682 806.352C341.194 807.613 348.468 804.274 349.431 811.057C350.933 821.639 346.926 830.995 346.835 811.598C345.188 809.184 342.622 807.344 339.732 809.634C336.812 811.948 340.359 820.643 337.598 822.823C334.238 822.277 335.681 809.293 335.682 806.352Z" fill="#0B0B0B"/>
<path d="M513.699 807.067C519.537 807.495 523.404 803.801 527.118 809.159C530.703 814.33 524.876 829.305 524.897 819.506C524.924 816.554 524.932 813.602 524.92 810.651C514.552 801.307 517.175 820.133 516.226 821.877C512.704 828.353 513.699 806.295 513.699 807.067Z" fill="#0B0B0B"/>
<path d="M670.747 799.929C681.304 799.708 678.014 799.48 678.734 807.374C679.044 810.766 677.094 819.971 680.659 820.326C686.134 820.871 684.393 822.513 679.945 823.03C678.448 822.977 676.95 822.937 675.452 822.909C674.085 822.894 671.718 823.328 670.681 822.085C670.337 819.395 675.169 821.394 675.533 819.039C676.202 814.429 676.009 808.062 675.508 803.466C675.293 801.495 671.456 804.673 670.747 799.929Z" fill="#0B0B0B"/>
<path d="M435.445 806.039C439.309 809.756 436.304 812.875 437.587 818.044C438.209 820.55 441.135 821.293 443.179 820.273C447.633 818.093 444.459 811.235 445.91 807.989C447.101 805.326 448.323 807.36 448.482 809.413C448.496 817.761 450.626 823.049 445.573 822.008C442.379 821.351 436.307 827.025 434.711 817.532C434.069 813.71 434.718 809.137 435.445 806.039Z" fill="#0B0B0B"/>
<path d="M1653.29 799.966C1669.1 799.536 1657.61 806.641 1661.69 819.624C1663.3 820.835 1666.74 819.814 1666.83 821.946C1666.04 822.75 1665.3 822.807 1664.19 822.905L1662.94 823.037C1660.8 822.945 1654.79 823.287 1653.47 821.994C1652.66 819.131 1658.19 821.635 1658.33 818.986C1658.58 814.301 1658.96 807.715 1658.02 803.286C1657.67 801.654 1653.98 804.057 1653.29 799.966Z" fill="#0B0B0B"/>
<path d="M1585.86 822.289C1583.6 823.122 1581.44 823.827 1579.17 822.407C1574.76 819.706 1576.56 814.276 1575.74 810.074C1575.48 808.762 1571.09 809.229 1572.38 807.297C1572.61 806.947 1573.34 806.731 1573.72 806.725C1574.99 806.703 1576.58 806.091 1576.31 804.528C1576.23 803.826 1576.06 800.377 1578.15 801.519C1579.05 802.013 1578.56 804.185 1578.84 805.073C1579.44 808.045 1584.77 805.921 1586.04 807.121C1587.44 808.446 1585.51 809.236 1584.21 809.145C1580.99 808.92 1578.35 808.537 1578.72 812.513C1579.1 816.558 1577.77 817.659 1581.07 820.301C1583.55 820.386 1586.54 819.422 1585.86 822.289Z" fill="#0B0B0B"/>
<path d="M1581.07 820.301C1583.55 820.386 1586.54 819.422 1585.86 822.289C1583.57 821.567 1583.14 821.395 1581.07 820.301Z" fill="#525252"/>
<path d="M379.205 801.258C382.722 804.71 378.062 807.263 386.693 806.659C388.46 806.535 389.381 808.916 386.707 809.023C384.695 809.104 380.987 808.287 380.757 811.374C380.606 813.729 380.256 817.435 381.849 819.425C383.11 821.001 387.357 820.863 389.236 821.065C387.001 823.655 383.773 823.836 380.668 822.387C376.576 819.836 379.085 813.708 378.013 809.971C377.699 808.878 375.264 809.31 374.204 808.551C373.775 807.625 374.38 806.858 375.299 806.793C378.68 806.551 378.283 804.161 379.205 801.258Z" fill="#0B0B0B"/>
<path d="M1280.61 803.451C1283.37 803.719 1280.6 807.312 1285.7 806.557C1286.74 806.403 1288.72 806.413 1289.44 807.456C1289.5 809.984 1277.03 805.516 1283.14 819.124C1284 821.038 1288.08 820.975 1290.06 821.285C1288.02 823.792 1285.93 823.973 1282.71 822.809C1277.62 820.972 1280.29 813.432 1279.06 809.803C1278.6 808.458 1276.3 809.445 1275.2 807.957C1276.53 805.773 1278.11 807.696 1280.61 803.451Z" fill="#0B0B0B"/>
<path d="M553.892 799.892C562.14 799.952 561.158 798.734 561.301 806.37C561.375 810.329 560.686 815.902 561.937 819.506C562.342 820.672 565.673 819.88 566.338 821.25C566.863 822.675 563.53 822.907 562.937 822.987C560.745 822.885 555.257 822.976 553.674 822.233L553.524 821.796C554.593 819.929 557.381 820.833 558.593 819.071C560.857 796.386 554.378 804.914 554.01 800.832L553.892 799.892Z" fill="#0B0B0B"/>
<path d="M1433.64 807.026C1439.16 806.418 1443.75 806.579 1449.27 806.57C1446.09 810.313 1441.81 814.984 1439.89 819.56C1439.53 820.399 1441.75 820.461 1442.13 820.435C1445.09 820.234 1446.25 820.697 1448.77 822.068C1443.01 823.168 1438.92 822.82 1433.07 822.849C1449.23 804.195 1442.92 812.574 1433.64 807.026Z" fill="#0B0B0B"/>
<path d="M418.669 801.02C420.78 803.325 419.943 803.337 421.031 806.196C421.478 807.373 428.497 805.386 427.438 808.284C425.898 809.601 420.566 807.295 420.379 810.929C419.851 821.176 420.703 819.986 428.93 821.118C426.388 822.461 423.489 824.235 420.618 822.546C416.017 819.876 418.371 813.903 417.336 809.75C417.079 808.718 414.729 808.923 413.991 808.322C413.459 806.477 415.705 806.816 416.704 806.404C417.786 805.958 418.384 801.979 418.669 801.02Z" fill="#0B0B0B"/>
<path d="M1616.43 806.326C1617.84 806.316 1632.2 807.463 1625.18 811.111C1615.44 805.046 1610.92 813.316 1619.84 822.146C1621.37 821.239 1625.1 817.885 1626.68 819.249C1628.01 828.037 1602.73 821.696 1615.39 807.536L1616.43 806.326Z" fill="#0B0B0B"/>
<path d="M364.361 821.281C369.259 813.702 357.358 817.347 355.639 812.547C353.19 805.534 366.018 804.441 367.612 809.093C368.699 812.264 356.928 804.954 358.936 811.496C358.953 811.551 378.529 818.038 364.629 822.608C363.994 821.813 364.128 822.182 363.982 821.624C364.109 821.51 364.235 821.396 364.361 821.281Z" fill="#0B0B0B"/>
<path d="M461.612 822.677C454.56 820.032 458.582 815.93 457.196 809.95C456.985 809.043 454.815 808.684 454.14 808.121C454.136 808.202 454.029 807.582 454.173 807.531C457.845 806.227 457.086 803.814 457.919 801.768C458.079 801.376 459.99 801.112 460.105 803.198C460.433 809.189 465.62 804.739 468.25 807.631C469.542 809.393 461.416 808.247 460.856 809.117C460.463 809.73 459.863 809.963 459.913 810.951C460.072 814.077 459.21 817.454 461.481 819.969L462.628 821.223C462.96 821.99 462.35 822.032 461.612 822.677Z" fill="#0B0B0B"/>
<path d="M1414.4 806.925C1427.65 805.383 1422.35 807.571 1423.69 819.176C1423.84 820.533 1429.13 820.156 1428.65 822.151C1427.37 822.866 1427.66 822.693 1425.95 822.837C1423 822.811 1417.98 823.362 1415.55 822.125L1415.59 821.914C1415.98 820.157 1418.74 820.331 1420.46 819.553C1420.92 818.282 1421.72 809.084 1419.19 808.935C1417.37 808.828 1416 807.851 1414.4 806.925Z" fill="#0B0B0B"/>
<path d="M475.694 806.888L476.839 806.786C478.504 806.624 480.748 806.291 482.257 806.754C485.584 808.556 482.509 816.152 484.094 819.23C484.724 820.453 487.812 819.51 488.328 820.824C489.13 822.87 486.126 822.841 484.932 823.013C483.787 822.955 475.109 823.305 475.98 821.333C476.575 819.988 479.93 820.59 480.554 818.893C481.314 816.953 481.228 811.855 480.62 810.021C480.106 808.47 477.626 810.257 475.694 806.888Z" fill="#0B0B0B"/>
<path d="M396.792 806.828C397.815 806.755 400.83 806.408 401.8 806.626C406.029 807.572 402.293 816.804 404.213 819.633C405.092 820.928 408.745 819.601 408.282 822.101C408.116 822.674 405.643 822.974 404.931 823.093C402.18 822.95 397.193 823.307 395.412 821.981L395.415 821.263C399.034 818.425 402.631 824.162 400.896 810.044C400.693 808.387 398.42 810.011 396.792 806.828Z" fill="#0B0B0B"/>
<path d="M610.66 806.743C612.719 806.986 615.274 807.292 617.205 806.54C626.753 802.821 625.39 821.311 624.281 822.202C618.236 827.061 627.755 800.399 612.781 811.038C612.568 811.255 612.354 811.471 612.141 811.688C611.566 810.801 611.025 807.963 610.66 806.743Z" fill="#0B0B0B"/>
<path d="M1376.89 806.002C1376.84 805.979 1380.14 807.802 1379.83 807.781C1381.41 807.885 1384.78 805.159 1387.3 806.276C1388.65 806.876 1389.09 807.33 1388.7 808.537C1386.78 809.53 1384.64 807.89 1381.91 809.661L1379.82 811.031C1379.73 813.686 1380.32 821.009 1378.64 822.687C1375.54 822.667 1376.83 808.773 1376.89 806.002Z" fill="#0B0B0B"/>
<path d="M1474.36 693.361C1476.38 691.823 1479.26 692.171 1480.85 694.147C1482.45 696.123 1482.18 699.008 1480.25 700.658C1478.95 701.767 1477.16 702.083 1475.56 701.484C1473.96 700.884 1472.81 699.464 1472.56 697.775C1472.32 696.086 1473 694.396 1474.36 693.361Z" fill="#0B0B0B"/>
<path d="M1535.15 806.54C1540.94 808.607 1544.19 804.63 1547.14 807.373C1546.89 808.905 1541.93 808.232 1538.09 812.229C1538.04 814.277 1538.72 821.459 1536.96 822.486C1534.17 822.511 1535.22 809.022 1535.15 806.54Z" fill="#0B0B0B"/>
<path d="M1650.86 693.405C1652.07 692.289 1653.79 691.919 1655.36 692.439C1656.92 692.959 1658.08 694.287 1658.39 695.907C1658.69 697.528 1658.09 699.186 1656.82 700.238C1654.93 701.809 1652.13 701.583 1650.51 699.73C1648.89 697.877 1649.05 695.071 1650.86 693.405Z" fill="#0B0B0B"/>
<path d="M1387.6 693.401C1389.39 691.888 1392.05 692.023 1393.68 693.709C1395.3 695.395 1395.34 698.054 1393.77 699.788C1392.65 701.015 1390.94 701.52 1389.34 701.097C1387.74 700.674 1386.5 699.394 1386.14 697.776C1385.77 696.158 1386.34 694.472 1387.6 693.401Z" fill="#0B0B0B"/>
<path d="M612.781 811.037C613.302 813.321 614.321 820.435 613.474 821.541C609.237 827.073 610.656 807.99 610.66 806.742C611.025 807.962 611.566 810.8 612.141 811.687C612.354 811.47 612.568 811.254 612.781 811.037Z" fill="#262726"/>
<path d="M364.629 822.608C360.595 823.753 352.763 821.787 356.18 819.358C356.718 819.315 362.929 821.021 364.361 821.281C364.235 821.396 364.109 821.51 363.982 821.624C364.128 822.182 363.994 821.813 364.629 822.608Z" fill="#262726"/>
<path d="M462.628 821.223L464.161 820.865C470.357 819.28 469.675 824.827 461.612 822.677C462.35 822.032 462.96 821.99 462.628 821.223Z" fill="#525252"/>
<path d="M481.352 799.99C481.886 799.705 482.742 799.053 483.218 799.551C483.243 800.224 482.82 800.637 482.438 801.23C481.687 801.516 480.76 802.208 480.16 801.674C480.292 800.962 480.853 800.537 481.352 799.99Z" fill="#262726"/>
<path d="M401.41 799.94C401.987 799.645 402.695 799.045 403.231 799.579C403.253 800.194 402.867 800.522 402.49 801.059C402.191 801.172 400.711 802.025 400.28 801.437C400.355 800.824 401.013 800.345 401.41 799.94Z" fill="#0B0B0B"/>
<path d="M1420.95 800.558C1421.31 800.308 1421.96 799.699 1422.49 799.658C1422.62 800.067 1422.37 800.489 1422.14 801.231C1421.78 801.525 1421.44 801.969 1420.99 802.015C1420.76 801.604 1420.92 801.028 1420.95 800.558Z" fill="#0B0B0B"/>
</svg>
