<?xml version="1.0" encoding="utf-8" ?><svg xmlns="http://www.w3.org/2000/svg" xmlns:xlink="http://www.w3.org/1999/xlink" width="2688" height="1536" viewBox="0 0 2688 1536"><path fill="white" d="M0 0L2688 0L2688 1536L0 1536L0 0Z"/><path fill="#151515" d="M2022.77 803.186C2017.08 802.371 1997.44 802.782 1990.82 802.787L1909.5 802.878C1896.66 802.897 1883.05 803.423 1870.28 802.396C1859.99 801.57 1854.97 793.264 1854.95 783.426C1854.87 736.877 1854.95 690.302 1854.93 643.741L1854.94 590.794C1854.95 581.82 1854.61 572.447 1855.39 563.541C1856.26 553.452 1866.59 550.605 1874.99 550.308C1889.74 549.786 1904.57 550.041 1919.31 550.068L2003.56 550.21C2015.8 563.315 2029.34 577.564 2042.22 589.886L2042.6 638.715C2050.28 644.175 2058.9 651.217 2064.98 658.47C2061.94 700.88 2065.75 753.528 2063.87 797.487C2061.88 800.116 2059.75 803.052 2057.66 805.566C2050.98 805.764 2026.76 806.697 2022.77 803.186Z"/><path fill="white" d="M2042.6 638.715C2050.28 644.175 2058.9 651.217 2064.98 658.47C2061.94 700.88 2065.75 753.528 2063.87 797.487C2061.88 800.116 2059.75 803.052 2057.66 805.566C2050.98 805.764 2026.76 806.697 2022.77 803.186C2031.54 802.306 2032.83 801.871 2039.43 796.012C2039.55 795.766 2039.69 795.524 2039.8 795.273C2040 794.857 2040.16 794.431 2040.35 794.012C2045.09 783.324 2042.26 671.75 2042.24 650.907L2042.6 638.715Z"/><path fill="#ECEAF8" d="M2042.6 638.715C2050.28 644.175 2058.9 651.217 2064.98 658.47C2061.94 700.88 2065.75 753.528 2063.87 797.487C2061.88 800.116 2059.75 803.052 2057.66 805.566C2050.98 805.764 2026.76 806.697 2022.77 803.186C2031.54 802.306 2032.83 801.871 2039.43 796.012C2040.22 797.511 2040 797.032 2041.44 798.183C2046.87 798.321 2050.16 799.062 2054.17 795.54C2057.04 788.683 2056.36 679.167 2055.99 662.086C2052.39 658.042 2048.03 654.167 2044.04 650.463L2042.24 650.907L2042.6 638.715Z"/><path fill="white" d="M1867.78 556.846C1877.83 555.308 1994.15 555.394 1999.29 556.806C1999.23 566.911 1999.55 579.646 1998.92 589.463C1999.41 593.307 1998.71 592.789 2000.91 594.784C2002.78 594.84 2004.76 594.94 2006.62 594.931L2036.11 594.908C2036.11 606.101 2036.4 617.819 2036.27 628.901C2036.37 634.391 2036.55 640.043 2036.44 645.517C2036.23 677.244 2036.18 708.971 2036.31 740.698C2036.35 756.32 2036.65 772.045 2036.03 787.645C2035.82 793.028 2029.84 796.424 2024.97 796.589C2006.53 797.213 1988.02 796.716 1969.56 796.867C1939.79 796.85 1910.11 796.918 1880.35 796.737C1875.35 796.707 1869.49 795.957 1864.66 794.681C1862.02 791.714 1861.59 786.322 1861.18 782.417C1860.72 777.96 1860.87 773.181 1860.87 768.593C1860.91 735.96 1861.06 703.319 1861.06 670.685C1861.09 670.325 1861.12 669.965 1861.15 669.605C1860.31 650.247 1861.46 627.339 1860.97 607.651C1860.76 599.061 1860.6 569.712 1861.86 562.912C1863.94 559.393 1864.22 558.756 1867.78 556.846Z"/><path fill="white" d="M1861.86 562.912C1863.94 559.393 1864.22 558.756 1867.78 556.846C1877.31 557.861 1892.5 557.464 1902.52 557.46L1960.95 557.422C1930.33 584.449 1901.9 614.069 1871.55 641.407C1868.54 644.117 1865.52 646.824 1862.32 649.301L1862.36 594.89C1862.39 587.625 1862.81 569.628 1861.86 562.912Z"/><path fill="#ECEAF8" d="M1867.78 556.846C1877.83 555.308 1994.15 555.394 1999.29 556.806C1999.23 566.911 1999.55 579.646 1998.92 589.463C1999.41 593.307 1998.71 592.789 2000.91 594.784C2002.78 594.84 2004.76 594.94 2006.62 594.931L2036.11 594.908C2036.11 606.101 2036.4 617.819 2036.27 628.901C2036.37 634.391 2036.55 640.043 2036.44 645.517C2011.22 640.914 1981.12 640.334 1963.42 662.472C1963.44 669.114 1964.35 724.398 1962.19 726.716C1961.43 700.426 1963.16 671.569 1961.86 645.778L1963.57 648.25C1968.12 647.152 1974.93 640.834 1979 638.939C1995.96 631.028 2014.65 633.096 2031.59 636.298C2015.86 608.061 1984.22 595.146 1962.62 567.861C1936 597.025 1900.63 624.026 1872.56 652.371C1865.86 659.143 1862.73 659.814 1861.15 669.605C1860.31 650.247 1861.46 627.339 1860.97 607.651C1860.76 599.061 1860.6 569.712 1861.86 562.912C1862.81 569.628 1862.39 587.625 1862.36 594.89L1862.32 649.301C1865.52 646.824 1868.54 644.117 1871.55 641.407C1901.9 614.069 1930.33 584.449 1960.95 557.422L1902.52 557.46C1892.5 557.464 1877.31 557.861 1867.78 556.846Z"/><path fill="white" d="M1999.29 556.806C1999.23 566.911 1999.55 579.646 1998.92 589.463C1990.12 583.794 1972.65 565.598 1965.56 557.517C1974.43 557.242 1991.73 558.03 1999.29 556.806Z"/><path fill="white" d="M2006.62 594.931L2036.11 594.908C2036.11 606.101 2036.4 617.819 2036.27 628.901C2034.65 626.792 2031.72 620.842 2030.92 620.004C2023.1 611.866 2013.93 603.455 2006.62 594.931Z"/><path fill="#151515" d="M1956.07 636.207C1955.98 627.434 1954.49 587.542 1958.05 582.496C1960.46 584.489 1962.21 588.191 1962.2 590.923C1962.14 605.569 1962.03 620.739 1962.18 635.359C1966.87 630.764 1974 623.264 1979.3 619.937L1981.87 619.995L1982.65 621.599C1979.57 630.338 1967.44 637.194 1961.86 645.778C1963.16 671.569 1961.43 700.426 1962.19 726.716C1961.76 737.04 1963.31 759.042 1961.09 767.747L1959.46 768.498C1959.13 768.22 1958.79 767.955 1958.48 767.665C1954.33 763.864 1955.98 734.969 1955.94 727.51C1951.14 722.242 1934.54 709.124 1936.37 702.934L1939.8 701.086C1945.33 694.156 1938.74 645.523 1943.51 632.244C1940.2 629.127 1936.1 625.917 1934.31 621.925L1934.77 619.873C1935.93 619.306 1937.35 618.263 1938.61 619.162C1944.14 623.121 1951.18 631.499 1956.07 636.207Z"/><defs><linearGradient id="gradient_0" gradientUnits="userSpaceOnUse" x1="1940.3744" y1="675.20502" x2="1954.6521" y2="674.84479"><stop offset="0" stop-color="#E9E6FB"/><stop offset="1" stop-color="#FFFFFD"/></linearGradient></defs><path fill="url(#gradient_0)" d="M1943.51 632.244C1947.39 636.263 1952.79 641.506 1956.04 645.844L1956.09 718.753C1952.19 714.892 1941.7 705.091 1939.8 701.086C1945.33 694.156 1938.74 645.523 1943.51 632.244Z"/><path fill="#151515" d="M1897.27 660.428C1897.49 660.465 1901.24 660.833 1902.11 661.839C1908.43 669.173 1921.43 679.773 1925.48 688.055C1925.63 688.368 1924.95 689.307 1924.79 689.363C1918.11 691.589 1890.96 690.686 1884.75 690.682C1865.81 690.27 1884.57 681.004 1894.82 684.565C1895.28 684.728 1913.57 684.491 1915.62 684.465C1909.64 677.862 1896.54 668.78 1897.27 660.428Z"/><path fill="#151515" d="M2009.93 660.572C2018.32 664.426 2010.82 668.03 2006.86 672.921C2003.52 677.055 1998.82 681.417 1995.02 685.179C2001.89 685.249 2021.47 684.844 2029.06 685.775C2030.88 685.997 2033.71 690.435 2026.75 691.564C2011.92 691.424 1996.23 691.629 1981.51 691.075C1990.06 681.604 2001.13 669.545 2009.93 660.572Z"/><path fill="white" d="M2005.07 560.852C2011.16 566.145 2025.76 582.109 2032.01 588.687L2005.21 588.58C2005.17 579.322 2005.27 570.111 2005.07 560.852Z"/><path fill="#151515" d="M332.615 536.213C354.775 535.753 363.771 552.176 359.932 572.383C373.251 581.405 390.121 594.329 402.987 604.263C412.171 596.602 422.929 592.509 434.364 598.651C440.454 601.997 444.995 607.591 447.018 614.239C449.182 621.16 448.466 628.661 445.032 635.048C440.458 643.404 434.737 646.005 426.429 648.61C426.145 668.684 426.32 689.194 426.279 709.303C437.213 713.278 445.805 718.238 448.017 731.037C449.307 738.485 447.439 746.135 442.863 752.151C438.74 757.688 432.542 761.31 425.695 762.185C417.035 763.228 411.026 760.049 404.675 754.9C389.779 763.762 375.016 772.846 360.391 782.148C363.541 800.703 356.675 812.149 338.188 817.331C318.026 816.804 309.611 806.215 309.783 786.791C293.774 776.675 277.844 766.435 261.996 756.07C252.616 761.706 244.658 764.908 233.68 759.822C227.503 756.889 222.744 751.62 220.454 745.177C217.85 738.071 218.371 730.196 221.889 723.496C226.426 715.01 232.551 712.086 241.006 709.416L240.978 648.994C237.901 647.889 233.787 646.451 231.114 644.738C224.651 640.672 220.248 634.025 219.023 626.488C217.821 618.973 219.838 611.298 224.579 605.345C228.939 599.88 235.367 596.463 242.336 595.908C251.463 595.203 257.023 598.613 263.467 604.08C274.3 598.596 300.197 580.669 311.498 573.229C306.551 553.965 313.495 541.486 332.615 536.213Z"/><path fill="white" d="M313.293 690.948C314.848 692.98 316.379 695.024 317.953 697.043C323.268 701.211 325.585 702.176 332.09 704.418L332.067 764.362C320.239 767.795 317.546 770.376 310.875 780.568C296.359 769.936 281.272 761.02 266.624 750.909C270.543 741.242 271.481 735.81 268.607 725.558C267.241 723.75 265.049 720.252 263.819 718.279C272.519 714.765 305.121 696.471 313.293 690.948Z"/><path fill="#B5B4B9" d="M313.293 690.948C314.848 692.98 316.379 695.024 317.953 697.043C310.957 700.055 272.614 721.004 268.607 725.558C267.241 723.75 265.049 720.252 263.819 718.279C272.519 714.765 305.121 696.471 313.293 690.948Z"/><path fill="white" d="M357.309 578.084C371.018 589.029 385.157 599.425 399.691 609.248C396.038 618.652 395.92 623.576 399.279 633.308C400.751 635.804 402.699 638.135 403.986 640.456C400.039 642.219 362.499 664.781 359.579 667.062C357.99 664.654 356.571 662.643 354.864 660.319C348.478 654.349 347.002 653.212 338.483 651.344C338.694 630.75 338.498 609.9 338.46 589.286C348.465 586.852 350.407 585.373 357.309 578.084Z"/><path fill="#B5B4B9" d="M399.279 633.308C400.751 635.804 402.699 638.135 403.986 640.456C400.039 642.219 362.499 664.781 359.579 667.062C357.99 664.654 356.571 662.643 354.864 660.319C367.33 653.427 387.569 641.229 399.279 633.308Z"/><path fill="white" d="M314.209 578.846C318.564 580.698 320.761 585.733 332.076 589.277L332.09 651.02C322.946 653.595 320.005 655.551 313.729 662.43C308.26 659.366 302.667 655.504 297.402 652.027C287.605 645.601 277.803 639.055 267.737 633.069C271.591 623.589 270.652 618.717 267.774 609.573C283.036 600.512 299.617 588.955 314.209 578.846Z"/><path fill="white" d="M359.579 667.062C362.499 664.781 400.039 642.219 403.986 640.456C409.409 645.327 412.966 646.866 419.886 649.36L419.945 709.47C411.731 711.377 409.634 712.758 403.309 718.351C402.463 719.858 399.527 724.342 398.515 725.571C396.847 722.354 359.796 697.128 354.888 695.331C355.718 693.718 358.278 690.044 359.467 688.035C362.442 679.58 362.163 675.313 359.579 667.062Z"/><path fill="#B5B4B9" d="M359.467 688.035C365.524 694.032 396.042 714.729 403.309 718.351C402.463 719.858 399.527 724.342 398.515 725.571C396.847 722.354 359.796 697.128 354.888 695.331C355.718 693.718 358.278 690.044 359.467 688.035Z"/><path fill="white" d="M247.292 649.254C256.393 646.299 258.177 645.764 264.729 638.941C279.56 647.866 295.667 658.977 310.79 668.392C309.445 677.623 309.615 682.424 313.293 690.948C305.121 696.471 272.519 714.765 263.819 718.279C257.664 712.367 255.336 711.605 247.237 709.504L247.292 649.254Z"/><path fill="white" d="M354.888 695.331C359.796 697.128 396.847 722.354 398.515 725.571C395.517 734.68 396.489 740.815 400.182 749.404C385.805 758.582 371.3 767.558 356.671 776.329C350.989 768.867 347.161 766.756 338.435 764.412L338.414 704.024C346.512 702.104 348.805 700.854 354.888 695.331Z"/><path fill="white" d="M417.93 602.789C428.556 600.188 439.279 606.688 441.89 617.312C444.5 627.936 438.009 638.665 427.388 641.285C416.753 643.908 406.007 637.408 403.393 626.77C400.78 616.133 407.29 605.392 417.93 602.789Z"/><path fill="white" d="M329.842 543.83C336.713 541.761 344.166 543.571 349.323 548.562C354.48 553.552 356.534 560.941 354.692 567.877C352.85 574.812 347.401 580.209 340.448 581.983C330.009 584.647 319.355 578.478 316.47 568.098C313.584 557.718 319.526 546.936 329.842 543.83Z"/><path fill="white" d="M417.742 716.73C424.705 714.967 432.077 717.117 437.001 722.346C441.925 727.575 443.629 735.062 441.452 741.907C439.276 748.752 433.56 753.88 426.52 755.304C415.992 757.434 405.687 750.775 403.304 740.301C400.92 729.828 407.329 719.365 417.742 716.73Z"/><path fill="white" d="M329.361 658.715C339.791 655.328 350.987 661.071 354.32 671.518C357.654 681.966 351.853 693.131 341.388 696.411C331 699.666 319.934 693.917 316.625 683.546C313.315 673.174 319.007 662.078 329.361 658.715Z"/><path fill="white" d="M330.283 771.819C340.833 769.034 351.646 775.317 354.451 785.861C357.257 796.406 350.995 807.231 340.456 810.057C329.888 812.89 319.027 806.607 316.214 796.034C313.401 785.461 319.704 774.612 330.283 771.819Z"/><path fill="white" d="M240.874 602.71C251.562 600.704 261.865 607.702 263.94 618.377C266.015 629.052 259.084 639.4 248.422 641.544C237.663 643.708 227.199 636.699 225.105 625.926C223.011 615.153 230.088 604.734 240.874 602.71Z"/><path fill="white" d="M240.134 716.762C250.738 714.357 261.293 720.969 263.756 731.559C266.22 742.149 259.668 752.741 249.091 755.264C238.431 757.806 227.738 751.191 225.254 740.516C222.771 729.842 229.446 719.186 240.134 716.762Z"/><path fill="#151515" d="M1060.08 540.244C1066 539.739 1071.62 539.661 1077.55 539.696C1132.12 540.029 1186.84 539.279 1241.38 540.169C1256.81 541.082 1265.25 554.154 1265.46 568.461C1265.69 584.498 1265.11 600.219 1265.2 616.183C1264.93 634.431 1266.35 653.056 1265.35 671.268C1264.62 684.585 1257.1 693.346 1244.86 697.768C1227.22 699.289 1065.89 699.264 1058.28 696.498C1051.77 694.131 1045.99 689.702 1043.2 683.187C1041.34 678.838 1040.54 673.894 1040.19 669.204C1038.71 649.608 1040.13 628.998 1040.25 609.309C1040.32 595.351 1039.17 580.826 1040.11 566.966C1040.38 563.093 1041.04 559.237 1042.53 555.632C1045.95 547.342 1052.32 543.628 1060.08 540.244Z"/><path fill="white" d="M1061.18 546.165C1079.4 545.161 1240.47 544.602 1247.57 547.624C1252.28 549.634 1256.39 554.759 1257.99 559.541C1260.93 568.299 1260.06 658.644 1258.82 672.622C1258.54 675.777 1257.98 678.842 1256.42 681.649C1253.14 687.546 1248.53 689.971 1242.39 691.937C1202.14 693.002 1161.63 692.1 1121.34 692.122C1106.54 692.131 1074.17 693.964 1061.77 691.28C1056.89 690.223 1052.27 686.541 1049.68 682.342C1047.43 678.69 1046.83 674.095 1046.49 669.884C1045.57 658.334 1045.59 567.361 1047.71 560.371C1049.99 552.898 1054.62 549.595 1061.18 546.165Z"/><path fill="#151515" d="M1194.07 567.159C1196.11 567.113 1197.45 567.203 1199.98 567.311C1217.85 568.07 1209.73 585.877 1224.24 594.436C1229.03 597.265 1228.4 622.58 1226.6 628.025C1223.5 637.439 1219.4 641.583 1210.2 646.864L1210.24 648.613C1210.35 653.368 1211 658.177 1207.67 661.657C1203.28 657.793 1204.44 647.966 1204.58 642.374C1210.91 640.035 1213.56 638.896 1217.92 633.215C1223.56 625.854 1225.94 600.172 1216.56 595.328C1201.18 587.394 1218.22 581.152 1200.93 572.989C1181.59 572.123 1190.1 582.587 1183.54 592.131C1181.07 593.51 1176.73 595.718 1175.43 598.268C1171.66 605.682 1172.29 619.423 1174.66 627.136C1177.57 636.621 1181.98 638.88 1189.87 643.014C1190.06 649.736 1191.12 656.689 1187.09 662.065L1185.69 661.318C1183.44 656.633 1184.07 652.132 1184.25 646.905C1178.54 643.374 1175.12 641.549 1171.46 635.037C1166.1 626.128 1164.89 602.85 1170.81 594.359C1174.35 589.293 1182.27 588.384 1182.35 576.05C1182.37 571.734 1190.06 568.769 1194.07 567.159Z"/><path fill="#151515" d="M1102.37 582.32C1109.14 582.491 1112.2 583.004 1118.35 586.415C1134.68 595.471 1128.33 611.702 1129.14 626.78C1129.31 629.794 1128.26 634.64 1130.53 637.001C1131.9 638.42 1133.08 638.945 1132.54 641.054C1124.95 649.208 1124.88 626.316 1124.83 624.42C1124.36 607.481 1129.38 598.732 1113.43 588.574L1112.04 588.188C1093.41 582.816 1080.08 595.593 1081.28 614C1083.63 617.601 1078.08 631.555 1072.59 629.484C1066.57 627.217 1077.93 624.338 1076.74 615.101C1074.45 597.175 1084.69 585.286 1102.37 582.32Z"/><path fill="#151515" d="M1101.09 574.215C1127.18 573.639 1141.39 590.407 1138.07 614.242C1137.32 619.672 1138.88 626.909 1137.61 632.387C1137.33 633.583 1135.56 634.477 1134.49 633.167C1130.32 611.292 1141.85 600.903 1122.54 584.647C1117.6 581.587 1112.42 579.177 1106.5 579.002C1070.13 577.924 1077.68 609.035 1072.05 613.054C1071.36 613.55 1071.37 613.598 1070.5 613.299C1069.74 613.041 1069.34 611.692 1069.25 611.013C1068.3 604.384 1072.1 591.938 1076.11 586.582C1081.86 578.892 1092.09 575.75 1101.09 574.215Z"/><path fill="#151515" d="M1101.3 590.106C1126.34 590.787 1122.35 617.947 1119.88 635.955C1122.04 639.929 1128.21 645.671 1124.9 647.951C1121.16 650.535 1116.83 640.884 1115.4 638.429C1116.86 625.633 1119.76 607.725 1111.76 596.869L1110.58 596.402C1099.89 592.05 1089.54 598.839 1089.03 610.504C1088.8 620.546 1090.4 624.618 1084.07 632.535C1080.44 639.951 1069.44 637.821 1076.69 632.714C1095.29 619.604 1072.22 599.724 1101.3 590.106Z"/><path fill="#151515" d="M1101.96 598.925C1117.23 600.089 1111.68 609.289 1113.4 621.658C1114.79 632.738 1108.27 640.616 1103.76 649.407C1099.59 657.551 1093.83 654.531 1099.76 646.698C1110.19 632.919 1109.44 622.602 1108.11 605.399C1107.02 604.752 1104.65 603.394 1103.02 603.871C1090.68 607.485 1102.95 627.133 1090.09 638.597C1089.1 640.01 1081.78 646.679 1080.49 645.94C1075.03 642.798 1086.98 637.094 1089.56 631.575C1096.23 617.288 1085.41 607.136 1101.96 598.925Z"/><path fill="#151515" d="M1194.14 600.06C1200.11 599.951 1206.57 600.296 1208.54 607.616C1210.17 613.677 1202.6 619.39 1204.95 626.989C1204.66 629.72 1200.69 629.402 1199.92 627.012C1196.44 616.223 1206.18 613.87 1201.65 605.322C1188.71 605.452 1190.63 609.583 1195.01 617.522C1195.63 618.644 1196.1 627.376 1194.48 628.056C1187.49 631.029 1190.67 620.36 1189.65 618.566C1184.89 610.159 1182.54 607.216 1194.14 600.06Z"/><path fill="#151515" d="M1101.5 566.243C1110.58 565.504 1115.72 566.659 1124 570.499C1126.33 571.89 1131.41 573.804 1132.47 576.412C1133.02 577.754 1131.36 580.046 1129.91 580.336C1129.54 580.152 1129.14 579.879 1128.85 579.603C1122.46 573.669 1115.73 571.969 1107.23 570.773C1097.68 571.31 1090.76 572.403 1082.29 577.294C1080.29 578.127 1077.71 580.796 1075.43 580.55C1074.14 580.411 1073.38 577.161 1074.13 576.579C1082.05 570.392 1091.82 567.833 1101.5 566.243Z"/><path fill="#151515" d="M1173.69 669.965C1188.37 669.148 1204.93 669.715 1219.6 670.33C1220.86 670.383 1220.87 675.09 1220.92 675.763C1208.24 675.866 1195.54 675.721 1182.86 675.763C1175.78 675.786 1174.52 676.604 1173.69 669.965Z"/><path fill="#151515" d="M1101.73 607.217C1103.62 608.199 1105.06 608.519 1105.18 610.943C1106.25 632.276 1102.35 637.37 1088.92 652.528C1084.35 648.497 1085.71 648.395 1091.13 643.33C1104.21 631.103 1097.85 620.626 1101.73 607.217Z"/><path fill="#151515" d="M1111.13 645.179C1117.26 647.045 1114.72 648.472 1112.66 654.854C1106.64 652.49 1109.14 651.429 1111.13 645.179Z"/><path fill="#151515" d="M1256.23 700.079C1256.48 700.063 1256.73 700.039 1256.98 700.032C1262.07 699.876 1266.87 700.45 1270.69 704.163C1274.06 707.442 1275.6 711.803 1275.61 716.451C1275.63 724.914 1270.22 730.525 1264.65 736.169C1251.1 749.883 1204.63 794.982 1189.95 801.591C1178.46 806.767 1068.45 803.996 1047.45 803.993L1047.52 814.008L993.184 814.091L993.158 776.08L993.168 717.003C1002.96 717.21 1039.99 716.006 1046.46 717.986C1047.22 720.248 1047.22 720.53 1048.56 722.604C1054.6 723.138 1060.9 722.968 1066.99 722.967C1102.01 722.917 1136.07 723.2 1171.19 722.849C1192.6 722.635 1200.4 744.165 1184.64 758.312C1182.88 759.888 1182.54 759.55 1181.43 761.854L1182.19 763.554C1188.69 763.635 1241.11 706.888 1256.23 700.079Z"/><path fill="white" d="M1257.2 705.9C1260.28 705.92 1263.25 706.276 1265.76 708.263C1268.23 710.207 1269.72 713.147 1269.82 716.292C1270.16 729.981 1210.59 775.655 1199.59 788.458C1188.22 801.688 1153.03 797.831 1134.79 797.844L1047.34 797.932L1047.31 729.018L1086.5 728.999L1146.19 728.943C1152.83 728.942 1169.84 728.573 1175.53 729.274C1178.01 729.598 1180.35 730.615 1182.27 732.207C1193.03 741.214 1185.8 754.619 1172.94 755.554C1153.07 756.999 1131.79 755.405 1111.97 755.864C1109.28 757.418 1110.2 756.305 1109.29 759.437L1110.48 761.073C1114.97 762.737 1164.86 762.09 1173.54 762.12C1176.32 766.591 1178.77 770.06 1181.89 774.312L1227.44 731.95C1235.43 724.56 1248.7 711.582 1257.2 705.9Z"/><path fill="white" d="M999.399 723.406L1040.96 723.49C1040.96 743.264 1042.72 790.549 1040.6 807.831L999.394 807.86C999.057 779.731 999.825 751.56 999.399 723.406Z"/><path fill="#151515" d="M1015.77 777.57C1019.38 775.86 1023.64 776.259 1026.87 778.611C1030.1 780.963 1031.79 784.893 1031.28 788.857C1030.76 792.821 1028.12 796.187 1024.4 797.633C1018.91 799.761 1012.73 797.167 1010.4 791.764C1008.08 786.36 1010.45 780.087 1015.77 777.57Z"/><path fill="white" d="M1017.88 783.409C1020.14 782.023 1023.09 782.714 1024.5 784.957C1025.9 787.2 1025.24 790.157 1023.01 791.583C1020.75 793.027 1017.75 792.352 1016.32 790.08C1014.9 787.809 1015.6 784.812 1017.88 783.409Z"/><path fill="white" d="M747.296 551.854C753.632 547.595 764.425 540.931 769.932 536.315C803.411 567.054 828.969 573.852 873.876 576.69L873.499 655.736C873.33 698.925 877.956 742.451 843.965 775.083C825.643 792.672 802.649 804.93 779.469 814.759C773.847 811.581 758.206 802.276 753.063 800.169C747.425 802.4 741.432 804.417 735.697 806.443C730.871 804.091 718.024 798.98 717.376 793.039C722.956 791.754 731.196 796.789 736.305 799.464C744.955 796.288 752.534 793.466 760.983 789.744C770.772 777.861 798.241 765.172 809.193 748.491C816.491 739.35 819.261 727.945 821.824 716.767C823.147 710.995 822.429 709.478 826.856 705.426L826.995 587.096C794.172 584.812 775.802 580.852 748.314 561.163C733.425 565.364 722.929 570.819 706.72 572.176C682.581 581.752 669.86 582.989 644.552 583.98L644.298 664.456C644.169 718.024 641.664 751.567 694.413 780.995C695.589 781.651 694.76 784.113 694.552 785.019L692.506 785.814C684.357 783.732 670.007 772.562 664.14 766.707C653.423 756.203 645.683 743.046 641.709 728.576C636.601 709.602 638.267 677.859 638.258 657.179L638.16 577.411C679.283 576.248 706.573 573.271 737.607 542.016L747.296 551.854Z"/><path fill="#151515" d="M737.607 542.016L747.296 551.854L753.263 556.573C778.789 574.595 802.325 580.782 833.43 580.88L833.28 657.762C833.263 679.697 834.917 709.049 829.438 729.603C825.564 744.615 817.684 758.293 806.641 769.175C794.58 781.221 778.578 790.195 762.787 796.523L753.063 800.169C747.425 802.4 741.432 804.417 735.697 806.443C730.871 804.091 718.024 798.98 717.376 793.039C722.956 791.754 731.196 796.789 736.305 799.464C744.955 796.288 752.534 793.466 760.983 789.744C770.772 777.861 798.241 765.172 809.193 748.491C816.491 739.35 819.261 727.945 821.824 716.767C823.147 710.995 822.429 709.478 826.856 705.426L826.995 587.096C794.172 584.812 775.802 580.852 748.314 561.163C733.425 565.364 722.929 570.819 706.72 572.176C682.581 581.752 669.86 582.989 644.552 583.98L644.298 664.456C644.169 718.024 641.664 751.567 694.413 780.995C695.589 781.651 694.76 784.113 694.552 785.019L692.506 785.814C684.357 783.732 670.007 772.562 664.14 766.707C653.423 756.203 645.683 743.046 641.709 728.576C636.601 709.602 638.267 677.859 638.258 657.179L638.16 577.411C679.283 576.248 706.573 573.271 737.607 542.016Z"/><path fill="#C6B8F7" d="M760.983 789.744C770.772 777.861 798.241 765.172 809.193 748.491C816.491 739.35 819.261 727.945 821.824 716.767C823.147 710.995 822.429 709.478 826.856 705.426C823.551 746.666 801.386 776.92 760.983 789.744Z"/><path fill="#C6B8F7" d="M739.879 554.08C742.601 556.049 745.716 558.916 748.314 561.163C733.425 565.364 722.929 570.819 706.72 572.176C716.906 567.027 719.896 564.819 729.093 558.65C733.267 558.841 737.858 558.002 739.879 554.08Z"/><path fill="#ECEAF8" d="M729.093 558.65C732.343 555.951 736.673 550.472 739.879 554.08C737.858 558.002 733.267 558.841 729.093 558.65Z"/><path fill="#C6B8F7" d="M747.296 551.854C753.632 547.595 764.425 540.931 769.932 536.315C803.411 567.054 828.969 573.852 873.876 576.69L873.499 655.736C873.33 698.925 877.956 742.451 843.965 775.083C825.643 792.672 802.649 804.93 779.469 814.759C773.847 811.581 758.206 802.276 753.063 800.169L762.787 796.523C765.702 799.297 777.087 804.611 781.097 806.365C800.612 795.978 822.986 785.771 838.834 770.258C868.16 741.553 865.867 705.627 866.14 668.394C866.349 640.12 866.337 611.844 866.104 583.57C829.881 579.45 797.285 573.656 769.963 546.428C762.589 550.043 760.058 551.802 753.263 556.573L747.296 551.854Z"/><path fill="#151515" d="M2277.72 544.994L2431.77 558.513C2441.51 559.435 2451.34 560.307 2461.13 560.905C2465.1 561.147 2468.65 561.507 2470.28 565.385C2466.01 571.87 2410.54 610.922 2400.91 617.993C2386.92 628.338 2330.37 672.937 2319.54 677.169L2317.79 676.027C2315.65 670.179 2323.24 617.504 2324.4 606.274C2311.7 591.473 2290.08 564.917 2277.62 548.287C2277.66 547.006 2277.7 545.908 2277.72 544.994Z"/><path fill="white" d="M2289.48 552.432C2322.4 555.008 2355.3 557.776 2388.18 560.737C2407.6 562.403 2429.83 563.822 2448.96 566.343L2418.25 575.446C2389.12 584.632 2358.23 593.273 2328.86 601.941C2323.49 595.488 2291.53 557.885 2289.48 552.432Z"/><path fill="white" d="M2450.95 572.283L2451.45 572.625C2450.87 574.139 2336.15 658.386 2324.76 667.043L2324.1 666.455C2323.12 661.689 2329.72 615.3 2330.66 607.632C2370.62 596.202 2411.02 583.133 2450.95 572.283Z"/><path fill="#8770E8" d="M1551.33 547.459L1559.08 554.842C1561.2 556.477 1563.21 557.984 1565.26 559.727C1568.05 557.237 1572.77 553.862 1576.48 553.306C1579.39 552.385 1580.55 551.93 1583.29 550.587C1609.34 571.638 1642.82 580.034 1675.88 579.083L1675.76 580.48C1674.67 593.792 1675.66 607.613 1675.14 620.784C1672.75 682.105 1689.38 749.713 1629.07 789.973C1614.41 799.758 1599.59 807.187 1584.21 815.163C1575.87 811.238 1568.15 807.555 1560.01 803.24C1559.33 803.611 1556.52 805.158 1555.99 805.212C1549.24 805.904 1536.81 800.546 1534.63 794.454L1536.3 793.297C1542.48 793.051 1548.25 796.297 1553.95 798.877C1574.02 790.075 1595.69 781.139 1611.55 765.545C1640.87 736.716 1637.09 699.854 1637.04 662.475L1636.92 587.983C1605.57 586.889 1584.23 582.327 1558.71 563.551C1556.95 561.627 1555.19 560.418 1553.34 558.616C1550.3 555.684 1549.1 554.968 1546.91 551.398C1548.28 551.529 1549.65 551.681 1551.01 551.852C1550.86 550.113 1550.77 549.128 1551.33 547.459Z"/><path fill="white" d="M1644 584.092L1668.26 586.598L1668.19 655.595C1668.11 740.013 1667.84 767.442 1584.08 806.716C1578.2 804.435 1573.8 803.027 1568.65 799.405C1611.32 779.546 1637.24 760.828 1643.19 710.335C1644.7 700.939 1644.14 677.83 1644.12 667.363L1644 584.092Z"/><path fill="#242032" d="M1551.33 547.459L1559.08 554.842C1561.2 556.477 1563.21 557.984 1565.26 559.727C1581.31 571.795 1597.46 578.253 1617.62 580.154C1624.89 581.547 1635.64 581.367 1643.3 581.5C1643.25 624.27 1643.66 667.639 1643.19 710.335C1637.24 760.828 1611.32 779.546 1568.65 799.405L1560.01 803.24C1559.33 803.611 1556.52 805.158 1555.99 805.212C1549.24 805.904 1536.81 800.546 1534.63 794.454L1536.3 793.297C1542.48 793.051 1548.25 796.297 1553.95 798.877C1574.02 790.075 1595.69 781.139 1611.55 765.545C1640.87 736.716 1637.09 699.854 1637.04 662.475L1636.92 587.983C1605.57 586.889 1584.23 582.327 1558.71 563.551C1556.95 561.627 1555.19 560.418 1553.34 558.616C1550.3 555.684 1549.1 554.968 1546.91 551.398C1548.28 551.529 1549.65 551.681 1551.01 551.852C1550.86 550.113 1550.77 549.128 1551.33 547.459Z"/><path fill="white" d="M1565.26 559.727C1568.05 557.237 1572.77 553.862 1576.48 553.306C1590.35 565.213 1604.19 573.409 1621.54 578.978C1622.29 579.219 1624.35 579.332 1624.63 579.688C1624.18 580.555 1618.89 580.112 1617.62 580.154C1597.46 578.253 1581.31 571.795 1565.26 559.727Z"/><path fill="#151515" d="M2442.3 659.62C2433.47 659.857 2420.11 660.816 2412.1 657.416L2412.05 656.367C2419.25 652.416 2436.9 653.384 2445.6 653.392C2452.79 662.42 2460.89 674.146 2467.84 683.616L2467.92 725.068C2472.33 723.792 2480.23 721.206 2484.21 723.742C2497.87 732.562 2500.25 751.375 2499.4 766.247C2498.89 775.126 2497.83 782.931 2492.83 790.44C2483.7 804.139 2474.46 806.806 2458.93 807.003C2456.92 807.354 2454.9 807.605 2452.87 807.756C2443.45 808.469 2424.89 807.937 2414.91 807.936L2340.22 807.943L2286.64 807.95C2274.64 807.963 2247.62 812.112 2246.19 795.629C2245.16 783.664 2245.48 770.569 2245.48 758.485L2245.55 683.26C2252.93 674.146 2260.8 663.084 2267.89 653.58L2268.81 653.558C2274.76 653.427 2281.14 652.468 2285.54 656.659L2284.63 658.198C2280.6 660.348 2275.77 659.749 2271.13 659.644L2254.96 681.056C2262.16 681.052 2299.17 679.67 2302.03 684.154C2299.13 686.941 2296.28 687.505 2292.31 687.423C2278.79 687.143 2265.21 687.211 2251.69 687.175L2251.63 755.089C2251.61 765.236 2250.02 792.68 2255.02 800.273C2267.66 804.319 2367.71 802.088 2386.04 802.082L2430.3 802.062C2440.67 802.056 2453.52 804.438 2461.09 797.334C2459.37 792.52 2455.96 788.868 2455.73 787.511C2453.69 775.8 2453.99 758.838 2456.16 747.005C2457.24 741.085 2460.48 740.946 2460.76 737.52C2460.94 735.385 2459.88 734.419 2461.76 732.271C2462.21 717.8 2461.87 701.731 2461.87 687.14C2442.7 687.129 2416.79 688.195 2397.47 686.57C2395.92 686.44 2396.11 685.932 2395.26 684.333L2395.89 682.366C2399.35 680.449 2450.54 681.501 2458.45 681.512C2454.56 675.363 2446.87 665.676 2442.3 659.62Z"/><path fill="white" d="M2467.92 725.068C2472.33 723.792 2480.23 721.206 2484.21 723.742C2497.87 732.562 2500.25 751.375 2499.4 766.247C2498.89 775.126 2497.83 782.931 2492.83 790.44C2483.7 804.139 2474.46 806.806 2458.93 807.003C2467.99 800.842 2468.04 798.076 2467.93 787.618C2467.98 775.23 2467.5 760.206 2468.12 748.036C2467.73 741.399 2467.95 731.916 2467.92 725.068Z"/><path fill="#ECEAF8" d="M2467.92 725.068C2472.33 723.792 2480.23 721.206 2484.21 723.742C2497.87 732.562 2500.25 751.375 2499.4 766.247C2498.89 775.126 2497.83 782.931 2492.83 790.44C2483.7 804.139 2474.46 806.806 2458.93 807.003C2467.99 800.842 2468.04 798.076 2467.93 787.618C2478.5 800.398 2489.8 781.026 2489.63 771.002C2489.41 758.005 2494.4 725.143 2470.33 735.444C2467.97 736.452 2468.71 745.101 2468.12 748.036C2467.73 741.399 2467.95 731.916 2467.92 725.068Z"/><path fill="#ECEAF8" d="M2461.09 797.334C2459.37 792.52 2455.96 788.868 2455.73 787.511C2453.69 775.8 2453.99 758.838 2456.16 747.005C2457.24 741.085 2460.48 740.946 2460.76 737.52C2460.94 735.385 2459.88 734.419 2461.76 732.271C2462.31 739.876 2462.03 791.346 2461.09 797.334Z"/><path fill="white" d="M1591.53 629.073L1613.89 651.951C1589.68 676.345 1564.16 700.445 1540.31 724.899L1533.32 731.976C1526.29 725.621 1517.94 716.716 1511.14 709.826C1505.45 704.062 1499.11 698.038 1493.64 692.114C1491.09 689.495 1489.22 688.472 1488.53 685.33C1494.43 678.33 1503.57 669.699 1510.28 663.047C1518.02 670.771 1525.9 678.846 1533.73 686.428C1553.09 667.463 1572.12 647.891 1591.53 629.073Z"/><path fill="#1F0D59" d="M1591.53 629.073L1613.89 651.951C1589.68 676.345 1564.16 700.445 1540.31 724.899L1533.32 731.976C1526.29 725.621 1517.94 716.716 1511.14 709.826C1518.56 708.897 1513.28 708.604 1520.81 710.87C1524.17 713.693 1531.46 721.317 1534 722.724C1552.31 701.828 1584.15 672.492 1604.8 651.999L1591.48 638.298C1572.69 656.987 1552.22 676.491 1534.24 695.7L1509.8 672.273C1506.23 675.99 1499.45 682.486 1497.13 686.665C1495.89 688.894 1495.13 690.067 1493.64 692.114C1491.09 689.495 1489.22 688.472 1488.53 685.33C1494.43 678.33 1503.57 669.699 1510.28 663.047C1518.02 670.771 1525.9 678.846 1533.73 686.428C1553.09 667.463 1572.12 647.891 1591.53 629.073Z"/><path fill="#220F64" d="M1497.13 686.665C1503.37 692.615 1515.33 704.449 1520.81 710.87C1513.28 708.604 1518.56 708.897 1511.14 709.826C1505.45 704.062 1499.11 698.038 1493.64 692.114C1495.13 690.067 1495.89 688.894 1497.13 686.665Z"/><path fill="#151515" d="M724.598 678.795C715.119 669.977 708.551 660.294 712.302 646.526C714.291 639.286 719.248 633.224 725.949 629.837C735.151 625.125 741.967 626.321 751.079 629.353L754.255 629.537C771.857 630.687 783.881 673.996 751.451 678.327C753.75 694.824 756.16 711.305 758.681 727.77C745.219 728.23 730.329 727.924 716.854 727.665C718.677 712.893 722.099 693.66 724.598 678.795Z"/><path fill="#ECEAF8" d="M751.079 629.353L754.255 629.537C771.857 630.687 783.881 673.996 751.451 678.327C765.014 668.036 770.499 657.7 761.682 640.218C759.048 634.996 755.736 632.755 751.079 629.353Z"/><path fill="white" d="M725.374 670.979C705.109 653.516 728.039 621.631 750.273 636.663C762.042 644.62 762.144 658.008 753.909 669.006C748.645 672.979 745.282 671.566 744.823 677.835L744.293 677.874C739.321 678.064 735.975 677.83 730.943 678.763L731.148 677.684C730.886 672.584 729.949 673.326 725.374 670.979Z"/><path fill="#ECEAF8" d="M725.374 670.979C734.202 668.287 744.796 669.124 753.909 669.006C748.645 672.979 745.282 671.566 744.823 677.835L744.293 677.874C739.321 678.064 735.975 677.83 730.943 678.763L731.148 677.684C730.886 672.584 729.949 673.326 725.374 670.979Z"/><path fill="#EAEAEA" d="M731.148 677.684C733.929 671.733 740.145 675.075 744.293 677.874C739.321 678.064 735.975 677.83 730.943 678.763L731.148 677.684Z"/><path fill="white" d="M744.293 677.874L744.823 677.835C746.33 683.513 750.209 712.842 751.577 721.308L724.458 721.331C725.847 713.249 727.065 705.138 728.111 697.004C728.88 691.206 729.739 684.445 730.943 678.763C735.975 677.83 739.321 678.064 744.293 677.874Z"/><path fill="#151515" d="M1448.35 576.947C1473.68 577.247 1501.92 573.613 1524.59 560.991C1530.85 557.503 1540.21 547.315 1547.08 544.282C1550.04 545.008 1549.02 544.616 1551.33 547.459C1550.77 549.128 1550.86 550.113 1551.01 551.852C1549.65 551.681 1548.28 551.529 1546.91 551.398C1549.1 554.968 1550.3 555.684 1553.34 558.616C1555.19 560.418 1556.95 561.627 1558.71 563.551C1539.9 571.227 1528 575.242 1507.11 575.683C1486.62 581.967 1476.09 582.449 1454.95 583.487L1454.81 661.671C1454.75 719.474 1451.22 738.496 1500.82 775.257C1501.87 778.139 1501.92 776.759 1500.69 779.533L1498.5 779.957C1491.27 777.902 1480.81 768.665 1475.28 763.429C1443.4 733.219 1448.26 690.051 1448.26 649.558L1448.35 576.947Z"/><path fill="#8770E8" d="M1546.91 551.398C1549.1 554.968 1550.3 555.684 1553.34 558.616C1555.19 560.418 1556.95 561.627 1558.71 563.551C1539.9 571.227 1528 575.242 1507.11 575.683C1518.76 572.466 1521.37 568.739 1529.27 565.609C1535.92 560.924 1541.12 557.349 1546.91 551.398Z"/><path fill="#ECEAF8" d="M1546.91 551.398C1549.1 554.968 1550.3 555.684 1553.34 558.616C1548.57 560.906 1534.37 565.409 1529.27 565.609C1535.92 560.924 1541.12 557.349 1546.91 551.398Z"/><path fill="#151515" d="M1808.69 970.533C1817.01 968.303 1825.55 973.279 1827.71 981.616C1829.87 989.953 1824.83 998.454 1816.47 1000.55C1808.22 1002.62 1799.84 997.64 1797.7 989.4C1795.56 981.16 1800.47 972.738 1808.69 970.533Z"/><path fill="white" d="M1809.48 976.696C1814.21 974.858 1819.54 977.159 1821.45 981.864C1823.36 986.568 1821.13 991.933 1816.46 993.911C1813.37 995.217 1809.82 994.758 1807.17 992.711C1804.51 990.664 1803.17 987.346 1803.65 984.029C1804.12 980.711 1806.35 977.909 1809.48 976.696Z"/><path fill="#151515" d="M1823.02 926.519C1831.44 925.66 1838.99 931.739 1839.94 940.151C1840.9 948.564 1834.9 956.176 1826.5 957.222C1820.98 957.909 1815.52 955.577 1812.2 951.117C1808.88 946.657 1808.21 940.757 1810.45 935.667C1812.69 930.577 1817.49 927.084 1823.02 926.519Z"/><path fill="white" d="M1823.15 932.665C1827.95 931.85 1832.55 934.887 1833.68 939.611C1834.82 944.336 1832.1 949.133 1827.46 950.585C1824.17 951.616 1820.58 950.727 1818.15 948.28C1815.72 945.833 1814.86 942.236 1815.91 938.952C1816.96 935.668 1819.75 933.243 1823.15 932.665Z"/><path fill="#151515" d="M178.805 926.749C187.842 926.814 200.747 925.736 203.564 937.614C205.064 943.943 203.565 947.396 200.188 952.723C191.639 958.257 188.861 956.93 178.748 956.624L178.805 926.749Z"/><path fill="white" d="M185.722 932.367C197.33 933.166 200.68 938.389 195.453 948.976C194.64 949.366 185.623 953.427 185.217 950.438C184.606 945.945 184.376 936.451 185.722 932.367Z"/><path fill="#8770E8" d="M1625.67 711.305C1633.83 712.788 1631.75 715.776 1630.13 723.015C1623.04 754.652 1604.17 768.188 1578.47 784.176C1577.56 784.56 1575.67 785.323 1574.81 784.238C1570.12 778.334 1587.56 770.027 1592.47 766.472L1593.26 765.91C1610.42 753.435 1619.56 739.512 1624 717.994C1624.79 714.183 1624.03 715.589 1625.67 711.305Z"/><path fill="#151515" d="M2072.52 926.005C2086.66 926.446 2086.77 933.934 2079.08 941.492C2078.82 941.753 2079.84 944.96 2082.36 945.247C2084.06 944.529 2084.59 941.616 2086.02 941.088C2094.33 938.022 2087.5 948.758 2087.36 949.627C2087.16 950.845 2090.77 954.396 2091.31 955.08L2092.03 955.999C2084.12 958.196 2088.11 957.437 2083.35 955.237C2081.81 954.522 2068.76 962.478 2065.64 951.508C2062.93 947.404 2069.65 940.749 2069.68 940.87C2068.43 934.405 2064.17 933.126 2072.52 926.005Z"/><path fill="white" d="M2072.37 944.398C2076.18 946.106 2078.79 947.614 2078.58 952.059C2071.72 951.969 2070.91 951.151 2072.37 944.398Z"/><path fill="white" d="M2074.5 931.628C2075.82 930.968 2077.42 931.504 2078.08 932.824C2078.74 934.144 2078.2 935.747 2076.88 936.402C2075.56 937.054 2073.96 936.517 2073.31 935.201C2072.65 933.884 2073.19 932.286 2074.5 931.628Z"/><path fill="#151515" d="M1180.19 935.928C1181.97 936.251 1186.21 937.884 1187.27 937.407C1189.61 936.161 1193.1 935.518 1192.84 939.46C1192.14 950.127 1196.75 967.4 1179.74 965.466C1175.94 965.034 1174.43 964.007 1172.04 961.379C1177.36 956.631 1177.62 961.857 1184.01 959.779C1185.19 959.396 1187.33 956.263 1186.41 955.751C1183.86 954.705 1181.31 957.786 1178.02 955.995C1167.98 950.528 1169.04 940.709 1180.19 935.928Z"/><path fill="white" d="M1179.38 942.528C1180.8 941.537 1182.65 941.401 1184.2 942.174C1185.76 942.947 1186.76 944.506 1186.83 946.238C1186.89 947.971 1186.01 949.602 1184.52 950.491C1182.33 951.801 1179.49 951.138 1178.11 948.992C1176.72 946.847 1177.28 943.989 1179.38 942.528Z"/><path fill="#151515" d="M377.062 942.667C381.492 937.783 384.222 935.075 390.874 937.315C391.109 937.394 396.691 936.798 398.498 936.95C400.116 937.563 400.589 937.658 402.242 938.023C402.073 939.258 402.111 939.466 402.147 940.758C400.26 942.973 399.894 943.344 398.549 945.974L398.62 953.557C398.63 960.232 393.338 954.734 388.953 956.873C385.472 958.57 380.675 955.157 378.078 953.135C376.816 954.247 376.182 954.941 375.057 956.163C374.746 949.89 373.301 952.348 367.227 951.042C384.437 948.947 369.774 946.517 377.062 942.667Z"/><path fill="white" d="M367.227 951.042C384.437 948.947 369.774 946.517 377.062 942.667C377.319 947.025 377.652 948.999 378.078 953.135C376.816 954.247 376.182 954.941 375.057 956.163C374.746 949.89 373.301 952.348 367.227 951.042Z"/><path fill="white" d="M398.498 936.95C400.116 937.563 400.589 937.658 402.242 938.023C402.073 939.258 402.111 939.466 402.147 940.758C400.26 942.973 399.894 943.344 398.549 945.974L398.498 936.95Z"/><path fill="white" d="M385.205 942.573C386.804 941.53 388.845 941.445 390.526 942.351C392.207 943.256 393.259 945.008 393.268 946.917C393.278 948.826 392.244 950.588 390.572 951.51C388.115 952.865 385.025 952.034 383.581 949.628C382.136 947.222 382.853 944.105 385.205 942.573Z"/><path fill="#151515" d="M2078.13 968.346C2079.28 968.591 2082.9 968.818 2083.62 969.669C2085.06 971.362 2084.64 995.894 2083.91 999.031C2083.77 999.646 2083.61 999.864 2083.04 1000.17C2081.93 1000.77 2080.81 1000.82 2079.62 1000.36C2076.64 999.22 2073.03 1001.1 2069.7 1001.41C2064.11 997.209 2061.94 993.344 2063.9 985.983C2066.18 977.398 2076.13 981.666 2077.74 980.856C2078.5 979.34 2078.05 970.951 2078.13 968.346Z"/><path fill="white" d="M2073.27 985.649C2075.9 985.37 2078.28 987.254 2078.61 989.886C2078.94 992.517 2077.1 994.928 2074.47 995.307C2072.73 995.558 2070.99 994.849 2069.92 993.452C2068.84 992.054 2068.61 990.187 2069.31 988.569C2070 986.951 2071.52 985.834 2073.27 985.649Z"/><path fill="#151515" d="M2460.46 925.33C2461.67 925.59 2464.83 925.993 2465.7 926.65C2467.08 929.833 2466.06 950.602 2466.16 955.507C2466.22 958.58 2460.06 956.073 2459.96 956.099C2456.65 956.969 2454.26 957.246 2450.72 957.295C2443.86 950.294 2442.5 939.124 2452.98 936.649C2462.52 934.396 2459.29 941.318 2460.46 925.33Z"/><path fill="white" d="M2453.52 942.595C2455.11 941.679 2457.07 941.716 2458.62 942.691C2460.17 943.666 2461.05 945.419 2460.91 947.244C2460.77 949.069 2459.63 950.665 2457.95 951.391C2455.55 952.426 2452.76 951.412 2451.59 949.079C2450.41 946.745 2451.26 943.902 2453.52 942.595Z"/><path fill="#151515" d="M2013.46 969.253C2014.08 969.311 2019.34 969.468 2019.37 970.463C2019.62 979.806 2019.9 989.662 2019.21 999.014C2018.96 1002.41 2013.48 998.97 2012.46 999.541C2009.55 1001.18 2007.39 1000.86 2004.18 1000.59C1992.03 990.236 2000.83 976.382 2012.56 981.574C2014.09 981.224 2013.47 971.053 2013.46 969.253Z"/><path fill="white" d="M2006.28 986.601C2008.47 985.043 2011.51 985.55 2013.07 987.735C2014.63 989.919 2014.12 992.955 2011.94 994.519C2009.76 996.086 2006.71 995.582 2005.15 993.393C2003.58 991.204 2004.09 988.162 2006.28 986.601Z"/><path fill="#151515" d="M2299.49 936.681C2312.13 932.369 2315.33 960.272 2297.99 956.764C2297.33 956.63 2295.61 956.032 2295.03 956.466C2294.91 956.825 2294.97 956.564 2294.89 957.4C2294.73 958.775 2294.52 963.887 2293.71 964.337C2290.95 966.445 2287.73 964.047 2288.36 960.023C2289.03 953.627 2287.15 942.819 2289 937.216C2289.18 936.665 2296.94 937.23 2299.49 936.681Z"/><path fill="white" d="M2296.1 942.594C2297.63 941.492 2299.63 941.323 2301.32 942.157C2303 942.99 2304.09 944.688 2304.14 946.568C2304.19 948.448 2303.19 950.2 2301.55 951.12C2299.21 952.434 2296.25 951.693 2294.8 949.43C2293.36 947.167 2293.93 944.169 2296.1 942.594Z"/><path fill="#151515" d="M1853.18 993.167C1851.23 998.344 1846.14 1002.78 1841.16 1000.42C1832.82 996.477 1843.79 1010 1833.22 1009.02C1831.03 1007.53 1832.29 985.264 1832.27 981.624C1833.18 979.51 1836.2 980.846 1836.93 980.901C1845.34 981.525 1849.09 976.749 1853.51 988.583C1854.23 988.491 1854.96 988.398 1855.68 988.306L1855.14 991.952C1854.05 992.546 1853.98 992.515 1853.18 993.167Z"/><path fill="#EAEAEA" d="M1853.51 988.583C1854.23 988.491 1854.96 988.398 1855.68 988.306L1855.14 991.952C1854.05 992.546 1853.98 992.515 1853.18 993.167C1853.15 990.985 1853.14 990.687 1853.51 988.583Z"/><path fill="white" d="M1839.85 986.588C1842.02 985.116 1844.97 985.656 1846.48 987.802C1848 989.948 1847.51 992.909 1845.39 994.459C1843.99 995.487 1842.14 995.676 1840.55 994.954C1838.97 994.232 1837.9 992.711 1837.75 990.976C1837.61 989.242 1838.41 987.564 1839.85 986.588Z"/><path fill="#151515" d="M1560.26 925.311C1572.24 927.935 1562.41 937.399 1566.07 937.022C1569.83 936.634 1586.68 934.184 1579.09 954.854L1577.89 955.424C1575.93 956.378 1571.21 958.077 1569.55 956.772C1567.46 955.124 1560.77 958.421 1560.59 956.204C1559.79 946.711 1559.52 934.836 1560.26 925.311Z"/><path fill="white" d="M1568.1 942.592C1569.67 941.756 1571.57 941.839 1573.07 942.808C1574.56 943.776 1575.41 945.479 1575.28 947.253C1575.16 949.028 1574.08 950.594 1572.46 951.344C1570.06 952.462 1567.21 951.462 1566.02 949.09C1564.84 946.719 1565.76 943.837 1568.1 942.592Z"/><path fill="#151515" d="M1855.14 936.588C1861.79 935.806 1867.47 944.085 1864.94 949.986C1860.31 960.801 1855.52 955.807 1850.57 955.728C1850.37 956.044 1850.29 956.46 1850.18 957.005C1850.04 958.864 1850 960.701 1849.92 962.56C1849.89 963.35 1849.7 964.36 1848.99 964.841C1848.11 965.439 1845.95 965.445 1844.99 965.062C1844.46 964.851 1844.17 964.463 1844.03 963.925C1843.42 961.688 1843.2 938.502 1844.31 937.374C1845.8 935.857 1850.49 937.85 1852.56 937.298C1853.42 937.068 1854.27 936.809 1855.14 936.588Z"/><path fill="white" d="M1851.54 942.619C1853.75 941.143 1856.73 941.649 1858.32 943.772C1859.92 945.896 1859.58 948.896 1857.55 950.607C1856.13 951.8 1854.17 952.112 1852.45 951.417C1850.73 950.722 1849.54 949.135 1849.35 947.291C1849.16 945.447 1850 943.65 1851.54 942.619Z"/><path fill="#151515" d="M669.871 926.676C672.844 926.696 682.889 926.283 684.613 927.45C697.126 935.923 690.108 944.274 678.982 946.811C671.437 944.553 681.676 960.7 670.437 956.366C669.456 955.988 669.871 929.282 669.871 926.676Z"/><path fill="white" d="M677.561 932.85C679.207 931.673 681.461 931.851 682.903 933.27C684.345 934.69 684.557 936.941 683.405 938.605C682.461 939.97 680.796 940.643 679.169 940.319C677.541 939.994 676.262 938.735 675.913 937.112C675.564 935.49 676.211 933.815 677.561 932.85Z"/><path fill="#151515" d="M1540.85 935.945C1542.54 936.003 1550.23 937.302 1550.12 937.343C1556.37 934.621 1556.11 939.471 1555.66 944.497C1554.71 954.903 1559.54 956.374 1549.21 956.807C1546.8 956.371 1545.58 957.42 1544.01 957.154C1530.25 954.818 1533 942.72 1540.85 935.945Z"/><path fill="white" d="M1542.76 942.51C1544.38 941.617 1546.35 941.671 1547.92 942.652C1549.48 943.633 1550.39 945.386 1550.29 947.23C1550.19 949.073 1549.1 950.718 1547.44 951.524C1544.96 952.726 1541.98 951.737 1540.71 949.294C1539.45 946.85 1540.36 943.842 1542.76 942.51Z"/><path fill="#151515" d="M1950.39 984.856C1952.41 983.025 1957.3 979.008 1960.47 980.23C1964.79 981.898 1967.82 979.569 1970.95 981.344C1971.43 981.617 1971.2 998.57 1970.73 999.714C1969.25 1000.72 1956.46 1000.39 1953.79 999.61C1948.55 993.435 1949.51 992.937 1950.39 984.856Z"/><path fill="white" d="M1957.79 986.591C1959.26 985.533 1961.19 985.355 1962.83 986.124C1964.48 986.893 1965.58 988.49 1965.71 990.299C1965.84 992.109 1964.99 993.849 1963.47 994.85C1961.2 996.357 1958.13 995.762 1956.58 993.511C1955.03 991.261 1955.57 988.183 1957.79 986.591Z"/><path fill="#151515" d="M2238.14 925.995C2240.08 926.219 2251.07 927.87 2249.21 932.415C2246.78 938.323 2241.95 930.565 2238.58 932.24C2232.85 935.259 2239.53 938.102 2242.49 939.113C2251.32 942.126 2254.93 952.115 2245.01 956.27L2241.67 957.643C2237.92 957.057 2230.22 955.668 2229.51 951.84C2228.46 946.273 2236 948.186 2237.57 950.805C2238.28 951.994 2243.85 951.449 2243.95 949.293C2244.17 944.173 2232.16 944.11 2230.46 938.613C2228.09 931.399 2232.26 928.65 2238.14 925.995Z"/><path fill="#151515" d="M1038.87 926.066C1041.63 926.388 1049.7 928.004 1049.85 930.594C1050.46 940.645 1040.45 927.57 1037.33 934.307C1036.02 937.126 1042.11 938.514 1043.53 939.088C1055.42 943.888 1054.72 952.928 1042.82 957.592C1038.9 957.096 1031.12 955.86 1030.35 952.024C1029.28 946.628 1036.54 947.924 1038.6 950.771C1039.18 951.567 1045.21 951.931 1044.92 948.807C1044.43 943.482 1033.26 944.405 1031.47 938.608C1029.08 931.78 1032.98 928.716 1038.87 926.066Z"/><path fill="#151515" d="M748.831 935.993C752.758 936.855 755.006 938.471 757.517 936.958C758.386 936.435 760.931 936.879 761.093 937.249C762.764 941.887 761.306 948.662 761.805 953.532C762.263 958.011 757.811 956.813 754.827 956.451C738.915 959.35 734.662 942.683 748.831 935.993Z"/><path fill="white" d="M748.703 942.524C750.256 941.578 752.203 941.558 753.775 942.473C755.346 943.388 756.291 945.09 756.235 946.908C756.179 948.726 755.132 950.367 753.507 951.184C751.132 952.378 748.237 951.485 746.947 949.16C745.658 946.835 746.432 943.907 748.703 942.524Z"/><path fill="#151515" d="M2029.76 979.903C2030.43 979.944 2043.32 981.153 2043.4 981.182C2044.21 982.129 2044.27 997.962 2043.43 999.929C2042.92 1001.13 2037.69 1000.12 2036.57 999.944C2024.68 1004.7 2016.14 988.701 2029.76 979.903Z"/><path fill="white" d="M2030.74 986.69C2032.24 985.712 2034.16 985.647 2035.72 986.522C2037.28 987.397 2038.22 989.066 2038.16 990.853C2038.11 992.639 2037.06 994.247 2035.45 995.024C2033.18 996.122 2030.44 995.264 2029.19 993.063C2027.95 990.862 2028.63 988.074 2030.74 986.69Z"/><path fill="#151515" d="M2337.61 942.277C2337.67 937.99 2337.13 930.632 2338.35 926.633C2338.52 926.064 2342.26 925.525 2343.21 926.835C2344.61 928.743 2342.74 936.757 2344.36 937.496C2349.96 936.915 2355.37 933.995 2356.98 943.993C2357.17 945.215 2357.46 956.027 2356.3 956.516C2346.2 960.768 2354.72 943.099 2348.38 941.704C2341.85 940.267 2343.64 954.661 2343.47 958.069C2338.56 958.676 2334.93 958.229 2330.35 958.706C2332.26 957.59 2333.73 957.085 2334.55 954.925L2335.04 953.719C2338.93 950.588 2334.36 945.847 2337.61 942.277Z"/><path fill="white" d="M2335.04 953.719C2338.93 950.588 2334.36 945.847 2337.61 942.277C2337.93 953.444 2334.16 955.161 2343.47 958.069C2338.56 958.676 2334.93 958.229 2330.35 958.706C2332.26 957.59 2333.73 957.085 2334.55 954.925L2335.04 953.719Z"/><path fill="#151515" d="M317.124 937.025C318.387 936.888 332.046 937.072 332.668 937.37C332.688 937.399 336.287 957.049 330.733 956.423C325.584 955.782 320.092 958.757 316.405 955.606C309.383 949.606 312.493 942.362 317.124 937.025Z"/><path fill="white" d="M320.337 942.695C322.678 941.285 325.719 942.043 327.125 944.386C328.531 946.73 327.768 949.77 325.422 951.172C323.081 952.57 320.051 951.81 318.648 949.472C317.245 947.133 318.001 944.101 320.337 942.695Z"/><path fill="#151515" d="M2335.38 695.49C2343.25 696.219 2353.33 710.66 2358.52 717.009C2362.49 712.897 2372.41 701.216 2377.6 698.314C2379.37 697.324 2383.07 699.747 2379.76 703.638C2372.64 710.838 2365.63 718.149 2358.74 725.569C2353.17 719.694 2347.69 713.742 2342.29 707.715C2337.29 702.172 2335.07 701.668 2335.38 695.49Z"/><path fill="#151515" d="M1919.55 969.945C1922.31 970.094 1938.79 972.29 1928.99 977.986C1926.83 979.24 1923.22 973.581 1919.01 977.186C1917.97 981.981 1925.22 982.292 1927.55 983.846C1939.15 991.581 1932.23 998.832 1922.67 1001.43C1918.61 1000.3 1912.47 998.967 1911.65 993.821C1915.4 987.662 1918.85 995.022 1921.93 995.19C1928.4 995.542 1927.71 990.055 1922.11 988.495C1910.81 985.348 1909.27 975.971 1919.55 969.945Z"/><path fill="#151515" d="M1932.97 926.032C1935.21 926.353 1949.87 929.084 1941.47 934.307C1939.6 935.023 1934.88 930.65 1933.04 932.19C1925.02 938.887 1943.42 938.15 1944.74 944.573C1946.46 952.897 1943.09 955.222 1936.01 957.745C1932.05 957.087 1920.83 954.796 1925.42 948.554C1927.73 945.403 1937.36 956.539 1939.02 948.575C1935.28 941.413 1927.98 944.847 1925.45 938.625C1922.68 931.81 1927.22 928.509 1932.97 926.032Z"/><path fill="#151515" d="M2407.17 926.169C2409.07 926.399 2422.48 928.535 2417.98 933.735C2415.94 936.097 2412.94 933.733 2410.49 933.094C2401.36 930.713 2395.77 940.737 2401.32 947.757C2402.83 949.669 2405.06 950.868 2407.49 951.067C2411.32 951.397 2413.09 949.577 2416 947.415C2416.15 947.638 2418.37 950.893 2418.34 950.74C2419.97 958.667 2404.91 957.372 2401.28 955.628C2397.86 954.004 2395.24 951.074 2394.01 947.498C2390.06 936.243 2396.52 928.822 2407.17 926.169Z"/><path fill="#151515" d="M1447.89 948.271C1449.06 944.814 1454.54 927.973 1456.51 927.172C1464.71 923.838 1460.75 931.905 1459.96 933.78C1444.62 974.423 1445.54 956.156 1433.1 926.646C1433.98 926.73 1439.25 927.023 1439.49 927.293C1442.75 930.968 1445.13 941.21 1446.88 945.711L1447.89 948.271Z"/><path fill="#151515" d="M224.803 952.096C223.941 960.827 210.751 957.142 208.369 952.631C201.416 939.464 219.883 927.335 227.615 945.014C228.352 944.792 229.088 944.567 229.823 944.338C229.821 945.605 229.643 946.96 229.51 948.233C228.023 948.342 227.614 948.408 226.122 948.698L225.168 948.898L224.803 952.096Z"/><path fill="#EAEAEA" d="M224.803 952.096C223.335 951.48 221.631 951.141 220.997 951.692C219.289 953.173 211.544 951.755 213.47 949.414C214.362 948.33 223.08 948.853 225.168 948.898L224.803 952.096Z"/><path fill="#EAEAEA" d="M227.615 945.014C228.352 944.792 229.088 944.567 229.823 944.338C229.821 945.605 229.643 946.96 229.51 948.233C228.023 948.342 227.614 948.408 226.122 948.698C226.653 947.446 227.133 946.285 227.615 945.014Z"/><path fill="white" d="M215.358 940.402C219.082 941.462 222.198 941.692 219.442 945.564C213.344 944.598 211.917 945.519 215.358 940.402Z"/><path fill="#151515" d="M1958.27 936.315C1963.84 936.048 1968.65 940.162 1969.26 945.704C1969.86 951.246 1966.05 956.301 1960.55 957.24C1956.69 957.9 1952.78 956.362 1950.4 953.248C1948.02 950.133 1947.56 945.956 1949.21 942.401C1950.87 938.847 1954.35 936.503 1958.27 936.315Z"/><path fill="white" d="M1956.15 942.596C1958.42 941.214 1961.37 941.887 1962.82 944.115C1964.26 946.343 1963.67 949.315 1961.48 950.821C1960.01 951.833 1958.11 951.967 1956.51 951.17C1954.92 950.374 1953.88 948.773 1953.8 946.99C1953.73 945.208 1954.63 943.525 1956.15 942.596Z"/><path fill="#151515" d="M2431.39 936.347C2437.2 936.014 2442.18 940.47 2442.49 946.286C2442.8 952.101 2438.32 957.061 2432.5 957.347C2426.72 957.632 2421.79 953.187 2421.49 947.404C2421.18 941.621 2425.6 936.678 2431.39 936.347Z"/><path fill="white" d="M2429.21 942.647C2430.76 941.657 2432.72 941.584 2434.34 942.458C2435.96 943.331 2436.97 945.013 2436.99 946.85C2437.01 948.687 2436.03 950.388 2434.43 951.294C2432.05 952.643 2429.03 951.851 2427.61 949.508C2426.2 947.165 2426.91 944.122 2429.21 942.647Z"/><path fill="#151515" d="M433.328 937.45C438.537 934.893 444.833 937.038 447.396 942.244C449.96 947.45 447.823 953.748 442.621 956.319C437.409 958.894 431.096 956.752 428.528 951.537C425.959 946.322 428.109 940.012 433.328 937.45Z"/><path fill="white" d="M435.566 942.662C437.894 941.326 440.864 942.128 442.202 944.455C443.54 946.782 442.74 949.753 440.415 951.093C438.086 952.435 435.11 951.634 433.77 949.304C432.431 946.974 433.235 943.999 435.566 942.662Z"/><path fill="#151515" d="M1119.46 954.627C1114.41 956.641 1105.94 959.433 1102.08 953.944C1089.61 936.237 1123.24 927.975 1119.51 948.774C1119.31 951.281 1119.19 952.139 1119.46 954.627Z"/><path fill="#EAEAEA" d="M1119.46 954.627C1113.76 947.094 1108.12 956.272 1106.51 950.035C1106.46 949.833 1106.51 949.619 1106.65 949.464C1107.53 948.483 1117.44 948.805 1119.51 948.774C1119.31 951.281 1119.19 952.139 1119.46 954.627Z"/><path fill="white" d="M1107.13 940.653C1111.65 941.338 1113.61 940.782 1112.57 945.796C1106.89 944.937 1105.09 946.219 1107.13 940.653Z"/><path fill="#151515" d="M2380.35 953.968C2364.79 963.711 2352.72 948.074 2365.38 937.676C2372.02 932.231 2384.02 941.046 2379.94 948.794C2379.89 951.146 2379.9 951.607 2380.35 953.968Z"/><path fill="white" d="M2380.35 953.968C2378.93 952.727 2377.31 950.564 2375.26 951.351C2372.48 952.504 2367.92 953.347 2366.46 949.836C2365.76 948.146 2378.82 948.788 2379.94 948.794C2379.89 951.146 2379.9 951.607 2380.35 953.968Z"/><path fill="white" d="M2367.11 940.949C2371.09 941.046 2373.38 940.276 2374.68 944.669C2371.56 944.814 2366.64 946.436 2367.01 942.267L2367.11 940.949Z"/><path fill="#151515" d="M1063.89 936.322C1069.37 935.726 1074.37 939.486 1075.33 944.918C1076.28 950.35 1072.86 955.591 1067.5 956.899C1063.71 957.825 1059.72 956.564 1057.14 953.627C1054.57 950.69 1053.85 946.566 1055.26 942.928C1056.68 939.29 1060.01 936.744 1063.89 936.322Z"/><path fill="white" d="M1062.62 942.622C1064.22 941.7 1066.2 941.758 1067.74 942.772C1069.29 943.785 1070.13 945.582 1069.93 947.418C1069.72 949.253 1068.49 950.816 1066.76 951.459C1064.37 952.345 1061.71 951.253 1060.62 948.948C1059.54 946.642 1060.41 943.892 1062.62 942.622Z"/><path fill="#151515" d="M2489.55 952.682C2486.22 957.308 2478.96 959.065 2474.99 955.976C2457.89 942.659 2488.72 922.929 2490.33 948.721C2489.59 950.569 2489.7 950.643 2489.55 952.682Z"/><path fill="#EAEAEA" d="M2490.33 948.721C2489.59 950.569 2489.7 950.643 2489.55 952.682C2483.52 949.563 2483.79 953.63 2478.23 951.69C2477.72 951.51 2475.73 949.642 2476.66 949.378C2480.64 948.245 2485.94 948.934 2490.33 948.721Z"/><path fill="white" d="M2477.32 940.979C2482.05 941.042 2482.92 940.33 2484.53 944.897C2481.53 944.882 2476.36 946.361 2477.1 942.283L2477.32 940.979Z"/><path fill="#151515" d="M1480.01 950.968C1480.37 957.75 1474.05 958.058 1469 956.882C1456.3 953.926 1460.79 932.044 1475.5 937.036C1477.92 937.842 1479.89 939.647 1480.9 941.995C1481.97 944.502 1481.81 946.221 1480.92 948.631C1480.15 949.64 1480.28 949.556 1480.01 950.968Z"/><path fill="#EAEAEA" d="M1480.01 950.968C1477.31 951.08 1468.85 954.524 1468.11 949.959C1468.76 948.235 1478.67 948.819 1480.92 948.631C1480.15 949.64 1480.28 949.556 1480.01 950.968Z"/><path fill="white" d="M1468.19 940.983C1473.08 941.062 1473.99 940.285 1475.65 944.96C1470.24 944.747 1468.12 946.517 1468.19 940.983Z"/><path fill="#151515" d="M1156.92 951.302C1156.35 959.893 1143.59 957.801 1140.29 953.734C1134.07 946.081 1140.1 934.548 1151.02 936.795C1153.33 937.257 1155.34 938.685 1156.53 940.72C1158.36 943.829 1158.52 945.976 1157.33 949.209L1156.92 951.302Z"/><path fill="#EAEAEA" d="M1156.92 951.302C1153.36 951.521 1148.95 953.123 1145.68 951.361C1145.03 951.007 1144.07 949.744 1144.95 949.417C1148.12 948.231 1153.99 948.959 1157.33 949.209L1156.92 951.302Z"/><path fill="white" d="M1145.45 940.764C1148.91 941.165 1152.12 940.781 1151.38 945.204C1146.6 944.716 1143.33 946.097 1145.45 940.764Z"/><path fill="#151515" d="M2050.97 951.062C2050.13 961.741 2031.07 958.167 2032.11 946.511C2033.47 931.199 2055.6 933.943 2051.35 948.632C2051.13 949.444 2051.07 950.218 2050.97 951.062Z"/><path fill="#EAEAEA" d="M2050.97 951.062C2048.19 951.1 2042.7 952.674 2041 951.785C2033.23 947.719 2050.79 948.65 2051.35 948.632C2051.13 949.444 2051.07 950.218 2050.97 951.062Z"/><path fill="white" d="M2040.15 940.636C2044.28 941.386 2046.3 940.824 2045.41 945.496C2040.26 944.729 2037.99 945.923 2040.15 940.636Z"/><path fill="#151515" d="M268.17 950.227C270.934 956.543 265.181 957.571 259.491 957.004C244.876 955.548 248.532 934.017 263.096 936.605C269.093 937.671 271.173 943.453 269.972 948.8L268.17 950.227Z"/><path fill="#EAEAEA" d="M268.17 950.227C263.752 952.153 261.916 953.623 257.279 951.251C256.282 947.117 267.239 948.769 269.972 948.8L268.17 950.227Z"/><path fill="white" d="M257.253 940.987C262.047 941.065 262.868 940.315 264.647 945.018C261.528 944.909 256.522 946.269 257.087 942.289L257.253 940.987Z"/><path fill="#151515" d="M2255.1 925.255C2265.46 927.983 2258.02 929.352 2261.19 937.523C2261.49 938.292 2265.2 936.761 2266.52 936.809C2268.39 936.878 2270.11 936.675 2271.6 938.371C2275.22 943.043 2273.45 947.45 2273.95 953.011C2274.29 956.857 2272.54 957.797 2268.82 956.519C2267.52 956.072 2267.87 948.782 2267.83 946.754C2267.81 946.15 2267.78 945.545 2267.76 944.941C2267.63 943.318 2264.6 941.584 2263.23 942.263C2258.02 944.834 2261.82 951.702 2259.87 955.936C2259.08 957.662 2255.2 956.759 2255.15 956.293C2254.16 947.598 2254.15 933.938 2255.1 925.255Z"/><path fill="#151515" d="M1855.68 988.306C1858.43 981.295 1863.57 978.461 1871.04 980.844C1875.12 982.146 1879.01 992.025 1873.06 992.91C1870.37 993.312 1865.39 991.482 1862.7 992.993C1861.52 993.654 1865.09 995.658 1864.83 995.388C1866.95 997.6 1871.98 993.812 1872.34 994.048C1877.33 997.329 1873.72 1000.02 1869.39 1000.57C1860.91 1001.45 1858.3 998.872 1855.14 991.952L1855.68 988.306Z"/><path fill="white" d="M1862.8 985.001C1866.8 984.903 1869.82 983.74 1869.54 988.549C1865.13 988.199 1861.75 989.692 1862.8 985.001Z"/><path fill="#151515" d="M1877.06 935.927C1882.97 937.132 1888.38 938.647 1888.56 946.552C1888.67 951.382 1875.39 946.591 1874.81 950.154C1876.31 954.237 1883.38 951.338 1886.48 950.956C1888.28 960.857 1871.49 958.388 1869.02 951.522C1865.94 942.965 1869.63 939.275 1877.06 935.927Z"/><path fill="white" d="M1875.28 940.758C1878.87 941.156 1882.22 940.625 1881.46 945.073C1876.41 944.664 1873.43 946.184 1875.28 940.758Z"/><path fill="#151515" d="M1949.31 1000.27C1932.2 1003.56 1941.38 992.927 1936.95 986.237C1931.81 978.489 1938.08 984.947 1938.29 976.046C1938.33 974.586 1944.03 974.359 1943.74 977.48C1943.53 979.692 1945.78 981.035 1947.26 981.985C1948.61 983.469 1948.82 983.62 1950.39 984.856C1949.51 992.937 1948.55 993.435 1953.79 999.61C1950.69 999.379 1950.86 998.058 1949.31 1000.27Z"/><path fill="#EAEAEA" d="M1947.26 981.985C1948.61 983.469 1948.82 983.62 1950.39 984.856C1949.51 992.937 1948.55 993.435 1953.79 999.61C1950.69 999.379 1950.86 998.058 1949.31 1000.27C1947.7 997.001 1948.18 996.805 1944.85 995.402C1943.2 990.556 1942.52 987.548 1946.94 984.766C1947.12 983.561 1947.18 983.121 1947.26 981.985Z"/><path fill="white" d="M1944.85 995.402C1943.2 990.556 1942.52 987.548 1946.94 984.766C1949.59 989.244 1950.95 994.327 1944.85 995.402Z"/><path fill="#151515" d="M784.945 936.46C794.197 937.188 791.775 938.395 795.789 947.298C797.057 944.361 798.487 940.293 800.154 937.632C800.767 936.393 805.163 936.495 805.287 937.621C805.637 940.8 800.761 950.472 799.684 953.273C797.612 957.965 795.118 965.601 789.003 965.33C788.58 965.311 786.608 965.332 786.381 964.71C784.327 959.079 790.496 960.42 791.955 956.536C792.918 953.69 790.737 950.13 789.607 947.722C787.823 943.919 786.429 940.339 784.945 936.46Z"/><path fill="#151515" d="M1232.97 936.66C1242.24 936.822 1239.72 938.145 1243.76 947.298C1245.4 944.123 1246.87 939.865 1249.12 937.222C1249.93 936.267 1254.21 936.656 1253.97 937.678C1252.47 943.882 1248.66 951.552 1245.99 957.487C1243.22 964.426 1232.79 970.775 1234.07 961.414C1234.17 960.725 1246.21 957.904 1238.15 948.172C1237.41 947.277 1233.59 938.525 1232.97 936.66Z"/><path fill="#151515" d="M1629.48 936.54C1638.53 937.222 1636.45 939.057 1640.42 947.775C1640.61 947.279 1644.51 931.53 1649.86 938.021C1650.65 938.975 1642.42 956.129 1641.84 958.411C1640.97 961.436 1633.51 968.428 1631.02 965.244C1626.27 959.161 1642.24 960.286 1634.86 950.2C1633.98 948.689 1631.16 941.58 1630.56 940.125L1629.48 936.54Z"/><path fill="#151515" d="M1983.19 980.423C1988.82 979.903 1994.43 979.193 1995.04 987.987C1994.87 989.281 1995.69 999.469 1994.38 999.803C1983.53 1002.57 1993.59 993.024 1985.54 984.661C1978.52 990.212 1982.79 990.258 1981.24 998.968C1980.75 1001.7 1976.09 1000.84 1975.98 998.988C1975.65 993.744 1975.39 986.445 1976.28 981.236C1976.41 980.47 1981.72 980.859 1983.19 980.423Z"/><path fill="#151515" d="M1903.02 936.596C1906.28 935.999 1909.43 937.279 1910.38 940.765C1911.44 944.619 1911.7 951.533 1910.81 955.481C1910.65 956.215 1909.14 956.782 1908.56 956.889C1903.59 957.983 1905.22 949.16 1905 946.484C1904.87 944.747 1903.96 943.162 1902.53 942.169C1901.86 941.728 1901.19 941.287 1900.51 940.846C1895.54 947.788 1899.18 954.301 1897.31 956.115C1889.41 963.752 1892.33 939.585 1892.42 937.501C1892.45 936.644 1900.41 937.29 1903.02 936.596Z"/><path fill="#151515" d="M1891.5 980.516C1901.09 979.65 1899.75 993.154 1898.83 999.438C1898.7 1000.32 1895.12 1001.41 1894.39 1000.58C1891.98 997.871 1893.9 991.891 1893.02 988.489C1892.72 987.322 1891.96 986.331 1890.9 985.753C1890.19 985.367 1889.24 984.917 1888.49 984.525C1884.84 990.35 1886.21 991.63 1885.98 998.561C1885.92 1001.73 1880.05 1001 1880.07 998.521C1880.1 995.645 1879.46 982.87 1880.56 981.137C1881.91 980.657 1886.97 981.565 1891.5 980.516Z"/><path fill="#151515" d="M274.384 936.275C275.955 936.471 281.073 937.73 282.095 937.371C293.532 930.609 296.435 952.802 293.334 955.941C286.691 962.666 287.782 946.805 287.781 946.756C287.815 944.285 286.061 940.977 283.311 941.766C278.047 943.32 281.568 954.25 279.8 955.93C271.817 963.52 274.395 938.668 274.384 936.275Z"/><path fill="#151515" d="M1973.2 936.264C1986.55 939.297 1972.37 948.926 1982.49 951.633C1989.41 953.486 1982.64 935.722 1988.94 936.798C1992 937.319 1992.17 937.08 1992.12 940.249L1992.11 941.75C1992.09 945.993 1992.3 950.821 1991.97 955.041C1990.89 958.894 1986.5 955.472 1984.21 956.298C1970.56 961.233 1972.58 943.854 1973.2 936.264Z"/><path fill="#151515" d="M1207.82 936.616C1220.35 935.165 1216.57 955.855 1216.12 956.126C1207.37 961.347 1213.24 946.58 1209.16 942.503L1207.42 940.75C1197.42 947.283 1208.55 959.723 1198.38 956.253C1196.65 955.664 1197.79 940.819 1197.56 938.344C1197.34 935.916 1204.27 937.756 1207.82 936.616Z"/><path fill="#151515" d="M452.311 936.323C459.707 937.408 456.92 938.392 463.961 936.572C472.168 934.45 475.788 955.471 468.153 957.389C464.799 954.714 465.877 950.912 465.76 946.756C465.722 943.149 464.087 940.824 460.065 942.554C456.057 944.565 459.197 952.743 457.874 955.485C456.934 957.432 452.392 958.041 452.409 953.988L452.311 936.323Z"/><path fill="#151515" d="M2102.66 989.99C2107.23 1000.34 2095.84 1003.7 2088.65 998.865C2087.77 997.612 2087.32 995.685 2089.04 995.084C2092.4 993.909 2092.7 996.572 2096.92 996.147L2097.72 994.948L2097.79 994.959C2098.06 992.403 2090.21 992.593 2088.54 989.006C2083.26 977.651 2106.07 978.113 2102.23 985.219L2101.86 985.89C2102.11 987.26 2102.38 988.627 2102.66 989.99Z"/><path fill="white" d="M2102.66 989.99C2095.38 987.871 2086.96 984.685 2101.03 985.829L2101.86 985.89C2102.11 987.26 2102.38 988.627 2102.66 989.99Z"/><path fill="#151515" d="M1519.18 942.637C1517.62 947.742 1518.93 950.577 1518.56 955.554C1518.48 956.6 1514.8 957.627 1513.87 956.567C1511.25 953.394 1513.53 947.605 1512.64 943.591C1511.57 941.878 1507.62 940.37 1510.66 937.426C1512.58 935.564 1512.73 936.5 1512.77 932.509C1512.83 927.767 1519.18 923.382 1522.87 927.032C1524.98 929.114 1519.08 932.498 1518.58 933.7C1517.26 936.933 1519.64 936.839 1521.92 937.1L1522.02 938.536C1522.25 941.28 1521.55 941.593 1519.18 942.637Z"/><path fill="#151515" d="M229.823 944.338C237.01 930.035 254.556 938.582 245.061 943.224C245.847 942.839 231.238 938.921 237.125 950.846C238.684 953.974 244.408 949.568 246.084 950.65C253.054 956.233 235.279 962.775 230.08 949.637L229.51 948.233C229.643 946.96 229.821 945.605 229.823 944.338Z"/><path fill="#151515" d="M357.302 956.853C360.173 952.359 363.481 947.677 365.885 942.973C367.088 940.621 359.345 943.993 358.16 938.813C359.97 935.241 372.48 936.726 376.803 936.708C373.492 941.038 368.71 946.074 367.227 951.042C373.301 952.348 374.746 949.89 375.057 956.163C370.944 957.232 362.032 956.825 357.302 956.853Z"/><path fill="#151515" d="M773.92 936.064C775.93 936.291 788.557 937.708 782.238 942.346C779.7 944.21 775.925 939.888 772.429 943.461C771.629 944.264 771.192 945.36 771.22 946.494C771.396 953.442 778.921 951.041 782.898 950.759C784.7 968.173 748.498 948.43 773.92 936.064Z"/><path fill="#151515" d="M1615.57 938.061C1618.5 934.694 1617.34 929.876 1621.77 930.856C1626.04 931.797 1621.46 935.332 1626.96 937.071L1629.48 936.54L1630.56 940.125L1627.13 942.007C1622.22 943.139 1622.85 950.055 1625.9 952.016C1635.54 958.225 1615.53 960.732 1618.04 948.673C1618.66 945.723 1617.86 943.211 1616.11 940.819C1615.13 939.666 1615.24 939.595 1615.57 938.061Z"/><path fill="#EAEAEA" d="M1626.96 937.071L1629.48 936.54L1630.56 940.125L1627.13 942.007C1627.73 939.412 1627.7 939.639 1626.96 937.071Z"/><path fill="#151515" d="M2020.13 935.99C2021.1 936.098 2031.5 937.291 2028.96 941.122C2027.05 944.381 2020.57 940.447 2019.03 942.939C2011.63 954.946 2028.52 951.044 2029.68 951.182C2025.17 967.997 1996.32 946.838 2020.13 935.99Z"/><path fill="#151515" d="M717.577 936.202C727.427 937.481 724.283 938.306 728.878 948.053C729.677 946.012 732.807 937.538 733.563 937.257C742.617 933.9 736.524 944.383 736.062 945.588C726.525 969.22 723.604 950.584 717.577 936.202Z"/><path fill="#151515" d="M1087.32 947.924C1088.35 945.743 1091.5 937.362 1093 936.928C1101.03 934.593 1095.74 943.132 1095.4 944.066C1092.06 950.731 1088.98 966.523 1082.33 950.102C1080.47 945.52 1078.47 941.066 1076.72 936.4C1084.53 937.145 1082.93 936.939 1085.97 944.564L1087.32 947.924Z"/><path fill="#151515" d="M402.242 938.023C402.689 936.612 403.334 931.73 404.607 931.305C406.868 930.547 410.507 930.37 409.905 933.984C409.433 937.344 413.04 936.784 413.67 937.885C415.612 941.282 410.408 942.071 410.321 942.988C409.944 946.985 408.538 950.512 412.882 952.27C415.344 953.266 415.574 957.901 411.495 957.266C400.002 957.572 406.602 947.541 402.147 940.758C402.111 939.466 402.073 939.258 402.242 938.023Z"/><path fill="#151515" d="M1223.5 930.971C1232.62 931.504 1223.58 934.629 1231.67 938.172C1234.26 939.308 1228.89 942.717 1228.33 943.071C1227.48 943.604 1227.9 949.585 1228.21 950.63C1228.28 949.794 1232.84 954.509 1233.88 956.148C1228.21 958.652 1221.2 956.35 1222.2 951.999C1223.81 944.993 1218.63 940.925 1219.59 937.49C1221.89 935.666 1222.46 933.581 1223.5 930.971Z"/><path fill="#151515" d="M2330.35 958.706C2323.16 953.98 2323.98 953.509 2324.02 945.005C2324.02 944.245 2324 942.93 2323.11 942.485C2320.99 941.924 2320.44 938.52 2322.13 937.185C2324.76 935.106 2323.1 931.337 2326.91 931.023C2327.53 930.972 2329.29 931.074 2329.55 931.693C2331.17 935.648 2328.32 935.737 2333.26 937.864C2334.25 938.293 2333.42 941.463 2332.32 941.648C2331.95 941.88 2331.58 942.112 2331.21 942.344C2329.51 943.537 2329.86 948.475 2330.19 950.073C2330.56 951.889 2333.53 952.987 2335.04 953.719L2334.55 954.925C2333.73 957.085 2332.26 957.59 2330.35 958.706Z"/><path fill="#151515" d="M1595.23 925.763C1598.64 926.292 1601.8 925.382 1601.78 929.43C1601.74 938.733 1601.76 948.151 1601.92 957.448C1601.22 957.328 1595.95 956.835 1595.87 956.021C1594.93 946.588 1595.18 935.363 1595.23 925.763Z"/><path fill="#151515" d="M338.218 925.342C339.971 925.782 341.724 926.221 343.477 926.661C344.623 935.507 344.451 948.801 343.915 957.693C343.174 957.515 342.431 957.35 341.685 957.197C338.622 956.601 337.762 956.411 337.884 953.029C338.215 943.811 337.677 934.551 338.218 925.342Z"/><path fill="#151515" d="M1521.92 937.1C1525.74 936.198 1527.26 934.553 1531.11 936.596C1531.03 942.424 1531.58 950.454 1530.49 956.037C1528.81 956.705 1527.12 957.373 1525.44 958.04C1520 949.652 1529.64 943.448 1519.18 942.637C1521.55 941.593 1522.25 941.28 1522.02 938.536L1521.92 937.1Z"/><path fill="white" d="M1521.92 937.1C1525.74 936.198 1527.26 934.553 1531.11 936.596C1530.47 936.726 1525.75 937.219 1525.64 937.718C1524.58 942.504 1525.01 953.356 1525.44 958.04C1520 949.652 1529.64 943.448 1519.18 942.637C1521.55 941.593 1522.25 941.28 1522.02 938.536L1521.92 937.1Z"/><path fill="#151515" d="M2059.21 980.947C2061.23 980.161 2064.14 984.8 2057.38 986.453C2050.44 988.149 2059.4 998.413 2050.4 1001.8C2046.3 997.109 2049.36 991.015 2048.33 985.5C2046.87 977.716 2053.49 981.926 2059.21 980.947Z"/><path fill="#151515" d="M297.966 936.349C303.128 936.91 304.056 938.776 307.987 936.561C309.449 936.22 311.642 937.92 311.21 939.377C309.324 945.727 303.006 939.939 304.317 947.775C304.308 947.917 305.279 961.769 298.287 955.798C297.617 955.225 297.917 939.361 297.966 936.349Z"/><path fill="#151515" d="M693.957 936.137C698.831 936.785 700.219 938.559 704.034 936.649C706.836 935.246 707.4 941.578 706.088 942.06C703.021 943.188 700.987 941.132 699.915 945.865C699.907 947.478 700.271 953.847 699.459 955.657C699.102 957.649 694.878 957.076 694.519 956.111C693.293 952.817 693.952 938.765 693.957 936.137Z"/><path fill="#8770E8" d="M1559.08 554.842C1563.15 552.481 1570.1 548.576 1573.58 545.582L1575.83 543.608C1578.42 545.957 1580.82 548.112 1583.29 550.587C1580.55 551.93 1579.39 552.385 1576.48 553.306C1572.77 553.862 1568.05 557.237 1565.26 559.727C1563.21 557.984 1561.2 556.477 1559.08 554.842Z"/><path fill="#151515" d="M1493.84 936.81C1497.19 935.263 1497.26 935.528 1501.2 936.064L1502.08 936.325C1502.59 936.474 1506.49 937.256 1506.56 937.643C1507.46 942.989 1507.32 950.41 1506.66 955.797C1506.51 957.014 1501.58 956.781 1500.72 956.821C1499.32 950.036 1501.12 945.769 1498.82 941.093C1497.96 936.74 1498.29 936.88 1493.84 936.81Z"/><path fill="#EAEAEA" d="M1493.84 936.81C1497.19 935.263 1497.26 935.528 1501.2 936.064C1501.43 942.825 1501.72 950.162 1500.72 956.821C1499.32 950.036 1501.12 945.769 1498.82 941.093C1497.96 936.74 1498.29 936.88 1493.84 936.81Z"/><path fill="#151515" d="M2007.83 936.673C2009.91 937.485 2009.53 939.669 2008.98 941.506C2008.9 941.769 2008.21 942.041 2007.98 942.069C2000.11 942.991 2003.75 949.772 2002.79 955.022C2002.46 956.788 1999.55 957.344 1998.23 957.791C1996.87 954.876 1995.84 937.751 1997.62 937.235C2000.18 936.495 2003.26 937.715 2007.83 936.673Z"/><path fill="#151515" d="M1123.32 936.194C1128.46 937.051 1129.25 938.583 1133.97 936.789C1136.24 936.941 1136.95 939.008 1135.97 940.538C1133.66 944.152 1129.53 941.449 1129.6 947.254C1129.57 948.545 1129.81 955.317 1129.02 955.972C1121.27 962.361 1123.55 941.266 1123.32 936.194Z"/><path fill="#151515" d="M1493.84 936.81C1498.29 936.88 1497.96 936.74 1498.82 941.093C1482.2 944.856 1498.36 961.281 1485.73 955.419C1485.28 955.21 1485.64 938.738 1486.21 937.323C1488.54 935.544 1490.47 938.073 1493.84 936.81Z"/><path fill="#151515" d="M1612.4 935.807L1615.57 938.061C1615.24 939.595 1615.13 939.666 1616.11 940.819C1615.36 940.769 1614.32 940.553 1613.6 940.903C1613.33 941.62 1613.34 953.529 1612.73 957.174C1611.49 957.039 1606.56 957.202 1606.75 955.636C1608.15 943.673 1600.9 938.962 1612.4 935.807Z"/><path fill="#EAEAEA" d="M1612.4 935.807L1615.57 938.061C1615.24 939.595 1615.13 939.666 1616.11 940.819C1615.36 940.769 1614.32 940.553 1613.6 940.903C1613.33 941.62 1613.34 953.529 1612.73 957.174C1611.85 950.044 1612.16 942.994 1612.4 935.807Z"/><path fill="#151515" d="M422.801 932.754C422.387 934.604 422.528 934.773 423.037 936.678C428.987 955.029 415.452 973.666 418.172 936.917C418.446 935.569 418.677 934.424 418.881 933.065C420.141 933.712 421.658 933.591 422.801 932.754Z"/><path fill="#EAEAEA" d="M422.801 932.754C422.387 934.604 422.528 934.773 423.037 936.678C421.321 936.803 419.897 936.93 418.172 936.917C418.446 935.569 418.677 934.424 418.881 933.065C420.141 933.712 421.658 933.591 422.801 932.754Z"/><path fill="#151515" d="M709.556 936.128C709.859 936.187 715.146 936.861 715.248 937.607C716.089 943.773 715.573 951.018 715.565 957.359C714.776 957.223 710.272 956.685 710.191 956.36C708.984 951.527 709.591 941.099 709.556 936.128Z"/><path fill="#151515" d="M1161.73 936.772C1168.8 937.676 1167.82 936.648 1167.89 944.276C1167.94 948.563 1167.95 952.961 1167.99 957.25C1160.94 956.217 1161.82 956.767 1161.75 949.163C1161.7 945.083 1161.74 940.865 1161.73 936.772Z"/><path fill="#151515" d="M1585.3 936.255C1592.72 937.496 1590.83 936.714 1591.09 944.999C1591.22 949.245 1591.14 953.447 1590.81 957.691C1584.26 956.25 1585.08 957.159 1585.13 950.013C1585.16 945.436 1585.13 940.847 1585.3 936.255Z"/><path fill="#151515" d="M2278.3 936.276C2285.64 937.716 2283.86 936.839 2284.1 944.999C2284.23 949.25 2284.14 953.473 2283.87 957.726C2277.06 956.285 2278.2 956.996 2278.14 949.774C2278.1 945.264 2278.1 940.793 2278.3 936.276Z"/><path fill="#151515" d="M348.976 936.254C349.246 936.296 354.239 936.753 354.319 937.54C354.96 943.835 354.688 950.677 354.91 957.122C354.882 957.119 353.291 956.947 353.256 956.956C353.025 957.009 349.636 956.828 349.484 956.231C348.535 952.497 348.981 939.923 348.976 936.254Z"/><path fill="#151515" d="M418.881 933.065C417.392 932.301 416.591 930.642 416.92 929.002C417.248 927.362 418.625 926.138 420.292 926.006C421.96 925.873 423.513 926.864 424.096 928.432C424.679 930 424.15 931.765 422.801 932.754C421.658 933.591 420.141 933.712 418.881 933.065Z"/><path fill="#151515" d="M1501.93 926.484C1503.61 925.344 1505.9 925.78 1507.04 927.459C1508.18 929.138 1507.74 931.424 1506.07 932.566C1504.39 933.708 1502.1 933.272 1500.96 931.593C1499.81 929.913 1500.25 927.625 1501.93 926.484Z"/><path fill="#151515" d="M349.919 926.534C351.036 925.805 352.466 925.757 353.63 926.408C354.794 927.06 355.501 928.303 355.464 929.637C355.428 930.971 354.654 932.174 353.456 932.761C351.753 933.595 349.696 932.959 348.759 931.311C347.823 929.662 348.331 927.57 349.919 926.534Z"/><path fill="#151515" d="M1162.92 926.533C1164.03 925.796 1165.47 925.74 1166.63 926.389C1167.8 927.038 1168.51 928.284 1168.48 929.62C1168.44 930.957 1167.66 932.161 1166.46 932.745C1164.76 933.568 1162.72 932.934 1161.78 931.295C1160.85 929.657 1161.35 927.574 1162.92 926.533Z"/><path fill="#151515" d="M2279.06 926.53C2280.69 925.453 2282.89 925.895 2283.98 927.519C2285.07 929.144 2284.65 931.345 2283.04 932.451C2281.4 933.57 2279.17 933.142 2278.06 931.497C2276.96 929.852 2277.4 927.621 2279.06 926.53Z"/><path fill="#151515" d="M1607.41 926.584C1609.02 925.426 1611.27 925.804 1612.41 927.426C1613.55 929.048 1613.15 931.289 1611.52 932.415C1609.91 933.525 1607.71 933.131 1606.58 931.532C1605.45 929.933 1605.83 927.726 1607.41 926.584Z"/><path fill="#151515" d="M710.281 926.599C711.848 925.412 714.082 925.729 715.257 927.305C716.431 928.882 716.096 931.113 714.511 932.275C712.943 933.424 710.742 933.094 709.58 931.535C708.419 929.976 708.732 927.772 710.281 926.599Z"/><path fill="#151515" d="M1586.32 926.535C1587.87 925.428 1590.02 925.757 1591.17 927.277C1592.32 928.797 1592.05 930.957 1590.56 932.148C1589.56 932.949 1588.21 933.144 1587.02 932.656C1585.84 932.169 1585.01 931.076 1584.86 929.803C1584.72 928.531 1585.27 927.279 1586.32 926.535Z"/><path fill="#151515" d="M1526.32 926.383C1527.39 925.735 1528.74 925.732 1529.82 926.375C1530.9 927.017 1531.54 928.202 1531.49 929.458C1531.44 930.714 1530.7 931.839 1529.56 932.387C1527.92 933.184 1525.94 932.545 1525.07 930.938C1524.2 929.33 1524.75 927.324 1526.32 926.383Z"/></svg>