<svg width="2660" height="508" viewBox="0 0 2660 508" fill="none" xmlns="http://www.w3.org/2000/svg">
<rect width="2660" height="508" fill="#D9D9D9"/>
<path d="M1994.09 379.983C1988.4 379.168 1968.76 379.579 1962.14 379.584L1880.82 379.675C1867.98 379.694 1854.37 380.22 1841.6 379.193C1831.31 378.367 1826.29 370.061 1826.27 360.223C1826.19 313.674 1826.27 267.099 1826.25 220.538L1826.26 167.591C1826.27 158.617 1825.93 149.244 1826.71 140.338C1827.58 130.249 1837.91 127.402 1846.31 127.105C1861.06 126.583 1875.89 126.838 1890.63 126.865L1974.88 127.007C1987.12 140.112 2000.66 154.361 2013.54 166.683L2013.92 215.512C2021.6 220.972 2030.22 228.014 2036.3 235.267C2033.26 277.677 2037.07 330.325 2035.19 374.284C2033.2 376.913 2031.07 379.849 2028.98 382.363C2022.3 382.561 1998.08 383.494 1994.09 379.983Z" fill="#151515"/>
<path d="M2013.92 215.512C2021.6 220.972 2030.22 228.014 2036.3 235.267C2033.26 277.677 2037.07 330.325 2035.19 374.284C2033.2 376.913 2031.07 379.849 2028.98 382.363C2022.3 382.561 1998.08 383.494 1994.09 379.983C2002.86 379.103 2004.15 378.668 2010.75 372.809C2010.87 372.563 2011.01 372.321 2011.12 372.07C2011.32 371.654 2011.48 371.228 2011.67 370.809C2016.41 360.121 2013.58 248.547 2013.56 227.704L2013.92 215.512Z" fill="white"/>
<path d="M2013.92 215.512C2021.6 220.972 2030.22 228.014 2036.3 235.267C2033.26 277.677 2037.07 330.325 2035.19 374.284C2033.2 376.913 2031.07 379.849 2028.98 382.363C2022.3 382.561 1998.08 383.494 1994.09 379.983C2002.86 379.103 2004.15 378.668 2010.75 372.809C2011.54 374.308 2011.32 373.829 2012.76 374.98C2018.19 375.118 2021.48 375.859 2025.49 372.337C2028.36 365.48 2027.68 255.964 2027.31 238.883C2023.71 234.839 2019.35 230.964 2015.36 227.26L2013.56 227.704L2013.92 215.512Z" fill="#ECEAF8"/>
<path d="M1839.1 133.642C1849.15 132.104 1965.47 132.19 1970.61 133.602C1970.55 143.707 1970.87 156.442 1970.24 166.259C1970.73 170.103 1970.03 169.585 1972.23 171.58C1974.1 171.636 1976.08 171.736 1977.94 171.727L2007.43 171.704C2007.43 182.897 2007.72 194.615 2007.59 205.697C2007.69 211.187 2007.87 216.839 2007.76 222.313C2007.55 254.04 2007.5 285.767 2007.63 317.494C2007.67 333.116 2007.97 348.841 2007.35 364.441C2007.14 369.824 2001.16 373.22 1996.29 373.385C1977.85 374.009 1959.34 373.512 1940.88 373.663C1911.11 373.646 1881.43 373.714 1851.67 373.533C1846.67 373.503 1840.81 372.753 1835.98 371.477C1833.34 368.51 1832.91 363.118 1832.5 359.213C1832.04 354.756 1832.19 349.977 1832.19 345.389C1832.23 312.756 1832.38 280.115 1832.38 247.481C1832.41 247.121 1832.44 246.761 1832.47 246.401C1831.63 227.043 1832.78 204.135 1832.29 184.447C1832.08 175.857 1831.92 146.508 1833.18 139.708C1835.26 136.189 1835.54 135.552 1839.1 133.642Z" fill="white"/>
<path d="M1833.18 139.709C1835.26 136.19 1835.54 135.553 1839.1 133.643C1848.63 134.658 1863.82 134.261 1873.84 134.257L1932.27 134.219C1901.65 161.246 1873.22 190.866 1842.87 218.204C1839.86 220.914 1836.84 223.621 1833.64 226.098L1833.68 171.687C1833.71 164.422 1834.13 146.425 1833.18 139.709Z" fill="white"/>
<path d="M1839.1 133.642C1849.15 132.104 1965.47 132.19 1970.61 133.602C1970.55 143.707 1970.87 156.442 1970.24 166.259C1970.73 170.103 1970.03 169.585 1972.23 171.58C1974.1 171.636 1976.08 171.736 1977.94 171.727L2007.43 171.704C2007.43 182.897 2007.72 194.615 2007.59 205.697C2007.69 211.187 2007.87 216.839 2007.76 222.313C1982.54 217.71 1952.44 217.13 1934.74 239.268C1934.76 245.91 1935.67 301.194 1933.51 303.512C1932.75 277.222 1934.48 248.365 1933.18 222.574L1934.89 225.046C1939.44 223.948 1946.25 217.63 1950.32 215.735C1967.28 207.824 1985.97 209.892 2002.91 213.094C1987.18 184.857 1955.54 171.942 1933.94 144.657C1907.32 173.821 1871.95 200.822 1843.88 229.167C1837.18 235.939 1834.05 236.61 1832.47 246.401C1831.63 227.043 1832.78 204.135 1832.29 184.447C1832.08 175.857 1831.92 146.508 1833.18 139.708C1834.13 146.424 1833.71 164.421 1833.68 171.686L1833.64 226.097C1836.84 223.62 1839.86 220.913 1842.87 218.203C1873.22 190.865 1901.65 161.245 1932.27 134.218L1873.84 134.256C1863.82 134.26 1848.63 134.657 1839.1 133.642Z" fill="#ECEAF8"/>
<path d="M1970.61 133.604C1970.55 143.709 1970.87 156.443 1970.24 166.26C1961.44 160.591 1943.97 142.396 1936.88 134.315C1945.75 134.04 1963.05 134.828 1970.61 133.604Z" fill="white"/>
<path d="M1977.94 171.728L2007.43 171.705C2007.43 182.898 2007.72 194.616 2007.59 205.698C2005.97 203.589 2003.04 197.639 2002.24 196.801C1994.42 188.663 1985.25 180.252 1977.94 171.728Z" fill="white"/>
<path d="M1927.39 213.004C1927.3 204.231 1925.81 164.339 1929.37 159.293C1931.78 161.286 1933.53 164.988 1933.52 167.72C1933.46 182.366 1933.35 197.536 1933.5 212.156C1938.19 207.561 1945.32 200.061 1950.62 196.734L1953.19 196.792L1953.97 198.396C1950.89 207.135 1938.76 213.991 1933.18 222.575C1934.48 248.366 1932.75 277.223 1933.51 303.513C1933.08 313.837 1934.63 335.839 1932.41 344.544L1930.78 345.295C1930.45 345.017 1930.11 344.752 1929.8 344.462C1925.65 340.661 1927.3 311.766 1927.26 304.307C1922.46 299.039 1905.86 285.921 1907.69 279.731L1911.12 277.883C1916.65 270.953 1910.06 222.32 1914.83 209.041C1911.52 205.924 1907.42 202.714 1905.63 198.722L1906.09 196.67C1907.25 196.103 1908.67 195.06 1909.93 195.959C1915.46 199.918 1922.5 208.296 1927.39 213.004Z" fill="#151515"/>
<path d="M1914.83 209.041C1918.71 213.06 1924.11 218.303 1927.36 222.641L1927.41 295.55C1923.51 291.689 1913.02 281.888 1911.12 277.883C1916.65 270.953 1910.06 222.32 1914.83 209.041Z" fill="url(#paint0_linear_0_1)"/>
<path d="M1868.59 237.225C1868.81 237.262 1872.56 237.63 1873.43 238.636C1879.75 245.97 1892.75 256.57 1896.8 264.852C1896.95 265.165 1896.27 266.104 1896.11 266.16C1889.43 268.386 1862.28 267.483 1856.07 267.479C1837.13 267.067 1855.89 257.801 1866.14 261.362C1866.6 261.525 1884.89 261.288 1886.94 261.262C1880.96 254.659 1867.86 245.577 1868.59 237.225Z" fill="#151515"/>
<path d="M1981.25 237.369C1989.64 241.223 1982.14 244.827 1978.18 249.718C1974.84 253.852 1970.14 258.214 1966.34 261.976C1973.21 262.046 1992.79 261.641 2000.38 262.572C2002.2 262.794 2005.03 267.232 1998.07 268.361C1983.24 268.221 1967.55 268.426 1952.83 267.872C1961.38 258.401 1972.45 246.342 1981.25 237.369Z" fill="#151515"/>
<path d="M1976.39 137.648C1982.48 142.941 1997.08 158.905 2003.33 165.483L1976.53 165.376C1976.49 156.118 1976.59 146.907 1976.39 137.648Z" fill="white"/>
<path d="M303.932 113.009C326.092 112.549 335.088 128.972 331.249 149.179C344.568 158.201 361.438 171.125 374.304 181.059C383.488 173.398 394.246 169.305 405.681 175.447C411.771 178.793 416.312 184.387 418.335 191.035C420.499 197.956 419.783 205.457 416.349 211.844C411.775 220.2 406.054 222.801 397.746 225.406C397.462 245.48 397.637 265.99 397.596 286.099C408.53 290.074 417.122 295.034 419.334 307.833C420.624 315.281 418.756 322.931 414.18 328.947C410.057 334.484 403.859 338.106 397.012 338.981C388.352 340.024 382.343 336.845 375.992 331.696C361.096 340.558 346.333 349.642 331.708 358.944C334.858 377.499 327.992 388.945 309.505 394.127C289.343 393.6 280.928 383.011 281.1 363.587C265.091 353.471 249.161 343.231 233.313 332.866C223.933 338.502 215.975 341.704 204.997 336.618C198.82 333.685 194.061 328.416 191.771 321.973C189.167 314.867 189.688 306.992 193.206 300.292C197.743 291.806 203.868 288.882 212.323 286.212L212.295 225.79C209.218 224.685 205.104 223.247 202.431 221.534C195.968 217.468 191.565 210.821 190.34 203.284C189.138 195.769 191.155 188.094 195.896 182.141C200.256 176.676 206.684 173.259 213.653 172.704C222.78 171.999 228.34 175.409 234.784 180.876C245.617 175.392 271.514 157.465 282.815 150.025C277.868 130.761 284.812 118.282 303.932 113.009Z" fill="#151515"/>
<path d="M284.61 267.744C286.165 269.776 287.696 271.82 289.27 273.839C294.585 278.007 296.902 278.972 303.407 281.214L303.384 341.158C291.556 344.591 288.863 347.172 282.192 357.364C267.676 346.732 252.589 337.816 237.941 327.705C241.86 318.038 242.798 312.606 239.924 302.354C238.558 300.546 236.366 297.048 235.136 295.075C243.836 291.561 276.438 273.267 284.61 267.744Z" fill="white"/>
<path d="M284.61 267.744C286.165 269.776 287.696 271.82 289.27 273.839C282.274 276.851 243.931 297.8 239.924 302.354C238.558 300.546 236.366 297.048 235.136 295.075C243.836 291.561 276.438 273.267 284.61 267.744Z" fill="#B5B4B9"/>
<path d="M328.626 154.881C342.335 165.826 356.474 176.222 371.008 186.045C367.355 195.449 367.237 200.373 370.596 210.105C372.068 212.601 374.016 214.932 375.303 217.253C371.356 219.016 333.816 241.578 330.896 243.859C329.307 241.451 327.888 239.44 326.181 237.116C319.795 231.146 318.319 230.009 309.8 228.141C310.011 207.547 309.815 186.697 309.777 166.083C319.782 163.649 321.724 162.17 328.626 154.881Z" fill="white"/>
<path d="M370.596 210.105C372.068 212.601 374.016 214.932 375.303 217.253C371.356 219.016 333.816 241.578 330.896 243.859C329.307 241.451 327.888 239.44 326.181 237.116C338.647 230.224 358.886 218.026 370.596 210.105Z" fill="#B5B4B9"/>
<path d="M285.526 155.643C289.881 157.495 292.078 162.53 303.393 166.074L303.407 227.817C294.263 230.392 291.322 232.348 285.046 239.227C279.577 236.163 273.984 232.301 268.719 228.824C258.922 222.398 249.12 215.852 239.054 209.866C242.908 200.386 241.969 195.514 239.091 186.37C254.353 177.309 270.934 165.752 285.526 155.643Z" fill="white"/>
<path d="M330.896 243.858C333.816 241.577 371.356 219.015 375.303 217.252C380.726 222.123 384.283 223.662 391.203 226.156L391.262 286.266C383.048 288.173 380.951 289.554 374.626 295.147C373.78 296.654 370.844 301.138 369.832 302.367C368.164 299.15 331.113 273.924 326.205 272.127C327.035 270.514 329.595 266.84 330.784 264.831C333.759 256.376 333.48 252.109 330.896 243.858Z" fill="white"/>
<path d="M330.784 264.832C336.841 270.829 367.359 291.526 374.626 295.148C373.78 296.655 370.844 301.139 369.832 302.368C368.164 299.151 331.113 273.925 326.205 272.128C327.035 270.515 329.595 266.841 330.784 264.832Z" fill="#B5B4B9"/>
<path d="M218.609 226.051C227.71 223.096 229.494 222.561 236.046 215.738C250.877 224.663 266.984 235.774 282.107 245.189C280.762 254.42 280.932 259.221 284.61 267.745C276.438 273.268 243.836 291.562 235.136 295.076C228.981 289.164 226.653 288.402 218.554 286.301L218.609 226.051Z" fill="white"/>
<path d="M326.205 272.127C331.113 273.924 368.164 299.15 369.832 302.367C366.834 311.476 367.806 317.611 371.499 326.2C357.122 335.378 342.617 344.354 327.988 353.125C322.306 345.663 318.478 343.552 309.752 341.208L309.731 280.82C317.829 278.9 320.122 277.65 326.205 272.127Z" fill="white"/>
<path d="M389.247 179.587C399.873 176.986 410.596 183.486 413.207 194.11C415.817 204.734 409.326 215.463 398.705 218.083C388.07 220.706 377.324 214.206 374.71 203.568C372.097 192.931 378.607 182.19 389.247 179.587Z" fill="white"/>
<path d="M301.159 120.627C308.03 118.558 315.483 120.368 320.64 125.359C325.797 130.349 327.851 137.738 326.009 144.674C324.167 151.609 318.718 157.006 311.765 158.78C301.326 161.444 290.672 155.275 287.787 144.895C284.901 134.515 290.843 123.733 301.159 120.627Z" fill="white"/>
<path d="M389.059 293.528C396.022 291.765 403.394 293.915 408.318 299.144C413.242 304.373 414.946 311.86 412.769 318.705C410.593 325.55 404.877 330.678 397.837 332.102C387.309 334.232 377.004 327.573 374.621 317.099C372.237 306.626 378.646 296.163 389.059 293.528Z" fill="white"/>
<path d="M300.678 235.512C311.108 232.125 322.304 237.868 325.637 248.315C328.971 258.763 323.17 269.928 312.705 273.208C302.317 276.463 291.251 270.714 287.942 260.343C284.632 249.971 290.324 238.875 300.678 235.512Z" fill="white"/>
<path d="M301.6 348.615C312.15 345.83 322.963 352.113 325.768 362.657C328.574 373.202 322.312 384.027 311.773 386.853C301.205 389.686 290.344 383.403 287.531 372.83C284.718 362.257 291.021 351.408 301.6 348.615Z" fill="white"/>
<path d="M212.191 179.507C222.879 177.501 233.182 184.499 235.257 195.174C237.332 205.849 230.401 216.197 219.739 218.341C208.98 220.505 198.516 213.496 196.422 202.723C194.328 191.95 201.405 181.531 212.191 179.507Z" fill="white"/>
<path d="M211.451 293.558C222.055 291.153 232.61 297.765 235.073 308.355C237.537 318.945 230.985 329.537 220.408 332.06C209.748 334.602 199.055 327.987 196.571 317.312C194.088 306.638 200.763 295.982 211.451 293.558Z" fill="white"/>
<path d="M1031.4 117.042C1037.32 116.537 1042.94 116.459 1048.87 116.494C1103.44 116.827 1158.16 116.077 1212.7 116.967C1228.13 117.88 1236.57 130.952 1236.78 145.259C1237.01 161.296 1236.43 177.017 1236.52 192.981C1236.25 211.229 1237.67 229.854 1236.67 248.066C1235.94 261.383 1228.42 270.144 1216.18 274.566C1198.54 276.087 1037.21 276.062 1029.6 273.296C1023.09 270.929 1017.31 266.5 1014.52 259.985C1012.66 255.636 1011.86 250.692 1011.51 246.002C1010.03 226.406 1011.45 205.796 1011.57 186.107C1011.64 172.149 1010.49 157.624 1011.43 143.764C1011.7 139.891 1012.36 136.035 1013.85 132.43C1017.27 124.14 1023.64 120.426 1031.4 117.042Z" fill="#151515"/>
<path d="M1032.5 122.962C1050.72 121.958 1211.79 121.399 1218.89 124.421C1223.6 126.431 1227.71 131.556 1229.31 136.338C1232.25 145.096 1231.38 235.441 1230.14 249.419C1229.86 252.574 1229.3 255.639 1227.74 258.446C1224.46 264.343 1219.85 266.768 1213.71 268.734C1173.46 269.799 1132.95 268.897 1092.66 268.919C1077.86 268.928 1045.49 270.761 1033.09 268.077C1028.21 267.02 1023.59 263.338 1021 259.139C1018.75 255.487 1018.15 250.892 1017.81 246.681C1016.89 235.131 1016.91 144.158 1019.03 137.168C1021.31 129.695 1025.94 126.392 1032.5 122.962Z" fill="white"/>
<path d="M1165.39 143.956C1167.43 143.91 1168.77 144 1171.3 144.108C1189.17 144.867 1181.05 162.674 1195.56 171.233C1200.35 174.062 1199.72 199.377 1197.92 204.822C1194.82 214.236 1190.72 218.38 1181.52 223.661L1181.56 225.41C1181.67 230.165 1182.32 234.974 1178.99 238.454C1174.6 234.59 1175.76 224.763 1175.9 219.171C1182.23 216.832 1184.88 215.693 1189.24 210.012C1194.88 202.651 1197.26 176.969 1187.88 172.125C1172.5 164.191 1189.54 157.949 1172.25 149.786C1152.91 148.92 1161.42 159.384 1154.86 168.928C1152.39 170.307 1148.05 172.515 1146.75 175.065C1142.98 182.479 1143.61 196.22 1145.98 203.933C1148.89 213.418 1153.3 215.677 1161.19 219.811C1161.38 226.533 1162.44 233.486 1158.41 238.862L1157.01 238.115C1154.76 233.43 1155.39 228.929 1155.57 223.702C1149.86 220.171 1146.44 218.346 1142.78 211.834C1137.42 202.925 1136.21 179.647 1142.13 171.156C1145.67 166.09 1153.59 165.181 1153.67 152.847C1153.69 148.531 1161.38 145.566 1165.39 143.956Z" fill="#151515"/>
<path d="M1073.69 159.117C1080.46 159.288 1083.52 159.801 1089.67 163.212C1106 172.268 1099.65 188.499 1100.46 203.577C1100.63 206.591 1099.58 211.437 1101.85 213.798C1103.22 215.217 1104.4 215.742 1103.86 217.851C1096.27 226.005 1096.2 203.113 1096.15 201.217C1095.68 184.278 1100.7 175.529 1084.75 165.371L1083.36 164.985C1064.73 159.613 1051.4 172.39 1052.6 190.797C1054.95 194.398 1049.4 208.352 1043.91 206.281C1037.89 204.014 1049.25 201.135 1048.06 191.898C1045.77 173.972 1056.01 162.083 1073.69 159.117Z" fill="#151515"/>
<path d="M1072.41 151.012C1098.5 150.436 1112.71 167.204 1109.39 191.039C1108.64 196.469 1110.2 203.706 1108.93 209.184C1108.65 210.38 1106.88 211.274 1105.81 209.964C1101.64 188.089 1113.17 177.7 1093.86 161.444C1088.92 158.384 1083.74 155.974 1077.82 155.799C1041.45 154.721 1049 185.832 1043.37 189.851C1042.68 190.347 1042.69 190.395 1041.82 190.096C1041.06 189.838 1040.66 188.489 1040.57 187.81C1039.62 181.181 1043.42 168.735 1047.43 163.379C1053.18 155.689 1063.41 152.547 1072.41 151.012Z" fill="#151515"/>
<path d="M1072.62 166.902C1097.66 167.583 1093.67 194.743 1091.2 212.751C1093.36 216.725 1099.53 222.467 1096.22 224.747C1092.48 227.331 1088.15 217.68 1086.72 215.225C1088.18 202.429 1091.08 184.521 1083.08 173.665L1081.9 173.198C1071.21 168.846 1060.86 175.635 1060.35 187.3C1060.12 197.342 1061.72 201.414 1055.39 209.331C1051.76 216.747 1040.76 214.617 1048.01 209.51C1066.61 196.4 1043.54 176.52 1072.62 166.902Z" fill="#151515"/>
<path d="M1073.28 175.723C1088.55 176.887 1083 186.087 1084.72 198.456C1086.11 209.536 1079.59 217.414 1075.08 226.205C1070.91 234.349 1065.15 231.329 1071.08 223.496C1081.51 209.717 1080.76 199.4 1079.43 182.197C1078.34 181.55 1075.97 180.192 1074.34 180.669C1062 184.283 1074.27 203.931 1061.41 215.395C1060.42 216.808 1053.1 223.477 1051.81 222.738C1046.35 219.596 1058.3 213.892 1060.88 208.373C1067.55 194.086 1056.73 183.934 1073.28 175.723Z" fill="#151515"/>
<path d="M1165.46 176.858C1171.43 176.749 1177.89 177.094 1179.86 184.414C1181.49 190.475 1173.92 196.188 1176.27 203.787C1175.98 206.518 1172.01 206.2 1171.24 203.81C1167.76 193.021 1177.5 190.668 1172.97 182.12C1160.03 182.25 1161.95 186.381 1166.33 194.32C1166.95 195.442 1167.42 204.174 1165.8 204.854C1158.81 207.827 1161.99 197.158 1160.97 195.364C1156.21 186.957 1153.86 184.014 1165.46 176.858Z" fill="#151515"/>
<path d="M1072.82 143.041C1081.9 142.302 1087.04 143.457 1095.32 147.297C1097.65 148.688 1102.73 150.602 1103.79 153.21C1104.34 154.552 1102.68 156.844 1101.23 157.134C1100.86 156.95 1100.46 156.677 1100.17 156.401C1093.78 150.467 1087.05 148.767 1078.55 147.571C1069 148.108 1062.08 149.201 1053.61 154.092C1051.61 154.925 1049.03 157.594 1046.75 157.348C1045.46 157.209 1044.7 153.959 1045.45 153.377C1053.37 147.19 1063.14 144.631 1072.82 143.041Z" fill="#151515"/>
<path d="M1145.01 246.762C1159.69 245.945 1176.25 246.512 1190.92 247.127C1192.18 247.18 1192.19 251.887 1192.24 252.56C1179.56 252.663 1166.86 252.518 1154.18 252.56C1147.1 252.583 1145.84 253.401 1145.01 246.762Z" fill="#151515"/>
<path d="M1073.05 184.014C1074.94 184.996 1076.38 185.316 1076.5 187.74C1077.57 209.073 1073.67 214.167 1060.24 229.325C1055.67 225.294 1057.03 225.192 1062.45 220.127C1075.53 207.9 1069.17 197.423 1073.05 184.014Z" fill="#151515"/>
<path d="M1082.45 221.977C1088.58 223.843 1086.04 225.27 1083.98 231.652C1077.96 229.288 1080.46 228.227 1082.45 221.977Z" fill="#151515"/>
<path d="M1227.55 276.876C1227.8 276.86 1228.05 276.836 1228.3 276.829C1233.39 276.673 1238.19 277.247 1242.01 280.96C1245.38 284.239 1246.92 288.6 1246.93 293.248C1246.95 301.711 1241.54 307.322 1235.97 312.966C1222.42 326.68 1175.95 371.779 1161.27 378.388C1149.78 383.564 1039.77 380.793 1018.77 380.79L1018.84 390.805L964.501 390.888L964.475 352.877L964.485 293.8C974.277 294.007 1011.31 292.803 1017.78 294.783C1018.54 297.045 1018.54 297.327 1019.88 299.401C1025.92 299.935 1032.22 299.765 1038.31 299.764C1073.33 299.714 1107.39 299.997 1142.51 299.646C1163.92 299.432 1171.72 320.962 1155.96 335.109C1154.2 336.685 1153.86 336.347 1152.75 338.651L1153.51 340.351C1160.01 340.432 1212.43 283.685 1227.55 276.876Z" fill="#151515"/>
<path d="M1228.52 282.697C1231.6 282.717 1234.57 283.073 1237.08 285.06C1239.55 287.004 1241.04 289.944 1241.14 293.089C1241.48 306.778 1181.91 352.452 1170.91 365.255C1159.54 378.485 1124.35 374.628 1106.11 374.641L1018.66 374.729L1018.63 305.815L1057.82 305.796L1117.51 305.74C1124.15 305.739 1141.16 305.37 1146.85 306.071C1149.33 306.395 1151.67 307.412 1153.59 309.004C1164.35 318.011 1157.12 331.416 1144.26 332.351C1124.39 333.796 1103.11 332.202 1083.29 332.661C1080.6 334.215 1081.52 333.102 1080.61 336.234L1081.8 337.87C1086.29 339.534 1136.18 338.887 1144.86 338.917C1147.64 343.388 1150.09 346.857 1153.21 351.109L1198.76 308.747C1206.75 301.357 1220.02 288.379 1228.52 282.697Z" fill="white"/>
<path d="M970.716 300.203L1012.28 300.287C1012.28 320.061 1014.04 367.346 1011.92 384.628L970.711 384.657C970.374 356.528 971.142 328.357 970.716 300.203Z" fill="white"/>
<path d="M987.087 354.367C990.697 352.657 994.957 353.056 998.187 355.408C1001.42 357.76 1003.11 361.69 1002.6 365.654C1002.08 369.618 999.437 372.984 995.717 374.43C990.227 376.558 984.047 373.964 981.717 368.561C979.397 363.157 981.767 356.884 987.087 354.367Z" fill="#151515"/>
<path d="M989.197 360.207C991.457 358.821 994.407 359.512 995.817 361.755C997.217 363.998 996.557 366.955 994.327 368.381C992.067 369.825 989.067 369.15 987.637 366.878C986.217 364.607 986.917 361.61 989.197 360.207Z" fill="white"/>
<path d="M718.613 128.65C724.949 124.391 735.742 117.727 741.249 113.111C774.728 143.85 800.286 150.648 845.193 153.486L844.816 232.532C844.647 275.721 849.273 319.247 815.282 351.879C796.96 369.468 773.966 381.726 750.786 391.555C745.164 388.377 729.523 379.072 724.38 376.965C718.742 379.196 712.749 381.213 707.014 383.239C702.188 380.887 689.341 375.776 688.693 369.835C694.273 368.55 702.513 373.585 707.622 376.26C716.272 373.084 723.851 370.262 732.3 366.54C742.089 354.657 769.558 341.968 780.51 325.287C787.808 316.146 790.578 304.741 793.141 293.563C794.464 287.791 793.746 286.274 798.173 282.222L798.312 163.892C765.489 161.608 747.119 157.648 719.631 137.959C704.742 142.16 694.246 147.615 678.037 148.972C653.898 158.548 641.177 159.785 615.869 160.776L615.615 241.252C615.486 294.82 612.981 328.363 665.73 357.791C666.906 358.447 666.077 360.909 665.869 361.815L663.823 362.61C655.674 360.528 641.324 349.358 635.457 343.503C624.74 332.999 617 319.842 613.026 305.372C607.918 286.398 609.584 254.655 609.575 233.975L609.477 154.207C650.6 153.044 677.89 150.067 708.924 118.812L718.613 128.65Z" fill="white"/>
<path d="M708.924 118.812L718.613 128.651L724.58 133.37C750.106 151.392 773.642 157.579 804.747 157.677L804.597 234.559C804.58 256.494 806.234 285.846 800.755 306.4C796.881 321.412 789.001 335.089 777.958 345.971C765.897 358.017 749.895 366.992 734.104 373.32L724.38 376.966C718.742 379.197 712.749 381.214 707.014 383.24C702.188 380.888 689.341 375.777 688.693 369.836C694.273 368.551 702.513 373.585 707.622 376.26C716.272 373.084 723.851 370.263 732.3 366.541C742.089 354.658 769.558 341.969 780.51 325.288C787.808 316.147 790.578 304.742 793.141 293.564C794.464 287.792 793.746 286.275 798.173 282.223L798.312 163.893C765.489 161.609 747.119 157.649 719.631 137.96C704.742 142.161 694.246 147.616 678.037 148.973C653.898 158.549 641.177 159.785 615.869 160.776L615.615 241.253C615.486 294.821 612.981 328.364 665.73 357.792C666.906 358.448 666.077 360.909 665.869 361.815L663.823 362.611C655.674 360.529 641.324 349.358 635.457 343.503C624.74 332.999 617 319.842 613.026 305.372C607.918 286.398 609.584 254.656 609.575 233.976L609.477 154.208C650.6 153.045 677.89 150.067 708.924 118.812Z" fill="#151515"/>
<path d="M732.3 366.541C742.089 354.658 769.558 341.969 780.51 325.288C787.808 316.147 790.578 304.742 793.141 293.564C794.464 287.792 793.746 286.275 798.173 282.223C794.868 323.463 772.703 353.717 732.3 366.541Z" fill="#C6B8F7"/>
<path d="M711.196 130.877C713.918 132.846 717.033 135.713 719.631 137.96C704.742 142.161 694.246 147.616 678.037 148.973C688.223 143.824 691.213 141.616 700.41 135.447C704.584 135.638 709.175 134.799 711.196 130.877Z" fill="#C6B8F7"/>
<path d="M700.41 135.448C703.66 132.749 707.99 127.27 711.196 130.878C709.175 134.8 704.584 135.639 700.41 135.448Z" fill="#ECEAF8"/>
<path d="M718.613 128.65C724.949 124.391 735.742 117.727 741.249 113.111C774.728 143.85 800.286 150.648 845.193 153.486L844.816 232.532C844.647 275.721 849.273 319.247 815.282 351.879C796.96 369.468 773.966 381.726 750.786 391.555C745.164 388.377 729.523 379.072 724.38 376.965L734.104 373.319C737.019 376.093 748.404 381.407 752.414 383.161C771.929 372.774 794.303 362.567 810.151 347.054C839.477 318.349 837.184 282.423 837.457 245.19C837.666 216.916 837.654 188.64 837.421 160.366C801.198 156.246 768.602 150.452 741.28 123.224C733.906 126.839 731.375 128.598 724.58 133.369L718.613 128.65Z" fill="#C6B8F7"/>
<path d="M2249.04 121.791L2403.09 135.31C2412.83 136.232 2422.66 137.104 2432.45 137.702C2436.42 137.944 2439.97 138.304 2441.6 142.182C2437.33 148.667 2381.86 187.719 2372.23 194.79C2358.24 205.135 2301.69 249.734 2290.86 253.966L2289.11 252.824C2286.97 246.976 2294.56 194.301 2295.72 183.071C2283.02 168.27 2261.4 141.714 2248.94 125.084C2248.98 123.803 2249.02 122.705 2249.04 121.791Z" fill="#151515"/>
<path d="M2260.8 129.229C2293.72 131.805 2326.62 134.573 2359.5 137.534C2378.92 139.2 2401.15 140.619 2420.28 143.14L2389.57 152.242C2360.44 161.428 2329.55 170.069 2300.18 178.737C2294.81 172.284 2262.85 134.682 2260.8 129.229Z" fill="white"/>
<path d="M2422.27 149.08L2422.77 149.422C2422.19 150.936 2307.47 235.183 2296.08 243.84L2295.42 243.252C2294.44 238.486 2301.04 192.097 2301.98 184.429C2341.94 172.999 2382.34 159.93 2422.27 149.08Z" fill="white"/>
<path d="M1522.65 124.256L1530.4 131.639C1532.52 133.274 1534.53 134.781 1536.58 136.524C1539.37 134.034 1544.09 130.659 1547.8 130.103C1550.71 129.182 1551.87 128.727 1554.61 127.384C1580.66 148.435 1614.14 156.831 1647.2 155.88L1647.08 157.277C1645.99 170.589 1646.98 184.41 1646.46 197.581C1644.07 258.902 1660.7 326.51 1600.39 366.77C1585.73 376.555 1570.91 383.984 1555.53 391.96C1547.19 388.035 1539.47 384.352 1531.33 380.037C1530.65 380.408 1527.84 381.955 1527.31 382.009C1520.56 382.701 1508.13 377.343 1505.95 371.251L1507.62 370.094C1513.8 369.848 1519.57 373.094 1525.27 375.674C1545.34 366.872 1567.01 357.936 1582.87 342.342C1612.19 313.513 1608.41 276.651 1608.36 239.272L1608.24 164.78C1576.89 163.686 1555.55 159.124 1530.03 140.348C1528.27 138.424 1526.51 137.215 1524.66 135.413C1521.62 132.481 1520.42 131.765 1518.23 128.195C1519.6 128.326 1520.97 128.478 1522.33 128.649C1522.18 126.91 1522.09 125.925 1522.65 124.256Z" fill="#8770E8"/>
<path d="M1615.32 160.889L1639.58 163.395L1639.51 232.392C1639.43 316.81 1639.16 344.239 1555.4 383.513C1549.52 381.232 1545.12 379.824 1539.97 376.202C1582.64 356.343 1608.56 337.625 1614.51 287.132C1616.02 277.736 1615.46 254.627 1615.44 244.16L1615.32 160.889Z" fill="white"/>
<path d="M1522.65 124.256L1530.4 131.639C1532.52 133.274 1534.53 134.781 1536.58 136.524C1552.63 148.592 1568.78 155.05 1588.94 156.951C1596.21 158.344 1606.96 158.164 1614.62 158.297C1614.57 201.067 1614.98 244.436 1614.51 287.132C1608.56 337.625 1582.64 356.343 1539.97 376.202L1531.33 380.037C1530.65 380.408 1527.84 381.955 1527.31 382.009C1520.56 382.701 1508.13 377.343 1505.95 371.251L1507.62 370.094C1513.8 369.848 1519.57 373.094 1525.27 375.674C1545.34 366.872 1567.01 357.936 1582.87 342.342C1612.19 313.513 1608.41 276.651 1608.36 239.272L1608.24 164.78C1576.89 163.686 1555.55 159.124 1530.03 140.348C1528.27 138.424 1526.51 137.215 1524.66 135.413C1521.62 132.481 1520.42 131.765 1518.23 128.195C1519.6 128.326 1520.97 128.478 1522.33 128.649C1522.18 126.91 1522.09 125.925 1522.65 124.256Z" fill="#242032"/>
<path d="M1536.58 136.524C1539.37 134.034 1544.09 130.66 1547.8 130.104C1561.67 142.011 1575.51 150.207 1592.86 155.776C1593.61 156.017 1595.67 156.129 1595.95 156.485C1595.5 157.352 1590.21 156.909 1588.94 156.951C1568.78 155.05 1552.63 148.592 1536.58 136.524Z" fill="white"/>
<path d="M2413.62 236.416C2404.79 236.653 2391.43 237.612 2383.42 234.212L2383.37 233.163C2390.57 229.212 2408.22 230.18 2416.92 230.188C2424.11 239.216 2432.21 250.942 2439.16 260.412L2439.24 301.864C2443.65 300.588 2451.55 298.002 2455.53 300.538C2469.19 309.358 2471.57 328.171 2470.72 343.043C2470.21 351.922 2469.15 359.727 2464.15 367.236C2455.02 380.935 2445.78 383.602 2430.25 383.799C2428.24 384.15 2426.22 384.401 2424.19 384.552C2414.77 385.265 2396.21 384.733 2386.23 384.732L2311.54 384.739L2257.96 384.746C2245.96 384.759 2218.94 388.908 2217.51 372.425C2216.48 360.46 2216.8 347.365 2216.8 335.281L2216.87 260.056C2224.25 250.942 2232.12 239.88 2239.21 230.376L2240.13 230.354C2246.08 230.223 2252.46 229.264 2256.86 233.455L2255.95 234.994C2251.92 237.144 2247.09 236.545 2242.45 236.44L2226.28 257.852C2233.48 257.848 2270.49 256.466 2273.35 260.95C2270.45 263.737 2267.6 264.301 2263.63 264.219C2250.11 263.939 2236.53 264.007 2223.01 263.971L2222.95 331.885C2222.93 342.032 2221.34 369.476 2226.34 377.069C2238.98 381.115 2339.03 378.884 2357.36 378.878L2401.62 378.858C2411.99 378.852 2424.84 381.234 2432.41 374.13C2430.69 369.316 2427.28 365.664 2427.05 364.307C2425.01 352.596 2425.31 335.634 2427.48 323.801C2428.56 317.881 2431.8 317.742 2432.08 314.316C2432.26 312.181 2431.2 311.215 2433.08 309.067C2433.53 294.596 2433.19 278.527 2433.19 263.936C2414.02 263.925 2388.11 264.991 2368.79 263.366C2367.24 263.236 2367.43 262.728 2366.58 261.129L2367.21 259.162C2370.67 257.245 2421.86 258.297 2429.77 258.308C2425.88 252.159 2418.19 242.472 2413.62 236.416Z" fill="#151515"/>
<path d="M2439.24 301.864C2443.65 300.588 2451.55 298.002 2455.53 300.538C2469.19 309.358 2471.57 328.171 2470.72 343.043C2470.21 351.922 2469.15 359.727 2464.15 367.236C2455.02 380.935 2445.78 383.602 2430.25 383.799C2439.31 377.638 2439.36 374.872 2439.25 364.414C2439.3 352.026 2438.82 337.002 2439.44 324.832C2439.05 318.195 2439.27 308.712 2439.24 301.864Z" fill="white"/>
<path d="M2439.24 301.864C2443.65 300.588 2451.55 298.002 2455.53 300.538C2469.19 309.358 2471.57 328.171 2470.72 343.043C2470.21 351.922 2469.15 359.727 2464.15 367.236C2455.02 380.935 2445.78 383.602 2430.25 383.799C2439.31 377.638 2439.36 374.872 2439.25 364.414C2449.82 377.194 2461.12 357.822 2460.95 347.798C2460.73 334.801 2465.72 301.939 2441.65 312.24C2439.29 313.248 2440.03 321.897 2439.44 324.832C2439.05 318.195 2439.27 308.712 2439.24 301.864Z" fill="#ECEAF8"/>
<path d="M2432.41 374.131C2430.69 369.317 2427.28 365.665 2427.05 364.308C2425.01 352.597 2425.31 335.635 2427.48 323.802C2428.56 317.882 2431.8 317.743 2432.08 314.317C2432.26 312.182 2431.2 311.216 2433.08 309.068C2433.63 316.673 2433.35 368.143 2432.41 374.131Z" fill="#ECEAF8"/>
<path d="M1562.85 205.869L1585.21 228.747C1561 253.141 1535.48 277.241 1511.63 301.695L1504.64 308.772C1497.61 302.417 1489.26 293.512 1482.46 286.622C1476.77 280.858 1470.43 274.834 1464.96 268.91C1462.41 266.291 1460.54 265.268 1459.85 262.126C1465.75 255.126 1474.89 246.495 1481.6 239.843C1489.34 247.567 1497.22 255.642 1505.05 263.224C1524.41 244.259 1543.44 224.687 1562.85 205.869Z" fill="white"/>
<path d="M1562.85 205.869L1585.21 228.747C1561 253.141 1535.48 277.241 1511.63 301.695L1504.64 308.772C1497.61 302.417 1489.26 293.512 1482.46 286.622C1489.88 285.693 1484.6 285.4 1492.13 287.666C1495.49 290.489 1502.78 298.113 1505.32 299.52C1523.63 278.624 1555.47 249.288 1576.12 228.795L1562.8 215.094C1544.01 233.783 1523.54 253.287 1505.56 272.496L1481.12 249.069C1477.55 252.786 1470.77 259.282 1468.45 263.461C1467.21 265.69 1466.45 266.863 1464.96 268.91C1462.41 266.291 1460.54 265.268 1459.85 262.126C1465.75 255.126 1474.89 246.495 1481.6 239.843C1489.34 247.567 1497.22 255.642 1505.05 263.224C1524.41 244.259 1543.44 224.687 1562.85 205.869Z" fill="#1F0D59"/>
<path d="M1468.45 263.461C1474.69 269.411 1486.65 281.245 1492.13 287.666C1484.6 285.4 1489.88 285.693 1482.46 286.622C1476.77 280.858 1470.43 274.834 1464.96 268.91C1466.45 266.863 1467.21 265.69 1468.45 263.461Z" fill="#220F64"/>
<path d="M695.915 255.592C686.436 246.774 679.868 237.092 683.619 223.324C685.608 216.084 690.565 210.021 697.266 206.634C706.468 201.922 713.284 203.119 722.396 206.151L725.572 206.334C743.174 207.484 755.198 250.794 722.768 255.125C725.067 271.622 727.477 288.103 729.998 304.568C716.536 305.028 701.646 304.721 688.171 304.462C689.994 289.69 693.416 270.457 695.915 255.592Z" fill="#151515"/>
<path d="M722.396 206.15L725.572 206.334C743.174 207.484 755.198 250.793 722.768 255.124C736.331 244.833 741.816 234.497 732.999 217.015C730.365 211.793 727.053 209.552 722.396 206.15Z" fill="#ECEAF8"/>
<path d="M696.691 247.776C676.426 230.313 699.356 198.428 721.59 213.46C733.359 221.417 733.461 234.805 725.226 245.803C719.962 249.776 716.599 248.363 716.14 254.632L715.61 254.671C710.638 254.861 707.292 254.627 702.26 255.56L702.465 254.481C702.203 249.381 701.266 250.123 696.691 247.776Z" fill="white"/>
<path d="M696.691 247.775C705.519 245.083 716.113 245.92 725.226 245.802C719.962 249.775 716.599 248.362 716.14 254.631L715.61 254.67C710.638 254.86 707.292 254.626 702.26 255.559L702.465 254.48C702.203 249.38 701.266 250.122 696.691 247.775Z" fill="#ECEAF8"/>
<path d="M702.465 254.481C705.246 248.53 711.462 251.872 715.61 254.671C710.638 254.861 707.292 254.627 702.26 255.56L702.465 254.481Z" fill="#EAEAEA"/>
<path d="M715.61 254.672L716.14 254.633C717.647 260.311 721.526 289.64 722.894 298.106L695.775 298.129C697.164 290.047 698.382 281.936 699.428 273.802C700.197 268.004 701.056 261.243 702.26 255.561C707.292 254.628 710.638 254.862 715.61 254.672Z" fill="white"/>
<path d="M1419.67 153.743C1445 154.043 1473.24 150.409 1495.91 137.787C1502.17 134.299 1511.53 124.111 1518.4 121.078C1521.36 121.804 1520.34 121.412 1522.65 124.255C1522.09 125.924 1522.18 126.909 1522.33 128.648C1520.97 128.477 1519.6 128.325 1518.23 128.194C1520.42 131.764 1521.62 132.48 1524.66 135.412C1526.51 137.214 1528.27 138.423 1530.03 140.347C1511.22 148.023 1499.32 152.038 1478.43 152.479C1457.94 158.763 1447.41 159.245 1426.27 160.283L1426.13 238.467C1426.07 296.27 1422.54 315.292 1472.14 352.053C1473.19 354.935 1473.24 353.555 1472.01 356.329L1469.82 356.753C1462.59 354.698 1452.13 345.461 1446.6 340.225C1414.72 310.015 1419.58 266.847 1419.58 226.354L1419.67 153.743Z" fill="#151515"/>
<path d="M1518.23 128.195C1520.42 131.765 1521.62 132.481 1524.66 135.413C1526.51 137.215 1528.27 138.424 1530.03 140.348C1511.22 148.024 1499.32 152.039 1478.43 152.48C1490.08 149.263 1492.69 145.536 1500.59 142.406C1507.24 137.721 1512.44 134.146 1518.23 128.195Z" fill="#8770E8"/>
<path d="M1518.23 128.195C1520.42 131.765 1521.62 132.481 1524.66 135.413C1519.89 137.703 1505.69 142.206 1500.59 142.406C1507.24 137.721 1512.44 134.146 1518.23 128.195Z" fill="#ECEAF8"/>
<path d="M1596.99 288.102C1605.15 289.585 1603.07 292.573 1601.45 299.812C1594.36 331.449 1575.49 344.985 1549.79 360.973C1548.88 361.357 1546.99 362.12 1546.13 361.035C1541.44 355.131 1558.88 346.824 1563.79 343.269L1564.58 342.707C1581.74 330.232 1590.88 316.309 1595.32 294.791C1596.11 290.98 1595.35 292.386 1596.99 288.102Z" fill="#8770E8"/>
<path d="M2306.7 272.287C2314.57 273.016 2324.65 287.457 2329.84 293.806C2333.81 289.694 2343.73 278.013 2348.92 275.111C2350.69 274.121 2354.39 276.544 2351.08 280.435C2343.96 287.635 2336.95 294.946 2330.06 302.366C2324.49 296.491 2319.01 290.539 2313.61 284.512C2308.61 278.969 2306.39 278.465 2306.7 272.287Z" fill="#151515"/>
<path d="M1530.4 131.638C1534.47 129.277 1541.42 125.372 1544.9 122.378L1547.15 120.404C1549.74 122.753 1552.14 124.908 1554.61 127.383C1551.87 128.726 1550.71 129.181 1547.8 130.102C1544.09 130.658 1539.37 134.033 1536.58 136.523C1534.53 134.78 1532.52 133.273 1530.4 131.638Z" fill="#8770E8"/>
<defs>
<linearGradient id="paint0_linear_0_1" x1="1911.69" y1="252.002" x2="1925.97" y2="251.642" gradientUnits="userSpaceOnUse">
<stop stop-color="#E9E6FB"/>
<stop offset="1" stop-color="#FFFFFD"/>
</linearGradient>
</defs>
</svg>
