<svg xmlns="http://www.w3.org/2000/svg" width="155" height="42" viewBox="0 0 155 42"><g transform="translate(-17099 -3584)"><g transform="translate(15468.053 3531)"><rect width="155" height="42" rx="5" transform="translate(1630.947 53)" fill="#073b4c"/></g><g transform="translate(22 1)"><path d="M13.231,0A13.343,13.343,0,0,0,9.047,25.975c.657.133.9-.287.9-.64,0-.309-.022-1.368-.022-2.472-3.681.795-4.447-1.589-4.447-1.589a3.405,3.405,0,0,0-1.468-1.942c-1.2-.817.088-.817.088-.817a2.775,2.775,0,0,1,2.037,1.368,2.8,2.8,0,0,0,3.855,1.1,2.84,2.84,0,0,1,.833-1.787C7.886,18.891,4.8,17.743,4.8,12.623A5.218,5.218,0,0,1,6.155,9.048a4.848,4.848,0,0,1,.132-3.531S7.4,5.164,9.923,6.885a12.613,12.613,0,0,1,6.616,0c2.519-1.721,3.636-1.368,3.636-1.368a4.848,4.848,0,0,1,.131,3.531,5.118,5.118,0,0,1,1.358,3.575c0,5.12-3.089,6.245-6.046,6.577a3.166,3.166,0,0,1,.9,2.472c0,1.787-.022,3.222-.022,3.663,0,.353.241.773.9.64A13.343,13.343,0,0,0,13.231,0Z" transform="translate(17110 3591)" fill="#fff" fill-rule="evenodd"/><text transform="translate(17173 3610)" fill="#fff" font-size="16" font-family="EuclidCircularA-Medium, Euclid Circular A" font-weight="500"><tspan x="-27.408" y="0">GitHub</tspan></text></g></g></svg>