<svg xmlns="http://www.w3.org/2000/svg" width="31.201" height="31.201" viewBox="0 0 31.201 31.201"><g transform="translate(-17003.5 -8483.5)"><path d="M8,9a1,1,0,0,1-.707-.293l-8-8a1,1,0,0,1,0-1.414,1,1,0,0,1,1.414,0l8,8A1,1,0,0,1,8,9Z" transform="translate(17015 8495)" fill="#ef476f"/><path d="M0,9a1,1,0,0,1-.707-.293,1,1,0,0,1,0-1.414l8-8a1,1,0,0,1,1.414,0,1,1,0,0,1,0,1.414l-8,8A1,1,0,0,1,0,9Z" transform="translate(17015 8495)" fill="#ef476f"/><path d="M17.6,2h0A15.6,15.6,0,0,1,28.632,28.632,15.6,15.6,0,1,1,6.57,6.569,15.5,15.5,0,0,1,17.6,2Zm0,29.2A13.6,13.6,0,0,0,27.218,7.984,13.512,13.512,0,0,0,17.6,4h0A13.6,13.6,0,0,0,7.984,27.218,13.512,13.512,0,0,0,17.6,31.2Z" transform="translate(17001.5 8481.5)" fill="#ef476f"/></g></svg>