<svg xmlns="http://www.w3.org/2000/svg" width="31.332" height="31.332" viewBox="0 0 31.332 31.332"><g transform="translate(-10022.727 -5148.668)"><path d="M17.666,33.332A15.666,15.666,0,0,1,6.588,6.588,15.666,15.666,0,1,1,28.744,28.744,15.563,15.563,0,0,1,17.666,33.332ZM17.666,4A13.666,13.666,0,0,0,8,27.329,13.666,13.666,0,0,0,27.329,8,13.577,13.577,0,0,0,17.666,4ZM16.443,23.555a1,1,0,0,1-.813-1.581l6.111-8.555a1,1,0,1,1,1.627,1.162l-6.111,8.555A1,1,0,0,1,16.443,23.555Z" transform="translate(10020.727 5146.668)" fill="#3ebdb6"/><path d="M16.443,23.555a1,1,0,0,1-.813-1.581l2.706-4.037A1,1,0,1,1,19.964,19.1l-2.706,4.037A1,1,0,0,1,16.443,23.555Z" transform="translate(10011.671 5180.771) rotate(-79)" fill="#3ebdb6"/></g></svg>