<svg width="180" height="47" viewBox="0 0 180 47" fill="none" xmlns="http://www.w3.org/2000/svg">
<path d="M55.5137 17.7938C55.5137 11.4825 59.5322 9.26367 63.1069 9.26367C66.9036 9.26367 70.2319 11.5318 70.2319 17.7938C70.2319 23.4149 67.2488 26.2502 62.7866 26.2502C58.201 26.2502 55.5137 23.3902 55.5137 17.7938ZM65.8929 17.8678C65.8929 15.797 65.3504 12.7892 62.8605 12.7892C60.6415 12.7892 59.8526 15.156 59.8526 17.6214C59.8526 19.9142 60.3458 22.7739 62.959 22.7739C65.2273 22.7739 65.8929 20.3825 65.8929 17.8678Z" fill="#221F20"/>
<path d="M77.8025 12.9609C81.7717 12.9609 83.7688 15.2046 83.7688 19.5682C83.7688 23.9567 81.6733 26.3481 78.271 26.3481C77.63 26.3481 76.8904 26.1755 76.4219 25.9535V31.1307H72.3047V13.8978C74.3017 13.2075 76.5205 12.9609 77.8025 12.9609ZM79.6269 19.7655C79.6269 17.5713 79.2572 16.0675 77.6547 16.0675C77.1615 16.0675 76.7178 16.1659 76.4219 16.2646V22.9951C76.7425 23.2169 77.3095 23.3402 77.7778 23.3402C79.2079 23.3402 79.6269 21.8856 79.6269 19.7655Z" fill="#221F20"/>
<path d="M85.1504 19.9874C85.1504 16.4125 87.2952 12.9609 91.4864 12.9609C94.0751 12.9609 95.8009 14.2184 95.8009 16.8317C95.8009 20.3818 91.9547 21.146 89.3416 21.294C89.5142 22.3542 90.2785 23.2909 91.7823 23.2909C92.9656 23.2909 94.0504 22.7485 94.8147 22.2309L95.924 24.9427C95.8009 25.066 93.9271 26.3481 91.1905 26.3481C86.8762 26.3481 85.1504 23.7347 85.1504 19.9874ZM92.2507 16.8564C92.2507 16.2399 91.8563 15.8455 91.2398 15.8455C90.0072 15.8455 89.2429 17.0042 89.169 18.7053C90.5002 18.6313 92.2507 18.0643 92.2507 16.8564Z" fill="#221F20"/>
<path d="M97.3047 13.3555H100.707L100.953 14.6867C101.742 13.6268 102.901 12.9609 104.553 12.9609C106.969 12.9609 108.497 14.317 108.497 17.3247V25.9535H104.38V18.0397C104.38 16.8811 104.232 16.1166 103.246 16.1166C102.26 16.1166 101.668 16.9055 101.668 17.941V25.9535H97.5758V15.8702L97.3047 13.3555Z" fill="#221F20"/>
<path d="M114.07 9.56055L115.993 20.0876H116.043L117.941 10.7931H122.034L123.784 19.7425H123.858L125.411 9.56055H129.652L126.373 25.9552H121.96L119.963 17.0552H119.864L117.818 25.9552H113.306L109.83 9.56055H114.07Z" fill="#221F20"/>
<path d="M129.752 20.2092C129.752 15.8702 132.02 12.9609 136.433 12.9609C137.296 12.9609 139.219 13.1829 141.191 13.9471V23.2909L141.462 25.9535H137.986L137.789 24.7947L137.666 24.7702C137 25.7316 135.989 26.3481 134.584 26.3481C130.787 26.3481 129.752 23.3895 129.752 20.2092ZM137.123 21.9843V16.0428C136.828 15.9195 136.433 15.8455 135.989 15.8455C134.362 15.8455 133.82 17.7931 133.82 19.9134C133.82 21.8117 134.165 23.3895 135.595 23.3895C136.556 23.3895 137.123 22.6992 137.123 21.9843Z" fill="#221F20"/>
<path d="M143.684 21.4923V8.82031H147.801V21.4923C147.801 22.6016 148.097 23.1195 148.886 23.1195C149.255 23.1195 149.749 22.9715 150.316 22.7249L151.203 25.4369C150.316 26.0779 148.861 26.3491 147.751 26.3491C143.93 26.3491 143.684 23.8591 143.684 21.4923Z" fill="#221F20"/>
<path d="M151.992 21.4923V8.82031H156.109V21.4923C156.109 22.6016 156.405 23.1195 157.194 23.1195C157.564 23.1195 158.057 22.9715 158.624 22.7249L159.512 25.4369C158.624 26.0779 157.17 26.3491 156.06 26.3491C152.239 26.3491 151.992 23.8591 151.992 21.4923Z" fill="#221F20"/>
<path d="M159.732 19.9874C159.732 16.4125 161.877 12.9609 166.068 12.9609C168.657 12.9609 170.383 14.2184 170.383 16.8317C170.383 20.3818 166.537 21.146 163.924 21.294C164.096 22.3542 164.86 23.2909 166.364 23.2909C167.548 23.2909 168.632 22.7485 169.397 22.2309L170.506 24.9427C170.383 25.066 168.509 26.3481 165.773 26.3481C161.458 26.3481 159.732 23.7347 159.732 19.9874ZM166.833 16.8564C166.833 16.2399 166.438 15.8455 165.822 15.8455C164.589 15.8455 163.825 17.0042 163.751 18.7053C165.082 18.6313 166.833 18.0643 166.833 16.8564Z" fill="#221F20"/>
<path d="M172.135 21.6401V8.82031H176.277V13.3565H179.358V16.5369H176.277V21.4677C176.277 22.8236 176.918 23.2426 177.756 23.2426C178.224 23.2426 178.693 23.0455 179.087 22.8236L179.999 25.4369C179.235 25.9546 177.854 26.3491 176.474 26.3491C172.431 26.3491 172.135 23.9577 172.135 21.6401Z" fill="#221F20"/>
<path d="M57.9824 34.2207H62.8681V35.048H58.9104V37.4517H62.7899V38.279H58.9104V41.6778H57.9824V34.2207Z" fill="#221F20"/>
<path d="M70.886 34.0977C73.0885 34.0977 74.5865 35.7522 74.5865 37.9548C74.5865 40.1572 73.0885 41.8117 70.886 41.8117C68.6725 41.8117 67.1855 40.1572 67.1855 37.9548C67.1855 35.7522 68.6725 34.0977 70.886 34.0977ZM70.886 34.9249C69.209 34.9249 68.1469 36.2107 68.1469 37.9548C68.1469 39.6875 69.209 40.9845 70.886 40.9845C72.5519 40.9845 73.6252 39.6875 73.6252 37.9548C73.6252 36.2107 72.5519 34.9249 70.886 34.9249Z" fill="#221F20"/>
<path d="M79.3965 34.2207H80.3245V38.7598C80.3245 40.1238 81.0624 40.9846 82.4375 40.9846C83.8127 40.9846 84.5506 40.1238 84.5506 38.7598V34.2207H85.4784V38.771C85.4784 40.6268 84.4612 41.8119 82.4375 41.8119C80.4139 41.8119 79.3965 40.6157 79.3965 38.7822V34.2207Z" fill="#221F20"/>
<path d="M91.5061 35.6629V41.6778H90.5781V34.2207H91.5285L95.8216 40.1126V34.2207H96.7496V41.6778H95.8551L91.5061 35.6629Z" fill="#221F20"/>
<path d="M101.848 34.2207H104.397C106.711 34.2207 108.22 35.8419 108.22 37.9549C108.22 40.0791 106.711 41.6778 104.397 41.6778H101.848V34.2207ZM104.397 40.8505C106.208 40.8505 107.259 39.5536 107.259 37.9549C107.259 36.3449 106.242 35.048 104.397 35.048H102.776V40.8505H104.397Z" fill="#221F20"/>
<path d="M117.313 40.0231H113.534L112.874 41.6778H111.846L114.842 34.2207H115.994L119.001 41.6778H117.972L117.313 40.0231ZM113.802 39.1958H117.033L115.423 35.048L113.802 39.1958Z" fill="#221F20"/>
<path d="M124.424 35.048H122.064V34.2207H127.722V35.048H125.351V41.6778H124.424V35.048Z" fill="#221F20"/>
<path d="M132.307 34.2207H133.235V41.6778H132.307V34.2207Z" fill="#221F20"/>
<path d="M141.734 34.0977C143.936 34.0977 145.434 35.7522 145.434 37.9548C145.434 40.1572 143.936 41.8117 141.734 41.8117C139.52 41.8117 138.033 40.1572 138.033 37.9548C138.033 35.7522 139.52 34.0977 141.734 34.0977ZM141.734 34.9249C140.057 34.9249 138.995 36.2107 138.995 37.9548C138.995 39.6875 140.057 40.9845 141.734 40.9845C143.4 40.9845 144.473 39.6875 144.473 37.9548C144.473 36.2107 143.4 34.9249 141.734 34.9249Z" fill="#221F20"/>
<path d="M151.17 35.6629V41.6778H150.242V34.2207H151.193L155.486 40.1126V34.2207H156.414V41.6778H155.519L151.17 35.6629Z" fill="#221F20"/>
<path opacity="0.25" d="M35.2774 0.0638154L50.2238 8.47111C50.4196 8.58129 50.5166 8.80963 50.4599 9.02709L43.1713 36.9922C43.0914 37.2989 42.7478 37.4524 42.466 37.3073L27.0456 29.3634C26.8379 29.2564 26.7333 29.0187 26.7949 28.7933L34.5576 0.36469C34.6425 0.0540326 34.9968 -0.0940641 35.2774 0.0638154Z" fill="#003399"/>
<path opacity="0.5" d="M19.4813 9.00687L34.6245 17.9868C34.7165 18.0414 34.7883 18.1243 34.8292 18.2232L43.1853 36.6982C43.3622 37.1261 42.907 37.5408 42.4974 37.3249L27.0602 29.3839C26.9518 29.3267 26.8684 29.2313 26.8263 29.1162L18.7641 9.60227C18.6042 9.16531 19.0812 8.76936 19.4813 9.00687Z" fill="#003399"/>
<path opacity="0.75" d="M19.489 9.0032L34.4435 17.8824C34.636 17.9967 34.7278 18.226 34.6673 18.4415L27.018 45.6921C26.9333 45.9936 26.5935 46.1416 26.3151 45.9982L10.8893 38.0516C10.6793 37.9434 10.5751 37.7018 10.6405 37.4748L18.7611 9.29162C18.8508 8.98032 19.2105 8.83781 19.489 9.0032Z" fill="#003399"/>
<path d="M0.738885 9.87995L15.8727 18.3583C15.9701 18.4131 16.0461 18.4992 16.0883 18.6027L26.9969 45.366C27.1703 45.7915 26.7206 46.203 26.3122 45.9926L10.6956 37.9514C10.5875 37.8957 10.5037 37.8022 10.4602 37.6887L0.0343772 10.4882C-0.131441 10.0556 0.335083 9.65281 0.738885 9.87995Z" fill="#003399"/>
</svg>
