<svg width="60" height="42" viewBox="0 0 60 42" fill="none" xmlns="http://www.w3.org/2000/svg">
<path d="M33.6689 5.40258C36.8722 8.57527 38.971 12.2132 40.015 16.7106C40.015 16.8393 40.015 16.9679 40.015 17.1005C40.1565 17.0992 40.2981 17.0978 40.4439 17.0964C40.9735 17.0917 41.503 17.0887 42.0326 17.0863C42.261 17.085 42.4894 17.0832 42.7178 17.0809C43.0477 17.0777 43.3776 17.0763 43.7076 17.0751C43.8082 17.0738 43.9089 17.0725 44.0126 17.0711C45.2966 17.0708 46.1914 17.3314 47.1281 18.2705C48.0215 19.3203 48.2085 20.2392 48.1723 21.6188C48.1097 22.6674 47.6763 23.337 46.9566 24.047C45.9416 24.9165 44.9262 25.0513 43.6466 25.0427C43.5424 25.0425 43.4382 25.0423 43.3309 25.0421C43.0003 25.0414 42.6698 25.0398 42.3392 25.0381C42.1142 25.0375 41.8891 25.0369 41.6641 25.0364C41.1144 25.0349 40.5647 25.0327 40.015 25.03C40.0007 25.111 39.9865 25.192 39.9719 25.2755C39.0091 30.5484 35.8923 35.3849 31.6539 38.4191C30.1136 39.4947 28.5028 40.3639 26.7479 40.9865C26.6506 41.0215 26.5533 41.0565 26.453 41.0926C24.4949 41.756 22.5967 42.0151 20.5419 41.9967C20.1732 41.9939 19.8047 41.9967 19.4359 42C14.2126 42.0078 9.41355 39.5428 5.72818 35.7787C4.27336 34.249 3.14421 32.5309 2.20279 30.6196C2.1631 30.5401 2.1234 30.4606 2.08251 30.3787C-0.340351 25.4682 -0.585755 19.5844 1.01726 14.3626C1.73705 12.1608 2.76273 10.0488 4.19947 8.26112C4.28586 8.14533 4.37224 8.02954 4.46125 7.91024C7.74439 3.55932 12.469 1.01159 17.6664 0.14072C23.4011 -0.541983 29.4276 1.26698 33.6689 5.40258ZM12.8072 14.0589C12.2825 14.7222 11.8589 15.4535 11.4374 16.1906C11.3832 16.2844 11.329 16.3783 11.2732 16.475C10.1853 18.537 9.96539 21.3797 10.5015 23.6489C10.9582 25.2838 11.704 26.7606 12.8102 28.0198C12.8838 28.1085 12.9575 28.1971 13.0334 28.2884C14.6877 30.1619 17.2167 31.2863 19.6309 31.426C22.2134 31.4588 24.275 30.6754 26.4141 29.2271C30.6109 26.3954 34.9552 25.2536 39.8902 24.77C40.3313 22.4171 40.3947 19.7119 39.8902 17.3605C39.6998 17.1622 39.5244 17.2095 39.2589 17.2031C39.1526 17.1997 39.0463 17.1963 38.9369 17.1928C38.8216 17.1892 38.7064 17.1855 38.5876 17.1818C33.7621 16.9787 29.5795 15.0847 25.5805 12.3726C21.4461 9.59772 16.1957 10.3841 12.8072 14.0589Z" fill="#F30097"/>
<path d="M53.7008 29.4501C55.3071 30.5421 56.3528 32.0009 56.729 33.9222C56.9987 35.8522 56.7048 37.5754 55.5966 39.19C54.5744 40.5197 53.2931 41.5911 51.6094 41.9378C49.2643 42.1229 47.4605 41.9686 45.5592 40.4856C44.2964 39.3954 43.4383 37.9466 43.2655 36.2616C43.1179 34.1079 43.4713 32.4043 44.8325 30.6858C47.1443 28.1682 50.802 27.7189 53.7008 29.4501Z" fill="#A100E0"/>
<path d="M57.7388 20.377C58.6186 21.0864 59.1459 21.9235 59.291 23.0451C59.3259 24.1755 59.1148 25.1439 58.3319 25.9858C57.3424 26.8999 56.4477 27.2115 55.0981 27.1745C53.9382 27.0317 53.1656 26.4547 52.4298 25.5815C51.772 24.5996 51.8459 23.4744 51.9535 22.3429C52.2669 21.3322 52.9913 20.5953 53.9114 20.0917C55.1785 19.5426 56.5467 19.72 57.7388 20.377Z" fill="#A301DE"/>
</svg>
