<svg width="512" height="512" viewBox="0 0 512 512" fill="none" xmlns="http://www.w3.org/2000/svg">
<path d="M470.593 262.202C468.645 244.811 459.882 228.903 446.224 217.968C432.567 207.033 415.131 201.964 397.742 203.873C382.059 205.614 368.874 211.205 358.182 222.506C364.239 228.535 369.129 235.633 372.606 243.442L372.667 244.437C376.8 239.093 382.192 234.856 388.362 232.105C394.531 229.355 401.286 228.175 408.022 228.672C414.758 229.169 421.266 231.327 426.965 234.953C432.664 238.58 437.377 243.562 440.682 249.454C443.988 255.347 445.783 261.967 445.907 268.722C446.032 275.478 444.482 282.16 441.396 288.17C438.31 294.181 433.784 299.333 428.222 303.167C422.661 307.001 416.236 309.398 409.523 310.143C404.024 310.807 398.449 310.361 393.125 308.833C387.801 307.304 382.838 304.724 378.528 301.244C371.535 295.747 366.577 288.073 364.438 279.438C364.107 277.868 363.889 276.276 363.784 274.675C363.784 274.527 363.784 274.379 363.784 274.231C363.298 259.042 356.929 244.638 346.024 234.059C335.118 223.48 320.529 217.556 305.339 217.537C303.543 217.537 301.765 217.648 300.014 217.802C312.239 207.787 327.511 202.241 343.311 202.076H344.039L344.325 177C321.329 176.897 299.083 185.174 281.745 200.285C272.013 208.704 263.953 218.882 257.986 230.286C249.676 219.228 238.099 211.067 224.895 206.957C211.691 202.847 197.528 202.997 184.414 207.385C171.3 211.774 159.898 220.178 151.823 231.409C143.748 242.639 139.41 256.126 139.423 269.96H139.397C138.919 280.227 134.628 289.945 127.364 297.213C120.1 304.481 110.386 308.776 100.123 309.256H88.1538L116.75 285.537L116.787 285.574C117.014 285.384 117.213 285.162 117.44 284.963L118.839 283.802L118.871 283.622C124.425 278.366 128.587 271.812 130.983 264.548C133.379 257.285 133.934 249.54 132.597 242.01C131.261 234.479 128.075 227.399 123.327 221.404C118.578 215.41 112.415 210.69 105.392 207.667C98.3685 204.645 90.7046 203.415 83.0887 204.089C75.4728 204.763 68.1434 207.319 61.7592 211.527C55.3749 215.735 50.1357 221.464 46.5123 228.199C42.8888 234.934 40.9947 242.464 41 250.112H66.0542C66.0454 246.59 66.9166 243.121 68.5888 240.022C70.2609 236.922 72.6809 234.289 75.6287 232.363C78.5766 230.437 81.959 229.278 85.4684 228.993C88.9777 228.707 92.5029 229.303 95.7234 230.727C98.944 232.15 101.758 234.357 103.909 237.145C106.061 239.933 107.481 243.215 108.042 246.692C108.603 250.17 108.286 253.732 107.121 257.056C105.955 260.379 103.978 263.359 101.369 265.724L46.4594 311.275H46.4303V311.307L46.3378 311.381L46.4303 311.492V334.333H97.8877L102.152 334.253C118.686 333.265 134.252 326.122 145.786 314.23C157.321 302.339 163.99 286.56 164.48 269.997L164.578 268.449C164.885 260.433 167.543 252.683 172.22 246.166C176.897 239.649 183.387 234.653 190.881 231.798C198.376 228.943 206.545 228.357 214.37 230.112C222.196 231.867 229.332 235.885 234.891 241.667C240.451 247.45 244.187 254.74 245.635 262.63C247.084 270.521 246.18 278.663 243.037 286.044C239.893 293.425 234.649 299.717 227.958 304.139C221.266 308.56 213.422 310.915 205.402 310.91C194.906 310.618 184.902 306.398 177.364 299.085C175.32 307.763 171.657 315.977 166.567 323.296C180.472 333.481 197.82 337.796 214.874 335.311C231.928 332.827 247.324 323.742 257.748 310.013C263.118 317.586 270.216 323.768 278.453 328.046C286.691 332.324 295.83 334.573 305.111 334.608C314.392 334.643 323.547 332.462 331.817 328.247C340.086 324.031 347.23 317.903 352.656 310.37C355.608 314.177 358.98 317.639 362.708 320.69C374.653 330.293 389.528 335.51 404.852 335.471C407.338 335.47 409.821 335.334 412.292 335.063C429.681 333.133 445.592 324.373 456.525 310.709C467.458 297.046 472.518 279.597 470.593 262.202ZM339.444 277.02H339.413L339.436 277.163C338.85 285.861 334.852 293.974 328.312 299.737C321.773 305.5 313.223 308.444 304.524 307.929C295.824 307.415 287.68 303.482 281.866 296.989C276.052 290.495 273.037 281.966 273.48 273.26C273.922 264.553 277.786 256.374 284.229 250.504C290.672 244.634 299.172 241.548 307.879 241.919C316.586 242.29 324.793 246.087 330.714 252.483C336.635 258.88 339.79 267.357 339.492 276.07C339.492 276.39 339.45 276.7 339.442 277.014" fill="#7678ED"/>
</svg>
