<svg width="2660" height="508" viewBox="0 0 2660 508" fill="none" xmlns="http://www.w3.org/2000/svg">
<rect width="2660" height="508" fill="#ffffff"/>
<path d="M254.389 72.0421C260.295 71.4501 267.339 71.9272 272.522 75.1952C280.292 80.0942 278.792 88.5041 281.087 96.0661C282.991 102.339 342.242 123.645 352.263 127.855C353.386 126.194 354.584 124.585 355.852 123.033C359.701 118.357 365.306 115.474 371.348 115.063C377.268 114.644 383.221 116.892 387.531 120.941C392.009 125.117 394.614 130.922 394.758 137.043C394.934 145.663 391.301 150.857 385.713 156.617C393.73 179.499 403.469 203.937 412.091 226.763C424.221 232.084 432.834 240.177 428.03 254.979C425.292 263.419 416.07 264.77 408.705 267.853C404.508 274.444 383.861 347.966 379.714 361.301C386.962 366.998 392.491 372.11 392.203 382.328C392.048 388.154 389.4 393.634 384.93 397.375C373.386 407.025 361.911 400.461 354.287 390.044C333.521 397.917 312.864 406.169 292.218 414.562C277.851 420.402 284.493 423.87 277.39 434.849C275.311 438.062 267.797 440.28 264.177 441.255C248.915 439.64 244.994 433.424 242.527 419.011C216.876 410.161 192.039 399.751 166.601 390.392C160.341 397.949 153.619 403.705 142.912 402.244C136.894 401.376 131.538 397.969 128.2 392.887C124.778 387.787 123.612 381.5 124.98 375.513C127.095 366.614 131.912 363.034 139.121 358.838L114.996 267.367C97.7887 266.689 88.6566 256.553 93.1282 239.278C95.3419 230.727 108.911 228.796 109.514 227.655C120.919 206.044 128.373 178.602 136.334 154.853C128.576 149.625 122.871 143.241 124.585 133.026C125.501 127.596 128.546 122.756 133.044 119.579C137.309 116.515 142.667 115.389 147.805 116.476C155.14 118.079 158.296 122.174 162.203 127.819C180.544 118.781 218.671 104.883 238.693 96.9972C239.245 82.7692 241.387 78.4421 254.389 72.0421Z" fill="#08080A"/>
<path d="M238.515 99.9707L239.412 100.359C251.217 119.949 268.121 121.398 280.159 101.295C303.742 111.263 327.487 120.846 351.382 130.041C350.338 137.657 350.583 139.035 352.114 146.325C325.353 157.431 298.464 169.389 271.783 180.806L249.157 190.192C236.949 173.653 221.319 170.337 207.235 187.148C191.415 174.378 175.824 161.325 160.471 147.997C163.65 140.649 163.606 137.832 162.978 130.248C186.857 119.91 214.139 109.684 238.515 99.9707Z" fill="white"/>
<path d="M250.218 207.336C259.309 209.037 321.318 222.134 326.938 224.707C327.517 226.297 333.585 239.499 333.718 238.872C330.152 255.658 321.974 271.324 316.904 287.796C305.987 287.459 301.801 287.888 292.397 294.17L290.822 296.573C286.748 301.038 285.641 305.994 283.95 311.668C261.52 308.555 239.041 305.801 216.523 303.408C216.694 291.949 214.012 289.139 205.296 282.785C210.394 263.844 216.775 243.591 222.345 224.655C230.097 225.1 233.335 223.759 240.858 221.671L241.759 219.785C246.24 214.731 247.005 213.34 250.218 207.336Z" fill="white"/>
<path d="M250.218 207.336C259.309 209.037 321.318 222.134 326.938 224.707C327.517 226.297 333.585 239.499 333.718 238.872C330.152 255.658 321.974 271.324 316.904 287.796C305.987 287.459 301.801 287.888 292.397 294.17C284.01 280.751 274.091 266.789 265.174 253.535C258.114 243.04 249.422 229.449 241.759 219.785C246.24 214.731 247.005 213.34 250.218 207.336Z" fill="white"/>
<path d="M240.858 221.671L241.759 219.785C249.422 229.449 258.114 243.04 265.174 253.535C274.091 266.789 284.01 280.751 292.397 294.17L290.822 296.573L257.563 247.727C253.571 241.827 243.267 227.193 240.858 221.671Z" fill="#08080A"/>
<path d="M319.329 289.125C323.061 278.177 332.692 250.996 338.231 239.499C338.729 238.467 344.762 239.394 347.506 237.433C350.74 235.122 350.306 234.334 352.528 231.385C365.612 234.987 378.324 238.824 391.472 242.334C391.951 254.614 390.975 246.99 394.211 259.275C395.17 260.012 395.522 260.324 396.392 261.153C399.147 263.047 401.762 264.92 404.668 266.583C396.477 295.01 386.349 334.031 376.902 360.931C370.328 361.155 366.234 361.461 360.188 364.672L330.661 333.63C340.613 317.262 336.098 316.74 335.058 301.975C334.705 301.447 334.226 300.628 333.744 300.213C326.143 294.178 330.617 295.384 319.329 289.125Z" fill="white"/>
<path d="M319.329 289.125C323.061 278.177 332.692 250.996 338.231 239.499C338.729 238.467 344.762 239.394 347.506 237.433C350.74 235.122 350.306 234.334 352.528 231.385C365.612 234.987 378.324 238.824 391.472 242.334C391.951 254.614 390.975 246.99 394.211 259.275C389.804 261.49 375.673 271.387 371.116 274.593C359 283.119 345.687 291.588 333.744 300.213C326.143 294.178 330.617 295.384 319.329 289.125Z" fill="white"/>
<path d="M394.211 259.275C395.17 260.012 395.522 260.324 396.392 261.153C383.519 269.47 371.403 277.724 358.887 286.508C353.999 289.938 339.75 299.931 335.058 301.975C334.705 301.447 334.226 300.628 333.744 300.213C345.687 291.588 359 283.119 371.116 274.593C375.673 271.387 389.804 261.49 394.211 259.275Z" fill="#08080A"/>
<path d="M157.708 150.887C161.109 151.134 199.677 184.819 206.028 190.115C203.183 197.636 202.951 200.025 203.901 207.793C189.552 214.27 171.628 221.014 156.791 226.982C147.425 230.665 138.103 234.458 128.827 238.362C123.927 231.596 122.584 230.819 114.907 227.682C121.88 204.23 131.189 179.618 138.612 155.878C147.485 156.081 150.42 155.654 157.708 150.887Z" fill="white"/>
<path d="M352.943 149.004C357.533 154.108 358.618 155.299 364.32 158.986C356.972 174.947 352.282 197.256 343.134 212.075C340.507 216.33 336.037 211.24 329.276 220.817L328.643 221.73C311.405 217.575 293.294 213.826 275.923 210.005L250.438 204.085C250.258 200.023 250.213 197.592 250.464 193.467C255.107 190.44 274.948 182.497 281.284 179.774L352.943 149.004Z" fill="white"/>
<path d="M204.045 210.852L205.229 211.149C209.859 217.318 212.622 220.603 219.548 223.965C213.988 243.387 208.297 262.771 202.476 282.116C191.415 282.94 189.502 283.904 183.135 292.873L157.566 277.125C148.543 272.056 136.898 264.288 127.872 258.667C129.797 252.808 129.438 245.881 130.237 242.973C131.489 238.41 155.917 230.249 159.882 228.697C174.673 222.924 189.395 216.975 204.045 210.852Z" fill="white"/>
<path d="M328.484 335.977C330.742 337.045 354.793 363.145 358.272 366.837C352.626 374.384 354.377 376.962 352.575 385.76C349.343 390.352 307.163 405.634 298.792 408.892L282.372 415.304C279.135 407.875 277.771 406.34 271.551 401.511C278.928 384.458 293.031 358.855 301.749 341.615C313.297 343.425 318.885 342.81 328.484 335.977Z" fill="white"/>
<path d="M126.021 260.756C140.043 270.471 167.576 287.087 182.392 295.105C182.482 304.418 181.727 304.622 187.231 312.811C179.202 323.013 171.789 333.968 164.371 344.644C154.806 359.215 157.711 357.505 141.415 358.58C135.295 328.697 124.798 296.815 118.011 266.38L126.021 260.756Z" fill="white"/>
<path d="M213.357 344.717C215.28 344.722 220.158 348.694 228.067 349.749C236.207 366.161 245.651 384.918 252.832 401.696C246.732 407.271 245.791 408.728 242.619 415.926L217.271 406.811C201.099 401.087 183.532 393.852 167.422 387.546C168.376 379.466 167.859 376.962 165.697 369.429C181.499 361.03 197.387 352.793 213.357 344.717Z" fill="white"/>
<path d="M283.146 321.072L284.341 321.629C288.138 331.001 291.373 335.243 299.44 340.764C289.722 357.704 277.22 382.655 268.759 400.451C263.774 399.951 261.215 400.869 255.831 400.11L254.185 397.545L230.69 347.988C234.31 344.365 237.367 335.412 237.471 335.329C244.364 329.819 276.193 322.858 283.146 321.072Z" fill="white"/>
<path d="M380.737 159.234L382.237 158.904C386.236 161.969 405.492 217.154 408.98 227.1C399.574 229.52 396.967 231.937 392.218 239.595L379.934 236.39L353.796 228.669C352.528 220.893 351.723 219.708 346.283 214.57C353.229 198.04 360.1 177.916 366.648 160.806C370.808 160.588 376.463 159.754 380.737 159.234Z" fill="white"/>
<path d="M307.563 292.911C319.841 291.273 331.128 299.882 332.794 312.156C334.46 324.43 325.877 335.737 313.607 337.432C301.297 339.133 289.944 330.515 288.272 318.2C286.601 305.886 295.245 294.553 307.563 292.911Z" fill="white"/>
<path d="M189.266 314.834C194.384 317.07 198.404 319.027 204.444 317.338C205.19 317.129 208.472 315.57 209.122 316.078C211.09 317.618 214.962 323.1 216.238 325.39C216.735 326.187 215.449 328.296 215.034 328.793C211.358 333.2 213.139 337.111 213.163 341.816C202.279 347.287 190.077 353.138 179.472 358.896C174.267 361.543 169.143 364.347 164.108 367.305C161.665 364.643 159.84 362.779 157.239 360.293C165.388 348.143 180.17 325.624 189.266 314.834Z" fill="white"/>
<path d="M223.381 181.568C233.706 179.608 243.711 186.237 245.932 196.508C248.153 206.78 241.781 216.95 231.569 219.431C224.729 221.093 217.525 218.914 212.752 213.74C207.98 208.565 206.389 201.209 208.597 194.525C210.806 187.841 216.466 182.881 223.381 181.568Z" fill="white"/>
<path d="M368.123 120.427C377.756 117.909 387.595 123.721 390.038 133.373C392.481 143.025 386.592 152.819 376.921 155.187C367.356 157.528 357.693 151.718 355.277 142.171C352.861 132.625 358.596 122.917 368.123 120.427Z" fill="white"/>
<path d="M216.001 306.203C238.328 308.491 260.679 311.329 282.916 314.198C283.286 314.246 283.891 315.088 283.983 315.472C284.136 316.109 283.979 316.78 283.559 317.283C282.249 318.87 272.981 320.808 270.537 321.345C259.041 324.683 247.517 327.924 235.967 331.067C230.192 325.755 229.265 322.273 220.075 324.515C218.934 324.793 213.022 315.089 211.981 313.543C213.482 310.866 214.607 309.047 216.001 306.203Z" fill="white"/>
<path d="M141.75 363.484C151.075 361.06 160.601 366.644 163.042 375.965C165.482 385.286 159.915 394.823 150.599 397.28C141.258 399.743 131.692 394.159 129.246 384.814C126.799 375.47 132.401 365.913 141.75 363.484Z" fill="white"/>
<path d="M254.229 77.5212C262.961 74.3722 272.593 78.8951 275.746 87.6261C278.899 96.3561 274.38 105.99 265.651 109.147C256.917 112.306 247.276 107.784 244.121 99.0481C240.965 90.3121 245.492 80.6732 254.229 77.5212Z" fill="white"/>
<path d="M258.039 405.585C266.304 402.914 275.165 407.468 277.805 415.742C280.445 424.017 275.858 432.861 267.573 435.47C259.333 438.065 250.545 433.507 247.92 425.276C245.294 417.046 249.818 408.241 258.039 405.585Z" fill="white"/>
<path d="M368.768 366.526C376.987 364.437 385.351 369.374 387.493 377.579C389.636 385.785 384.754 394.181 376.563 396.377C368.295 398.594 359.804 393.657 357.641 385.375C355.478 377.093 360.472 368.634 368.768 366.526Z" fill="white"/>
<path d="M139.762 121.42C147.724 119.132 156.047 123.658 158.455 131.583C160.863 139.509 156.463 147.9 148.574 150.427C143.365 152.096 137.66 150.828 133.647 147.11C129.634 143.392 127.935 137.801 129.202 132.479C130.469 127.157 134.505 122.931 139.762 121.42Z" fill="white"/>
<path d="M108.703 232.685C116.862 231.244 124.631 236.729 126.004 244.9C127.376 253.07 121.825 260.793 113.644 262.096C105.559 263.384 97.9477 257.913 96.5916 249.84C95.2355 241.766 100.642 234.109 108.703 232.685Z" fill="white"/>
<path d="M408.399 232.647C416.27 231.739 423.436 237.252 424.576 245.093C425.716 252.933 420.415 260.259 412.611 261.629C407.355 262.552 402.013 260.543 398.666 256.386C395.32 252.229 394.5 246.581 396.524 241.644C398.548 236.706 403.098 233.259 408.399 232.647Z" fill="white"/>
<path d="M195.953 287.633C202.763 285.72 209.855 289.591 211.93 296.354C214.004 303.116 210.304 310.299 203.593 312.535C199.107 314.029 194.163 312.975 190.676 309.782C187.189 306.588 185.707 301.756 186.802 297.156C187.898 292.556 191.4 288.911 195.953 287.633Z" fill="white"/>
<path d="M338.813 218.536C343.09 217.461 347.437 220.023 348.567 224.285C349.697 228.547 347.192 232.926 342.944 234.112C340.148 234.892 337.147 234.107 335.091 232.058C333.034 230.008 332.239 227.011 333.01 224.212C333.781 221.413 335.998 219.244 338.813 218.536Z" fill="white"/>
<path d="M221.157 329.47C224.93 327.674 229.449 329.194 231.369 332.906C233.29 336.618 231.921 341.184 228.276 343.227C225.807 344.611 222.78 344.538 220.38 343.038C217.98 341.539 216.589 338.85 216.751 336.024C216.912 333.199 218.602 330.686 221.157 329.47Z" fill="white"/>
<path d="M1869.21 375.164L1869.33 188.174L1869.2 135.547C1869.11 120.929 1864.36 88.2246 1885.07 86.8666C1901.22 85.8066 1918.19 86.1666 1934.45 86.1826L2032.16 86.0977C2053.37 108.015 2074.79 129.731 2096.42 151.243C2096.19 162.427 2096.11 173.614 2096.18 184.8L2114.74 184.673L2114.7 199.686L2129.17 199.791L2129.34 343.214C2129.34 363.554 2129.99 384.01 2129.53 404.251C2129.29 415.058 2121.28 422.59 2110.69 422.64C2048.89 422.932 1987 422.624 1925.17 422.627C1904.32 422.628 1912.86 413.757 1905.22 408.016C1896.5 407.49 1895.07 406.313 1896.42 396.806C1892.78 394.583 1889.99 395.01 1885.73 394.459C1885.08 389.49 1885.07 380.8 1885.81 375.852C1880.86 374.857 1874.38 375.137 1869.21 375.164Z" fill="#08080A"/>
<path d="M2095.76 187.751L2111.65 187.748L2112.04 312.097C2112.06 333.212 2112.18 354.321 2111.9 375.434C2111.63 395.571 2099.22 392.649 2083.51 392.641L1952.1 392.538C1938.84 392.559 1897.83 393.496 1887.44 392.162L1885.74 394.459C1885.09 389.49 1885.07 380.8 1885.81 375.852C1887.27 375.689 1887.33 375.845 1888.31 375.122L2021.75 375.02C2040.93 375.031 2060.57 375.878 2079.6 374.693C2088.82 374.119 2095.01 365.258 2095.27 356.511C2096.93 300.488 2095.14 243.771 2095.76 187.751Z" fill="#8064F5"/>
<path d="M1885.81 375.851C1887.27 375.688 1887.33 375.844 1888.31 375.121C1887.84 381.66 1888.75 385.52 1887.44 392.161L1885.74 394.458C1885.09 389.489 1885.07 380.799 1885.81 375.851Z" fill="#301D72"/>
<path d="M1882.23 90.0857C1891.8 89.0337 1918.85 89.6687 1929.94 89.6457L2028.32 89.6837C2028.25 161.711 2020.38 155.185 2093.04 154.615C2091.84 220.087 2094.13 293.271 2092.06 359.247C2091.91 364.297 2086.12 368.309 2082.05 371.003C2075.66 372.618 2030.15 371.772 2020.32 371.76L1872.63 371.919L1872.59 175.539C1872.66 151.735 1871.42 123.87 1873.34 100.134C1873.7 95.7187 1878.74 92.4047 1882.23 90.0857Z" fill="white"/>
<path d="M1968.4 117.001C1998.26 116.047 1983.78 139.122 1991.56 145.679C1995.02 145.971 1995.95 145.761 1998.68 147.646C2001.56 153.172 2001.1 191.447 1997.28 198.201C1995.91 200.608 1979.46 199.685 1976.37 199.617C1969 199.65 1950.97 201.112 1946.47 197.253C1943.34 189.116 1943.04 156.466 1945.17 148.583C1948.85 144.834 1948.65 147.237 1952.28 145.378C1956 143.474 1954.26 129.548 1956.53 125.637C1959.55 120.44 1963.54 118.983 1968.4 117.001Z" fill="#08080A"/>
<path d="M1947.3 148.851C1963.79 148.682 1980.55 148.945 1997.07 148.996C1997.29 157.217 1997.81 189.858 1996.38 196.401C1990.5 196.923 1950.47 198.125 1947.92 195.172C1946.51 193.541 1947 153.787 1947.3 148.851Z" fill="white"/>
<path d="M1970.29 157.467C1979.75 160.121 1983.53 167.219 1974.19 174.078C1972.42 175.374 1972.97 185.731 1972.82 188.409C1967.33 185.747 1972.14 177.709 1969.99 175.406C1964.09 169.084 1959.54 165.84 1970.29 157.467Z" fill="#08080A"/>
<path d="M1970.24 161.337C1972.9 160.47 1975.76 161.885 1976.69 164.523C1977.62 167.161 1976.27 170.057 1973.65 171.045C1971.91 171.705 1969.94 171.368 1968.51 170.163C1967.09 168.958 1966.42 167.075 1966.78 165.243C1967.14 163.41 1968.46 161.916 1970.24 161.337Z" fill="white"/>
<path d="M1967.11 119.949C1984.65 118.776 1987.2 127.253 1986.91 142.868C1986.83 147.3 1983.47 146.036 1979.41 146.004L1957.14 145.977C1956.88 132.607 1954.8 127.583 1967.11 119.949Z" fill="white"/>
<path d="M1907.93 314.278C1920.24 313.944 2019.29 313.562 2022.49 315.004L2023.34 317.447C2012.78 317.823 1912.68 318.502 1908.71 317.005L1907.93 314.278Z" fill="#08080A"/>
<path d="M1906.88 262.32C1907.85 262.189 1910.05 261.893 1911.88 261.888C1945.6 261.795 1979.9 260.913 2013.56 262.196C2014.24 262.806 2014.91 263.416 2015.59 264.025C2013 264.968 2011.97 265.144 2008.48 265.136C1975.57 265.058 1942.14 265.95 1909.31 264.635C1908.34 263.71 1907.52 262.938 1906.88 262.32Z" fill="#08080A"/>
<path d="M1907.83 235.225C1918.23 234.779 1996.99 234.023 2001.63 235.643L2001.91 238.379C1989.4 238.866 1917.2 239.967 1908.76 237.728L1907.83 235.225Z" fill="#08080A"/>
<path d="M1978.43 288.32C1989.99 285.616 2046 288.363 2060.79 287.423C2063.92 287.224 2064.92 287.911 2066.65 289.865C2062.6 290.872 2057.88 290.788 2053.69 290.742C2029.34 290.479 2004.76 291.584 1980.47 290.258C1979.79 289.612 1979.11 288.966 1978.43 288.32Z" fill="#08080A"/>
<path d="M1907.52 287.272C1927.04 286.913 1947.04 287.633 1966.58 287.613C1967.45 287.612 1967.97 288.88 1968.21 289.525L1968.57 290.457C1959.52 291.143 1919.98 291.041 1908.38 290.297C1907.68 290.253 1907.57 288.188 1907.52 287.272Z" fill="#08080A"/>
<path d="M2013.86 235.275C2015.96 235.146 2018.06 235.066 2020.16 235.035C2026.16 234.972 2058.09 234.352 2065.47 235.607C2065.88 235.676 2065.77 237.41 2065.73 238.017C2049.84 238.552 2031.3 238.601 2015.25 238.144C2014.49 238.122 2014.19 236.881 2014.07 236.293L2013.86 235.275Z" fill="#08080A"/>
<path d="M2023.83 262.284C2033.65 260.711 2053.3 262.111 2064.13 261.796C2065.33 261.761 2066.27 263.464 2066.98 264.405C2063.34 265.129 2054.97 265.61 2051.42 265.16C2045.92 264.463 2027.62 266.943 2024.82 263.446L2023.83 262.284Z" fill="#08080A"/>
<path d="M2114.68 202.375C2118.05 202.257 2122.25 201.618 2124.95 203.298C2124.78 202.903 2124.43 369.208 2124.58 383.14C2124.61 385.737 2123.89 391.341 2122.9 393.905C2121.31 398.007 2118.03 402.694 2113.66 404.234C2103.43 407.846 2089.43 405.151 2078.51 405.946C2087.79 407.62 2104.24 405.257 2114.24 406.988C2122.52 401.272 2122.74 398.505 2126.72 388.923C2126.85 398.454 2128.77 418.661 2114.54 419.117C2051.18 421.15 1987.47 419.301 1924.03 419.878C1915.78 419.952 1909.97 417.065 1909.52 407.897L1909.49 405.618C1906.37 405.535 1904.29 405.552 1901.23 405.007C1899.46 402.658 1898.82 398.947 1900.4 396.37C1905.87 394.662 1931.83 395.387 1939.04 395.417L2034.44 395.493C2054.34 395.547 2074.23 395.759 2094.12 395.639C2104.84 395.574 2108.07 394.664 2114.15 385.46C2115.32 364.973 2114.54 339.221 2114.51 318.201L2114.68 202.375Z" fill="white"/>
<path d="M2114.24 406.989C2122.52 401.273 2122.74 398.506 2126.72 388.924C2126.85 398.455 2128.77 418.662 2114.54 419.118C2051.18 421.151 1987.47 419.302 1924.03 419.879C1915.78 419.953 1909.97 417.066 1909.52 407.898L1909.49 405.619L2018.69 405.563C2035.53 405.584 2062.57 404.754 2078.51 405.947C2087.79 407.621 2104.24 405.258 2114.24 406.989Z" fill="#8064F5"/>
<path d="M1909.49 405.618L2018.69 405.562C2035.53 405.583 2062.57 404.753 2078.51 405.946C2087.79 407.62 2104.24 405.257 2114.24 406.988C2108 408.702 2064.73 407.972 2055.43 407.961L1909.52 407.897L1909.49 405.618Z" fill="#301D72"/>
<path d="M2032.38 93.3633C2037.28 96.3913 2083.9 144.145 2088.65 150.284C2074.92 150.695 2060.78 150.3 2047.01 150.564C2042.59 150.649 2038.98 149.684 2035.9 146.434C2034.68 145.151 2032.68 141.846 2032.63 140.24C2032.15 125.538 2032.24 107.851 2032.38 93.3633Z" fill="white"/>
<path d="M694.163 124.143C697.749 123.674 700.8 123.522 704.408 123.48C728.128 123.358 750.901 132.779 767.601 149.625C798.794 180.669 796.025 211.957 796.023 251.592C838.785 264.183 829.042 301.036 829.959 337.345C830.345 352.62 831.502 394.959 827.877 408.291C826.002 415.043 822.393 421.188 817.408 426.114C800.689 442.495 744.132 436.878 719.044 436.821L652.241 436.914C616.501 436.961 582.052 440.772 581.802 391.478C581.63 357.482 580.946 322.845 582.182 288.832C582.911 268.783 596.616 256.768 615.013 251.896C614.829 218.671 612.357 190.611 632.693 161.781C647.954 140.144 668.415 128.613 694.163 124.143Z" fill="#08080A"/>
<path d="M616.975 256.083L728.999 256.061C751.778 256.068 786.06 253.15 807.514 260.558C813.692 262.691 823.864 277.647 824.273 284.37C826.599 322.588 825.676 362.173 824.766 400.49C824.282 418.723 810.29 429.547 793.578 432.414L681.451 432.297C657.673 432.341 625.569 435.301 603.848 428.346C591.271 424.318 586.018 404.904 586.153 393.165C586.548 358.775 585.094 324.122 586.533 289.759C587.337 270.575 599.373 260.115 616.975 256.083Z" fill="white"/>
<path d="M702.486 301.036C704.529 300.915 706.462 300.843 708.508 301.07C715.278 301.755 721.454 305.237 725.544 310.675C735.388 323.849 729.392 339.328 717.209 348.184C718.486 355.31 721.857 372.626 721.687 379.081C718.63 380.827 717.253 380.248 713.405 380.311L690.859 380.208C692.317 369.64 694.012 359.107 695.945 348.616C676.991 333.128 677.806 309.538 702.486 301.036Z" fill="#08080A"/>
<path d="M701.359 305.961C726.506 303.924 735.788 330.413 712.855 344.839L712.148 345.29C712.845 349.908 717.815 373.643 715.838 375.574L696.617 375.686C697.818 364.585 699.051 356.404 700.923 345.429C690.699 338.991 684.844 332.922 688.52 318.994C690.301 312.244 695.414 309.019 701.359 305.961Z" fill="white"/>
<path d="M699.367 161.119C716.212 159.765 731.534 164.868 743.555 176.893C763.932 197.275 760.392 225.347 760.227 251.748L713.655 251.595L650.758 251.594C650.443 210.263 648.102 171.104 699.367 161.119Z" fill="white"/>
<path d="M697.086 128.208C723.552 126.474 745.606 133.865 764.796 152.981C794.48 182.548 791.688 213.302 791.422 251.717L764.67 251.716C764.691 243.165 764.386 233.78 764.626 225.337C765.614 190.558 748.372 164.034 713.395 157.08C694.846 154.891 677.612 160.548 664.254 173.658C642.602 194.908 646.056 223.914 646.197 251.661L619.26 251.674C618.904 218.259 616.475 189.947 638.347 161.581C653.297 142.19 672.886 131.258 697.086 128.208Z" fill="white"/>
<path d="M1521.13 127.024C1540.17 125.667 1536.39 131.891 1553.45 134.385C1561.9 135.621 1571.89 126.179 1581.56 126.342C1599.88 126.652 1599.53 142.821 1612.25 150.493C1618.77 154.424 1630.69 151.865 1637.44 154.675C1657.5 163.023 1646.63 181.902 1654.47 194.145C1659.53 202.058 1671.43 206.218 1676.02 216.671C1683.17 232.952 1668.61 243.027 1670.4 258.146C1671.67 268.807 1680 277.6 1676.27 289.822C1672.38 302.575 1660.49 305.214 1653.99 315.489C1649.14 323.152 1652.14 333.815 1648.71 342.521C1641.25 361.478 1621.35 351.275 1611.92 358.179C1600.28 366.702 1603.42 374.6 1587.15 381.653C1568.57 382.635 1570.07 375.24 1553.82 373.935C1547.04 373.39 1536.86 381.542 1528.81 382.123C1506.85 383.71 1508.67 362.447 1494.93 356.75C1486.16 353.111 1474.55 358.845 1464.82 350.453C1453.13 340.372 1460.72 326.077 1454.48 315.118C1448.46 304.541 1434.49 301.067 1431.41 286.724C1428.7 274.103 1438.91 265.665 1438.95 254.124C1438.98 245.195 1431.62 236.562 1431.08 226.63C1430.01 206.734 1450.31 204.793 1455.85 190.388C1459.34 181.297 1454.92 168.809 1463.02 159.846C1470.58 151.488 1484.18 152.383 1495.04 151.559C1507.33 142.969 1506.81 133.369 1521.13 127.024Z" fill="#08080A"/>
<path d="M1522.21 130.954C1538.63 129.992 1538.76 136.909 1553.5 138.802C1562.25 139.927 1572.83 130.274 1582.16 130.635C1596.94 131.207 1598.58 147.176 1609.36 153.919C1616.66 158.493 1627.63 155.668 1635.41 158.498C1652.56 164.731 1643.01 185.575 1651.71 197.633C1658.05 206.407 1667.8 208.556 1672.24 218.441C1678.65 232.734 1664.48 242.153 1665.8 256.707C1666.76 267.364 1675.56 278.337 1672.09 288.755C1668.48 299.624 1655.42 304.037 1649.76 313.698C1644.97 321.883 1648.51 331.799 1644.94 340.716C1638.57 356.634 1619.04 347.368 1609.17 354.745C1597.36 363.572 1600.79 370.943 1585.34 377.507C1571.99 378.007 1567.62 370.52 1554.83 369.289C1544.88 368.331 1535.64 378.982 1526.02 378.092C1510.53 376.657 1509.78 359.904 1498.27 353.386C1491.56 349.588 1480.93 352.511 1474.23 350.459C1454.73 344.49 1465.58 323.911 1457.68 311.577C1452.59 303.632 1442.16 299.439 1437.53 291.048C1429.58 276.638 1445.58 266.289 1442.99 251.489C1441.04 240.283 1432.32 231.43 1436.23 219.797C1440.01 208.55 1453.66 205.097 1458.86 194.624C1462.7 186.876 1459.92 177.3 1462.62 169.068C1468.67 150.61 1489.69 160.893 1500.4 153.111C1510.92 145.461 1508.6 137.889 1522.21 130.954Z" fill="white"/>
<path d="M1601.41 209.418C1606.49 210.031 1617.88 223.807 1619.23 229.237C1617 235.022 1547.39 303.172 1537.24 313.4L1510.06 286.218C1502.83 278.847 1494.66 270.842 1487.96 263.108C1492.32 257.776 1502.91 248.151 1508.27 243.049C1517.34 252.898 1527.7 262.991 1537.17 272.557C1558.43 251.356 1579.84 230.309 1601.41 209.418Z" fill="#08080A"/>
<path d="M1602 214.498C1604.13 215.368 1613.77 226.281 1616.05 228.733C1592.78 253.806 1561.92 282.854 1537.16 307.532C1528.01 297.499 1517.53 287.412 1507.85 277.784L1493.04 263.061C1498.12 258.433 1503.16 253.754 1508.15 249.026C1517.64 258.868 1527.28 268.577 1537.05 278.151C1544.2 272.087 1551.74 264.022 1558.55 257.378C1573.16 243.209 1587.64 228.915 1602 214.498Z" fill="white"/>
<path d="M1542.74 157.142C1569.9 153.096 1613.78 167.147 1627.54 192.003L1626.96 193.28C1623.28 192.842 1604.14 173.719 1591.41 168.131C1568.74 158.364 1543.12 157.986 1520.17 167.078C1497.27 176.406 1479.05 194.499 1469.57 217.331C1459.77 240.666 1459.75 266.954 1469.49 290.308C1478.87 312.774 1496.81 330.575 1519.35 339.769C1542.4 348.905 1568.12 348.665 1591 339.1C1615.44 328.634 1631.05 309.543 1640.59 285.261L1640.96 284.109C1648.8 259.169 1647.2 231.217 1634.1 208.749C1632.53 206.058 1630.84 202.791 1631.74 199.937L1633.14 199.856C1639.84 206.103 1646.42 226.66 1648.14 235.879C1652.95 261.349 1647.51 287.688 1633.01 309.174C1618.92 330.074 1597.01 344.434 1572.22 349.029C1547.07 353.511 1520.33 348.351 1499.31 333.63C1478.28 318.848 1464.05 296.248 1459.82 270.891C1455.2 244.976 1461.18 218.293 1476.42 196.829C1493.38 173.001 1514.41 161.809 1542.74 157.142Z" fill="#08080A"/>
<path d="M2319.82 244.02C2394.93 243.98 2473.19 242.981 2548.1 244.444L2548.03 419.652C2473.28 418.471 2395.05 419.726 2319.92 419.718L2319.82 244.02Z" fill="#08080A"/>
<path d="M2324.15 248.486L2364.25 248.593C2364.41 263.544 2363.62 278.723 2364.43 293.684C2365.58 315.274 2388.54 311.155 2404.8 311.158L2460.85 311.083C2508.86 310.944 2503.03 308.051 2503.17 259.883C2503.18 256.198 2503.1 252.211 2503.06 248.504L2543.75 248.734L2543.79 354.104C2543.81 374.451 2543.72 394.799 2543.49 415.145L2324.18 415.202L2324.15 248.486Z" fill="white"/>
<path d="M2368.46 248.62L2498.64 248.543C2498.86 262.391 2501.38 292.736 2494.83 303.173C2485.45 308.902 2449.81 306.685 2437.07 306.882C2427.17 307.035 2378.2 308.917 2371.99 302.596C2366.4 296.915 2368.38 259.219 2368.46 248.62Z" fill="white"/>
<path d="M968.529 284.121L1024.19 284.258L1024.26 313.494C1070.78 288.229 1081.2 297.341 1128.64 308.398C1143.34 311.825 1168.25 306.856 1182.74 315.281C1187.79 318.22 1189.68 325.764 1190.76 330.782C1203.26 321.785 1240.85 288.95 1254.4 289.867C1260.53 290.283 1266.42 294.038 1270.29 298.711C1273.36 302.416 1274.79 306.702 1274.15 311.511C1272.03 327.282 1249.75 340.789 1238.1 350.101L1160.89 413.249C1117.49 402.012 1068.41 392.193 1024.19 382.12L1024.3 409.918C1005.73 409.708 986.905 409.855 968.317 409.854L968.529 284.121Z" fill="#08080A"/>
<path d="M1250.07 293.984C1250.89 294.016 1251.71 294.063 1252.52 294.124C1267.34 295.333 1275.44 311.205 1264.47 322.039C1254.09 332.289 1241.54 341.869 1230.16 351.189L1159.85 408.319L1024.24 377.934L1024.28 318.341C1032.82 313.474 1040.31 310.036 1049.32 306.225C1084.26 294.598 1094.78 307.582 1128.11 312.523C1142.27 313.736 1157.46 314.182 1171.43 316.004C1180.54 317.193 1189.87 327.34 1185.88 334.666C1173.1 358.083 1109.23 338.311 1090.45 347.895L1091.22 349.414C1099.56 351.046 1124.39 349.742 1135.12 350.001C1148.19 349.625 1162.87 351.481 1175.66 349.295C1183.62 347.217 1191.15 335.411 1197.67 331.304C1212.73 321.82 1234.37 300.524 1250.07 293.984Z" fill="white"/>
<path d="M973.044 288.895C987.368 288.326 1005.39 288.696 1019.98 288.632L1019.95 405.487L972.9 405.423L973.044 288.895Z" fill="white"/>
<path d="M991.926 377.4C997.67 375.544 1003.83 378.712 1005.66 384.464C1007.49 390.217 1004.29 396.36 998.531 398.165C992.808 399.957 986.711 396.786 984.893 391.07C983.074 385.355 986.218 379.244 991.926 377.4Z" fill="#08080A"/>
<path d="M993.987 381.419C997.426 380.713 1000.79 382.919 1001.51 386.354C1002.24 389.79 1000.05 393.164 996.616 393.905C993.159 394.652 989.754 392.444 989.026 388.984C988.297 385.523 990.522 382.13 993.987 381.419Z" fill="white"/>
<path d="M1170.24 84.0803C1178.1 83.4923 1185.35 84.4903 1192.63 87.5783C1203.66 92.2223 1212.35 101.111 1216.76 112.239C1221.23 123.439 1220.99 135.974 1216.08 146.994C1209.94 160.592 1202.26 165.95 1188.81 171.009C1187.12 174.788 1186.74 176.623 1188.63 180.278C1191.89 182.52 1194.62 181.933 1198.72 181.848C1198.58 191.903 1201.14 197.463 1190 198.628L1188.6 200.639C1188.34 203.461 1187.76 205.543 1189.12 207.909C1201.06 208.254 1198.85 215.363 1198.55 225.329C1194.51 225.305 1191.12 224.444 1188.66 226.517C1187.77 230.146 1187.76 230.6 1188.47 234.267L1190.03 235.165C1193.45 234.942 1194.66 234.628 1197.85 235.589C1199.36 238.803 1198.74 247.82 1198.68 251.91C1194.33 251.799 1189.95 250.978 1187.1 254.533C1187.4 256.822 1187.53 256.714 1188.86 258.657L1196.18 264.178C1190.19 270.255 1184.1 276.24 1177.93 282.131C1171.48 276.592 1164.25 269.276 1158.02 263.256L1158.12 169.745C1156.31 168.837 1154.54 167.843 1152.83 166.766C1142.34 160.215 1134.98 150.541 1132.33 138.368C1129.79 126.583 1132.05 114.271 1138.61 104.155C1146.31 92.3744 1156.85 86.8013 1170.24 84.0803Z" fill="#08080A"/>
<path d="M1174.35 88.2012C1181.82 88.3732 1187.81 89.6032 1194.43 93.2692C1204.11 98.6532 1211.18 107.763 1213.97 118.485C1216.83 129.121 1215.28 140.457 1209.68 149.939C1203.3 160.528 1195.37 164.566 1183.89 167.405L1183.78 185.991C1189.15 185.884 1191.28 184.783 1194.43 189.443L1193.53 191.72C1189.36 194.244 1189.17 193.39 1183.56 193.512C1183.38 200.139 1182.38 205.904 1185.45 211.582C1188.57 213.837 1187.47 213.152 1192.26 212.931C1194.39 215.059 1193.69 215.037 1194.07 218.955C1182.89 222.753 1180.13 226.785 1184.17 238.517C1187.26 241.143 1186.96 239.08 1192.62 239.716L1193.82 241.272C1194.02 244.99 1194.63 244.633 1192.95 246.973C1189.23 247.243 1188.38 247.276 1184.89 248.503C1182.67 251.475 1183.44 252.752 1183.41 257.103C1183.77 261.754 1184.16 260.769 1187.74 265.068C1186.53 268.748 1180.98 273.46 1177.96 276.415L1162.43 261.08L1162.54 166.624C1159.04 165.197 1154.76 163.136 1151.72 160.846C1143.09 154.442 1137.45 144.79 1136.11 134.128C1134.7 123.399 1137.61 112.551 1144.2 103.968C1152.27 93.5562 1161.8 89.8122 1174.35 88.2012Z" fill="white"/>
<path d="M1172 105.251C1180.57 103.085 1189.28 108.253 1191.48 116.812C1193.69 125.372 1188.55 134.102 1180 136.341C1171.4 138.594 1162.61 133.425 1160.39 124.814C1158.18 116.203 1163.38 107.431 1172 105.251Z" fill="#08080A"/>
<path d="M1171.45 110.398C1177.19 107.903 1183.87 110.485 1186.43 116.192C1189 121.899 1186.5 128.609 1180.83 131.247C1177.09 132.983 1172.71 132.577 1169.36 130.183C1166.01 127.789 1164.21 123.778 1164.64 119.682C1165.07 115.587 1167.67 112.04 1171.45 110.398Z" fill="white"/>
<path d="M2556.03 110.444C2559.87 109.997 2564.17 108.905 2567.09 111.618C2563.95 117.039 2549.62 134.978 2544.8 141.277L2495.9 204.921C2488.59 198.418 2481.26 191.552 2474.02 184.934C2469.25 189.546 2445.08 211.052 2439.41 209.767L2438.79 207.103L2438.81 151.927C2432.71 147.104 2410.19 129.914 2405.96 124.646L2406.96 123.156C2411.96 121.299 2418.82 121.528 2424.24 121.074C2468.08 117.405 2512.31 115.133 2556.03 110.444Z" fill="#08080A"/>
<path d="M2552.93 120.855L2553.32 121.284C2553.38 124.44 2501.56 190.496 2495.4 198.502C2490.78 194.979 2483.95 188.325 2479.48 184.229C2473.46 178.899 2467.55 173.446 2461.76 167.874C2490.3 153.807 2525.56 136.491 2552.93 120.855Z" fill="white"/>
<path d="M2413.69 126.26C2451.49 122.965 2491.58 120.036 2529.42 117.547L2528.2 121.246C2502.35 127.674 2468.19 139.979 2441.03 147.797C2431.89 140.776 2422.75 133.415 2413.69 126.26Z" fill="white"/>
<path d="M2529.39 125.729L2531.09 127.748C2507.97 139.565 2478.78 155.522 2455.7 165.818C2453.27 174.484 2449.01 183.053 2445.88 191.553L2442.91 189.849C2443.1 177.315 2443.11 164.778 2442.96 152.243C2447.52 150.642 2452.63 149.101 2457.29 147.784C2481.38 140.979 2505.24 132.217 2529.39 125.729Z" fill="white"/>
<path d="M2458.33 171.221C2461.97 173.61 2468 179.309 2471.42 182.381C2466.6 186.151 2460.46 191.084 2455.58 194.503C2452.28 197.03 2450.18 198.437 2446.67 200.66C2450.88 190.454 2454.57 181.688 2458.33 171.221Z" fill="white"/>
<path d="M2537.85 116.406L2539.56 118.183C2535.71 118.971 2531.92 119.994 2528.2 121.246L2529.42 117.547C2531.14 117.035 2535.71 116.698 2537.85 116.406Z" fill="#ffffff"/>
<path d="M2529.38 125.728C2531.32 125.131 2536.36 123.164 2538.22 123.477L2538.34 123.584L2538.27 123.822L2538 123.595L2537.8 124.269C2536.04 125.439 2533.05 126.809 2531.08 127.748L2529.38 125.728Z" fill="#ffffff"/>
<path d="M2442.91 189.848L2445.88 191.552C2443.25 198.101 2443.06 195.068 2442.91 189.848Z" fill="#ffffff"/>
<path d="M2537.85 116.406C2539.51 116.045 2541.73 115.491 2543.37 116.144L2543.54 116.344C2543.29 117.369 2540.4 117.931 2539.56 118.183L2537.85 116.406Z" fill="#555555"/>
<path d="M2398.74 178.029C2401.84 177.608 2400.44 177.338 2403.1 178.68C2399.84 182.146 2380.09 185.381 2373.52 187.446C2339.24 198.226 2247.71 232.774 2275.17 282.4C2280.7 292.409 2296.8 297.75 2307.84 299.741L2307.46 301.714C2307.11 301.815 2306.77 301.916 2306.42 302.017C2290.88 301.748 2269.83 288.044 2267.55 271.384C2260.08 217.039 2361.69 186.58 2398.74 178.029Z" fill="#08080A"/>
<path d="M666.836 67.245C669.376 66.81 671.211 66.877 673.236 68.083C671.317 70.06 662.7 70.871 659.521 71.295C616.068 77.098 582.566 105.916 570.175 147.535C570.072 149.228 570.065 148.567 568.963 150.312L567.583 149.744C565.075 141.845 581.563 114.843 587.155 108.196C607.857 83.585 635.084 70.531 666.836 67.245Z" fill="#08080A"/>
<path d="M664.633 97.0124C667.39 96.7494 670.171 96.0794 672.418 97.4604C670.104 99.8304 651.605 102.11 646.077 104.91C619.076 118.584 607.151 132.339 597.149 159.969C596.084 163.203 596.852 162.381 594.465 164.208L593.322 163.469C594.74 155.161 601.393 141.177 606.193 134.143C620.952 112.511 639.623 102.155 664.633 97.0124Z" fill="#08080A"/>
<path d="M2365.91 147.092L2366.96 148.422C2365.54 150.897 2354.73 152.921 2351.05 153.925C2327.95 160.246 2308.32 168.775 2287.26 179.939L2286.19 178.969L2286.35 177.5C2306.23 164.116 2342.99 152.974 2365.91 147.092Z" fill="#08080A"/>
<path d="M1631.18 100.385C1631.77 100.803 1633.54 101.868 1633.32 102.487C1631.74 107.087 1624.03 120.482 1621.71 124.217C1621.35 123.888 1619.96 122.717 1620.04 122.287C1620.65 118.999 1629.69 102.768 1631.18 100.385Z" fill="#08080A"/>
<path d="M1472.96 100.279C1473.33 100.359 1475.92 100.78 1476.11 101.145C1478.51 105.646 1486.43 117.896 1486.96 122.279L1487.16 123.718C1482.7 122.964 1474.39 104.741 1472.96 100.279Z" fill="#08080A"/>
<path d="M1485.29 387.371C1485.72 387.776 1487.15 389.002 1487 389.459C1485.61 393.875 1477.44 408.489 1475.24 411.848C1474.9 411.374 1473.59 409.694 1473.64 409.414C1474.3 405.802 1483.72 389.728 1485.29 387.371Z" fill="#08080A"/>
<path d="M1619.5 387.455C1624.26 389.517 1632.82 406.515 1632.61 411.261C1628.12 408.791 1619.69 392.139 1619.5 387.455Z" fill="#08080A"/>
<path d="M1552.51 87.1582C1552.99 87.3252 1554.93 87.9452 1555.06 88.2382C1556.45 91.1642 1555.82 108.903 1555.79 111.508C1555.14 111.357 1552.88 110.905 1552.77 110.474C1551.76 106.591 1552.36 90.4042 1552.51 87.1582Z" fill="#08080A"/>
<path d="M1553.21 398.387C1557.68 401.48 1555.94 418.323 1555.28 423.578C1554.74 423.291 1552.78 422.515 1552.69 421.667C1552.04 415.4 1551.59 404.341 1553.21 398.387Z" fill="#08080A"/>
<path d="M1426.23 320.846C1434.49 321.814 1421.09 326.506 1420.43 326.773C1416.77 328.303 1413.09 329.79 1409.4 331.233C1399.98 329.64 1423.79 321.905 1426.23 320.846Z" fill="#08080A"/>
<path d="M1406.87 178.84C1411.52 179.373 1426.79 184.206 1428.48 188.787C1423.39 188.288 1408.6 184.093 1406.87 178.84Z" fill="#08080A"/>
<path d="M1400.94 253.224C1406.16 253.025 1421.62 250.611 1422.07 256.397C1416.36 256.507 1401.97 259.082 1400.94 253.224Z" fill="#08080A"/>
<path d="M1679.69 320.992C1683.96 322.049 1694.98 326.714 1699.5 328.945C1699.97 329.182 1699.62 331.129 1699.56 331.655C1694.89 330.529 1679.43 326.232 1679.69 320.992Z" fill="#08080A"/>
<path d="M1697.68 178.793C1707.58 179.871 1681.7 188.529 1681.53 188.595C1671.24 188.149 1697.58 178.835 1697.68 178.793Z" fill="#08080A"/>
<path d="M1687.54 254.214C1692.19 253.801 1707.07 252.159 1709.31 256.505C1705.19 257.196 1688.44 259.482 1687.54 254.214Z" fill="#08080A"/>
</svg>
