<svg xmlns="http://www.w3.org/2000/svg" width="24.492" height="22.02" viewBox="0 0 24.492 22.02"><g transform="translate(0.5 -101.9)"><path d="M218.244,111.855a.618.618,0,0,0-.874,0l-5.126,5.126V103.018a.618.618,0,0,0-1.236,0v13.963l-5.126-5.126a.618.618,0,1,0-.874.874l6.182,6.182a.616.616,0,0,0,.875,0l6.182-6.182a.618.618,0,0,0,0-.874Z" transform="translate(-199.879)" fill="#f6fbff"/><path d="M211.628,119.593h0a1.123,1.123,0,0,1-.792-.33l-6.181-6.181a1.118,1.118,0,1,1,1.581-1.581l4.273,4.273V103.018a1.118,1.118,0,0,1,2.236,0v12.756l4.273-4.273a1.12,1.12,0,0,1,1.265-.223l.063-.031.256.252a1.12,1.12,0,0,1,0,1.581l-6.182,6.182A1.121,1.121,0,0,1,211.628,119.593Zm-6.184-7.42a.116.116,0,0,0-.084.035.118.118,0,0,0,0,.167l6.182,6.182a.118.118,0,0,0,.084.036v0a.116.116,0,0,0,.082-.034l6.185-6.185a.118.118,0,0,0,.015-.148l-.018-.017a.118.118,0,0,0-.167,0l-5.98,5.98v-15.17a.118.118,0,0,0-.236,0v15.17l-5.98-5.98A.116.116,0,0,0,205.444,112.174Z" transform="translate(-199.879)" fill="#fff"/><path d="M21.638,772.946H1.855A1.857,1.857,0,0,1,0,771.091v-2.473a.618.618,0,1,1,1.236,0v2.473a.618.618,0,0,0,.618.618H21.638a.618.618,0,0,0,.618-.618v-2.473a.618.618,0,1,1,1.236,0v2.473A1.857,1.857,0,0,1,21.638,772.946Z" transform="translate(0 -649.526)" fill="#f6fbff"/><path d="M21.638,773.446H1.855A2.357,2.357,0,0,1-.5,771.091v-2.473a1.118,1.118,0,1,1,2.236,0v2.473a.118.118,0,0,0,.118.118H21.638a.118.118,0,0,0,.118-.118v-2.473a1.118,1.118,0,1,1,2.236,0v2.473A2.357,2.357,0,0,1,21.638,773.446ZM.618,768.5a.118.118,0,0,0-.118.118v2.473a1.356,1.356,0,0,0,1.355,1.355H21.638a1.356,1.356,0,0,0,1.355-1.355v-2.473a.118.118,0,1,0-.236,0v2.473a1.119,1.119,0,0,1-1.118,1.118H1.855a1.119,1.119,0,0,1-1.118-1.118v-2.473A.118.118,0,0,0,.618,768.5Z" transform="translate(0 -649.526)" fill="#fff"/></g></svg>