<svg xmlns="http://www.w3.org/2000/svg" viewBox="0 0 1680 720" role="img" aria-labelledby="s01-t s01-d" preserveAspectRatio="xMidYMid meet">
  <title id="s01-t">2060 — Hero</title>
  <desc id="s01-d">Wordmark "2060" set large, over a very faint distributed graph of DID nodes and credential threads. A thin #553C9A accent line runs beneath the wordmark. Theme-adaptive via currentColor. 21:9.</desc>

  <!-- Faint trust-graph backdrop (fg at ~7% opacity — reads equally faint on both themes) -->
  <g fill="currentColor" stroke="currentColor" stroke-width="1.5" stroke-linecap="round" opacity="0.07">
    <!-- Left cluster -->
    <line x1="140" y1="130" x2="320" y2="210"/>
    <line x1="320" y1="210" x2="485" y2="95"/>
    <line x1="485" y1="95" x2="610" y2="195"/>
    <line x1="320" y1="210" x2="270" y2="345"/>
    <line x1="270" y1="345" x2="170" y2="530"/>
    <line x1="270" y1="345" x2="390" y2="485"/>
    <line x1="390" y1="485" x2="555" y2="585"/>
    <line x1="610" y1="195" x2="555" y2="585"/>
    <circle cx="140" cy="130" r="5"/><circle cx="320" cy="210" r="4"/><circle cx="485" cy="95" r="5"/>
    <circle cx="610" cy="195" r="4"/><circle cx="270" cy="345" r="5"/><circle cx="170" cy="530" r="4"/>
    <circle cx="390" cy="485" r="5"/><circle cx="555" cy="585" r="4"/>
    <!-- Right cluster -->
    <line x1="1095" y1="135" x2="1250" y2="215"/>
    <line x1="1250" y1="215" x2="1400" y2="160"/>
    <line x1="1400" y1="160" x2="1545" y2="105"/>
    <line x1="1250" y1="215" x2="1460" y2="325"/>
    <line x1="1460" y1="325" x2="1340" y2="490"/>
    <line x1="1340" y1="490" x2="1520" y2="565"/>
    <line x1="1340" y1="490" x2="1180" y2="600"/>
    <line x1="1095" y1="135" x2="1180" y2="600"/>
    <circle cx="1095" cy="135" r="4"/><circle cx="1250" cy="215" r="5"/><circle cx="1400" cy="160" r="4"/>
    <circle cx="1545" cy="105" r="5"/><circle cx="1460" cy="325" r="4"/><circle cx="1340" cy="490" r="5"/>
    <circle cx="1520" cy="565" r="4"/><circle cx="1180" cy="600" r="5"/>
  </g>

  <!-- Central 2060 wordmark (scale 3×; uses currentColor) -->
  <g transform="translate(596.15 239.85) scale(3)" fill="currentColor">
    <path d="M162.412,32.2A24.973,24.973,0,0,0,134.87,10.156c-5.929.658-10.914,2.771-14.956,7.042a26.2,26.2,0,0,1,5.453,7.912l.023.376a15.463,15.463,0,1,1,13.934,24.832,15.668,15.668,0,0,1-11.718-3.363,15.1,15.1,0,0,1-5.327-8.241,12.808,12.808,0,0,1-.247-1.8c0-.056,0-.112,0-.168A22.135,22.135,0,0,0,99.936,15.32c-.679,0-1.351.042-2.013.1a26.268,26.268,0,0,1,16.369-5.943l.275,0L114.675,0a35.775,35.775,0,0,0-23.659,8.8,38.743,38.743,0,0,0-8.982,11.338A24.912,24.912,0,0,0,37.21,35.132H37.2A15.594,15.594,0,0,1,22.352,49.983H17.827l10.811-8.964.014.014c.086-.072.161-.156.247-.231l.529-.439.012-.068A17.449,17.449,0,1,0,0,27.631H9.472a7.988,7.988,0,1,1,13.351,5.9L2.064,50.746H2.053v.012l-.035.028.035.042V59.46h9.554v0h9.9l1.612-.03A25.071,25.071,0,0,0,46.683,35.146l.037-.585A15.455,15.455,0,1,1,62.154,50.608a15.859,15.859,0,0,1-10.6-4.469,26.774,26.774,0,0,1-4.082,9.15,24.852,24.852,0,0,0,34.472-5.02,22.054,22.054,0,0,0,35.881.135,24.2,24.2,0,0,0,3.8,3.9,25.332,25.332,0,0,0,15.933,5.586,25.866,25.866,0,0,0,2.813-.154A24.943,24.943,0,0,0,162.412,32.2M112.83,37.8l-.012,0,.009.054a12.49,12.49,0,1,1,.021-.413c0,.121-.016.238-.019.357"/>
  </g>

  <!-- Accent line (fixed #553C9A across modes) -->
  <rect x="770" y="455" width="140" height="2" fill="#553C9A"/>
</svg>
