<?xml version="1.0" encoding="utf-8" ?><svg xmlns="http://www.w3.org/2000/svg" xmlns:xlink="http://www.w3.org/1999/xlink" width="3072" height="1536" viewBox="0 0 3072 1536"><path fill="#0a0a0a" d="M0 0L3072 0L3072 1118.25L3072 1122L3072 1536L0 1536L0 1122.17L0 1118.7L0 0Z"/><path fill="#fafafa" d="M2019.62 507.355C2049.4 494.08 2081.84 481.449 2112.26 469.029L2267.25 405.725L2474.9 320.587C2507.91 307.001 2541.06 293.617 2573.92 279.658C2576.74 278.462 2577.66 278.286 2580.69 278.464L2581.46 279.422C2576.82 284.091 2514.6 308.424 2502.8 313.335L2176.78 446.849L2075.47 488.194C2060.05 494.531 2040.91 501.831 2025.98 508.724C2128.86 565.218 2204.92 671.835 2237.39 783.52C2248.37 822.141 2255.63 861.724 2259.08 901.728C2246.41 926.75 2226.37 958.975 2215.66 982.996C2192.79 954.042 2161.76 921.637 2137.17 892.953C2146.86 890.426 2232.77 863.808 2234.25 861.762C2222.05 860.569 2206.99 866.984 2195.1 870.41C2127.93 889.759 2067.4 908.861 2015.28 957.449C2028.63 975.164 2042.29 991.443 2039.12 1015.34C2037.67 1026.77 2031.66 1037.14 2022.45 1044.06C2012.43 1051.7 1999.44 1054.46 1987.13 1052.48C1962.79 1048.58 1950.17 1033.36 1934.5 1016.81L1921.32 1015.32C1931.16 1032.78 1936.16 1046.62 1930.29 1066.96C1925.53 1082.94 1914.63 1096.39 1899.97 1104.36C1867.34 1122.21 1834.22 1105.54 1806.37 1087.12C1810.19 1099.24 1811.05 1106 1809.23 1118.78L3072 1118.25L3072 1122L1808.39 1122.19C1797.2 1158.19 1767.59 1168.23 1733.1 1162.51C1729.45 1168.69 1724.9 1174.36 1720.53 1180.07C1769.8 1188.54 1822.24 1203.35 1871.31 1214.05C1888.14 1217.71 1910.21 1226.46 1926.43 1229.14C1937.9 1231.03 1962.95 1230.77 1974.88 1230.73L2039.74 1230.39C2032.55 1238.67 2025.63 1244.41 2017.38 1251.54C2043.33 1255.33 2069.32 1258.93 2095.32 1262.36C2042.31 1282.28 1989.36 1305.23 1936.39 1325.57C1920.14 1331.81 1903.46 1343.6 1885.83 1350.54C1859.29 1360.99 1831.91 1367.14 1806.23 1378.86C1778.28 1397.52 1730.91 1438.18 1712 1464.39C1666.76 1452.59 1619.31 1438.22 1573.79 1428.33C1482.75 1408.55 1390.83 1390.38 1301.41 1363.18C1281.59 1357.15 1157.08 1333.15 1150.63 1328.38L1150.84 1326.59C1156.03 1323.74 1178.68 1316.76 1185.84 1314.24C1202.94 1308.09 1219.86 1301.47 1236.6 1294.4C1282.35 1275.18 1325.46 1254.31 1369.28 1231.03C1390.83 1219.58 1414.36 1208.24 1435.23 1196C1430.4 1190.51 1429.71 1189.25 1426.27 1182.62C1399.02 1190.13 1373.78 1184.04 1348.78 1172.26C1326.2 1161.61 1313.42 1151.88 1311.87 1124.83C1283.65 1128.54 1264.55 1123.55 1239.08 1110.99C1223.02 1103.07 1209.83 1096.31 1203.77 1077.83C1199.29 1064.18 1201.7 1051.53 1208.03 1039.01C1196.5 1036.68 1171.01 1032.99 1161.86 1026.58C1142.13 1012.76 1108.22 1001.99 1096.16 980.641C1086.34 963.273 1103.94 949.786 1118.21 943.279C1109.08 937.066 1071.48 910.95 1063.81 907.545C1035.16 894.823 973.746 897.704 941.634 897.651L939.933 899.433C939.192 902.478 866.159 979.511 857.545 988.722C845.613 966.854 833.932 944.851 822.505 922.715C823.049 914.578 823.923 906.466 825.124 898.4C840.371 789.233 885.096 686.289 954.489 600.647C969.386 582.582 993.181 557.177 1011.98 542.985C1019.24 534.192 1049.17 513.61 1059.11 507.399C1021.38 491.6 658.662 351.522 654.534 345.858C656.794 344.938 659.193 344.61 661.495 345.643C674.05 351.281 686.889 356.195 699.683 361.272L797.246 400.036L956.934 463.007C993.978 477.28 1030.93 491.794 1067.78 506.549C1068.67 509.596 1067.83 508.447 1070.09 510.296C1074.43 511.508 1079.67 512.583 1084.12 513.615C1087.38 523.272 1095.49 540.562 1099.77 550.499C1120.72 554.291 1138.36 557.58 1159.44 560.071C1248.55 571.932 1324.99 531.894 1405.24 499.99C1454.27 480.499 1501.54 454.68 1551.02 496.202C1584.79 484.813 1631.13 469.801 1666.63 470.341C1702.23 470.883 1731.59 484.603 1763.45 498.816C1806.4 517.977 1891.68 557.743 1936.36 559.909C1956.55 560.888 1973.8 556.685 1992.58 549.946C1999.83 536.064 2005.83 523.409 2012.38 509.232C2015.63 509.581 2015.16 507.612 2019.62 507.355Z"/><path fill="#0a0a0a" d="M2005.43 547.379C2014.93 544.149 2024.38 540.772 2033.78 537.247C2034.51 538.675 2034.66 538.944 2035.22 540.4C2126.26 593.956 2177.84 692.041 2204.49 791.529C2205.81 796.434 2207.75 803.707 2207.37 808.583L2205.53 811.156L2206.74 812.938C2209.74 817.932 2209.6 818.956 2210.44 824.749C2211.25 826.674 2210.76 830.199 2210.44 832.411C2212.34 836.041 2212.59 838.574 2213.31 842.537C2214.8 845.72 2213.13 843.749 2211.42 846.994C2213.35 850.418 2213.33 851.114 2214.13 855.063L2213.54 855.742C2209.76 853.874 2207.12 850.095 2204.29 846.784L2202.2 847.793C2206.84 854.608 2209.84 858.982 2213.62 866.412C2210.94 864.535 2207.12 860.627 2204.25 860.114L2202.99 858.121C2204.08 860.161 2204.67 860.647 2204.35 862.888C2200.53 865.499 2192.38 867.291 2187.56 868.612C2181.82 833.766 2174.71 797.703 2163.53 764.129C2137 684.433 2082.93 586.865 2005.43 547.379Z"/><path fill="#fafafa" d="M2197.23 827.107C2200.35 829.887 2211.63 841.887 2213.31 842.537C2214.8 845.72 2213.13 843.749 2211.42 846.994C2210.4 846.225 2210.32 846.073 2209.51 844.964C2205.25 839.13 2201.15 833.175 2197.23 827.107Z"/><path fill="#d4d4d4" d="M2203.9 819.674L2206.55 821.589C2207.7 823.91 2207.85 824.427 2210.44 824.749C2211.25 826.674 2210.76 830.199 2210.44 832.411C2207.69 828.957 2205.09 825.103 2202.69 821.391L2203.9 819.674Z"/><path fill="#a3a3a3" d="M2198.69 799.835C2200.88 802.059 2205.24 806.863 2207.37 808.583L2205.53 811.156C2203.25 808.446 2200.53 803.117 2198.69 799.835Z"/><path fill="#737373" d="M2202.2 847.793C2201.18 846.587 2199.51 844.23 2199.33 842.686C2200.44 841.238 2203.39 845.753 2204.29 846.784L2202.2 847.793Z"/><path fill="#525252" d="M2202.69 821.391C2202.05 820.473 2199.03 816.73 2199.72 815.636C2201.15 815.54 2203.1 818.6 2203.9 819.674L2202.69 821.391Z"/><path fill="#0a0a0a" d="M1067.78 506.549C1068.67 509.596 1067.83 508.447 1070.09 510.296C1055.89 518.015 1044.03 526.174 1030.85 535.536C1037.4 537.185 1047.46 540.041 1053.84 541.283C1057.5 542.089 1058.94 541.644 1060.55 544.103C1058.48 549.037 1050.88 552.86 1046.85 556.608C1014.73 586.451 989.806 620.66 967.709 658.421C954.617 681.306 943.196 705.106 933.535 729.637C927.244 745.854 922.541 762.336 917.637 778.98C912.953 794.882 913.113 809.283 901.214 821.523C918.15 713.449 965.183 614.399 1051.37 544.823C1045.43 542.428 1031.4 539.033 1024.7 537.251C1038.16 525.631 1052.73 515.932 1067.78 506.549Z"/><path fill="#0a0a0a" d="M939.933 899.433C932.958 898.798 867.049 879.43 862.067 876.569C870.113 876.354 931.327 893.789 941.634 897.651L939.933 899.433Z"/><path fill="#0a0a0a" d="M2012.38 509.232C2015.63 509.581 2015.16 507.612 2019.62 507.355C2019.78 508.58 2019.81 509.853 2021.03 510.494C2033.41 517.001 2044.67 525.034 2056.48 532.452C2049.5 534.966 2041.98 537.38 2035.22 540.4C2034.66 538.944 2034.51 538.675 2033.78 537.247C2040.54 534.509 2044.28 533.411 2051.19 531.509C2038.05 523.753 2025.59 516.678 2012.38 509.232Z"/><path fill="#0a0a0a" d="M1065.86 545.027C1140.4 566.17 1212.11 575.261 1287.3 550.558C1323.42 537.456 1358.86 522.225 1394.66 508.235C1447.76 487.49 1492.03 457.582 1546.65 497.266L1471.96 519.672C1463.78 522.195 1439.83 529.316 1433.46 532.797C1413.97 543.444 1393.85 563.494 1375.92 577.353C1341.58 603.905 1305.42 628.773 1271.08 655.043C1271.34 656.712 1271.66 658.373 1272.03 660.023C1276.98 682.007 1292.61 695.834 1310.84 708.014C1341.86 729.476 1385.39 727.72 1419.6 714.605C1454.16 701.361 1488.57 669.096 1524.81 661.072C1545.12 656.572 1582.69 650.578 1603.05 655.19C1622.93 659.691 1655.06 681.985 1673.8 693.316L1803.94 773.703C1807.09 775.754 1810.28 777.735 1813.52 779.643C1832.56 791.584 1933.85 852.414 1942.27 863.038C1960.96 912.324 1917.62 952.555 1870.07 941.535C1851.86 930.6 1832.31 916.997 1814.43 905.131L1712.7 837.214C1699.24 828.217 1663.51 802.992 1651.42 797.13C1674.16 848.259 1669.31 841.294 1714.9 873.251L1824.52 949.807C1833.41 955.983 1842.39 962.229 1851.34 968.31C1865.67 978.052 1876.22 982.865 1885.42 998.094C1911.05 1039.52 1862.39 1072.11 1825.01 1060.71C1822.18 1059.85 1818.81 1058.33 1815.91 1057.26C1767.88 1026.63 1719.82 992.041 1671.84 961.036C1654.13 949.59 1626.62 928.622 1609.14 919.027C1611.88 926.575 1626.68 961.111 1630.83 964.497C1670.07 996.458 1724.42 1028.44 1764.14 1058.63C1766.09 1063.35 1767.47 1067.08 1768.71 1072.09C1774.86 1097.51 1758.97 1125.56 1732.87 1130.84C1715.97 1134.26 1706.09 1125.46 1692.9 1116.75C1685.05 1111.57 1677.26 1106.2 1669.49 1100.89L1569.65 1031.73C1560.2 994.97 1539.6 988.835 1507.03 979.802C1491.39 975.463 1491.56 974.074 1474.54 977.548C1456.75 953.283 1447.92 951.992 1421.37 942.175C1397.55 933.371 1390.93 926.143 1364.22 933.862C1331.17 944.251 1287.22 967.866 1253.28 980.955C1252.42 980.888 1251.62 980.768 1250.78 980.84L1249.61 982.42C1246.35 983.624 1244.11 985.18 1241.45 984.254C1238.46 978.915 1240.93 969.213 1241.19 962.574L1239.93 961.434C1234.56 966.045 1236.32 978.554 1237.38 984.365C1208.08 963.262 1237.03 960.401 1228.64 951.234C1222.5 953.487 1221.58 966.633 1220.89 972.092C1187.25 948.154 1165.71 936.595 1123 941.483C1098.88 925.771 1077.38 910.526 1052.57 895.762C1039.36 887.904 1001.54 870.863 993.245 864.602L990.945 862.808C987.089 862.475 986.842 862.425 984.231 860.223C983.669 853.986 995.998 839.018 1000.18 833.161L998.766 831.517C993.589 837.551 982.777 851.062 975.947 856.006C975.128 856.599 972.767 855.083 971.475 854.464C971.148 848.623 997.046 816.384 1002.51 806.99L1003.16 805.854C995.963 812.928 966.164 847.856 962.552 849.794L960.649 848.711C958.583 839.853 976.238 821.231 981.306 813.061C987.882 802.459 997.49 792.138 1003.4 780.938L1003.92 779.923C989.192 795.086 976.197 811.638 961.45 826.843C962.943 815.807 963.42 811.361 969.768 801.835C980.064 786.384 992.587 771.952 1002.52 756.351C989.752 768.053 976.565 784.165 965.303 797.589C969.465 777.33 969.439 771.435 983.009 753.048C986.457 748.374 989.122 743.518 993.459 739.029L991.656 737.647C989.183 742.472 976.801 755.726 972.687 760.007C986.628 711.995 1011.85 633.023 1049.73 597.882C1052.83 593.583 1058.55 586.481 1059.9 581.649C1051.25 582.74 1007.9 647.308 1001.31 658.539C962.327 724.983 934.851 812.426 931.528 889.949C925.536 888.499 917.788 886.91 912.28 884.49C911.948 883.802 911.381 882.784 911.224 882.098L909.725 881.298C907.898 882.571 908.905 882.164 906.527 882.352C906.013 877.499 912.385 869.951 915.363 865.853L920.589 855.379C916.493 860.363 911.168 867.913 905.707 870.932L904.64 870.044C905.589 861.719 912.905 849.815 917.115 842.315C913.746 845.982 910.049 850.655 906.813 854.548C919.543 735.199 976.241 624.862 1065.86 545.027Z"/><path fill="#737373" d="M972.687 760.007C986.628 711.995 1011.85 633.023 1049.73 597.882C1033.31 632.758 1006.08 706.005 1021.05 742.199C1041.68 792.087 1152.51 851.176 1199.91 872.822C1234.72 888.986 1270.41 903.182 1306.81 915.344C1324.85 921.47 1347.12 927.233 1364.22 933.862C1331.17 944.251 1287.22 967.866 1253.28 980.955C1252.42 980.888 1251.62 980.768 1250.78 980.84L1249.61 982.42C1246.35 983.624 1244.11 985.18 1241.45 984.254C1238.46 978.915 1240.93 969.213 1241.19 962.574L1239.93 961.434C1234.56 966.045 1236.32 978.554 1237.38 984.365C1208.08 963.262 1237.03 960.401 1228.64 951.234C1222.5 953.487 1221.58 966.633 1220.89 972.092C1187.25 948.154 1165.71 936.595 1123 941.483C1098.88 925.771 1077.38 910.526 1052.57 895.762C1039.36 887.904 1001.54 870.863 993.245 864.602L990.945 862.808C987.089 862.475 986.842 862.425 984.231 860.223C983.669 853.986 995.998 839.018 1000.18 833.161L998.766 831.517C993.589 837.551 982.777 851.062 975.947 856.006C975.128 856.599 972.767 855.083 971.475 854.464C971.148 848.623 997.046 816.384 1002.51 806.99L1003.16 805.854C995.963 812.928 966.164 847.856 962.552 849.794L960.649 848.711C958.583 839.853 976.238 821.231 981.306 813.061C987.882 802.459 997.49 792.138 1003.4 780.938L1003.92 779.923C989.192 795.086 976.197 811.638 961.45 826.843C962.943 815.807 963.42 811.361 969.768 801.835C980.064 786.384 992.587 771.952 1002.52 756.351C989.752 768.053 976.565 784.165 965.303 797.589C969.465 777.33 969.439 771.435 983.009 753.048C986.457 748.374 989.122 743.518 993.459 739.029L991.656 737.647C989.183 742.472 976.801 755.726 972.687 760.007Z"/><path fill="#d4d4d4" d="M1003.5 848.39L1001.3 852.363C999.033 856.424 995.941 860.817 993.245 864.602L990.945 862.808C995.515 856.357 998.086 853.949 1003.5 848.39Z"/><path fill="#fafafa" d="M1250.78 980.84C1250.51 975.22 1253.78 965.414 1255.82 971.408C1255.5 970.444 1253.41 980.15 1253.28 980.955C1252.42 980.888 1251.62 980.768 1250.78 980.84Z"/><path fill="#d4d4d4" d="M998.766 831.517C1002.29 826.903 1004.98 827.212 1000.18 833.161L998.766 831.517Z"/><path fill="#a3a3a3" d="M991.656 737.647C992.317 736.752 993.404 734.963 994.717 735.338C995.444 736.449 993.961 738.126 993.459 739.029L991.656 737.647Z"/><path fill="#737373" d="M1885.42 998.094C1911.05 1039.52 1862.39 1072.11 1825.01 1060.71C1822.18 1059.85 1818.81 1058.33 1815.91 1057.26C1832.24 1056.15 1837.23 1053.87 1851.46 1046.01L1852.13 1045.65C1867.21 1032.58 1868.03 1029.68 1879.53 1015.93C1883.62 1007.9 1884.38 1007.44 1885.42 998.094Z"/><path fill="#fafafa" d="M1879.53 1015.93L1880.55 1016.59C1886.17 1019.97 1859.58 1045.68 1855.03 1047.87C1853.94 1048.4 1852.37 1045.95 1852.13 1045.65C1867.21 1032.58 1868.03 1029.68 1879.53 1015.93Z"/><path fill="#737373" d="M909.725 881.298C910.736 878.77 913.883 872.185 916.074 870.759C914.957 875.23 914.06 878.388 911.224 882.098L909.725 881.298Z"/><path fill="#fafafa" d="M1089.84 581.134C1109.3 582.218 1136.43 585.451 1156.38 587.228C1157.07 587.29 1157.87 589.144 1158.18 589.745C1142.52 592.326 1108.22 584.828 1091.15 584.752C1090.39 584.749 1090.06 582.805 1090 582.312L1089.84 581.134Z"/><path fill="#fafafa" d="M1891.75 855.293C1891.86 855.338 1894.58 856.237 1894.21 857.038C1887.34 871.936 1878.87 890.561 1870.06 904.501C1869.82 904.359 1867.39 902.998 1867.54 902.676C1874.14 888.677 1884.42 868.241 1891.75 855.293Z"/><path fill="#fafafa" d="M1606.04 880.567C1612.87 883.271 1596.12 900.752 1574.24 894.268L1570.82 893.234C1563.22 885.481 1581.45 892.671 1586.01 892.079C1596.6 890.702 1599.07 888.088 1606.04 880.567Z"/><path fill="#fafafa" d="M1912.52 869.423C1912.82 869.606 1915.1 870.835 1914.74 871.579C1909.52 882.572 1901.68 896.013 1895.14 906.179C1894.74 906.028 1892.49 905.332 1892.88 904.461C1897.81 893.469 1905.93 879.579 1912.52 869.423Z"/><path fill="#fafafa" d="M1757.86 1085.55C1762.68 1088.24 1756.58 1094 1754.14 1097.8C1749.71 1104.71 1744.52 1112.19 1739.16 1118.38C1737.02 1117.08 1735.95 1116.1 1737.7 1113.82C1744.76 1104.66 1751.06 1094.9 1757.86 1085.55Z"/><path fill="#fafafa" d="M1222.69 588.375C1224.14 588.486 1225.59 588.512 1226 590.201C1224.98 593.964 1193.05 592.534 1188.1 592.435C1186.13 592.537 1182.8 591.702 1184.32 589.766C1185.2 588.638 1192.3 589.014 1194.25 589.045C1203.75 589.198 1213.14 588.913 1222.69 588.375Z"/><path fill="#fafafa" d="M1665.21 759.694C1671.82 762.035 1660.33 768.675 1658 769.922C1648.95 774.759 1640.59 773.634 1631.27 770.788C1626.19 763.34 1640.37 770.101 1644.51 769.757C1654.45 768.93 1658.2 766.303 1665.21 759.694Z"/><path fill="#fafafa" d="M1600.53 981.965C1608.7 982.693 1592.82 998.401 1568.32 990.618C1567.95 990.05 1566.5 987.819 1567.62 987.325C1570.63 985.989 1574.32 988.938 1578 989.347C1587.54 990.411 1593.06 987.397 1600.53 981.965Z"/><path fill="#fafafa" d="M1737.67 1068.75C1738.13 1069.2 1739.52 1070.42 1739.34 1071.05C1737.32 1078.41 1726.17 1099.16 1721.97 1104.21C1721.77 1103.88 1720.26 1101.7 1720.43 1101.37C1725.15 1091.89 1731.66 1077.26 1737.67 1068.75Z"/><path fill="#fafafa" d="M1860.55 1009.7C1860.97 1010.14 1862.4 1011.51 1862.18 1012.01C1859.79 1017.44 1842.36 1036.1 1838.85 1039.59C1835.8 1036.33 1836.89 1035.66 1840.18 1032.29C1847.18 1025.11 1853.36 1016.63 1860.55 1009.7Z"/><path fill="#fafafa" d="M1689.39 888.369C1689.72 888.558 1691.81 889.563 1691.62 890.165C1689.51 896.77 1681.92 910.777 1678.25 916.191C1676.54 915.177 1675.23 914.46 1676.38 912.25C1680.48 904.383 1684.89 895.97 1689.39 888.369Z"/><path fill="#fafafa" d="M1722.63 759.562C1723.12 759.889 1724.94 760.975 1724.81 761.628C1723.88 766.435 1715.3 781.915 1713.13 785.688C1707.6 783.625 1713.16 778.58 1715.12 773.993C1717.08 769.408 1720.12 763.875 1722.63 759.562Z"/><path fill="#fafafa" d="M1077.51 603.747C1078.69 605.385 1079.05 606.501 1077.07 607.909C1066.19 615.673 1067.46 625.104 1064.07 635.499C1057.82 626.382 1070.07 609.363 1077.51 603.747Z"/><path fill="#fafafa" d="M1285.21 581.359C1285.55 581.361 1286.76 581.327 1286.98 581.491C1291.44 584.844 1281.08 585.82 1280.5 585.896L1267.9 587.611C1265.58 587.572 1264.12 586.243 1265.3 585.195C1268.01 582.786 1282.11 581.747 1285.21 581.359Z"/><path fill="#0a0a0a" d="M1366.17 589.331C1385.12 575.972 1423.53 538.948 1441.54 533.325C1504.61 513.978 1568.25 493.34 1632.14 476.993C1676.2 465.72 1716.96 482.322 1755.95 499.743L1817.87 527.292C1840.44 537.071 1899.27 558.533 1923.03 562.395C1934.29 564.161 1945.73 564.482 1957.08 563.348C1973.77 561.519 1986.49 556.122 2001.86 550.052C2003.77 550.996 2005.67 551.958 2007.56 552.94C2055.51 577.895 2104.67 636.179 2120.91 687.855C2113.59 680.512 2106.27 672.817 2099.03 665.364L2097.64 667.402C2114.17 687.968 2124.99 696.789 2130.97 722.297C2121.1 712.595 2107.92 697.974 2098.21 689.258L2097.05 692.432C2108.76 707.172 2124.13 725.085 2134.03 741.047C2135.22 742.952 2135.97 749.28 2136.29 751.818C2122.09 737.314 2098.23 711.455 2083.46 698.908C2092.48 713.28 2137.47 768.616 2139 777.321C2135.39 776.118 2085.92 723.835 2077.66 716.59C2093.54 741.952 2116.66 769.271 2131.55 793.455L2129.65 794.27L2126.4 790.236C2125.46 789.57 2125.43 789.649 2124.95 788.689C2109.4 773.351 2093.64 756.109 2078.16 740.388L2076.68 742.299C2088.65 761.159 2101.64 779.323 2113.67 798.053L2109.24 797.328L2069.48 755.476L2067.49 757.46C2077.72 773.345 2090.9 795.087 2101.7 810.071L2098.59 810.298C2087.2 796.987 2069.85 779.434 2057.39 766.401L2055.41 768.487C2066.01 784.822 2076.45 801.256 2086.74 817.785L2083.82 818.837C2072.62 806.434 2057.1 788.605 2045.24 777.302L2044.02 780.65C2053.26 795.627 2062.52 810.906 2071.95 825.735L2070.58 828.265C2060.82 817.79 2035.19 788.276 2026.01 780.806C2033.02 795.737 2048.5 819.64 2057.69 834.569L2055.65 835.472C2043.15 821.864 2024.45 800.445 2011.27 788.278C2020.83 806.734 2032.1 822.365 2041.62 839.644L2039.77 841.126C2026.91 827.16 2010.96 808.985 1997.52 796.18C2004.24 811.023 2017.26 831.433 2026.13 845.897L2024.52 847.58C2013.03 834.889 2001.29 822.429 1989.3 810.208L1987.92 813.728C1994.45 825.253 2001.13 836.695 2007.94 848.051L2006.16 849.951C1996.36 838.845 1979.2 821.377 1968.43 811.298C1973.81 823.14 1983.97 839.137 1990.89 850.637L1987.58 851.934C1977.15 841.372 1964.82 828.171 1954.2 818.182C1960.07 831.071 1967.65 843.377 1974.82 855.628L1972.82 857.117C1963.44 847.951 1949.53 833.594 1939.75 825.539C1945.28 836.681 1951.42 847.512 1958.14 857.984L1956.02 859.851C1948.16 852.729 1933.63 838.816 1925.53 832.943C1929.77 841.081 1933.44 846.791 1938.42 854.467C1917.15 838.816 1886.66 820.75 1863.77 806.303C1894.59 793.418 1939.17 776.645 1967.96 762.263C1968.05 760.416 1967.85 760.268 1969.49 759.311C1971.48 757.086 1977.31 750.102 1979.22 748.799C1982.56 744.883 1984.54 742.923 1988.31 739.436L1987.29 736.309C1979.68 742.433 1971.78 748.637 1964.31 754.893L1962.77 752.786C1966.51 748.856 1970.84 743.551 1974.46 739.368L1973.51 737.51C1964.31 744.841 1955.18 752.255 1946.12 759.752C1945.48 760.787 1945.2 760.79 1944.01 761.551L1943.37 762.421L1941.09 761.485C1946.42 755.901 1952.18 749.209 1957.41 743.401L1956.29 741.321C1946.92 748.664 1934.62 758.041 1926.05 766.286L1925.11 762.486L1934.18 752.796C1936.88 746.839 1942.16 741.395 1946.89 736.899L1945.87 735.392C1938.1 744.236 1919.89 757.692 1910.31 766.267C1903.83 772.06 1894.89 780.287 1888.21 785.471C1895.37 775.022 1922.56 744.335 1931.75 734.181C1913.27 746.235 1886.77 772.757 1868.73 787.497C1877.28 774.26 1900.85 747.105 1912.11 734.591C1902.43 740.678 1865.8 771.637 1857.19 780.518L1855.6 778.534C1858.66 775.401 1865.82 765.832 1868.88 761.963C1876.43 752.488 1884.08 743.105 1891.86 733.816C1878.79 742.224 1840.32 777.965 1827.38 789.848C1833.49 779.23 1861.31 745.747 1870.57 734.356C1859.19 741.5 1825.3 776.545 1818.03 779.139C1815.82 777.81 1816.8 778.735 1815.72 775.593C1814.18 776.732 1814.34 777.767 1813.52 779.643C1810.28 777.735 1807.09 775.754 1803.94 773.703L1807.55 771.622C1804.56 770.105 1804.45 770.055 1801.91 767.886C1802.07 766.328 1819.6 743.515 1822.63 739.24C1814.38 745.731 1803.21 756.578 1795.21 763.913C1792.23 761.859 1789.25 759.724 1786.29 757.635C1791.8 750.924 1796.64 744.926 1801.78 737.902L1781.96 755.695C1768.74 747.713 1737.56 729.868 1727.13 721.145C1710.33 707.094 1686.99 681.884 1671.05 665.608C1676.93 668.027 1688.37 673.464 1693.98 669.455C1693.79 664.195 1686.26 667.733 1678.61 664.76C1667.09 660.28 1658.54 653.482 1650.03 644.716C1658.2 646.739 1681.59 651.131 1686.91 642.225C1681.78 639.817 1675.37 644.998 1667.3 644.258C1657.03 643.316 1651.35 640.962 1641.86 637.564C1654.61 635.113 1670.79 629.476 1675.31 615.61L1674.3 615.197C1666.33 618.781 1655.47 638.119 1639.54 632.44C1636.48 625.839 1654.49 612.352 1652.79 600.155L1651.15 599.275C1649.27 600.953 1642.44 623.882 1631.09 630.164C1600.31 647.204 1524.92 632.297 1493.1 626.174C1493.95 621.52 1496.36 611.675 1494.06 607.632C1490.82 611.044 1490.21 619.97 1489.57 624.758C1480.48 622.831 1476.63 621.501 1467.9 618.429C1467.56 621.04 1467.17 623.644 1466.73 626.24C1455.35 692.138 1345.35 723.811 1296.1 683.044C1291.56 679.288 1287.25 676.527 1283.89 671.551C1281.31 667.534 1276.52 662.588 1277.68 657.788C1281.74 657.353 1292.86 663.254 1297.96 664.421C1342.12 674.523 1374.12 634.935 1398.91 604.214L1366.17 589.331Z"/><path fill="#737373" d="M1463.11 596.127C1498.37 592.935 1533.58 589.219 1568.72 584.978C1612.73 579.967 1634.14 578.832 1675.13 561.603C1686.96 660.919 1845.82 719.114 1933 708.618C1953.42 706.16 1978.43 697.392 1996.16 686.9C1979.4 710.094 1957.21 735.644 1934.18 752.796C1936.88 746.839 1942.16 741.395 1946.89 736.899L1945.87 735.392C1938.1 744.236 1919.89 757.692 1910.31 766.267C1903.83 772.06 1894.89 780.287 1888.21 785.471C1895.37 775.022 1922.56 744.335 1931.75 734.181C1913.27 746.235 1886.77 772.757 1868.73 787.497C1877.28 774.26 1900.85 747.105 1912.11 734.591C1902.43 740.678 1865.8 771.637 1857.19 780.518L1855.6 778.534C1858.66 775.401 1865.82 765.832 1868.88 761.963C1876.43 752.488 1884.08 743.105 1891.86 733.816C1878.79 742.224 1840.32 777.965 1827.38 789.848C1833.49 779.23 1861.31 745.747 1870.57 734.356C1859.19 741.5 1825.3 776.545 1818.03 779.139C1815.82 777.81 1816.8 778.735 1815.72 775.593C1814.18 776.732 1814.34 777.767 1813.52 779.643C1810.28 777.735 1807.09 775.754 1803.94 773.703L1807.55 771.622C1804.56 770.105 1804.45 770.055 1801.91 767.886C1802.07 766.328 1819.6 743.515 1822.63 739.24C1814.38 745.731 1803.21 756.578 1795.21 763.913C1792.23 761.859 1789.25 759.724 1786.29 757.635C1791.8 750.924 1796.64 744.926 1801.78 737.902L1781.96 755.695C1768.74 747.713 1737.56 729.868 1727.13 721.145C1710.33 707.094 1686.99 681.884 1671.05 665.608C1676.93 668.027 1688.37 673.464 1693.98 669.455C1693.79 664.195 1686.26 667.733 1678.61 664.76C1667.09 660.28 1658.54 653.482 1650.03 644.716C1658.2 646.739 1681.59 651.131 1686.91 642.225C1681.78 639.817 1675.37 644.998 1667.3 644.258C1657.03 643.316 1651.35 640.962 1641.86 637.564C1654.61 635.113 1670.79 629.476 1675.31 615.61L1674.3 615.197C1666.33 618.781 1655.47 638.119 1639.54 632.44C1636.48 625.839 1654.49 612.352 1652.79 600.155L1651.15 599.275C1649.27 600.953 1642.44 623.882 1631.09 630.164C1600.31 647.204 1524.92 632.297 1493.1 626.174C1493.95 621.52 1496.36 611.675 1494.06 607.632C1490.82 611.044 1490.21 619.97 1489.57 624.758C1480.48 622.831 1476.63 621.501 1467.9 618.429C1467.56 621.04 1467.17 623.644 1466.73 626.24C1455.35 692.138 1345.35 723.811 1296.1 683.044C1291.56 679.288 1287.25 676.527 1283.89 671.551C1299.53 681.47 1312.13 682.599 1330.36 678.849C1364.8 671.764 1445.56 624.074 1463.11 596.127Z"/><defs><linearGradient id="gradient_0" gradientUnits="userSpaceOnUse" x1="1827.927" y1="775.15704" x2="1823.6495" y2="740.51257"><stop offset="0" stop-color="#fafafa"/><stop offset="1" stop-color="#e5e5e5"/></linearGradient></defs><path fill="url(#gradient_0)" d="M1849.18 734.362C1839.93 746.956 1828.57 758.801 1819.41 771.717C1818.51 772.986 1816.88 774.475 1815.72 775.593C1814.18 776.732 1814.34 777.767 1813.52 779.643C1810.28 777.735 1807.09 775.754 1803.94 773.703L1807.55 771.622C1819.23 760.574 1836.89 744.428 1849.18 734.362Z"/><path fill="#a3a3a3" d="M1945.87 735.392C1950.02 730.489 1952.87 732.893 1946.89 736.899L1945.87 735.392Z"/><path fill="#d4d4d4" d="M1982.29 749.959C1990.65 743.197 1996.25 739.405 2005.41 734.061C1999.06 740.868 1994.5 745.688 1988.5 752.94C1996.9 747.296 2004.87 741.456 2013.34 735.812C2011.12 738.214 2004.19 746.487 2001.68 747.585C1990.68 752.405 1979.27 758.343 1967.96 762.263C1968.05 760.416 1967.85 760.268 1969.49 759.311C1971.48 757.086 1977.31 750.102 1979.22 748.799L1982.29 749.959Z"/><path fill="#0a0a0a" d="M1979.22 748.799L1982.29 749.959C1977.02 754.471 1975.51 755.824 1969.49 759.311C1971.48 757.086 1977.31 750.102 1979.22 748.799Z"/><path fill="#d4d4d4" d="M2092.73 683.448C2094.24 685.059 2097.13 687.665 2098.21 689.258L2097.05 692.432C2095.2 690.092 2093.41 687.712 2091.67 685.294L2092.73 683.448Z"/><path fill="#a3a3a3" d="M1956.29 741.321C1959.17 738.06 1963.38 735.26 1966.92 732.673C1963.83 736.286 1960.71 739.983 1957.41 743.401L1956.29 741.321Z"/><path fill="#d4d4d4" d="M1987.92 813.728C1985.89 809.646 1982.88 801.637 1989.3 810.208L1987.92 813.728Z"/><path fill="#d4d4d4" d="M2044.02 780.65C2043.25 779.354 2040.58 775.764 2041.26 774.281C2041.52 774.082 2041.37 774.149 2041.7 774.08C2043.26 774.696 2044.17 776.063 2045.24 777.302L2044.02 780.65Z"/><path fill="#d4d4d4" d="M2067.49 757.46C2063.96 751.728 2064.37 750.246 2069.48 755.476L2067.49 757.46Z"/><path fill="#525252" d="M2091.67 685.294C2086.63 679.316 2087.42 676.97 2092.73 683.448L2091.67 685.294Z"/><path fill="#d4d4d4" d="M2055.41 768.487C2052.48 763.709 2052.36 760.982 2057.39 766.401L2055.41 768.487Z"/><path fill="#525252" d="M1987.29 736.309C1993.24 733.436 1990.79 736.521 1988.31 739.436L1987.29 736.309Z"/><path fill="#a3a3a3" d="M2076.68 742.299C2074.54 738.537 2072.61 734.226 2078.16 740.388L2076.68 742.299Z"/><path fill="#737373" d="M2097.64 667.402C2097.07 666.551 2094.95 663.873 2095.38 662.706C2096.26 662.021 2098.64 664.969 2099.03 665.364L2097.64 667.402Z"/><path fill="#737373" d="M1973.51 737.51C1974.44 736.592 1975.83 735.102 1977.21 735.467C1977.67 736.508 1974.99 738.812 1974.46 739.368L1973.51 737.51Z"/><path fill="#fafafa" d="M1645.35 499.309C1649.01 498.879 1647.71 498.558 1650.88 499.99L1650.84 501.229C1647.24 503.063 1625.3 506.898 1620.15 507.943C1590.29 513.993 1561.49 521.812 1532.22 530.188C1530.21 530.986 1530.25 530.796 1528.1 530.301L1527.19 528.763C1532.29 522.486 1632.23 501.54 1645.35 499.309Z"/><path fill="#fafafa" d="M1846.67 565.879C1857.22 566.546 1884.8 580.302 1897.64 582.038C1901.75 582.594 1926.79 588.662 1929.52 589.82L1930.49 592.887C1909.33 591.029 1870.31 578.441 1849.59 570.014C1846.95 568.939 1847.36 568.284 1846.67 565.879Z"/><path fill="#fafafa" d="M1753.51 526.006C1758.21 527.021 1772.84 532.952 1777.25 535.449C1783.61 539.045 1821.07 552.649 1822.24 557.162L1822.62 558.558C1818.64 557.799 1816.88 557.154 1813.05 555.461C1793.42 546.773 1773.54 538.451 1754.07 529.44C1753.37 529.114 1753.43 527.686 1753.47 527.125L1753.51 526.006Z"/><path fill="#fafafa" d="M1967.92 594.885C1981.76 596.359 1992.48 614.762 1990.69 628.042C1987.52 625.757 1986.38 622.839 1986.59 619.109C1987.16 609.102 1968.51 598.565 1968.13 596.045L1967.92 594.885Z"/><path fill="#fafafa" d="M1455.85 545.962C1467.07 548.14 1479.56 558.41 1478.84 570.724C1476.89 569.727 1475.43 569.369 1474.86 567.036C1472.69 558.114 1464.72 553.586 1457.24 549.628C1455.98 548.964 1455.97 547.129 1455.85 545.962Z"/><path fill="#fafafa" d="M1685.11 500.225C1692.28 499.083 1714.35 504.418 1716.56 511.782C1709.59 511.598 1700.06 504.842 1692.48 503.971C1689.53 503.632 1687.82 503.609 1686 501.305L1685.11 500.225Z"/><path fill="#fafafa" d="M1477.17 528.993C1488.41 529.657 1497.26 543.176 1496.85 553.878C1489.82 550.247 1491.26 536.246 1479.55 532.865C1478.14 532.457 1477.48 530.339 1477.17 528.993Z"/><path fill="#0a0a0a" d="M1438.6 1198.98C1446.34 1202.77 1451.54 1204.25 1459.86 1206.26C1490.23 1248.75 1537.68 1228.75 1579 1224.78C1582.3 1224.47 1628.08 1236.08 1636.05 1238.1C1694.44 1252.92 1752.21 1264.39 1812 1272.25C1817.35 1272.95 1829 1276.22 1833.3 1273.99C1829.48 1269.34 1737.5 1257.47 1724.01 1254.46C1679.07 1244.44 1633.8 1234.03 1589.24 1222.75C1595.72 1221.57 1619.91 1216.86 1624.48 1218.56C1653.9 1229.5 1679.33 1237.41 1711.33 1238.75C1762.44 1240.89 1809.27 1219.34 1859.82 1218.19C1883.2 1217.66 1903.94 1229.92 1926.8 1232.92C1958.89 1235.52 1997.82 1234.51 2030.48 1234.38C2000.77 1261.42 1970.9 1288.28 1940.86 1314.95C1938.99 1316.85 1935.66 1320.31 1933.31 1321.24C1911.5 1329.89 1885.59 1333.57 1862.62 1337.43C1858.32 1344.67 1852.36 1353.03 1847.54 1360.14C1783.13 1378.38 1729.77 1406.59 1679.73 1452.09C1654.79 1445.37 1615.8 1437.01 1592.69 1427.64C1587.74 1425.63 1554.21 1396.85 1547.11 1390.86C1518.72 1394.93 1490.09 1397.02 1461.42 1397.11C1428.72 1397.24 1397.44 1384.22 1365.81 1376.48C1350.06 1372.63 1331.26 1367.88 1316.36 1362.13C1311.68 1360.33 1296.32 1343.71 1291.49 1338.92C1250.72 1340.4 1199.34 1338.07 1160.1 1327.18C1211.77 1309.84 1262.23 1289.1 1311.16 1265.09C1352.57 1245.15 1397.67 1220.57 1438.6 1198.98Z"/><path fill="#553C9A" d="M1618.85 1275.87C1676.41 1290.1 1734.55 1306.25 1791.93 1319.98C1778.57 1328.42 1758.9 1338.83 1744.79 1346.82C1721.81 1360.11 1698.71 1373.18 1675.48 1386.03C1662.02 1383.74 1630.35 1374.76 1615.83 1371.05C1578.22 1361.76 1540.72 1352.03 1503.33 1341.88C1540.96 1319.51 1580.68 1297.74 1618.85 1275.87Z"/><path fill="#fafafa" d="M1312.9 1274.18C1313.89 1274.05 1316.53 1273.9 1317.47 1274.1C1348.31 1280.46 1379.02 1287.63 1409.76 1294.51C1414.93 1295.67 1424.11 1296.77 1427.27 1300.84C1419.53 1302.12 1332.73 1280.73 1318.95 1278.07C1315.12 1277.33 1314.54 1276.97 1312.9 1274.18Z"/><path fill="#fafafa" d="M1450.67 1238.16C1455.93 1238.27 1459.49 1239.11 1464.71 1240.32C1483.92 1244.76 1503.24 1248.84 1522.42 1253.4C1523.78 1253.72 1524.05 1254.79 1524.39 1256L1524.79 1257.37C1503.33 1254.36 1479.53 1246.64 1458 1242.72C1455.45 1242.26 1451.79 1241.86 1451 1239.19L1450.67 1238.16Z"/><path fill="#fafafa" d="M1395.4 1356.05C1401.5 1356.51 1407.56 1358.06 1413.97 1359.49C1425.87 1362.14 1438.8 1364.54 1450.57 1367.77C1451.52 1368.03 1451.62 1370.09 1451.71 1370.89C1448.6 1370.8 1446.17 1370.42 1443.14 1369.74C1427.85 1366.29 1412.41 1363.31 1397.19 1359.6C1396.2 1359.36 1395.92 1358.07 1395.72 1357.26L1395.4 1356.05Z"/><path fill="#fafafa" d="M1868.18 1279.13C1871.77 1279.44 1903.26 1285.51 1904.78 1286.56C1905.29 1286.92 1905.64 1287.46 1905.74 1288.07C1905.76 1288.32 1905.79 1288.56 1905.82 1288.81L1905.95 1289.9C1894.68 1288.93 1880.45 1284.82 1869.28 1282.41C1868.55 1282.26 1868.34 1280.74 1868.29 1280.18L1868.18 1279.13Z"/><path fill="#0a0a0a" d="M1373.86 935.254C1397.95 932.749 1421.76 941.343 1430.81 964.977C1436.11 978.844 1438.75 991.499 1425.51 1000.2C1392.97 1021.56 1360.01 1044.31 1327.19 1065.15C1312.43 1074.52 1280.07 1098.81 1265.37 1104.27C1251.34 1108.04 1240.46 1107.73 1227.43 1100.76C1205.87 1089.24 1199.87 1061.16 1211.47 1040.45C1214.52 1035.01 1220.44 1030.48 1225.21 1026.56C1235.02 1019.92 1245.74 1013.42 1255.89 1007.34C1288.32 987.903 1338.69 944.428 1373.86 935.254Z"/><path fill="#fafafa" d="M1374.6 949.743C1389.65 950.72 1417.65 977.516 1415.15 992.423C1410.2 998.958 1371.48 1022.81 1362.37 1028.34C1354.47 1024.48 1340.82 1015.49 1336.97 1007.48C1339.59 1007.02 1356.63 1021.12 1361.93 1024.32L1382.23 1011.08C1392.94 1004.17 1402.83 997.706 1413.18 990.273C1404.79 972.062 1394.49 962.433 1377.1 952.994C1366.67 960.391 1333.15 986.732 1323.3 986.482C1324.47 984.579 1368.51 954.536 1374.6 949.743Z"/><path fill="#fafafa" d="M1221.37 1048.3C1223.3 1049.43 1224.75 1049.97 1224.98 1052.45C1226.07 1064.31 1232.5 1076 1242.74 1082.33C1245.76 1084.19 1246.23 1083.77 1247.35 1087.11C1231.37 1086.39 1219.76 1062.65 1221.37 1048.3Z"/><path fill="#0a0a0a" d="M1486.01 979.345C1493.53 979.308 1500.61 980.37 1507.34 983.91C1517.03 989.01 1523.8 998.45 1526.98 1008.8C1530.04 1018.78 1530.11 1031.58 1524.62 1040.79C1520.92 1046.98 1389.61 1149 1375.62 1158.48C1369.83 1162.41 1365.07 1164.88 1358.33 1166.76C1326.66 1168.69 1304.88 1133.4 1321.7 1106.09C1328.31 1098.82 1340.12 1087.14 1347.87 1081.47C1380.29 1057.74 1448.42 984.788 1486.01 979.345Z"/><path fill="#fafafa" d="M1468.82 995.891C1483.17 994.678 1515.94 1021.65 1513.72 1033.84C1512.43 1040.89 1470.28 1072.11 1462.9 1077.65C1456.86 1074.13 1448.67 1070.03 1444.84 1064.38L1445.96 1063.79C1451.68 1065.46 1457.25 1069.77 1462.25 1073.19C1470.53 1067.3 1480.71 1058.79 1488.87 1052.37C1493.98 1048.2 1506.29 1038.86 1509.28 1034.15C1511.43 1021.02 1482.49 1003.28 1472.36 998.722C1460.55 1006.61 1431.09 1039.75 1424.56 1040.75L1424.16 1039.28C1426.99 1033.32 1462.63 1001.13 1468.82 995.891Z"/><path fill="#fafafa" d="M1343.6 1115.65C1348.77 1117.22 1362.8 1141.86 1364.2 1147.15C1356.56 1146.47 1353.22 1131.5 1347.89 1126C1346.76 1124.84 1344.18 1119.93 1343.94 1118.14L1343.6 1115.65Z"/><path fill="#0a0a0a" d="M1543.54 1060.2C1584.67 1055.43 1597.29 1099.01 1568.9 1122.82C1542.26 1145.17 1500.69 1192.04 1467.99 1201.43C1460.42 1202.48 1453.44 1201.65 1446.48 1198.37C1438.35 1194.57 1432.09 1187.68 1429.08 1179.22C1425.89 1170 1426.53 1159.89 1430.87 1151.15C1436.54 1139.75 1501.81 1086.27 1515.54 1074.73C1521.77 1069.49 1535.22 1062.91 1543.54 1060.2Z"/><path fill="#fafafa" d="M1532.67 1072.9C1544.1 1073.26 1565.41 1097.79 1565.26 1109.34C1563.35 1114.61 1528.89 1140.88 1521.9 1146.54C1514.71 1143 1510.1 1141.44 1504.53 1135.73L1505.08 1134.81C1510.46 1135.61 1516.24 1139.21 1521.14 1141.85C1531.24 1134.07 1541.55 1125.46 1551.5 1117.41C1553.61 1115.87 1558.2 1112.49 1559.55 1110.95C1566.27 1103.27 1543.54 1081.66 1538.42 1078.82C1524.2 1070.93 1495.61 1114.94 1484.52 1117.59L1483.63 1116.05C1486.35 1109.24 1524.34 1075.15 1532.67 1072.9Z"/><path fill="#fafafa" d="M1444.07 1156.51C1444.77 1156.76 1447.21 1157.44 1447.63 1158.29C1451.14 1165.36 1462.76 1180.33 1462.66 1187.47C1461.94 1187.19 1459.62 1186.36 1459.27 1185.73C1455.52 1179.18 1444.65 1163.16 1444.07 1156.51Z"/><path fill="#737373" d="M1942.27 863.038C1955.86 871.027 1999.63 939.748 2009.14 956.37C1962.47 1001.17 1969.01 1002.34 2003.39 1049.51C1958.24 1049.84 1947.03 1021.98 1918.95 992.159C1903.09 975.305 1886.66 957.657 1870.07 941.535C1917.62 952.555 1960.96 912.324 1942.27 863.038Z"/><path fill="#0a0a0a" d="M1592.66 1155.54C1594.82 1153.38 1596.94 1151.16 1599 1148.9C1612.66 1133.9 1618.22 1118.6 1617.22 1098.57C1634.34 1111.14 1651.55 1123.57 1668.88 1135.86C1675.64 1140.81 1696.37 1152.64 1697.09 1160.49C1700.25 1195.13 1660.31 1210.26 1635.23 1189.66C1631.77 1186.8 1628.16 1183.56 1625.18 1180.38C1614.29 1172.16 1603.45 1163.89 1592.66 1155.54Z"/><path fill="#737373" d="M1668.88 1135.86C1675.64 1140.81 1696.37 1152.64 1697.09 1160.49C1700.25 1195.13 1660.31 1210.26 1635.23 1189.66C1631.77 1186.8 1628.16 1183.56 1625.18 1180.38C1632.38 1173.21 1663.91 1142.73 1668.88 1135.86Z"/><path fill="#fafafa" d="M1679.43 1163.73C1679.58 1163.77 1682.5 1164.65 1681.63 1165.53C1676.09 1171.05 1669.01 1176.49 1662.83 1181.34L1661.94 1182.05C1659.99 1183.13 1659.34 1181.5 1659.61 1180.99C1662.32 1175.85 1675.15 1167.07 1679.43 1163.73Z"/><path fill="#0a0a0a" d="M1130.79 944.344C1153.93 943.373 1177.17 960.268 1188.8 979.63C1198.76 996.208 1196.58 1034.9 1169.06 1025.62C1149.49 1017.24 1147.66 996.966 1145.42 978.17C1134.42 972.76 1112.4 966.06 1100.11 961.984L1100.51 961.468C1109.25 950.247 1116.47 946.144 1130.79 944.344Z"/><path fill="#0a0a0a" d="M1363.36 591.867C1373.24 596.952 1382.86 601.031 1393.06 605.433C1388.33 611.161 1383.47 616.78 1378.49 622.285C1358.69 644.08 1341.91 660.637 1311.22 662.104C1298.7 661.941 1291.33 658.71 1280.56 652.867L1363.36 591.867Z"/><path fill="#737373" d="M2010.39 959.663C2010.8 959.812 2011.21 959.962 2011.62 960.111C2041.72 988.511 2046.19 1034.58 2006.77 1047.96C1995.94 1032.35 1983.89 1020.04 1978.32 1001.76C1982.96 987.284 1999.69 970.742 2010.39 959.663Z"/><path fill="#0a0a0a" d="M1098.08 966.012C1112.8 970.121 1127.33 974.887 1141.62 980.295C1144.4 997.594 1144.06 998.584 1150.55 1014.54L1150.85 1015.27C1133.29 1007.07 1093.93 988.783 1098.08 966.012Z"/><path fill="#0a0a0a" d="M907.903 817.027C909.408 818.793 905.665 833.005 905.253 836.009C905.127 836.93 901.315 841.037 900.285 842.154C898.633 838.676 900.301 830.708 900.696 826.187L907.903 817.027Z"/><path fill="#0a0a0a" d="M903.544 844.768C904.116 855.535 903.351 858.112 897.737 864.747C896.326 856.457 898.014 850.857 903.544 844.768Z"/><path fill="#0a0a0a" d="M1925.11 762.486L1926.05 766.286C1920.74 771.368 1914.47 776.893 1909.01 781.902C1913.31 775.632 1919.9 768.205 1925.11 762.486Z"/><path fill="#0a0a0a" d="M900.321 868.651C902.214 874.304 901.108 877.783 897.201 881.699C894.788 874.798 895.722 874.923 900.321 868.651Z"/><path fill="#262626" d="M1964.31 754.893C1963.24 756.393 1954.58 764.131 1953.06 764.373L1953.09 764.189L1952.87 764.595C1951.95 763.268 1961.23 754.308 1962.77 752.786L1964.31 754.893Z"/><path fill="#0a0a0a" d="M2113.67 798.053C2116.17 800.54 2119.63 806.653 2121.69 809.97C2116.95 805.548 2113.66 802.075 2109.24 797.328L2113.67 798.053Z"/><path fill="#0a0a0a" d="M1990.89 850.637C1993.91 855.141 1996.46 859.368 1999.3 863.97C1995.28 860.342 1991.39 855.897 1987.58 851.934L1990.89 850.637Z"/><path fill="#737373" d="M1931.29 772.824C1933.95 768.741 1937.08 764.385 1941.09 761.485L1943.37 762.421C1939.56 766.546 1935.63 769.358 1931.29 772.824Z"/><path fill="#0a0a0a" d="M2086.74 817.785C2088.38 819.811 2089.56 821.976 2091.22 824.163L2089.07 824.982C2087.37 822.758 2085.63 820.957 2083.82 818.837L2086.74 817.785Z"/><path fill="#0a0a0a" d="M2071.95 825.735C2075.61 830.806 2076.76 833.12 2079.62 838.396C2076.08 834.642 2073.89 832.074 2070.58 828.265L2071.95 825.735Z"/><path fill="#0a0a0a" d="M2101.7 810.071C2104.2 813.501 2106.27 817.26 2108.5 820.87C2104.44 816.862 2102.19 814.854 2098.59 810.298L2101.7 810.071Z"/><path fill="#0a0a0a" d="M2057.69 834.569C2059.94 836.758 2063.32 842.894 2065.12 845.859C2061.55 842.326 2058.73 839.525 2055.65 835.472L2057.69 834.569Z"/><path fill="#525252" d="M2131.55 793.455C2133.16 794.667 2133.95 796.156 2135.14 797.775C2135.52 798.991 2135.51 798.472 2135.41 799.308C2134.37 800.661 2130.28 795.036 2129.65 794.27L2131.55 793.455Z"/><path fill="#0a0a0a" d="M1974.82 855.628C1975.38 856.364 1979.39 861.617 1978.31 862.285C1976.98 862.087 1973.84 858.239 1972.82 857.117L1974.82 855.628Z"/><path fill="#0a0a0a" d="M2041.62 839.644C2043.98 842.715 2045.5 846.303 2047.32 849.76L2039.77 841.126L2041.62 839.644Z"/><path fill="#d4d4d4" d="M1857.19 780.518C1853.27 786.145 1849.08 786.805 1855.6 778.534L1857.19 780.518Z"/><path fill="#0a0a0a" d="M2007.94 848.051C2008.76 849.181 2012.45 854.036 2011.6 855.341C2010.4 855.68 2006.78 850.716 2006.16 849.951L2007.94 848.051Z"/><path fill="#0a0a0a" d="M2026.13 845.897C2026.92 846.997 2030.2 851.155 2029.31 852.5C2028.11 852.674 2025.21 848.519 2024.52 847.58L2026.13 845.897Z"/><path fill="#0a0a0a" d="M1958.14 857.984C1958.76 858.951 1961.28 862.11 1960.52 863.374C1959.26 863.8 1956.79 860.637 1956.02 859.851L1958.14 857.984Z"/><path fill="#525252" d="M2091.22 824.163C2091.77 824.91 2093.91 827.411 2093.27 828.456C2091.6 828.845 2089.95 826.119 2089.07 824.982L2091.22 824.163Z"/><path fill="#fafafa" d="M0 1118.7L869.39 1118.59L1082.17 1118.52C1092.81 1118.54 1161.81 1117.55 1167.98 1119.85C1165.82 1123.91 1104.47 1122.2 1094.81 1122.2L909.227 1122.2L0 1122.17L0 1118.7Z"/><path fill="#fafafa" d="M2570.92 806.756C2620.91 793.808 2675.34 781.795 2725.97 770.232C2812.6 750.317 2899.47 731.412 2986.54 713.522L2986 716.076L2491.03 889.446C2516.35 865.317 2537.86 831.171 2542.51 796.102L2540.53 792.223C2532.96 825.17 2507.91 876.219 2476.21 894.072C2461.45 902.38 2422.75 913.095 2404.97 919.065L2223.36 980.33C2235.24 956.945 2250.46 928.48 2263.7 906.003C2283.99 898.209 2310.17 890.785 2331.17 883.694C2389.45 864.006 2449.9 846.151 2507.58 824.93C2511.83 816.345 2516.87 803.187 2520.68 794.106C2528.64 775.07 2536.76 756.1 2545.04 737.199C2553.87 756.729 2563.53 786.099 2570.92 806.756Z"/><path fill="#0a0a0a" d="M2540.53 792.223C2541.84 784.826 2543.18 790.9 2542.51 796.102L2540.53 792.223Z"/><path fill="#fafafa" d="M79.9678 714.459C168.75 735.483 257.251 757.677 345.448 781.037L431.81 803.933C444.451 807.273 461.547 812.354 473.985 814.945C486.245 791.74 498.703 768.64 511.358 745.649C519.427 773.255 526.981 806.721 535.83 833.152C559.915 842.027 587.771 850.313 612.384 858.28L720.299 893.51C751.866 903.648 785.554 913.912 816.772 924.892C827.43 944.196 838.79 966.942 849.809 985.395L656.112 921.494C581.705 896.686 536.492 894.44 507.724 811.445L505.494 813.473C513.426 844.3 528.508 865.019 551.332 886.019C482.395 862.606 411.26 836.123 342.511 811.453L79.4221 716.791L79.9678 714.459Z"/><path fill="#0a0a0a" d="M503.427 802.571L505.71 803.839C506.431 806.454 507.104 808.784 507.724 811.445L505.494 813.473C504.76 809.848 504.071 806.213 503.427 802.571Z"/><path fill="#525252" d="M503.427 802.571C503.058 800.401 502.542 795.61 503.753 793.652C503.833 793.63 503.913 793.608 503.994 793.586C504.969 794.172 505.478 802.173 505.71 803.839L503.427 802.571Z"/><path fill="#fafafa" d="M866.069 463.091C871.177 464.215 907.026 478.853 913.819 481.7C942.57 493.748 972.98 504.427 1001.47 516.488C994.953 521.226 988.607 526.194 982.444 531.383C882.313 615.112 810.971 762.359 799.276 891.81C720.434 863.865 634.159 840.572 555.471 811.602C545.302 784.196 535.504 754.561 533.952 725.249C533.648 720.713 532.681 714.856 535.433 711.41C538.093 713.23 538.163 726.032 538.415 729.819C540.191 756.559 549.959 783.062 558.152 808.525C569.431 812.678 581.308 816.585 592.773 820.208C660.373 841.564 727.75 866.193 795.706 886.222C814.863 744.659 879.676 606.842 993.457 517.286C963.723 505.879 934.096 494.196 904.58 482.237C898.113 479.65 870.686 469.317 866.238 465.868L866.069 463.091Z"/><path fill="#fafafa" d="M2111.17 504.923C2112.84 505.214 2112.19 505.038 2113.66 506.229L2113.01 507.874C2108.72 510.716 2100.15 513.7 2095.08 515.671C2217.7 604.719 2271.07 722.292 2287.95 870.018L2487.51 805.808C2499.92 778.66 2516.88 752.534 2522.73 722.877C2523.58 718.596 2525.9 703.091 2528.4 700.679L2529.9 701.711L2530.37 705.406C2522.64 750.563 2511.07 767.617 2490.09 808.814C2472.45 815.388 2450.37 821.531 2432.09 827.655C2383.19 844.04 2333.28 858.838 2284.42 875.192C2282.7 855.727 2280.07 836.355 2276.52 817.139C2253.11 692.517 2192.2 587.225 2086.71 514.857C2094.47 511.47 2103.25 508.125 2111.17 504.923Z"/><path fill="#fafafa" d="M2532.24 331.954L2534.17 332.983L2534.27 334.602C2527.16 340.235 2448.11 370.8 2434.41 376.398L2149.92 493.014L2147.52 492.633L2147.25 491.119C2152.97 485.901 2223.82 458.537 2234.95 453.974L2419.7 378.235C2456.54 363.199 2496.01 347.893 2532.24 331.954Z"/><path fill="#fafafa" d="M2809.99 717.195C2813.34 716.566 2812.47 716.184 2814.59 717.614L2813.64 719.31C2807.75 722.929 2601.6 774.103 2589.92 775.476C2587.2 773.948 2587.95 773.894 2586.53 770.019C2585.1 766.592 2583.93 764.262 2584.58 760.92L2586.17 761.072C2589.43 764.086 2590.02 767.417 2591.45 771.725C2664.38 753.916 2737.23 735.739 2809.99 717.195Z"/><path fill="#fafafa" d="M650.645 377.869C656.189 378.687 720.121 404.782 729.73 408.61L796.215 435.031C807.377 439.468 818.881 443.933 829.935 448.634C833.392 450.104 833.187 450.328 834.095 453.045C826.892 452.371 665.528 388.472 651.524 381.186L650.645 377.869Z"/><path fill="#fafafa" d="M185.489 702.975C190.648 703.235 212.972 709.802 219.361 711.628L278.352 728.309L333.566 743.852C342.184 746.291 351.361 748.784 359.912 751.498C362.707 752.386 362.248 752.62 363.269 754.908C360.639 755.189 358.633 755 356.056 754.274C305.524 740.041 255.01 725.739 204.46 711.565C198.751 709.964 191.946 708.371 186.566 706.038L185.489 702.975Z"/><path fill="#0a0a0a" d="M3042.82 655.158L3044.57 656.465L3044.52 658.111C3041.11 660.804 2914.41 693.91 2897.23 698.947C2895.3 697.845 2896 698.615 2895.12 696.508C2897.26 693.683 3027.84 658.985 3042.82 655.158Z"/><path fill="#fafafa" d="M2756.4 203.985L2758.77 204.079L2759.44 205.377C2757.26 209.033 2635.79 258.538 2621.23 264.542C2620.22 265.004 2619.86 264.793 2618.57 264.758L2617.92 263.081C2619.95 260.293 2645.79 250.292 2651.4 247.953C2686.48 233.491 2721.48 218.835 2756.4 203.985Z"/><path fill="#0a0a0a" d="M22.927 658.089C26.7922 658.134 32.1848 659.479 35.9515 660.668C73.3378 672.466 111.987 680.993 148.992 693.695C149.492 694.541 149.991 695.388 150.491 696.235C142.878 698.175 45.3146 666.475 29.7003 663.123C25.8546 662.297 24.5532 661.352 22.927 658.089Z"/><path fill="#fafafa" d="M370.225 227.023C385.362 227.209 466.491 268.792 486.919 273.83C491.254 274.899 494.697 276.228 494.609 280.907C489.734 279.838 484.85 277.505 480.234 275.582C444.73 260.794 409.106 246.247 373.722 231.191C371.107 230.078 370.959 229.423 370.225 227.023Z"/><path fill="#fafafa" d="M525.309 290.966C525.897 290.947 527.593 290.83 528.463 291.172C560.713 303.832 593.312 317.167 625.071 330.95C625.685 332.041 626.189 332.935 626.581 333.632C625.395 333.753 623.444 334.112 621.781 333.432C590.276 320.538 558.098 307.821 527.014 294.04C526.319 292.786 525.75 291.762 525.309 290.966Z"/><path fill="#0a0a0a" d="M2881.47 149.766C2882.68 149.706 2883.41 149.929 2884.63 150.131L2885.05 151.817C2881.57 155.963 2815.08 183.369 2805.35 188.38C2803.56 188.691 2804.06 188.568 2802.17 188.213L2802.03 186.367C2807.18 180.863 2870.1 155.396 2881.47 149.766Z"/><path fill="#fafafa" d="M394.156 762.085C397.484 762.289 397.736 762.377 400.995 763.274L462.591 780.827C462.975 779.863 470.029 759.978 471.064 771.497C468.202 776.796 467.088 779.967 464.64 785.435C454.86 782.468 407.362 769.838 395.226 764.452C395.267 764.47 394.31 762.418 394.156 762.085Z"/><path fill="#fafafa" d="M2632.01 292.045L2634.16 292.274L2634.97 293.507C2633.16 296.878 2570.41 321.235 2561.12 325.024C2558.97 324.907 2559.95 325.232 2558.14 323.868L2558.71 322.372C2563.06 319.435 2577.48 314.078 2583.17 311.779L2632.01 292.045Z"/><path fill="#fafafa" d="M278.127 189.01C289 189.677 312.004 202.676 323.608 206.427C328.024 207.854 347.051 215.151 349.061 218.84C347.894 219.204 346.152 219.97 345.002 219.496C334.874 215.318 324.653 211.046 314.558 206.802C303.259 202.05 291.913 197.396 280.568 192.759C279.178 192.191 278.707 190.237 278.127 189.01Z"/><path fill="#0a0a0a" d="M176.179 144.918C178.896 145.482 184.788 147.206 187.006 148.747C193.614 153.34 236.486 166.855 236.902 172.891L237.015 174.18C224.434 172.312 197.722 156.8 184.291 152.383C181.419 151.439 176.351 149.528 176.244 146.157L176.179 144.918Z"/><path fill="#fafafa" d="M502.298 689.281C502.346 689.308 504.933 690.574 504.782 691.017C498.378 709.829 488.777 730.384 480.407 748.713C480.304 748.666 477.635 747.661 477.909 746.952C485.206 728.082 493.638 707.696 502.298 689.281Z"/><path fill="#0a0a0a" d="M478.82 306.912C488.778 307.006 511.67 320.754 522.318 323.85C523.129 324.086 530.246 327.202 530.763 327.587C531.27 327.963 531.606 328.526 531.697 329.151C531.723 329.409 531.75 329.667 531.777 329.925L531.914 331.074C529.145 330.64 522.018 328.589 519.712 327.251C513.987 323.929 480.068 312.897 479.072 308.061L478.82 306.912Z"/><path fill="#fafafa" d="M2562.34 696.398C2563.33 696.838 2565.49 697.485 2565.9 698.618C2570.4 711.155 2575.03 723.789 2579.22 736.434C2579.49 737.254 2578.51 739.604 2578.29 740.279C2574 737.192 2562.27 702.209 2562.34 696.398Z"/><path fill="#fafafa" d="M549.042 336.937C552.984 337.273 570.636 342.619 570.683 346.913L570.729 348.07C565.991 347.237 549.608 342.378 549.042 336.937Z"/><path fill="#fafafa" d="M600.625 357.834C603.905 358.465 616.641 362.015 616.611 365.956L616.642 367.097C611.568 366.468 601.561 363.659 600.625 357.834Z"/><path fill="#fafafa" d="M2871.21 701.092C2872.53 701.298 2872.91 701.304 2873.79 702.304C2874.22 705.482 2865.54 706.626 2863.43 707.217C2863.02 707.345 2862.29 707.633 2861.91 707.386C2856.24 703.668 2870.02 701.374 2871.21 701.092Z"/><path fill="#737373" d="M73.1505 712.459C75.3332 713.127 77.9288 713.714 79.9678 714.459L79.4221 716.791C76.2133 715.763 75.1419 715.099 71.6476 714.278L73.1505 712.459Z"/><path fill="#525252" d="M2986.54 713.522C2997.51 711.329 2992.34 713.923 2986 716.076L2986.54 713.522Z"/><path fill="#262626" d="M71.6476 714.278C70.6503 713.74 69.3778 713.321 68.6646 712.401C69.1927 711.329 72.2511 712.273 73.1505 712.459L71.6476 714.278Z"/></svg>