<svg width="3072" height="1536" viewBox="0 0 3072 1536" fill="none" xmlns="http://www.w3.org/2000/svg">
<g clip-path="url(#clip0_1078_1049)">
<path d="M0 0H3072V521.162V524.508V649.391V661.732V664.089V665.182V712.014V714.695V759.651V762.339V804.776V807.388V1105.42V1109.39V1205.11V1208.09V1536H0V1207.33V1205.68V1141.56V1137.67V1070.54V548.645V544.576V0Z" fill="#121114"/>
<path d="M1574.98 1204.99L1579.79 1198.48C1582.34 1200.26 1586.81 1203.6 1589.36 1204.97L1595.78 1208.64C1601.32 1207.72 1625.9 1208.07 1632.37 1208.06L1710.61 1207.99L2003.76 1207.98L3072 1208.09V1536H0V1207.33C5.57878 1208.69 49.14 1208.04 58.2096 1208.03L199.87 1207.99L675.15 1207.96H824.655C850.718 1207.94 879.496 1207.3 905.28 1208.09C909.491 1209.08 935.968 1208.82 941.7 1208.85C975.615 1209.02 1009.53 1208.95 1043.44 1208.65L1335.81 1209.09L1464.79 1209.06C1471.65 1209.09 1518.77 1208.17 1521.92 1210.56L1525.03 1209.62C1525.49 1209.4 1528.18 1208.82 1528.87 1208.66C1539.77 1217.72 1548.52 1222.56 1559.69 1230.21C1561.64 1226.12 1569.51 1213.64 1572.4 1208.71L1574.98 1204.99Z" fill="#F8F9FD"/>
<path d="M1574.98 1204.99L1579.79 1198.48C1582.34 1200.26 1586.81 1203.6 1589.36 1204.97L1595.78 1208.64C1619.25 1222.67 1644.42 1235.44 1668.21 1249.16C1664.14 1256.05 1659.99 1262.9 1655.77 1269.69C1655.51 1270.17 1654.3 1272.31 1654.22 1272.67C1701.62 1287.99 1764.23 1307.42 1812.86 1318.34C1783.67 1333.34 1746.33 1350.19 1715.84 1361.39C1672.94 1377.14 1627.19 1382.92 1584.85 1402.34C1558.28 1414.52 1536.81 1436.92 1561.87 1463.53C1541.65 1459.64 1481.19 1428.57 1459.18 1417.87L1304.78 1342.75C1276.72 1329.05 1265.03 1326.54 1254.65 1296.37C1271.89 1292.02 1289.33 1288.33 1306.58 1283.89C1382.08 1264.46 1455.8 1241.89 1527.76 1211.89C1538.95 1220.53 1546.07 1225.44 1558.25 1232.34L1559.69 1230.21C1561.64 1226.12 1569.51 1213.64 1572.4 1208.71L1574.98 1204.99Z" fill="#F8F9FD"/>
<path d="M1574.98 1204.99L1579.79 1198.48C1582.34 1200.26 1586.81 1203.6 1589.36 1204.97L1595.78 1208.64C1619.25 1222.67 1644.42 1235.44 1668.21 1249.16C1664.14 1256.05 1659.99 1262.9 1655.77 1269.69C1655.51 1270.17 1654.3 1272.31 1654.22 1272.67C1644.96 1285.9 1623.41 1322.88 1615.73 1337.2C1585.45 1320.07 1554.98 1303.29 1524.32 1286.87C1535.76 1269.1 1547.07 1250.34 1558.25 1232.34L1559.69 1230.21C1561.64 1226.12 1569.51 1213.64 1572.4 1208.71L1574.98 1204.99Z" fill="#6036CA"/>
<path d="M1525.03 1209.62C1525.49 1209.4 1528.18 1208.82 1528.87 1208.66C1539.77 1217.72 1548.52 1222.56 1559.69 1230.21L1558.25 1232.34C1546.07 1225.44 1538.95 1220.53 1527.76 1211.89C1455.8 1241.89 1382.08 1264.46 1306.58 1283.89C1289.33 1288.33 1271.89 1292.02 1254.65 1296.37C1265.03 1326.54 1276.72 1329.05 1304.78 1342.75L1459.18 1417.87C1481.19 1428.57 1541.65 1459.64 1561.87 1463.53C1536.81 1436.92 1558.28 1414.52 1584.85 1402.34C1627.19 1382.92 1672.94 1377.14 1715.84 1361.39C1746.33 1350.19 1783.67 1333.34 1812.86 1318.34C1764.23 1307.42 1701.62 1287.99 1654.22 1272.67C1654.3 1272.31 1655.51 1270.17 1655.77 1269.69C1696.67 1283.08 1737.93 1295.32 1779.51 1306.39C1786.37 1308.2 1818.65 1315.68 1820.65 1318.37L1818.81 1320.12C1804.17 1326.47 1788.4 1333.26 1774 1340.05C1790.56 1346.58 1806.67 1351.9 1823.16 1358.12L1822.54 1360.05C1817.74 1363.27 1797.53 1371.99 1791.5 1374.71L1715.54 1408.41L1633.64 1445.09C1570.35 1473.79 1575.65 1477.55 1509.97 1446.23L1353.75 1370.36C1331.44 1359.53 1308.93 1348.7 1286.77 1337.61C1263.16 1325.8 1258.41 1317.73 1249.97 1293.9C1293.97 1285.24 1341.69 1271.49 1384.8 1258.78C1429.82 1245.5 1479.1 1229.77 1521.92 1210.56L1525.03 1209.62Z" fill="#121114"/>
<path d="M1571.16 1440.63C1573.28 1434.8 1589.15 1404.69 1593.7 1402.74C1639.84 1383.02 1690.79 1375.14 1738 1357.58C1741.45 1356.29 1780.31 1360.68 1787.35 1361.16L1786.4 1363.79C1713.15 1384.97 1641.27 1410.63 1571.16 1440.63Z" fill="#F8F9FD"/>
<path d="M1777.24 1370.13L1778.83 1371.69C1754.39 1381.84 1729.11 1390.44 1704.39 1400.11C1657.47 1418.48 1610.72 1437.29 1564.15 1456.54C1566 1451.49 1567.51 1446.86 1572.05 1443.8C1638.91 1416.57 1707.39 1388.99 1777.24 1370.13Z" fill="#F8F9FD"/>
<path d="M1755.83 1384.52L1755.17 1387.23C1712.69 1404.93 1670.56 1425.56 1628.24 1443.82C1612.83 1450.47 1596.58 1459.83 1580.56 1464.41C1576.01 1465.71 1570.69 1463.77 1566.27 1462.32L1565 1459.65C1628.41 1434.76 1691.23 1406.86 1755.83 1384.52Z" fill="#F8F9FD"/>
<path d="M2120.14 738.746C2153.22 750.113 2185.5 761.766 2217.1 777.155C2232.24 784.53 2245.69 792.463 2260.61 800.542C2294.82 819.064 2332.47 836.215 2370.54 844.784C2386.34 848.341 2402.13 848.85 2417.21 855.166C2506.35 889.406 2595.05 924.765 2684.09 959.255L3072 1109.39V1205.11V1208.09L2003.76 1207.98L1710.61 1207.99L1632.37 1208.06C1625.9 1208.07 1601.32 1207.72 1595.78 1208.64L1589.36 1204.97C1586.81 1203.6 1582.34 1200.26 1579.79 1198.48L1574.98 1204.99L1572.4 1208.71C1569.51 1213.64 1561.64 1226.12 1559.69 1230.21C1548.52 1222.56 1539.77 1217.72 1528.87 1208.66C1528.18 1208.82 1525.49 1209.4 1525.03 1209.62L1521.92 1210.56C1518.77 1208.17 1471.65 1209.09 1464.79 1209.06L1335.81 1209.09L1043.44 1208.65C1009.53 1208.95 975.615 1209.02 941.7 1208.85C935.968 1208.82 909.491 1209.08 905.28 1208.09C879.496 1207.3 850.718 1207.94 824.655 1207.96H675.15L199.87 1207.99L58.2096 1208.03C49.14 1208.04 5.57878 1208.69 0 1207.33V1205.68V1141.56L567.024 909.651L723.746 845.791C768.774 827.381 810.716 805.597 859.088 797.643C913.313 788.726 953.954 808.942 1003.85 821.908C1003.23 841.849 1002.45 869.044 1010.2 887.455C1029.7 933.799 1080.51 908.633 1111.55 895.923C1106.3 919.469 1115.4 938.329 1133.51 953.752C1152.86 970.234 1192.07 989.232 1217.61 978.376C1223.04 976.068 1251.36 955.524 1254.44 951.79C1256.14 944.83 1274.38 927.443 1280.52 922.924L1282.83 924.17C1294.1 910.604 1309.86 882.617 1319.69 866.25C1329.15 854.415 1336.18 848.234 1351.52 846.441C1377.86 843.366 1414.13 863.414 1417.37 891.459C1419.43 909.319 1407.27 933.502 1400.25 950.105C1402.55 950.402 1402.93 950.773 1404.91 950.01C1408.83 944.92 1418.57 920.943 1420.28 914.029C1420.93 911.413 1420.66 908.216 1421.54 904.646L1434.27 916.62C1423.71 921.089 1424.13 919.843 1419.55 928.89C1420.86 927.293 1421.8 926.637 1423.37 925.37L1425.82 926.098C1437.74 919.427 1445.62 916.336 1459.38 919.606C1513.26 932.412 1493.65 1007.08 1480.86 1043.76C1478.57 1050.33 1469.07 1065.69 1468.46 1071.32L1472.03 1074.28C1478.55 1070.68 1488.72 1063.2 1494.78 1058.72C1517.17 1042.16 1534.15 1028.72 1543.38 1001.46C1616.34 1032.39 1660.56 1043.89 1718.51 975.358C1762.19 982.561 1794.99 971.043 1822.71 935.946C1825.51 931.871 1827.41 928.818 1829.88 924.548C1839.64 905.9 1842.5 893.294 1843.91 872.912C1858.78 882.255 1894.19 907.532 1909.88 908.2C1942.54 909.59 1972.19 870.077 1973.79 839.137C1973.14 836.271 1973 829.809 1972.7 829.264C1971.92 828.84 1971.32 829.523 1970.52 829.49C1969.15 822.316 1968.06 815.204 1966.56 807.863C1967.33 807.162 1967.52 807.255 1967.57 806.54C1966.16 804.089 1963.6 796.795 1964.25 793.894L1964.28 791.194C1966.37 790.562 1988.08 794.09 1996.02 793.902C2046.18 792.718 2083.99 771.567 2120.14 738.746Z" fill="#F8F9FD"/>
<path d="M1319.69 866.251C1329.15 854.416 1336.18 848.235 1351.52 846.442C1377.86 843.367 1414.13 863.415 1417.37 891.46C1419.43 909.32 1407.27 933.503 1400.25 950.106L1377.19 1000.83C1370.69 1015.07 1364.57 1036.94 1347.86 1039.92C1299.65 1048.5 1226.19 998.747 1267.29 947.279C1272.29 941.02 1278.18 931.055 1282.83 924.171C1294.1 910.605 1309.86 882.618 1319.69 866.251Z" fill="#515357"/>
<path d="M1338.81 864.655C1359.4 864.597 1381.51 872.576 1396.46 886.912C1401.15 891.41 1404.74 897.089 1404.62 903.808C1404.55 907.264 1403.4 910.173 1401.67 913.121C1397.46 920.263 1391.19 926.233 1386.3 932.929C1380.9 940.337 1376.6 950.503 1369.91 956.632C1342.11 950.689 1318.12 938.146 1299.93 916.066C1313.34 899.296 1325.22 881.339 1338.81 864.655Z" fill="#121114"/>
<path d="M1340.32 867.852C1349.11 868.184 1358.22 869.374 1366.51 872.344C1377.47 876.271 1395.23 885.702 1400.12 896.937C1401.73 900.572 1401.8 904.703 1400.31 908.389C1399.15 911.314 1369.64 952.021 1367.79 952.894C1343.22 947.353 1319.71 935.769 1303.69 915.928C1316.26 900.182 1327.6 883.503 1340.32 867.852Z" fill="#515357"/>
<path d="M1279.55 1000.89C1286.74 1003.29 1294.12 1009.44 1301.12 1012.93C1308.52 1016.62 1317.35 1018.43 1324.37 1022.24C1325.1 1022.63 1325.45 1024.66 1325.64 1025.3C1313.67 1022.43 1289.72 1012.97 1280.92 1004.47C1279.63 1003.22 1279.62 1002.6 1279.55 1000.89Z" fill="#121114"/>
<path d="M1425.82 926.099C1437.74 919.428 1445.62 916.337 1459.38 919.607C1513.26 932.413 1493.65 1007.08 1480.86 1043.76C1478.57 1050.33 1469.07 1065.69 1468.46 1071.32C1456.66 1079.01 1427.96 1073.84 1415.49 1069.15C1394.48 1061.24 1378.53 1049.02 1369.02 1028.48C1384.18 1007.41 1396.25 983.306 1407.02 959.769C1412.24 948.369 1416.57 934.709 1425.82 926.099Z" fill="#515357"/>
<path d="M1432.26 929.753C1443.15 930.549 1456.89 935.131 1466.64 940.035C1474.5 943.989 1481.69 949.734 1484.28 958.508C1489.1 974.793 1476.41 996.71 1468.47 1010.56C1466.71 1013.63 1466.26 1015.13 1462.78 1016.11C1442.8 1011.74 1424.86 1003.23 1406.97 993.568C1414.19 972.016 1423.77 950.85 1432.26 929.753Z" fill="#121114"/>
<path d="M1434.23 933.547C1445.34 935.814 1456.22 938.489 1466.47 943.506C1471.84 946.133 1478.54 949.892 1480.42 955.916C1484.99 970.536 1476.62 988.742 1469.96 1001.61C1468.08 1005.24 1465.52 1011.36 1461.59 1012.62C1443.43 1007.79 1427.31 1000.86 1410.73 992.084L1434.23 933.547Z" fill="#515357"/>
<path d="M0 1205.68C5.44256 1204.68 31.0568 1205.06 38.2074 1205.07L117.218 1205.2L424.751 1205.12L1574.98 1204.99L1572.4 1208.71C1569.51 1213.64 1561.64 1226.12 1559.69 1230.21C1548.52 1222.56 1539.77 1217.72 1528.87 1208.66C1528.18 1208.82 1525.49 1209.4 1525.03 1209.62L1521.92 1210.56C1518.77 1208.17 1471.65 1209.09 1464.79 1209.06L1335.81 1209.09L1043.44 1208.65C1009.53 1208.95 975.615 1209.02 941.7 1208.85C935.968 1208.82 909.491 1209.08 905.28 1208.09C879.496 1207.3 850.718 1207.94 824.655 1207.96H675.15L199.87 1207.99L58.2096 1208.03C49.14 1208.04 5.57878 1208.69 0 1207.33V1205.68Z" fill="#98979C"/>
<path d="M905.28 1208.09C930.095 1206.81 964.59 1207.82 990.076 1207.84L1150.78 1207.89L1378.02 1207.94C1425.25 1207.89 1472.55 1207.92 1519.78 1208.12C1521.76 1208.13 1523.43 1208.41 1525.03 1209.62L1521.92 1210.56C1518.77 1208.17 1471.65 1209.09 1464.79 1209.06L1335.81 1209.09L1043.44 1208.65C1009.53 1208.95 975.615 1209.02 941.7 1208.85C935.968 1208.82 909.491 1209.08 905.28 1208.09Z" fill="#DFDFE5"/>
<path d="M1528.87 1208.66C1538.17 1207.75 1563.23 1207.97 1572.4 1208.71C1569.51 1213.64 1561.64 1226.12 1559.69 1230.21C1548.52 1222.56 1539.77 1217.72 1528.87 1208.66Z" fill="#F8F9FD"/>
<path d="M1589.36 1204.97C1649.68 1205.73 1711.07 1205.1 1771.45 1205.1H2109.56L3072 1205.11V1208.09L2003.76 1207.98L1710.61 1207.99L1632.37 1208.06C1625.9 1208.07 1601.32 1207.72 1595.78 1208.64L1589.36 1204.97Z" fill="#98979C"/>
<path d="M1404.91 950.01C1408.83 944.92 1418.57 920.944 1420.28 914.03C1420.93 911.414 1420.66 908.216 1421.54 904.646L1434.27 916.62C1423.71 921.089 1424.13 919.844 1419.55 928.891C1420.86 927.294 1421.8 926.637 1423.37 925.37L1425.82 926.099C1416.57 934.709 1412.24 948.368 1407.02 959.768C1396.25 983.305 1384.18 1007.41 1369.02 1028.48C1378.53 1049.02 1394.48 1061.24 1415.49 1069.15C1427.96 1073.84 1456.66 1079.01 1468.46 1071.32L1472.03 1074.28C1459.72 1080.13 1440.06 1079.57 1427.2 1076.33C1398.55 1069.12 1382.19 1057.76 1366.79 1033.55C1361.6 1038.91 1356.33 1041.99 1348.78 1043.2C1310.88 1049.27 1260.53 1026.02 1252.27 985.742C1248.27 966.225 1256.18 957.42 1266.19 942.362C1262.3 945.651 1258.46 948.659 1254.44 951.791C1256.14 944.831 1274.38 927.443 1280.52 922.924L1282.83 924.171C1278.18 931.055 1272.29 941.02 1267.29 947.279C1226.19 998.747 1299.65 1048.5 1347.86 1039.92C1364.57 1036.94 1370.69 1015.07 1377.19 1000.83L1400.25 950.106C1402.55 950.403 1402.93 950.773 1404.91 950.01Z" fill="#121114"/>
<path d="M1964.25 793.895C1971.45 807.44 1975.1 823.808 1973.79 839.138C1973.14 836.272 1973 829.81 1972.7 829.265C1971.92 828.841 1971.32 829.524 1970.52 829.491C1969.15 822.317 1968.06 815.205 1966.56 807.864C1967.33 807.163 1967.52 807.256 1967.57 806.541C1966.16 804.09 1963.6 796.796 1964.25 793.895Z" fill="#121114"/>
<path d="M347.597 465.94L471.017 437.036C485.034 433.687 513.091 425.81 525.594 423.753C543.632 424.31 567.314 424.049 584.972 426.997C639.691 436.133 726.994 421.055 762.341 471.541C771.08 484.022 780.024 506.274 796.339 508.974C835.386 515.438 834.893 475.515 843.503 450.134C859.279 403.973 887.287 362.96 924.541 331.467C948.316 311.147 948.711 311.829 977.76 303.661C987.741 300.933 997.452 297.303 1006.77 292.814C1027.22 282.865 1047.06 269.923 1068.48 260.898C1100.02 247.608 1135.72 235.583 1169.4 228.618C1178.14 226.81 1198.03 226.928 1207.12 226.976C1265.39 227.662 1323.34 235.626 1379.62 250.682C1349.31 261.851 1333.79 266.652 1306.34 283.53C1281.34 280.442 1250.06 276.284 1225.34 275.867C1216.43 276.582 1193.23 276.654 1184.76 275.901C1048.15 279.615 920.624 359.681 884.019 495.713C876.134 525.017 870.938 556.221 864.486 585.982C861.536 599.361 858.353 612.687 854.938 625.955C853.794 630.496 850.261 643.199 849.872 646.97H851.031C857.062 635.599 870.548 567.825 874.001 551.963C879.763 525.491 882.587 505.083 892.158 477.922C924.281 386.761 994.402 323.281 1086.38 295.021C1119.8 284.753 1154.44 278.943 1189.39 277.743C1196.81 278.101 1208.12 278.105 1215.59 277.794C1245.66 278.523 1274.08 281.83 1303.86 285.573C1289.09 299.369 1279.9 315.162 1271.56 333.439C1086.32 314.675 950.721 373.914 922.037 571.349C921.224 576.943 913.204 617.738 913.925 621.017C916.759 620.999 916.7 620.056 919.545 617.466L917.296 615.76C921.885 613.021 940.7 597.491 947.756 592.579C978.115 571.68 1011.83 556.145 1047.45 546.651C1179.15 510.604 1307.59 556.426 1421.99 621.457C1418.85 567.576 1403 517.97 1362.38 480.639L1364.35 479.103C1364.69 478.587 1365.96 477.433 1366.47 476.944C1372.89 474.78 1399.05 470.409 1405.09 472.14L1406.67 470.657C1411.86 469.159 1443.97 463.864 1448.01 465.766L1449.67 464.216C1462.28 460.375 1478.44 458.956 1492.72 454.746C1531.97 466.234 1571.92 496.829 1607.3 517.622C1612.03 520.399 1627.41 529.905 1629.9 533.451L1631.1 535.66C1637.51 535.303 1671.85 560.313 1677.51 565.327L1724.7 607.975C1725.97 608.933 1727.12 609.753 1728.41 610.671L1729.01 611.209C1731.82 613.667 1733.26 614.695 1735.95 617.455C1739.57 619.787 1739.91 619.16 1741.3 622.392L1740.92 624.758L1828.29 689.875C1839.92 698.542 1869.36 719.775 1877.97 729.26L1879.19 726.939C1889.04 732.218 1943.86 781.368 1958.64 790.475C1959.82 791.205 1963.7 804.199 1966.56 807.864C1968.06 815.205 1969.15 822.317 1970.52 829.491C1971.32 829.524 1971.92 828.841 1972.7 829.265C1973 829.81 1973.14 836.272 1973.79 839.138C1972.19 870.078 1942.54 909.591 1909.88 908.201C1894.19 907.533 1858.78 882.256 1843.91 872.913C1842.5 893.295 1839.64 905.901 1829.88 924.549C1827.41 928.819 1825.51 931.872 1822.71 935.947C1794.99 971.044 1762.19 982.562 1718.51 975.359C1660.56 1043.89 1616.34 1032.39 1543.38 1001.46C1534.15 1028.72 1517.17 1042.16 1494.78 1058.72C1488.72 1063.2 1478.55 1070.68 1472.03 1074.28L1468.46 1071.32C1469.07 1065.69 1478.57 1050.33 1480.86 1043.76C1493.65 1007.08 1513.26 932.413 1459.38 919.607C1445.62 916.337 1437.74 919.428 1425.82 926.099L1423.37 925.371C1421.8 926.638 1420.86 927.294 1419.55 928.891C1424.13 919.844 1423.71 921.09 1434.27 916.621L1421.54 904.647C1420.66 908.217 1420.93 911.414 1420.28 914.03C1418.57 920.944 1408.83 944.921 1404.91 950.011C1402.93 950.774 1402.55 950.403 1400.25 950.106C1407.27 933.503 1419.43 909.32 1417.37 891.46C1414.13 863.415 1377.86 843.367 1351.52 846.442C1336.18 848.235 1329.15 854.416 1319.69 866.251L1316.91 866.511L1315.78 865.422C1309.12 864.838 1306.25 868.012 1298.64 866.757L1294.74 866.116C1299.41 853.3 1293.52 839.606 1283.94 830.819C1255.86 805.057 1211.33 803.169 1181.28 826.681C1172.54 833.523 1165.95 840.911 1158.46 849.03C1159.5 845.947 1159.05 845.146 1158.6 841.811C1150.82 840.335 1130.32 841.535 1122.04 839.601C1105.27 835.687 1022.55 810.523 1012.8 803.453L1010.72 803.385C1006.84 802.642 972.011 790.204 969.739 788.067L967.842 788.154C963.488 787.634 932.676 779.102 928.305 777.372C926.669 777.942 926.606 777.876 924.856 777.949C921.692 776.457 920.855 775.731 918.024 773.59L916.534 775.339C911.438 775.84 888.653 772.858 885.074 769.697L884.042 771.824C873.893 753.094 864.973 740.679 851.541 724.272C850.991 723.788 850.986 723.812 850.609 723.185C828.356 698.608 809.704 683.768 781.813 666.357L783.468 664.873L782.049 663.768C689.03 615.045 590.893 606.127 492.953 646.685C456.294 569.519 415.809 518.448 347.597 465.94Z" fill="#F8F9FD"/>
<path d="M1012.8 803.454C1014.31 724.855 1082.19 680.386 1155.99 682.014C1206.33 683.123 1259.71 702.272 1295.15 738.646C1323.56 767.807 1341.83 817.875 1322.09 857.072C1320.7 859.832 1318.16 863.515 1315.78 865.423C1309.12 864.839 1306.25 868.013 1298.64 866.758L1294.74 866.117C1299.41 853.301 1293.52 839.607 1283.94 830.82C1255.86 805.058 1211.33 803.17 1181.28 826.682C1172.54 833.524 1165.95 840.912 1158.46 849.031C1159.5 845.948 1159.05 845.147 1158.6 841.812C1150.82 840.336 1130.32 841.536 1122.04 839.602C1105.27 835.688 1022.55 810.524 1012.8 803.454Z" fill="#F8F9FD"/>
<path d="M1158.6 841.811C1165.41 837.059 1171.37 829.788 1178.03 824.446C1196.4 809.707 1220.17 804.195 1243.32 807.703C1269.29 811.64 1305.05 831.859 1299.43 862.916C1299.2 864.203 1298.94 865.484 1298.64 866.757L1294.74 866.116C1299.41 853.3 1293.52 839.606 1283.94 830.819C1255.86 805.057 1211.33 803.169 1181.28 826.681C1172.54 833.523 1165.95 840.911 1158.46 849.03C1159.5 845.947 1159.05 845.146 1158.6 841.811Z" fill="#121114"/>
<path d="M1604.29 690.217C1613.3 701.304 1622.19 712.524 1631.15 723.656C1645.55 741.537 1664.16 751.817 1683.14 764.102L1744.79 803.947L1822.94 854.215C1843.6 867.715 1883.52 896.087 1907.54 904.524C1916.31 907.602 1938.52 896.731 1943.82 890.362C1961.43 874.107 1969.17 855.514 1970.59 832.178C1958.26 820.122 1943.27 802.412 1931.53 789.316C1913.46 769.492 1895.61 749.473 1877.97 729.261L1879.19 726.94C1889.04 732.219 1943.86 781.369 1958.64 790.476C1959.82 791.206 1963.7 804.2 1966.56 807.865C1968.06 815.206 1969.15 822.318 1970.52 829.492C1971.32 829.525 1971.92 828.842 1972.7 829.266C1973 829.811 1973.14 836.273 1973.79 839.139C1972.19 870.079 1942.54 909.592 1909.88 908.202C1894.19 907.534 1858.78 882.257 1843.91 872.914C1842.5 893.296 1839.64 905.902 1829.88 924.55C1827.41 928.82 1825.51 931.873 1822.71 935.948C1794.99 971.045 1762.19 982.563 1718.51 975.36C1660.56 1043.89 1616.34 1032.39 1543.38 1001.46C1534.15 1028.72 1517.17 1042.16 1494.78 1058.72C1488.72 1063.2 1478.55 1070.68 1472.03 1074.28L1468.46 1071.32C1469.07 1065.69 1478.57 1050.33 1480.86 1043.76C1493.65 1007.08 1513.26 932.414 1459.38 919.608C1445.62 916.338 1437.74 919.429 1425.82 926.1L1423.37 925.372C1421.8 926.639 1420.86 927.295 1419.55 928.892C1424.13 919.845 1423.71 921.091 1434.27 916.622L1421.54 904.648C1420.66 908.218 1420.93 911.415 1420.28 914.031C1418.57 920.945 1408.83 944.922 1404.91 950.012C1405.77 945.623 1410.72 934.534 1412.67 930.01C1418.25 917.073 1418.76 913.088 1420.65 899.958C1425.93 905.356 1431.12 910.847 1436.21 916.429C1438.36 915.829 1443.85 914.467 1446.14 914.461C1495.91 914.325 1491.53 957.743 1520.46 981.702C1547.89 1004.41 1603.32 1024.39 1637.69 1022.47C1650.58 1009.57 1673.1 989.907 1671.56 969.741C1671.28 966.166 1669.18 960.337 1666.26 957.953C1650.07 944.71 1631.7 933.85 1614.79 921.47C1595.33 908.338 1576.48 893.981 1556.99 880.941C1547.33 875.359 1535.07 873.814 1526.58 866.181C1521.56 861.672 1510.91 851.32 1518.22 844.912C1528.8 843.943 1570.26 875.009 1580.81 882.095L1662.19 935.829C1697.49 958.975 1721.77 983.665 1766.05 970.946C1785.32 965.411 1796.13 955.585 1806.04 938.404C1836.38 885.812 1754.38 840.13 1719.56 815.786C1693.97 798.041 1668.63 779.955 1643.54 761.531C1604.28 732.214 1614.56 738.943 1602.38 694.052L1604.29 690.217Z" fill="#1D1B1C"/>
<path d="M1822.71 935.947C1822.48 935.38 1822.24 934.818 1821.99 934.26C1819.86 929.609 1823.92 924.215 1829.88 924.549C1827.41 928.819 1825.51 931.872 1822.71 935.947Z" fill="#121114"/>
<path d="M1449.67 464.216C1462.28 460.375 1478.44 458.956 1492.72 454.746C1531.97 466.234 1571.92 496.829 1607.3 517.622C1612.03 520.399 1627.41 529.905 1629.9 533.451C1626.42 534.54 1620.3 535.561 1616.64 536.153C1565.67 544.405 1532.07 577.882 1516.48 626.079C1505.89 620.348 1495.76 615.715 1484.81 610.674C1470.57 554.442 1451.12 508.918 1406.67 470.657C1411.86 469.159 1443.97 463.864 1448.01 465.766L1449.67 464.216Z" fill="#F8F9FD"/>
<path d="M1449.67 464.217C1480.91 488.997 1490.59 506.752 1505.56 542.159C1513.74 537.144 1520.4 532.855 1529.21 528.997L1529.53 529.513C1522 535.396 1512.82 540.627 1504.59 545.63C1493.6 520.254 1486.51 503.295 1466.49 482.342C1460.49 476.059 1452.65 470.487 1448.01 465.767L1449.67 464.217Z" fill="#1D1B1C"/>
<path d="M1364.35 479.104C1403.01 515.711 1422.92 567.277 1424.16 620.078C1424.18 621.102 1424.2 622.127 1424.19 623.151C1445.84 637.195 1466.42 651.076 1485.89 668.216C1496.72 677.751 1507.19 687.684 1517.29 697.995C1526.22 706.973 1534.22 716.238 1545.14 723.897C1553.48 729.744 1616.59 753.504 1618.02 759.173C1606.72 757.576 1567.04 734.723 1553.15 730.621C1540.35 726.844 1520.49 704.802 1510.2 694.194C1509.01 693.167 1508.8 692.975 1507.97 691.645L1484.37 670.089C1483.39 669.464 1483.5 669.635 1482.85 668.789C1406.49 603.302 1278.3 546.697 1177.4 537.915C1079.52 529.394 994.667 554.521 919.545 617.467L917.296 615.761C921.885 613.022 940.7 597.491 947.756 592.579C978.115 571.68 1011.83 556.146 1047.45 546.652C1179.15 510.605 1307.59 556.426 1421.99 621.457C1418.85 567.576 1403 517.971 1362.38 480.64L1364.35 479.104Z" fill="#1D1B1C"/>
<path d="M1010.72 803.386C1009.79 725.764 1079.41 680.299 1151.15 679.652C1230.61 678.934 1332.76 730.434 1332.82 821.034C1332.72 832.127 1330.69 843.118 1326.82 853.515C1369.14 823.634 1402.39 860.401 1435.44 885.549C1459.85 904.129 1485.28 921.631 1509.56 939.981L1509.01 940.996C1500.29 938.881 1426.14 881.568 1413.88 872.155C1418.4 881.452 1422.58 889.413 1420.65 899.958C1418.76 913.088 1418.25 917.073 1412.67 930.01C1410.72 934.534 1405.77 945.623 1404.91 950.012C1402.93 950.775 1402.55 950.404 1400.25 950.107C1407.27 933.504 1419.43 909.321 1417.37 891.461C1414.13 863.416 1377.86 843.368 1351.52 846.443C1336.18 848.236 1329.15 854.417 1319.69 866.252L1316.91 866.512L1315.78 865.423C1318.16 863.515 1320.7 859.832 1322.09 857.072C1341.83 817.875 1323.56 767.807 1295.15 738.646C1259.71 702.272 1206.33 683.123 1155.99 682.014C1082.19 680.386 1014.31 724.855 1012.8 803.454L1010.72 803.386Z" fill="#121114"/>
<path d="M967.842 788.155C968.65 708.841 1029 648.85 1104.49 634.674C1165.77 623.167 1239.3 637.905 1291.13 672.914C1339.62 705.671 1368.53 751.026 1379.49 808.233C1391.29 809.79 1402.89 812.571 1414.12 816.529C1423.64 819.931 1432.8 824.252 1441.49 829.431C1451.7 835.439 1533.8 891.145 1535.71 895.155C1533.81 895.563 1534.18 895.649 1532.42 894.472C1504.26 875.382 1476.77 855.473 1448.43 836.641C1425.37 821.326 1404.61 814.088 1377.34 810.201C1370.65 766.895 1353.7 737.595 1325.38 705.074C1324.28 704.375 1324.41 704.387 1323.62 703.2L1316.37 696.047C1315.37 695.404 1315.49 695.6 1314.92 694.701C1263.82 650.493 1197.17 628.548 1129.81 633.75C1054.75 638.905 983.838 687.811 971.957 766.248C970.878 773.371 970.4 780.879 969.739 788.068L967.842 788.155Z" fill="#1D1B1C"/>
<path d="M924.856 777.948C926.927 773.481 925.746 760 926.358 753.752C927.267 744.344 928.726 734.997 930.73 725.759C940.356 681.613 967.458 643.252 1005.85 619.43C1070.4 578.964 1150.81 579.921 1222.16 595.651C1320.22 617.267 1396.93 687.838 1425.45 783.955C1426.47 787.402 1430 795.302 1429.26 798.497C1426.91 797.882 1425.54 792.612 1424.87 790.255C1413.17 749.423 1394.95 715.965 1367.53 683.278C1366.98 682.8 1366.98 682.827 1366.6 682.202C1358.75 673.837 1351.72 666.965 1343.37 659.083C1342.42 658.446 1342.5 658.593 1341.85 657.773C1271.44 601.133 1191.72 581.96 1102.36 589.674C1013.93 597.307 937.455 656.474 929.64 748.31C928.853 757.556 929.385 768.679 928.305 777.371C926.669 777.941 926.606 777.875 924.856 777.948Z" fill="#1D1B1C"/>
<path d="M1405.09 472.139L1406.67 470.656C1451.12 508.917 1470.57 554.441 1484.81 610.673C1495.76 615.714 1505.89 620.347 1516.48 626.078C1532.07 577.881 1565.67 544.404 1616.64 536.152C1620.3 535.56 1626.42 534.539 1629.9 533.45L1631.1 535.659C1627.79 536.924 1618.63 538.277 1614.84 538.914C1565.38 547.23 1531.37 582.289 1518.18 629.696C1506.37 623.563 1494.43 617.7 1482.36 612.112C1473.74 571.907 1454.61 526.172 1428.03 494.51C1421.78 487.067 1412.37 479.897 1405.57 472.66L1405.09 472.139Z" fill="#1D1B1C"/>
<path d="M791.736 669.458C801.045 638.881 810.803 608.672 816.12 577.097C816.666 573.855 820.763 547.701 821.75 547.086C822.12 575.049 804.181 642.148 793.505 671.002C824.768 690.97 851.628 717.106 872.444 747.811C875.793 752.728 883.126 764.317 885.074 769.697L884.042 771.824C873.893 753.094 864.973 740.679 851.541 724.272C850.991 723.788 850.986 723.812 850.609 723.185C828.356 698.608 809.704 683.768 781.813 666.357L783.468 664.873L791.736 669.458Z" fill="#1D1B1C"/>
<path d="M1740.92 624.759C1730.4 617.131 1719.62 609.87 1708.6 602.988C1656.59 571.166 1592.55 574.942 1564.95 638.506C1562.27 644.681 1562.75 654.404 1559.35 660.008L1558.35 659.182C1558.1 648.62 1563.84 632.913 1569.23 623.819C1581.16 603.794 1600.6 589.366 1623.23 583.743C1656.74 575.397 1684.63 585.736 1712.86 602.785C1713.1 602.958 1713.34 603.131 1713.58 603.304L1722.68 609.218L1724.7 607.976C1725.97 608.934 1727.12 609.754 1728.41 610.672L1729.01 611.21C1731.82 613.668 1733.26 614.696 1735.95 617.456C1739.57 619.788 1739.91 619.161 1741.3 622.393L1740.92 624.759Z" fill="#1D1B1C"/>
<path d="M1728.41 610.672L1729.01 611.21C1731.82 613.668 1733.26 614.696 1735.95 617.456C1732.33 616.115 1730.28 615.257 1727.57 612.638L1728.41 610.672Z" fill="#696A6D"/>
<path d="M1724.7 607.975C1725.97 608.933 1727.12 609.753 1728.41 610.671L1727.57 612.637L1722.68 609.217L1724.7 607.975Z" fill="#DFDFE5"/>
<path d="M916.534 775.34C901.827 753.109 893.077 731.602 887.891 705.476C886.608 699.007 881.794 668.248 884.461 664.213C886.296 665.818 886.046 672.862 886.258 675.627C888.399 703.53 895.277 730.938 907.501 756.158C910.394 762.125 914.943 767.55 918.024 773.591L916.534 775.34Z" fill="#1D1B1C"/>
<path d="M1184.76 275.901C1192.58 274.5 1217.51 274.646 1225.34 275.867C1216.43 276.582 1193.23 276.654 1184.76 275.901Z" fill="#696A6D"/>
<path d="M1602.38 694.051C1602.04 692.725 1600.2 687.587 1600.83 686.605C1602.04 686.323 1603.72 689.308 1604.29 690.216L1602.38 694.051Z" fill="#1D1B1C"/>
<path d="M1410.62 671.203C1407.4 667.953 1393.34 654.856 1393.24 651.299C1397.64 651.448 1466.97 728.874 1475.58 736.583C1482.83 743.075 1496.23 752.751 1504.1 758.745L1556.54 798.865C1565.58 805.802 1582.35 817.704 1590.26 825.007L1589.98 825.832C1585.7 825.102 1529.74 781.814 1522.55 775.767C1512.11 766.99 1475.17 741.966 1468.24 733.198C1467.77 732.771 1467.74 732.615 1467.36 732.013C1462.27 725.97 1456.68 719.936 1451.37 714.046C1450.27 713.375 1450.41 713.379 1449.63 712.185C1443.82 706.588 1436.99 699.033 1431.32 693.08C1429.58 691.979 1428.42 690.209 1427.1 688.578C1423.2 685.038 1416.25 677.164 1412.37 673.052C1411.28 672.375 1411.41 672.379 1410.62 671.203Z" fill="#1D1B1C"/>
<path d="M1762.72 869.381C1763 869.633 1763.34 869.838 1763.57 870.138C1764.59 871.432 1764.52 872.373 1764.36 873.888C1761.04 903.583 1734.95 937.978 1712.55 955.717L1711.71 954.709C1711.74 951.412 1730.65 935.454 1734.19 930.665C1748.34 911.491 1756.8 892.312 1762.72 869.381Z" fill="#121114"/>
<path d="M1861.09 738.5C1861.28 738.813 1861.48 739.117 1861.65 739.439C1865.16 746.097 1857.54 769.173 1854.89 775.926C1846.65 796.918 1830.82 817.648 1809.78 826.933C1809.86 826.184 1809.74 825.381 1810.04 824.685C1810.62 823.286 1817.86 818.944 1819.33 817.89C1827.69 811.891 1833.97 806.047 1840.01 797.622C1853.39 778.932 1855.59 759.824 1861.09 738.5Z" fill="#121114"/>
<path d="M1843.42 723.453L1845.51 725.184C1847.07 748.56 1826.53 784.514 1812.1 801.286L1810.81 800.156C1811.47 795.048 1824.76 780.325 1828.22 773.269C1836.2 756.987 1840.65 741.244 1843.42 723.453Z" fill="#121114"/>
<path d="M753.823 509.484C757.798 510.618 760.268 514.187 762.758 517.268C779.52 538.003 788.382 572.712 785.559 599.017C785.051 598.499 784.366 598.108 784.036 597.462C782.47 594.391 783.152 583.091 782.908 579.193C782.385 570.851 780.806 562.787 778.47 554.761C773.421 537.411 764.296 523.893 753.823 509.484Z" fill="#1D1B1C"/>
<path d="M1816.62 734.756C1816.65 734.766 1817.78 734.995 1818.13 735.207C1818.33 735.328 1818.48 735.541 1818.46 735.785C1818.38 737.317 1813.98 739.525 1812.89 740.451C1808.27 744.305 1804.1 748.655 1800.43 753.422C1787.33 770.429 1782.77 788.368 1785.47 809.534C1785.08 809.541 1784.69 809.559 1784.3 809.556C1783.84 809.552 1783.5 809.324 1783.23 808.97C1780.4 805.36 1781.51 792.177 1782.3 787.507C1785.98 765.776 1798.82 747.361 1816.62 734.756Z" fill="#121114"/>
<path d="M1954.27 834.482C1954.69 834.838 1955.17 835.148 1955.52 835.578C1956.03 836.21 1956.01 837.197 1955.85 837.952C1951.52 858.669 1932.34 881.527 1915.57 893.411C1915.3 893.153 1914.32 892.408 1914.15 891.821C1913.93 891.072 1928.35 878.609 1930.18 876.578C1941.74 863.763 1947.68 850.111 1954.27 834.482Z" fill="#121114"/>
<path d="M1736.65 874.711C1736.99 875 1738.62 876.103 1738.61 876.574C1738.58 878.579 1735.43 882.331 1734.32 884.051C1723.47 900.967 1711.4 916.055 1696.2 929.298C1695.73 928.935 1694.76 928.381 1694.55 927.74C1694.21 926.686 1697.73 923.904 1698.33 923.334C1706.96 915.071 1714.92 906.122 1722.11 896.576C1727.44 889.553 1732.08 882.237 1736.65 874.711Z" fill="#121114"/>
<path d="M1454.47 767.426C1454.61 767.487 1454.75 767.55 1454.89 767.608C1459.95 769.739 1464.15 783.449 1466.96 788.699C1476.14 805.859 1488.67 819.493 1499.27 835.457C1498.62 835.197 1497.97 834.949 1497.33 834.674C1485.81 829.747 1459.23 780.238 1454.47 767.426Z" fill="#121114"/>
<path d="M1625.2 958.618C1625.27 958.704 1625.33 958.792 1625.39 958.877C1625.67 959.226 1625.99 959.545 1626.2 959.932C1626.52 960.519 1626.46 961.338 1626.29 961.961C1622.05 978.311 1602.72 993.481 1588.53 1001.09C1588.32 1000.84 1587.68 1000.18 1587.6 999.808C1587.23 998.14 1600.49 990.827 1602.56 989.099C1617.88 976.272 1615.53 972.064 1625.2 958.618Z" fill="#121114"/>
<path d="M1640.58 968.415C1641.04 968.721 1642.01 969.169 1642.24 969.824C1642.5 970.593 1642.12 971.663 1641.8 972.36C1641.67 972.62 1641.54 972.872 1641.42 973.132C1634.82 987.738 1625.39 1000.88 1613.66 1011.8C1613.22 1011.77 1612.72 1011.8 1612.34 1011.54C1612.02 1011.33 1611.92 1010.92 1611.96 1010.56C1612.22 1008.43 1616.71 1005.29 1618.21 1003.6C1627.69 992.902 1634.68 981.406 1640.58 968.415Z" fill="#121114"/>
<path d="M1497.97 694.639C1498.74 695.035 1499.33 695.221 1499.77 695.965C1499.74 696.957 1498.83 697.558 1498.14 698.196C1491.15 704.665 1488.89 709.38 1487.02 718.726C1486.66 718.769 1486.31 718.823 1485.95 718.854C1485.58 718.883 1485.23 718.737 1484.99 718.46C1484.49 717.899 1484.48 717.218 1484.57 716.511C1484.63 716.123 1484.71 715.741 1484.78 715.354C1486.27 706.292 1491.56 700.664 1497.97 694.639Z" fill="#121114"/>
<path d="M1433.19 838.736C1433.53 838.848 1434.31 838.98 1434.55 839.396C1435.28 840.666 1429.03 845.085 1428.1 846.092C1424.09 850.449 1422.56 855.836 1421.31 861.46C1420.58 861.373 1419.9 861.39 1419.4 860.773C1419.03 860.306 1419 859.666 1419.06 859.098C1419.88 851.891 1425.12 844.498 1430.88 840.402C1431.65 839.851 1432.42 839.302 1433.19 838.736Z" fill="#121114"/>
<path d="M136.037 516.113C191.105 538.808 235.282 562.284 278.648 604.314C342.262 666.566 372.847 746.419 374.168 834.921C374.66 867.89 368.5 921.736 353.365 951.33C345.591 969.676 338.062 984.42 326.525 1000.53C324.479 1003.88 324.9 1004.23 321.312 1005.87C312.965 1009.69 304.037 1013.22 295.534 1016.69L246.005 1036.89L85.3796 1102.45C61.8385 1112.03 22.0254 1126.94 0 1137.67V1070.54V548.644C44.3331 537.03 91.2794 526.506 136.037 516.113Z" fill="#F8F9FD"/>
<path d="M0 1070.54C23.1966 1061.19 61.9938 1050.1 87.4016 1041.95C141.477 1024.82 195.39 1007.19 249.134 989.054C283.102 977.609 320.589 965.469 353.365 951.331C345.591 969.677 338.062 984.421 326.525 1000.53C324.479 1003.88 324.9 1004.23 321.312 1005.87C312.965 1009.69 304.037 1013.22 295.534 1016.69L246.005 1036.89L85.3796 1102.45C61.8385 1112.03 22.0254 1126.94 0 1137.67V1070.54Z" fill="#515357"/>
<path d="M217.266 496.672C238.519 491.382 259.877 486.987 281.094 481.307C300.207 492.552 318.958 507.453 335.851 521.757C336.51 522.624 336.427 522.462 337.449 523.106L350.161 534.922C351.94 537.015 365.575 551.061 367.33 552.099L374.517 560.39L375.747 558.414C383.636 565.811 391.917 577.065 398.478 585.731C434.112 632.798 456.52 683.353 470.377 740.499C503.641 699.914 551.277 678.567 602.902 673.431C667.366 667.034 731.753 686.312 782.095 727.084C803.36 744.612 814.924 758.481 830.261 780.98C828.511 782.726 828.668 782.851 826.306 783.381C816.055 784.193 793.396 804.521 786.827 812.435C785.039 814.588 784.752 815.199 782.163 816.551L780.139 817.326C777.098 813.718 772.979 803.387 767.82 796.836L657.007 832.33C630.612 840.806 603.582 849.328 577.838 859.386C565.975 864.02 494.946 897.443 487.472 897.292C490.668 909.522 494.467 921.586 498.856 933.441L497.301 933.839C492.228 925.459 486.748 908.217 485.487 898.277C481.213 902.26 416.518 927.304 413.319 926.106C432.283 861.706 432.407 793.222 413.676 728.753C383.01 621.604 312.568 549.581 217.266 496.672Z" fill="#F8F9FD"/>
<path d="M487.472 897.291C484.681 881.668 483.603 867.945 485.186 852.027C488.921 815.224 507.142 781.418 535.831 758.065C566.265 733.505 605.164 723.978 643.661 728.339C692.515 733.736 737.2 758.388 767.82 796.835L657.007 832.329C630.612 840.805 603.582 849.327 577.838 859.385C565.975 864.019 494.946 897.442 487.472 897.291Z" fill="#F8F9FD"/>
<path d="M375.747 558.414C383.636 565.811 391.917 577.065 398.478 585.731C434.112 632.798 456.52 683.353 470.377 740.499C503.641 699.914 551.277 678.567 602.902 673.431C667.366 667.034 731.753 686.312 782.095 727.084C803.36 744.612 814.924 758.481 830.261 780.98C828.511 782.726 828.668 782.851 826.306 783.381L825.908 781.047C825.542 774.68 808.887 756.335 804.375 751.047C803.273 750.376 803.408 750.381 802.629 749.191L794.376 741.016C793.058 740.248 792.822 739.919 791.934 738.741C786.062 733.446 779.975 728.395 773.688 723.601C722.486 685.12 658.215 668.296 594.726 676.757C545.334 683.574 499.94 705.477 469.48 745.795C451.441 676.362 425.849 617.285 377.03 563.252C376.186 562.304 375.348 561.35 374.517 560.39L375.747 558.414Z" fill="#1D1B1C"/>
<path d="M485.487 898.278C482.598 885.132 481.502 871.655 482.229 858.214C484.378 820.17 501.796 784.605 530.534 759.583C587.435 709.402 673.34 717.54 731.919 759.563C747.749 770.919 757.976 781.355 770.652 795.967C775.563 802.936 778.71 808.692 782.163 816.552L780.139 817.327C777.098 813.719 772.979 803.388 767.82 796.837C737.2 758.39 692.515 733.738 643.661 728.341C605.164 723.98 566.265 733.507 535.831 758.067C507.142 781.42 488.921 815.226 485.186 852.029C483.603 867.947 484.681 881.67 487.472 897.293C490.668 909.523 494.467 921.587 498.856 933.442L497.301 933.84C492.228 925.46 486.748 908.218 485.487 898.278Z" fill="#1D1B1C"/>
<path d="M770.652 795.966C788.963 790.601 807.386 785.627 825.908 781.047L826.306 783.381C816.055 784.193 793.396 804.521 786.827 812.435C785.039 814.588 784.752 815.199 782.163 816.551C778.71 808.691 775.563 802.935 770.652 795.966Z" fill="#515357"/>
<path d="M2178.65 324.771C2227.17 338.316 2275.5 352.492 2323.65 367.296C2349.97 375.279 2378.6 385.356 2406.44 391.312C2504 412.188 2604.43 429.855 2701.76 451.102C2715.04 454.001 2758.35 495.143 2770.16 506.668C2771.63 508.465 2773.39 510.874 2775.35 512.058L2783.54 521.099C2783.91 521.78 2783.91 521.743 2784.48 522.271C2821.32 566.92 2841.41 607.545 2853.31 664.024L2999.57 663.849L3001.44 664.857L3001.36 666.49C2936.11 681.838 2870.61 696.154 2804.9 709.432C2803.65 689.649 2802.3 673.451 2796.9 654.199C2770.24 559.164 2693.18 483.598 2601.57 449.786C2523.4 420.409 2436.71 423.624 2360.93 458.71C2289.27 492.004 2238.24 548.576 2211.13 622.43C2201.63 617.591 2175.19 606.007 2168.22 600.094C2187.58 534.712 2231.53 488.112 2286.12 449.564C2289.27 447.338 2292.93 444.954 2295.51 442.124C2284.99 445.76 2275.29 454.381 2266.46 461.264C2226.53 492.365 2201.38 521.414 2178.13 566.039C2180.04 487.547 2178.52 403.617 2178.65 324.771Z" fill="#F8F9FD"/>
<path d="M2871.98 807.082C2938.09 808.19 3005.65 807.091 3072 807.388V1105.42C3045.1 1095.77 3017.29 1083.91 2990.35 1073.8C2915.85 1045.84 2841.68 1015.47 2767.21 987.637L2768.26 986.973C2779.65 979.695 2791.29 968.692 2800.52 958.795C2840.94 915.427 2859.57 863.943 2871.98 807.082Z" fill="#515357"/>
<path d="M917.296 615.759C917.161 615.07 916.94 614.151 917.049 613.476C930.072 532.349 946.56 443.486 1015.15 390.118C1089.89 331.955 1180.15 325.637 1270.24 335.832C1249.89 373.047 1250.72 369.303 1215.7 394.581L1150.88 441.367C1149.57 467.228 1153.62 493.551 1181.37 503.978C1226.1 520.138 1281.52 509.764 1326.39 498.059C1338.81 494.817 1351.06 484.772 1362.38 480.638C1403 517.969 1418.85 567.575 1421.99 621.456C1307.59 556.425 1179.15 510.603 1047.45 546.65C1011.83 556.144 978.115 571.679 947.756 592.578C940.7 597.49 921.885 613.02 917.296 615.759Z" fill="#F8F9FD"/>
<path d="M2709.73 452.135L2938.34 497.99C2982.46 506.756 3027.86 516.735 3072 524.509V649.392V661.733C3024.05 661.099 2975.68 663.223 2927.63 662.385C2909.5 662.068 2888.26 663.122 2870.62 661.856L2855.38 661.434C2832.28 564.992 2788.89 510.657 2709.73 452.135Z" fill="#F8F9FD"/>
<path d="M2870.62 661.855C2880.3 660.597 2899.89 661.206 2910.34 661.268L2977.57 661.285C2989.44 661.333 3010.61 661.947 3021.71 660.927C3034.21 659.778 3059 652.721 3072 649.391V661.732C3024.05 661.098 2975.68 663.222 2927.63 662.384C2909.5 662.067 2888.26 663.121 2870.62 661.855Z" fill="#515357"/>
<path d="M344.659 466.523C356.389 475.57 367.821 484.997 378.936 494.79C379.643 495.716 379.428 495.499 380.453 496.126C430.101 543.116 463.59 586.383 491.659 649.546C580.668 613.554 661.579 614.896 751.492 651.132C759.083 654.191 773.073 660.969 779.703 665.424L782.049 663.767L783.468 664.872L781.813 666.356C809.704 683.767 828.356 698.607 850.609 723.184C850.986 723.811 850.991 723.787 851.541 724.271C864.973 740.678 873.893 753.093 884.042 771.823C867.939 770.576 843.914 772.495 830.261 780.979C814.924 758.48 803.36 744.611 782.095 727.083C731.753 686.311 667.366 667.033 602.902 673.43C551.277 678.566 503.641 699.913 470.377 740.498C456.52 683.352 434.112 632.797 398.478 585.73C391.917 577.064 383.636 565.81 375.747 558.413C357.892 533.514 310.653 497.855 285.019 480.719C303.088 475.667 326.059 470.916 344.659 466.523Z" fill="#F8F9FD"/>
<path d="M782.049 663.768L783.468 664.873L781.813 666.357L779.703 665.425L782.049 663.768Z" fill="#515357"/>
<path d="M139.792 515.149C160.355 510.3 193.923 503.393 213.404 497.309C306.517 546.478 377.666 620.391 409.293 722.342C431.413 793.647 429.604 857.491 410.318 928.839C404.05 946.657 398.506 962.358 388.654 978.614C371.397 985.877 354.033 993.33 336.534 1000C331.975 1001.74 331.193 1001.81 326.525 1000.53C338.062 984.421 345.591 969.677 353.365 951.331C368.5 921.737 374.66 867.891 374.168 834.922C372.847 746.42 342.262 666.567 278.648 604.315L280.349 602.669C237.884 560.92 193.694 537.853 139.792 515.149Z" fill="#F8F9FD"/>
<path d="M280.349 602.67C326.736 648.704 357.542 704.448 369.858 768.754C372.923 784.76 376.485 805.244 376.204 821.618C375.89 826.402 375.937 852.863 376.216 857.326C375.654 886.358 367.939 923.253 356.892 950.043C374.227 944.336 393.298 935.998 410.318 928.84C404.05 946.658 398.506 962.359 388.654 978.615C371.397 985.878 354.033 993.331 336.534 1000C331.975 1001.74 331.193 1001.81 326.525 1000.53C338.062 984.422 345.591 969.678 353.365 951.332C368.5 921.738 374.66 867.892 374.168 834.923C372.847 746.421 342.262 666.568 278.648 604.316L280.349 602.67Z" fill="url(#paint0_linear_1078_1049)"/>
<path d="M376.204 821.617C377.331 829.777 377.4 849.065 376.216 857.325C375.937 852.862 375.89 826.401 376.204 821.617Z" fill="#515357"/>
<path d="M2843.93 714.892L3072 714.695V759.651L2878.22 759.51C2877.83 762.514 2877.38 765.509 2876.87 768.494C2862.15 853.148 2838.5 934.533 2764.58 986.408C2752.63 981.124 2736.77 975.675 2724.27 970.789C2725.75 969.641 2727.23 968.479 2728.69 967.306C2807.75 903.699 2833.31 811.637 2843.93 714.892Z" fill="#515357"/>
<path d="M1158.46 849.03C1165.95 840.911 1172.54 833.523 1181.28 826.681C1211.33 803.169 1255.86 805.057 1283.94 830.819C1293.52 839.606 1299.41 853.3 1294.74 866.116C1285.68 891.515 1250.08 938.779 1232.16 960.673C1225.37 969.006 1216.57 977.289 1205.03 977.645C1170.47 978.711 1117.1 950.361 1113.73 912.348C1113.4 908.651 1114.44 898.933 1116.56 896.247C1129.5 879.903 1144.58 864.855 1158.46 849.03Z" fill="#515357"/>
<path d="M1223.93 823.947C1240.27 825.457 1260.83 840.11 1271.01 852.425C1276.54 859.112 1281.97 869.151 1280.6 878.141C1279.18 887.404 1253.46 910.159 1245.52 915.584C1243.38 917.04 1243.08 916.751 1240.63 916.305C1216.7 905.382 1197.6 891.198 1179.63 872.003C1193.6 858.671 1210.63 833.479 1223.93 823.947Z" fill="#121114"/>
<path d="M1224.78 827.234C1239.86 829.107 1257.97 842.138 1267.81 853.28C1273.54 859.769 1278.27 867.995 1277.43 876.951C1276.49 887.049 1254.41 904.262 1246.83 910.609C1244.64 912.441 1244.14 913.309 1241.29 913.067C1219.19 902.797 1200.6 890.208 1184.08 872.135C1197.74 859.688 1212.22 836.066 1224.78 827.234Z" fill="#515357"/>
<path d="M1126.98 919.885C1127.85 920.68 1128.48 921.307 1129.14 922.296C1137.3 934.537 1148.48 943.682 1161.02 951.189C1165.09 953.63 1193.34 965.55 1193.93 966.818C1193.99 966.959 1194.04 967.108 1194.1 967.251L1194.65 968.493C1193.58 968.301 1192.5 968.133 1191.44 967.9C1169.82 963.146 1138.91 944.447 1127.41 925.117C1126.21 923.104 1126.43 922.044 1126.98 919.885Z" fill="#121114"/>
<path d="M3009.22 664.122L3010.82 664.185C3031.21 663.958 3051.61 663.925 3072 664.089V665.182V712.014L2841.17 711.885C2840.88 718.427 2840.1 726.842 2839.24 733.336C2826.62 828.891 2798.19 908.905 2721.38 969.779C2706.98 964.171 2692.55 958.676 2678.07 953.294C2745.91 904.962 2804.29 792.47 2804.9 709.432C2870.61 696.154 2936.11 681.838 3001.36 666.49L3001.44 664.857L3002.92 663.688C3005.06 663.924 3007.08 664.009 3009.22 664.122Z" fill="#515357"/>
<path d="M3002.92 663.688C3005.06 663.924 3007.08 664.009 3009.22 664.122C3005.47 665.757 3005.36 665.806 3001.36 666.49L3001.44 664.857L3002.92 663.688Z" fill="#DFDFE5"/>
<path d="M2046.11 540.256C2082.08 559.165 2118.67 576.929 2154.32 596.499C2157.94 598.483 2161.51 600.21 2165.32 601.778C2164.03 607.708 2160.87 626.541 2162.98 631.446L2163.19 631.384C2165.15 624.353 2166.91 608.439 2168.22 600.094C2175.19 606.007 2201.63 617.592 2211.13 622.431C2209.81 625.158 2206.37 637.057 2205.47 640.451C2194.49 681.954 2194.23 723.596 2201.91 765.549C2189.72 760.426 2177.42 755.563 2165.03 750.963C2171.93 646.727 2104.22 604.213 2014.19 584.364C2027 570.548 2036.04 556.027 2046.11 540.256Z" fill="#515357"/>
<path d="M767.82 796.836C772.979 803.387 777.098 813.718 780.139 817.326C774.556 822.833 532.218 919.702 498.856 933.441C494.467 921.586 490.668 909.522 487.472 897.292C494.946 897.443 565.975 864.02 577.838 859.386C603.582 849.328 630.612 840.806 657.007 832.33L767.82 796.836Z" fill="#515357"/>
<path d="M2880.59 762.025L3072 762.339V804.776L2872.62 804.626C2875.28 794.685 2879.19 772.163 2880.59 762.025Z" fill="#515357"/>
<path d="M485.487 898.277C486.748 908.217 492.228 925.459 497.301 933.839C490.216 937.636 469.278 945.642 461.238 948.906C438.369 958.131 415.553 967.484 392.789 976.965C400.159 964.372 409.969 940.102 413.319 926.106C416.518 927.304 481.213 902.26 485.487 898.277Z" fill="#515357"/>
<path d="M1189.39 277.743C1195.77 276.012 1209.19 276.092 1215.59 277.794C1208.12 278.105 1196.81 278.101 1189.39 277.743Z" fill="#696A6D"/>
<path d="M350.161 534.922C353.266 536.964 365.906 549.267 367.33 552.099C365.575 551.061 351.94 537.015 350.161 534.922Z" fill="#696A6D"/>
<path d="M2770.16 506.668C2772.55 508.523 2773.92 509.368 2775.35 512.058C2773.39 510.874 2771.63 508.465 2770.16 506.668Z" fill="#696A6D"/>
<path d="M2302.11 660.961C2311.21 635.798 2320.47 618.531 2338.31 598.114C2373.37 558.753 2422.57 534.852 2475.18 531.621C2532.46 527.755 2587.15 550.496 2629.9 587.723L2630.59 588.051C2631.6 588.502 2631.81 589.003 2632.36 590.001L2641.55 599.093C2642.18 599.366 2642.16 599.58 2642.55 600.205C2672.53 634.856 2695.56 678.22 2696.05 725.051C2696.38 754.768 2693.67 778.022 2681.69 805.83C2665.87 842.065 2638.22 871.859 2603.27 890.343C2590.22 897.246 2576 902.562 2562.24 908.002C2553.45 903.901 2539.55 898.92 2530.26 895.27L2468.58 871.209C2449.25 863.769 2429.94 856.344 2410.57 848.662C2400.65 844.724 2381.17 845.24 2372.58 841.643C2347.93 831.327 2325.12 805.004 2312 781.968C2291.2 742.271 2290.22 702.408 2302.11 660.961Z" fill="#515357"/>
<path d="M2302.11 660.961C2311.21 635.798 2320.47 618.531 2338.31 598.114C2373.37 558.753 2422.57 534.852 2475.18 531.621C2532.46 527.755 2587.15 550.496 2629.9 587.723L2630.59 588.051C2631.6 588.502 2631.81 589.003 2632.36 590.001L2641.55 599.093C2642.18 599.366 2642.16 599.58 2642.55 600.205C2672.53 634.856 2695.56 678.22 2696.05 725.051C2588.57 733.444 2402.41 702.98 2302.11 660.961Z" fill="#F8F9FD"/>
<path d="M1704.56 430.269C1700.66 398.065 1709.79 368.136 1729.86 342.684C1754.21 312.116 1789.71 292.473 1828.55 288.075C1866.67 283.999 1904.86 295.072 1934.89 318.905C1962.26 340.917 1980.65 371.98 1984.21 407.15C1987.33 436.869 1978.28 466.586 1959.11 489.51C1942.9 509.172 1906.69 533.478 1880.78 534.992C1811.24 551.294 1723.68 510.014 1705.95 437.645L1704.52 432.307L1704.56 430.269Z" fill="#F8F9FD"/>
<path d="M1705.95 437.645L1706.79 438.271C1718.03 446.72 1729.67 458.712 1741.06 467.738C1781.81 500.65 1829.63 523.67 1880.78 534.993C1811.24 551.295 1723.68 510.014 1705.95 437.645Z" fill="#515357"/>
<path d="M2213.06 622.908C2228.44 584.512 2241.5 559.455 2269.9 528.195C2324.03 469.744 2399.2 435.244 2478.81 432.314C2568.07 428.184 2648.74 463.162 2713.86 522.679C2716.47 523.958 2718.96 526.589 2720.45 529.028C2722.7 530.848 2724.02 531.473 2725.31 534.112C2769.57 583.394 2802.15 642.155 2802.19 710.026C2785.03 713.829 2766.62 716.566 2749.2 719.452L2748.73 714.925C2747.01 712.633 2747.37 711.955 2748.23 709.266C2748.19 684.749 2737.51 647.048 2726.9 625.043C2697.36 563.81 2642.81 517.457 2579.1 494.945C2514.36 471.381 2442.87 474.826 2380.7 504.506C2322.34 532.188 2277.46 582.04 2256.03 642.978C2242.34 636.906 2226.14 629.967 2213.06 622.908Z" fill="#F8F9FD"/>
<path d="M2748.23 709.266C2749.26 711.353 2748.94 712.542 2748.73 714.925C2747.01 712.633 2747.37 711.955 2748.23 709.266Z" fill="#515357"/>
<path d="M2713.86 522.678C2716.47 523.957 2718.96 526.588 2720.45 529.027C2718.65 528.047 2715.07 524.431 2713.86 522.678Z" fill="#696A6D"/>
<path d="M2720.45 529.027C2722.7 530.847 2724.02 531.472 2725.31 534.111C2723.42 532.99 2721.86 530.766 2720.45 529.027Z" fill="#696A6D"/>
<path d="M1772.7 631.538C1825.39 638.049 1875.15 644.076 1927.77 632.668C1935.31 631.032 1943.99 627.784 1951.67 626.469C2000.15 628.148 2072.69 647.398 2104.86 685.899C2117.18 700.654 2119.13 717.861 2119.08 735.032C2077.13 769.914 2040.38 793.989 1982.87 789.686C1956.52 787.715 1948.55 777.75 1929.29 761.965L1869.3 712.593C1864.22 708.416 1846.55 693.3 1842.04 690.44C1840.97 690.512 1839.71 689.509 1838.56 688.865L1838.35 687.584C1820.37 669.605 1792.39 650.437 1772.7 631.538Z" fill="#515357"/>
<path d="M1838.35 687.583C1838.57 687.6 1838.79 687.615 1839.02 687.632C1904.41 681.182 1972.15 665.374 2035.74 690.825C2049.67 696.399 2067.2 705.137 2073.72 719.788C2075.32 723.377 2077.1 731.358 2075.58 735.153L2075.36 734.731L2076.14 732.632L2075.56 735.192C2072.21 723.67 2070.41 713.891 2059.49 706.575C2000 666.734 1923.33 679.999 1856.72 688.148C1851.88 688.741 1846.73 689.463 1842.04 690.439C1840.97 690.511 1839.71 689.508 1838.56 688.864L1838.35 687.583Z" fill="#121114"/>
<path d="M2258.13 643.271C2267.9 615.839 2282.59 590.416 2301.48 568.247C2344.16 518.53 2404.78 487.722 2470.1 482.553C2542.36 476.523 2610.02 501.413 2664.95 547.74C2665.98 548.219 2665.99 548.127 2666.47 549.094C2716.14 596.263 2738.31 638.211 2746.06 706.592L2746.43 717.004L2745.21 719.582C2737 722.157 2708.47 724.067 2698.34 724.909C2693.43 639.493 2635.89 569.323 2556.02 541.107C2504.56 522.51 2447.75 525.589 2398.6 549.64C2351.96 571.751 2316.29 611.844 2299.75 660.742C2289.14 656.515 2267.46 648.537 2258.13 643.271Z" fill="#F8F9FD"/>
<path d="M1507.07 204.387C1544.79 184.67 1557.38 160.485 1610.82 164.436C1547.51 214.998 1515.68 287.554 1493.2 363.565C1490.01 371.991 1488.27 386.127 1487.14 395.105C1469.49 395.335 1454.65 395.244 1437.01 393.444C1435.27 389.191 1433.32 384.988 1431.62 380.752C1428.31 373.298 1422.61 363.155 1418.68 355.75C1404.91 391.139 1395.22 439.281 1358.12 459.139C1383.95 404.347 1386.95 314.665 1345.93 266.688C1371.97 258.934 1413.51 242.196 1440.2 232.354C1433.85 242.364 1418.98 280.46 1424.43 290.714C1426.94 288.198 1428.17 269.668 1429.23 264.687C1432.09 251.305 1437 241.82 1444.49 230.707C1467.9 222.2 1480.87 217.883 1502.89 206.599C1483.32 238.995 1467.44 286.407 1457.7 323.06C1456.15 328.893 1452.23 342.535 1452.34 348.128L1453.43 348.129C1455.84 343.044 1461.35 317.577 1463.66 309.823C1474.06 274.845 1487.81 235.507 1507.07 204.387Z" fill="#F8F9FD"/>
<path d="M1431.62 380.751C1446.3 377.549 1478.69 368.257 1493.2 363.564C1490.01 371.99 1488.27 386.126 1487.14 395.104C1469.49 395.334 1454.65 395.243 1437.01 393.443C1435.27 389.19 1433.32 384.987 1431.62 380.751Z" fill="#515357"/>
<path d="M1897.07 294.512C1895.82 294.106 1893.14 293.488 1892.36 292.506C1892.91 290.792 1916.25 292.338 1919.52 292.884L1935.01 293.158C1982.23 322.39 2024.51 327.592 2078.49 317.468L2078.28 554.139C2068.2 548.928 2058.08 543.773 2047.93 538.676C2054.09 526.371 2058.93 520.414 2064.53 506.454C2048.78 519.853 2013.17 546.139 1992.31 547.103C2023.19 515.704 2033.8 490.542 2040.09 447.839C2046 407.739 2044.09 378.788 2014.03 347.997C2012.27 346.198 2012.12 345.656 2009.81 345.658C2011 349.638 2017.69 354.954 2020.89 359.259C2024.9 364.622 2028.42 370.334 2031.41 376.326C2055.74 425.392 2029.89 513.41 1987.71 547.962C1964.92 546.535 1913.01 541.416 1890.88 535.373C1896.66 533.908 1903.76 531.281 1909.26 528.841C2023.6 478.083 2005.63 338.3 1897.07 294.512Z" fill="#F8F9FD"/>
<path d="M1897.07 294.512C1895.82 294.106 1893.14 293.488 1892.36 292.506C1892.91 290.792 1916.25 292.338 1919.52 292.884C1911.2 293.746 1902.12 291.534 1897.07 294.512Z" fill="#DFDFE5"/>
<path d="M1343.66 268.279C1357.36 278.266 1365.25 302.922 1369.04 318.739C1379.08 360.563 1376.95 423.635 1354.05 461.074C1341.75 467.401 1328.69 472.781 1315.6 477.221C1275.46 490.838 1223.07 498.228 1183.86 478.47C1168.57 470.763 1160.22 460.213 1154.88 444.151C1172.86 448.15 1190.91 451.818 1209.02 455.152L1223.55 444.226C1245.9 427.425 1267.89 410.087 1290.03 393.01C1278.32 385.324 1266.85 377.227 1255.29 369.319C1265.14 353.827 1273.63 337.539 1282.07 321.247C1289.02 323.566 1296.12 325.824 1302.85 328.75C1310.01 331.867 1317.01 335.95 1324.53 338.094L1324.46 337.249C1312.06 327.801 1298.18 323.516 1283.57 318.748L1288.22 310.79C1298.3 312.796 1308.21 315.158 1317.78 318.989C1321.46 320.458 1332.55 327.969 1335.5 327.465L1335.37 326.258C1325.05 315.312 1304.08 311.101 1289.77 307.803C1301.51 287.027 1322.71 277.378 1343.66 268.279Z" fill="#F8F9FD"/>
<path d="M941.756 311.364C942.865 311.095 944.065 311.171 945.204 311.139C944.289 314.703 935.006 319.952 931.965 322.314C918.87 332.486 906.427 344.269 895.429 356.687C878.606 375.734 864.428 396.964 853.281 419.802C848.33 430.231 844.08 440.979 840.56 451.973C835.871 466.902 834.501 490.369 821.972 500.799C816.114 505.651 808.549 507.94 800.984 507.151C777.531 504.816 771.443 477.178 758.411 461.848C748.223 449.863 733.668 443.144 718.817 438.795C693.8 431.471 666.214 430.805 640.349 428.805L535.984 421.101C540.766 419.324 545.844 418.104 550.755 416.706C606.804 401.077 662.009 382.766 717.732 366.055C741.533 358.917 765.492 350.894 789.75 345.525C773.198 362 760.62 379.973 748.797 400.028C765.862 403.666 782.731 409.455 799.014 415.656C817.84 383.499 839.481 352.103 865.231 325.057C890.628 319.892 916.144 315.326 941.756 311.364Z" fill="#F8F9FD"/>
<path d="M1987.71 547.962C1986.85 548.731 1985.98 549.476 1985.08 550.196C1939.82 586.389 1880.45 592.134 1824.61 585.823C1775.43 580.265 1709.31 562.252 1677.15 521.558C1645.66 481.724 1647.59 435.776 1653.44 388.812C1660.88 396.677 1692.44 427.058 1700.78 431.637L1702.29 430.916L1704.56 430.27L1704.52 432.307L1703.16 432.971C1701.26 442.846 1712.86 465.85 1718.59 474.21C1742.29 508.812 1778.8 530.451 1819.49 538.464C1837.95 542.099 1873.3 542.169 1890.88 535.373C1913.01 541.416 1964.92 546.535 1987.71 547.962Z" fill="#515357"/>
<path d="M1992.31 547.102C2013.17 546.138 2048.78 519.852 2064.53 506.453C2058.93 520.413 2054.09 526.37 2047.93 538.675L2045.72 537.605C2041.53 539.99 2036.83 550.083 2034 554.478C2026.83 565.504 2018.64 575.831 2009.53 585.322C1994.49 600.699 1972.39 615.304 1952.25 622.751C1900.89 641.733 1820.69 638.603 1767.69 627.15C1747.01 607.731 1722.82 588.68 1703.99 568.242C1697.83 561.556 1685.81 539.775 1680.83 530.982C1734.88 578.524 1808.8 592.619 1879.54 590.161C1914.63 588.942 1968.26 573.658 1992.31 547.102Z" fill="#515357"/>
<path d="M1653.44 388.812C1663.48 338.144 1685.37 298.69 1729.3 269.341C1755.67 251.721 1790.72 240.235 1822.51 242.648C1850.63 250.715 1907.17 276.236 1931.38 291.082C1909.81 289.61 1888.35 289.861 1866.95 286.821C1860.35 285.883 1853.43 285.138 1846.77 285.002C1809.79 284.617 1773.96 297.834 1746.09 322.142C1714.59 349.779 1696.79 388.875 1702.29 430.916L1700.78 431.637C1692.44 427.058 1660.88 396.677 1653.44 388.812Z" fill="#F8F9FD"/>
<path d="M1613.79 165.348C1632.31 169.965 1646.2 174.8 1664.19 181.37C1605.85 222.179 1576.97 270.289 1562.36 339.554C1559.7 353.839 1558.21 366.493 1557.97 381.061C1533.37 388.433 1514.61 391.259 1489.56 395.081C1491.16 382.89 1494.13 372.68 1496.34 360.956C1516.29 291.213 1553.76 209.556 1613.79 165.348Z" fill="#F8F9FD"/>
<path d="M1496.34 360.957C1501.52 362.357 1554.4 343.101 1562.36 339.555C1559.7 353.84 1558.21 366.494 1557.97 381.062C1533.37 388.434 1514.61 391.26 1489.56 395.082C1491.16 382.891 1494.13 372.681 1496.34 360.957Z" fill="#515357"/>
<path d="M2097.62 315.417C2107.99 314.487 2118.61 314.928 2128.99 315.56L2128.96 580.498L2120.36 576.031C2106.95 569.495 2093.77 562.412 2080.53 555.518L2080.9 317.274C2086.46 316.587 2092.04 315.968 2097.62 315.417Z" fill="#F8F9FD"/>
<path d="M2749.2 719.451C2766.62 716.565 2785.03 713.828 2802.19 710.025C2802.05 737.156 2796.21 758.481 2788.4 784.153C2767.41 853.207 2731.29 906.394 2675.92 952.146C2659.71 945.89 2642.83 939.632 2626.86 932.926C2701.86 886.403 2749.13 808.648 2749.2 719.451Z" fill="#515357"/>
<path d="M2131.25 315.855C2146.43 317.715 2161.28 320.674 2176.19 324.033L2176.21 483.04C2176.25 510.358 2178.42 542.331 2175.08 569.096C2174.14 576.655 2170.67 583.982 2168.43 591.263C2167.66 593.96 2167.15 597.432 2165.06 599.408C2153.42 594.684 2142.23 587.8 2131.16 581.825L2131.25 315.855Z" fill="#F8F9FD"/>
<path d="M1623.2 303.679C1634.92 269.477 1667.43 237.077 1699.7 221.426C1711.05 215.993 1722.93 211.759 1735.16 208.793C1760.39 218.314 1791.52 229.164 1815.88 239.634C1770.49 240.935 1727.54 260.482 1696.75 293.854C1671.26 321.063 1658.82 350.125 1651.64 386.237C1649.01 383.506 1646.55 380.612 1644.27 377.573C1626.03 353.601 1619.21 333.509 1623.2 303.679Z" fill="#F8F9FD"/>
<path d="M2746.06 706.592C2747.59 711.176 2747.66 711.752 2747.07 716.544C2744.26 789.394 2721.2 847.66 2667.59 899.509C2656.73 910.016 2637.06 924.403 2623.84 931.643C2604.46 924.374 2585.17 916.881 2565.96 909.163C2593.34 898.747 2612.71 890.823 2635.16 872.063C2675.9 838.02 2698.46 788.816 2698.93 735.898C2698.96 733.28 2698.99 727.167 2698.34 724.909C2708.47 724.067 2737 722.157 2745.21 719.582L2746.43 717.004L2746.06 706.592Z" fill="#515357"/>
<path d="M2011.87 586.932C2056.89 596.5 2097.19 608.867 2129.36 644.017C2156.95 674.168 2164.12 710.26 2162.5 749.895C2149.56 745.055 2136.59 740.34 2123.28 736.594C2120.46 732.821 2120.77 712.621 2118.56 705.706C2115.81 697.101 2110.17 688.174 2104.35 681.317C2073.3 644.75 2003.34 627.385 1957.54 623.428C1978.18 613.536 1995.35 603.104 2011.87 586.932Z" fill="#515357"/>
<path d="M1666.36 182.678C1688.07 190.541 1709.68 198.701 1731.17 207.155C1672.37 224.677 1638.51 257.205 1616.24 313.78C1610.94 326.198 1607.07 343.771 1604.41 357.07C1588.03 368.894 1579.05 372.324 1560.66 380.25C1560.97 372.624 1562.82 342.16 1565.4 336.166C1580.44 268.215 1609.63 222.626 1666.36 182.678Z" fill="#F8F9FD"/>
<path d="M1616.24 313.779C1610.94 326.197 1607.07 343.77 1604.41 357.069C1588.03 368.893 1579.05 372.323 1560.66 380.249C1560.97 372.623 1562.82 342.159 1565.4 336.165C1568.95 340.496 1610.13 317.506 1616.24 313.779Z" fill="#515357"/>
<path d="M2258.13 643.271C2267.46 648.537 2289.14 656.515 2299.75 660.742C2292.34 679.161 2290.26 708.93 2292.8 728.81C2299.39 780.278 2322.04 808.354 2360.38 839.175C2330.67 829.278 2291.65 814.163 2264.46 798.38C2263.12 796.086 2261.85 793.753 2260.65 791.383C2236.97 745.125 2242.63 691.014 2258.13 643.271Z" fill="#515357"/>
<path d="M1196.05 222.275C1217.14 216.968 1238.42 214.191 1259.42 210.308C1341.16 195.185 1390.53 198.561 1470.36 216.962C1441.49 228.214 1412.41 238.897 1383.13 249.006C1321.61 234.374 1284.05 227.61 1219.74 224.693C1212.96 225.389 1192.73 225.023 1185.36 224.868C1190.07 223.559 1190.86 222.986 1196.05 222.275Z" fill="#F8F9FD"/>
<path d="M1185.36 224.866C1190.07 223.557 1190.86 222.984 1196.05 222.273C1202 225.908 1215.83 221.669 1219.74 224.691C1212.96 225.387 1192.73 225.021 1185.36 224.866Z" fill="#DFDFE5"/>
<path d="M2204.93 767.28C2194.84 709.445 2197.79 678.835 2213.06 622.906C2226.14 629.965 2242.34 636.904 2256.03 642.976C2255.29 644.504 2254.01 648.262 2253.44 650.099C2237.83 699.934 2236.59 748.556 2259.79 795.665C2242.04 785.368 2223.35 776.333 2204.93 767.28Z" fill="#515357"/>
<path d="M1606.6 474.491C1595.32 420.543 1600.63 353.704 1623.2 303.678C1619.21 333.508 1626.03 353.6 1644.27 377.572C1646.55 380.611 1649.01 383.505 1651.64 386.236C1650.14 389.233 1649.09 404.281 1648.57 408.062C1643.55 444.516 1649.41 473.809 1664.02 507.179C1645.07 495.795 1626.33 484.518 1606.6 474.491Z" fill="#515357"/>
<path d="M1251.72 372.738C1257.38 373.006 1277.53 389.05 1283.41 393.198C1258.46 413.045 1233.19 432.485 1207.61 451.511L1192.26 448.206L1157.56 441.207C1189.34 418.988 1220.43 395.653 1251.72 372.738Z" fill="#F8F9FD"/>
<path d="M859.056 326.322L859.488 327.524C836.276 353.825 815.719 382.354 798.116 412.697C787.796 408.743 777.333 405.543 766.744 402.398L752.535 398.255C753.301 396.829 754.11 395.426 754.959 394.048C788.951 337.845 798.726 341.198 859.056 326.322Z" fill="#F8F9FD"/>
<path d="M1007.41 832.098C1022.75 835.192 1038.78 840.383 1052.64 847.71C1074.68 859.365 1088.49 874.286 1095.88 898.017C1084.02 903.544 1071.59 907.768 1058.81 910.615C1053.15 911.055 1047.71 911.145 1042.12 909.947C1029.71 907.286 1021.97 900.054 1015.28 889.669C1021.26 888.449 1027.2 886.907 1032.78 884.402C1038.62 881.781 1048.43 876.94 1050.48 870.343C1051.31 867.692 1050.64 865.109 1049.24 862.78C1041.45 849.752 1021.26 844.717 1007.67 840.731C1006.55 838.484 1007.28 834.584 1007.41 832.098Z" fill="#515357"/>
<path d="M1007.09 844.602C1019.51 847.661 1034.85 850.742 1043.51 860.97C1045.52 863.338 1046.31 865.437 1045.94 868.518C1045.55 871.736 1043.09 874.336 1040.63 876.221L1037.83 878.336C1030.6 882.633 1021.9 884.822 1013.66 886.178C1012.37 882.189 1011.01 878.132 1010.26 873.995C1009.91 872.019 1009.42 869.983 1009.17 867.998C1008.19 860.179 1007.25 852.495 1007.09 844.602Z" fill="#515357"/>
<path d="M0 0H3072V521.162L2609.56 428.501C2540.55 414.645 2471.16 401.107 2402.28 386.675C2385.05 383.067 2357.55 373.888 2340.09 368.565C2303.98 357.522 2267.8 346.705 2231.55 336.115C2192.45 324.671 2144.56 308.412 2103.44 311.5C2063.34 314.511 2027.1 324.721 1986.89 312.521C1952.88 304.191 1926.4 281.233 1894.48 267.381C1840.5 243.959 1785.2 223.64 1730.16 202.786C1692.79 188.629 1654.84 172.137 1616.2 162.261C1586.75 154.733 1557.05 167.132 1532.88 183.277C1511.86 197.893 1500.24 204.974 1476.09 215.058C1380.52 188.952 1320.67 194.738 1225.3 212.392C1170.04 222.856 1115.21 236.53 1063.55 259.112C1033.49 272.091 1006.99 292.117 975.064 300.713C946.001 308.536 915.62 311.133 886.216 317.193C768.734 341.402 655.596 384.812 539.948 415.836C475.643 433.086 410.204 447.806 345.402 462.686L197.912 497.491L66.534 528.712C48.3264 533.081 17.5976 541.576 0 544.576V0Z" fill="#F8F9FD"/>
</g>
<defs>
<linearGradient id="paint0_linear_1078_1049" x1="200.387" y1="742.83" x2="442.025" y2="879.658" gradientUnits="userSpaceOnUse">
<stop stop-color="#0D0D11"/>
<stop offset="1" stop-color="#505155"/>
</linearGradient>
<clipPath id="clip0_1078_1049">
<rect width="3072" height="1536" fill="white"/>
</clipPath>
</defs>
</svg>
