<svg width="110" height="46" viewBox="0 0 110 46" fill="none" xmlns="http://www.w3.org/2000/svg">
<path d="M60.4632 17.0025H57.6159V7.92954H53.7637V5.34375H64.3155V7.92954H60.4632V17.0025Z" fill="#30499F"/>
<path d="M69.5075 13.6554H68.3127V17.001H65.4766V5.3423C66.6601 5.29694 68.5137 5.24023 70.0881 5.24023C73.0582 5.24023 74.9118 6.68056 74.9118 9.39111C74.9118 10.9562 74.1748 12.2037 72.9242 12.9182L75.671 17.001H72.2989L70.1886 13.6554H69.5075ZM70.1327 11.217C71.294 11.217 72.0756 10.4799 72.0756 9.41379C72.0756 8.24565 71.294 7.71261 70.0211 7.71261C69.4963 7.71261 68.8933 7.73529 68.3127 7.73529V11.217H70.1327Z" fill="#30499F"/>
<path d="M87.2832 11.7402C87.2832 15.1992 85.2063 17.2633 81.9012 17.2633C78.6073 17.2633 76.5527 15.2106 76.5527 11.7402V5.34375H79.4224V11.7402C79.4224 13.5207 80.3826 14.5528 81.9012 14.5528C83.4198 14.5528 84.4135 13.5207 84.4135 11.7402V5.34375H87.2832V11.7402Z" fill="#30499F"/>
<path d="M97.7802 8.46119C96.1723 7.96218 94.743 7.68999 93.7604 7.68999C92.7667 7.68999 92.1525 7.99621 92.1525 8.72204C92.1525 9.50458 93.0793 9.65202 94.6984 9.99225C97.0656 10.5026 98.6288 11.2625 98.6288 13.508C98.6288 15.9917 96.7194 17.262 93.8386 17.262C92.3647 17.262 90.5112 16.9331 88.7246 16.2526L89.3611 13.7008C91.2034 14.404 92.6997 14.6762 93.7158 14.6988C94.9329 14.7215 95.5693 14.37 95.5693 13.7008C95.5693 12.7595 94.2741 12.6007 92.8225 12.2945C90.2543 11.7501 89.0596 10.9109 89.0596 8.86948C89.0596 6.56722 90.8685 5.18359 93.7381 5.18359C95.3237 5.18359 97.1772 5.54651 98.3831 5.97748L97.7802 8.46119Z" fill="#30499F"/>
<path d="M105.998 17.0025H103.14V7.92954H99.2988V5.34375H109.839V7.92954H105.998V17.0025Z" fill="#30499F"/>
<path d="M65.7227 26.6195C65.7227 30.2714 63.255 32.7097 59.6819 32.7097C56.1088 32.7097 53.6523 30.2714 53.6523 26.6195C53.6523 22.9677 56.0977 20.5293 59.6819 20.5293C63.255 20.5293 65.7227 22.9677 65.7227 26.6195ZM64.4721 26.6195C64.4721 23.6595 62.5181 21.6861 59.6819 21.6861C56.8681 21.6861 54.9029 23.6595 54.9029 26.6195C54.9029 29.5796 56.857 31.5756 59.6819 31.5756C62.5181 31.5756 64.4721 29.5796 64.4721 26.6195Z" fill="#30499F"/>
<path d="M70.6356 32.449L66.9844 24.5215H68.2685L71.2609 31.0767L74.2311 24.5215H75.4928L71.8639 32.449H70.6356Z" fill="#30499F"/>
<path d="M83.8446 28.0259C83.8446 28.4228 83.8223 28.5589 83.7776 28.9332H77.279C77.4689 30.5663 78.5743 31.6437 80.305 31.6437C81.2988 31.6437 82.1139 31.4736 83.1746 31.2014L83.3645 32.1654C82.3484 32.4716 81.4774 32.7098 80.2715 32.7098C77.6028 32.7098 76.0508 30.9405 76.0508 28.4795C76.0508 25.9391 77.7368 24.2833 80.104 24.2833C82.2925 24.2719 83.8334 25.7123 83.8446 28.0259ZM77.2455 28.0032H82.7838C82.7615 26.268 81.7007 25.2246 80.1375 25.2246C78.4626 25.2246 77.3795 26.3247 77.2455 28.0032Z" fill="#30499F"/>
<path d="M90.177 25.4853C89.0492 25.4853 88.1336 25.5193 86.9835 25.6554V32.4488H85.8223V24.7481C87.2403 24.4873 88.7031 24.3398 90.177 24.3398V25.4853Z" fill="#30499F"/>
<path d="M98.3043 20.7891H95.457V32.4478H98.3043V20.7891Z" fill="#30499F"/>
<path d="M109.95 24.9526C109.95 27.6064 107.996 29.2849 104.959 29.2849H103.373V32.4378H100.537V20.7904C101.888 20.7223 103.384 20.6543 104.959 20.6543C107.996 20.6543 109.95 22.2307 109.95 24.9526ZM105.126 26.7672C106.288 26.7672 107.114 26.0981 107.114 24.9639C107.114 23.7958 106.288 23.1607 105.126 23.1607C104.535 23.1607 103.943 23.1834 103.373 23.1947V26.7672H105.126Z" fill="#30499F"/>
<path d="M57.5155 38.64V39.9556H55.1036V41.929H53.6855V36.0996H57.8951V37.3812H55.1036V38.64H57.5155Z" fill="#30499F"/>
<path d="M64.5269 39.016C64.5269 40.8419 63.2651 42.0554 61.4451 42.0554C59.625 42.0554 58.3633 40.8419 58.3633 39.016C58.3633 37.1901 59.625 35.9766 61.4451 35.9766C63.254 35.9766 64.5269 37.1901 64.5269 39.016ZM63.053 39.016C63.053 37.9839 62.383 37.3148 61.4451 37.3148C60.5071 37.3148 59.8372 37.9953 59.8372 39.016C59.8372 40.048 60.5071 40.7285 61.4451 40.7285C62.383 40.7285 63.053 40.048 63.053 39.016Z" fill="#30499F"/>
<path d="M70.6814 39.2978C70.6814 41.033 69.6429 42.0537 67.9904 42.0537C66.349 42.0537 65.3105 41.0217 65.3105 39.2978V36.0996H66.7398V39.2978C66.7398 40.1938 67.2199 40.7041 67.9792 40.7041C68.7385 40.7041 69.2409 40.1938 69.2409 39.2978V36.0996H70.6814V39.2978Z" fill="#30499F"/>
<path d="M77.0441 41.929H75.7488L73.0802 38.5493V41.929H71.6621V36.0996H72.9685L75.626 39.5133V36.0996H77.0441V41.929Z" fill="#30499F"/>
<path d="M83.431 39.0046C83.431 40.8419 82.1693 41.9987 80.4497 41.9987C79.6011 41.9987 78.7972 41.9646 78.1719 41.9306V36.1012C78.7972 36.0672 79.5118 36.0332 80.3046 36.0332C82.1693 36.0332 83.431 37.1787 83.431 39.0046ZM81.9683 39.0046C81.9683 37.9839 81.3095 37.3374 80.3716 37.3374C80.1259 37.3374 79.8579 37.3374 79.5899 37.3601V40.7058C79.8803 40.7284 80.1929 40.7285 80.4832 40.7285C81.3095 40.7058 81.9683 40.0366 81.9683 39.0046Z" fill="#30499F"/>
<path d="M85.0403 41.9298H83.4883L86.0453 36.0664H87.374L89.9198 41.9298H88.379L87.977 40.9658H85.4311L85.0403 41.9298ZM85.9225 39.7409H87.4968L86.7041 37.7903L85.9225 39.7409Z" fill="#30499F"/>
<path d="M92.7228 41.929H91.2936V37.3925H89.373V36.0996H94.6434V37.3925H92.7228V41.929Z" fill="#30499F"/>
<path d="M96.6402 36.0996H95.2109V41.929H96.6402V36.0996Z" fill="#30499F"/>
<path d="M103.666 39.016C103.666 40.8419 102.404 42.0554 100.584 42.0554C98.7637 42.0554 97.502 40.8419 97.502 39.016C97.502 37.1901 98.7637 35.9766 100.584 35.9766C102.404 35.9766 103.666 37.1901 103.666 39.016ZM102.203 39.016C102.203 37.9839 101.533 37.3148 100.595 37.3148C99.657 37.3148 98.987 37.9953 98.987 39.016C98.987 40.048 99.657 40.7285 100.595 40.7285C101.522 40.7285 102.203 40.048 102.203 39.016Z" fill="#30499F"/>
<path d="M109.929 41.929H108.622L105.965 38.5493V41.929H104.547V36.0996H105.853L108.511 39.5133V36.0996H109.929V41.929Z" fill="#30499F"/>
<path d="M30.3724 1.16956C31.891 0.28495 33.2644 0.205562 34.247 0.817986L45.2566 7.32782C45.2789 7.33916 45.2901 7.35051 45.3124 7.36185C44.3298 6.77211 42.9564 6.84015 41.449 7.72476L21.6853 19.2701L2.29013 7.80415C-0.758168 6.01225 -0.758168 3.12025 2.29013 1.33968C5.33842 -0.452226 10.2738 -0.440885 13.3221 1.33968L21.7635 6.22773L30.3724 1.16956Z" fill="#A9DDE0"/>
<path d="M11.11 6.51222C9.27882 7.57829 6.31985 7.57829 4.48864 6.51222C2.65743 5.43481 2.65743 3.69961 4.48864 2.63354C6.31985 1.56747 9.27882 1.56747 11.11 2.63354C12.9412 3.71095 12.9412 5.44615 11.11 6.51222Z" fill="#2589CA"/>
<path d="M32.9627 35.3976C32.9627 37.1896 32.3486 38.4598 31.366 39.0495L20.1108 45.6161C20.1108 45.6161 20.0996 45.616 20.0996 45.6274C21.0822 45.0263 21.6963 43.7674 21.6963 41.9755V19.2705L41.46 7.72516C44.4748 5.95594 46.9201 7.43029 46.9201 11.0141C46.9201 14.5979 44.4748 18.9416 41.46 20.7108L32.9627 25.6896V35.3976Z" fill="#3653A4"/>
<path d="M38.1758 16.1391C38.1758 18.2939 39.6385 19.1786 41.4474 18.1125C43.2563 17.0464 44.719 14.4493 44.719 12.2945C44.719 10.1396 43.2563 9.25502 41.4474 10.3211C39.6497 11.3758 38.1758 13.9843 38.1758 16.1391Z" fill="#A9DDE0"/>
<path d="M10.7751 35.5564C10.7751 39.1402 13.2204 43.4839 16.2352 45.2531C19.25 47.0223 21.6954 45.548 21.6954 41.9641V19.2704L2.28901 7.8045C0.759283 6.91989 0 5.74041 0 4.57227V17.694C0 18.8622 0.759283 20.0303 2.28901 20.9262L10.7751 25.8937V35.5564Z" fill="#2589CA"/>
<path d="M19.5061 40.6821C19.5061 42.8369 18.0434 43.7215 16.2345 42.6554C14.4256 41.5894 12.9629 38.9922 12.9629 36.8374C12.9629 34.6826 14.4256 33.798 16.2345 34.8641C18.0434 35.9188 19.5061 38.5273 19.5061 40.6821Z" fill="#3653A4"/>
</svg>
