<svg width="171" height="42" viewBox="0 0 171 42" fill="none" xmlns="http://www.w3.org/2000/svg">
<path d="M0 6.39676V0.0358362H2.7223C3.02777 0.0358362 3.30629 0.0985496 3.55786 0.223976C3.81541 0.349403 4.03403 0.513652 4.21372 0.716724C4.3994 0.919795 4.54315 1.14974 4.64498 1.40657C4.75279 1.6634 4.8067 1.92321 4.8067 2.18601C4.8067 2.46672 4.75579 2.7355 4.65396 2.99232C4.55813 3.24915 4.42037 3.4791 4.24068 3.68217C4.06698 3.88524 3.85434 4.0465 3.60278 4.16596C3.35121 4.28541 3.07269 4.34514 2.76722 4.34514H1.47346V6.39676H0ZM1.47346 3.06399H2.67738C2.85108 3.06399 3.00082 2.98933 3.1266 2.84002C3.25238 2.6907 3.31527 2.4727 3.31527 2.18601C3.31527 2.03669 3.29431 1.90828 3.25238 1.80077C3.21645 1.69326 3.16553 1.60367 3.09965 1.532C3.03376 1.46032 2.95889 1.40956 2.87504 1.37969C2.79118 1.34386 2.70732 1.32594 2.62347 1.32594H1.47346V3.06399Z" fill="black"/>
<path d="M8.39193 6.45051C7.91875 6.45051 7.48749 6.35794 7.09816 6.17278C6.70884 5.98763 6.37641 5.74573 6.10089 5.4471C5.82536 5.14249 5.60973 4.79608 5.454 4.40785C5.30426 4.01962 5.22939 3.61945 5.22939 3.20734C5.22939 2.78925 5.30726 2.38609 5.46299 1.99787C5.62471 1.60964 5.84633 1.2692 6.12784 0.976536C6.41534 0.677901 6.75376 0.44198 7.14309 0.268772C7.53241 0.0895905 7.95768 0 8.41888 0C8.89207 0 9.32332 0.0925768 9.71265 0.277731C10.102 0.462884 10.4344 0.707765 10.7099 1.01237C10.9855 1.31698 11.1981 1.6634 11.3478 2.05162C11.4976 2.43985 11.5724 2.83404 11.5724 3.23422C11.5724 3.6523 11.4916 4.05546 11.3299 4.44369C11.1741 4.83191 10.9555 5.17534 10.674 5.47398C10.3925 5.76664 10.0571 6.00256 9.66773 6.18174C9.2784 6.36092 8.85313 6.45051 8.39193 6.45051ZM6.7298 3.22526C6.7298 3.47014 6.76574 3.70904 6.83761 3.94198C6.90949 4.16894 7.01431 4.37201 7.15207 4.55119C7.29582 4.73038 7.47252 4.87372 7.68215 4.98123C7.89179 5.08874 8.13138 5.14249 8.40091 5.14249C8.68243 5.14249 8.928 5.08575 9.13764 4.97227C9.34728 4.85879 9.52098 4.71246 9.65874 4.53328C9.7965 4.34812 9.89833 4.14207 9.96421 3.9151C10.0361 3.68217 10.072 3.44625 10.072 3.20734C10.072 2.96246 10.0361 2.72654 9.96421 2.49957C9.89234 2.26664 9.78452 2.06357 9.64077 1.89036C9.49702 1.71118 9.32033 1.57082 9.11069 1.46928C8.90704 1.36178 8.67045 1.30802 8.40091 1.30802C8.1194 1.30802 7.87382 1.36476 7.66419 1.47824C7.46054 1.58575 7.28684 1.7291 7.14309 1.90828C7.00532 2.08746 6.9005 2.29352 6.82863 2.52645C6.76274 2.75341 6.7298 2.98635 6.7298 3.22526Z" fill="black"/>
<path d="M14.3073 0.0447952H15.664L16.3108 2.0785L16.9577 0.0447952H18.3234L17.2542 3.00128L17.9011 4.71246L19.5003 0.0358362H21.1086L18.557 6.39676H17.3261L16.3108 3.90614L15.3046 6.39676H14.0647L11.5221 0.0358362H13.1213L14.7296 4.71246L15.3585 3.00128L14.3073 0.0447952Z" fill="black"/>
<path d="M26.146 5.10666V6.39676H21.6628V0.0358362H26.0652V1.32594H23.1362V2.56229H25.6519V3.75384H23.1362V5.10666H26.146Z" fill="black"/>
<path d="M27.0412 6.39676V0.0358362H29.9162C30.2157 0.0358362 30.4912 0.0985496 30.7428 0.223976C31.0004 0.349403 31.222 0.513652 31.4077 0.716724C31.5933 0.919795 31.7371 1.14974 31.8389 1.40657C31.9467 1.6634 32.0006 1.92321 32.0006 2.18601C32.0006 2.38311 31.9767 2.57423 31.9287 2.75939C31.8808 2.93857 31.812 3.10879 31.7221 3.27005C31.6323 3.43131 31.5215 3.57765 31.3897 3.70904C31.2639 3.83447 31.1201 3.94198 30.9584 4.03157L32.36 6.39676H30.6979L29.476 4.34514H28.5146V6.39676H27.0412ZM28.5146 3.06399H29.8623C30.036 3.06399 30.1858 2.98336 30.3115 2.8221C30.4373 2.65486 30.5002 2.44283 30.5002 2.18601C30.5002 1.92321 30.4283 1.71416 30.2846 1.55887C30.1408 1.40358 29.9851 1.32594 29.8174 1.32594H28.5146V3.06399Z" fill="black"/>
<path d="M37.5434 5.10666V6.39676H33.0601V0.0358362H37.4625V1.32594H34.5336V2.56229H37.0492V3.75384H34.5336V5.10666H37.5434Z" fill="black"/>
<path d="M38.4385 6.39676V0.0358362H40.8194C41.3465 0.0358362 41.8077 0.119454 42.203 0.286689C42.5983 0.453925 42.9277 0.680887 43.1913 0.967577C43.4608 1.25427 43.6615 1.59172 43.7933 1.97995C43.931 2.3622 43.9999 2.77133 43.9999 3.20734C43.9999 3.69113 43.925 4.13012 43.7753 4.52432C43.6255 4.91254 43.4099 5.24701 43.1284 5.52773C42.8529 5.80247 42.5175 6.01749 42.1221 6.17278C41.7328 6.3221 41.2986 6.39676 40.8194 6.39676H38.4385ZM42.4995 3.20734C42.4995 2.92662 42.4606 2.67278 42.3827 2.44582C42.3108 2.21288 42.203 2.0128 42.0592 1.84556C41.9155 1.67833 41.7388 1.54991 41.5292 1.46032C41.3195 1.37073 41.0829 1.32594 40.8194 1.32594H39.912V5.10666H40.8194C41.0889 5.10666 41.3285 5.05887 41.5381 4.96331C41.7478 4.86775 41.9215 4.73635 42.0592 4.56911C42.203 4.3959 42.3108 4.19582 42.3827 3.96886C42.4606 3.73592 42.4995 3.48208 42.4995 3.20734Z" fill="black"/>
<path d="M52.2406 4.76621C52.2406 5.04096 52.1837 5.27986 52.0699 5.48294C51.9561 5.68601 51.8004 5.85623 51.6027 5.9936C51.4051 6.125 51.1745 6.22654 50.9109 6.29821C50.6474 6.36391 50.3689 6.39676 50.0754 6.39676H46.9667V0.0358362H50.5156C50.7372 0.0358362 50.9379 0.0836179 51.1176 0.179181C51.2973 0.274744 51.45 0.400171 51.5758 0.555461C51.7016 0.704778 51.7974 0.877986 51.8633 1.07509C51.9352 1.26621 51.9711 1.46331 51.9711 1.66638C51.9711 1.97099 51.8932 2.25768 51.7375 2.52645C51.5878 2.79522 51.3602 2.99829 51.0547 3.13567C51.4201 3.24317 51.7076 3.4343 51.9172 3.70904C52.1328 3.98379 52.2406 4.33618 52.2406 4.76621ZM50.7402 4.47056C50.7402 4.27346 50.6833 4.10623 50.5695 3.96886C50.4557 3.83149 50.312 3.7628 50.1383 3.7628H48.4402V5.15145H50.0754C50.267 5.15145 50.4258 5.08874 50.5516 4.96331C50.6773 4.83788 50.7402 4.67364 50.7402 4.47056ZM48.4402 1.2901V2.60708H49.8867C50.0484 2.60708 50.1922 2.55333 50.318 2.44582C50.4437 2.33831 50.5066 2.17108 50.5066 1.94411C50.5066 1.73507 50.4497 1.57381 50.3359 1.46032C50.2281 1.34684 50.0963 1.2901 49.9406 1.2901H48.4402Z" fill="black"/>
<path d="M53.8336 0.0358362L55.2082 2.95649L56.6008 0.0358362H58.209L55.9359 4.22867V6.39676H54.4715V4.21075L52.2343 0.0358362H53.8336Z" fill="black"/>
<path d="M0.035938 41.785V16.3413H9.55949C11.6679 16.3413 13.5127 16.6758 15.0939 17.3447C16.6752 18.0137 17.9929 18.9215 19.0471 20.0683C20.1252 21.215 20.9279 22.5648 21.4549 24.1177C22.006 25.6468 22.2815 27.2833 22.2815 29.0273C22.2815 30.9625 21.982 32.7184 21.3831 34.2952C20.7841 35.8481 19.9216 37.186 18.7955 38.3089C17.6934 39.4079 16.3518 40.2679 14.7705 40.8891C13.2132 41.4863 11.4762 41.785 9.55949 41.785H0.035938ZM16.2799 29.0273C16.2799 27.9044 16.1242 26.8891 15.8127 25.9812C15.5252 25.0495 15.0939 24.2491 14.5189 23.5802C13.9439 22.9113 13.2371 22.3976 12.3986 22.0392C11.56 21.6809 10.6137 21.5017 9.55949 21.5017H5.92976V36.6246H9.55949C10.6376 36.6246 11.596 36.4334 12.4345 36.0512C13.2731 35.6689 13.9679 35.1433 14.5189 34.4744C15.0939 33.7816 15.5252 32.9812 15.8127 32.0734C16.1242 31.1416 16.2799 30.1263 16.2799 29.0273Z" fill="black"/>
<path d="M25.761 41.785V16.3413H31.6549V41.785H25.761Z" fill="black"/>
<path d="M36.5354 41.785V16.3413H46.059C48.1673 16.3413 50.0121 16.6758 51.5934 17.3447C53.1747 18.0137 54.4924 18.9215 55.5466 20.0683C56.6247 21.215 57.4273 22.5648 57.9544 24.1177C58.5055 25.6468 58.781 27.2833 58.781 29.0273C58.781 30.9625 58.4815 32.7184 57.8825 34.2952C57.2836 35.8481 56.4211 37.186 55.295 38.3089C54.1929 39.4079 52.8512 40.2679 51.27 40.8891C49.7127 41.4863 47.9756 41.785 46.059 41.785H36.5354ZM52.7794 29.0273C52.7794 27.9044 52.6236 26.8891 52.3122 25.9812C52.0247 25.0495 51.5934 24.2491 51.0184 23.5802C50.4434 22.9113 49.7366 22.3976 48.8981 22.0392C48.0595 21.6809 47.1131 21.5017 46.059 21.5017H42.4292V36.6246H46.059C47.1371 36.6246 48.0954 36.4334 48.934 36.0512C49.7725 35.6689 50.4673 35.1433 51.0184 34.4744C51.5934 33.7816 52.0247 32.9812 52.3122 32.0734C52.6236 31.1416 52.7794 30.1263 52.7794 29.0273Z" fill="black"/>
<path d="M60.7871 28.8481C60.7871 27.3191 61.0746 25.802 61.6496 24.2969C62.2246 22.7679 63.0631 21.4061 64.1652 20.2116C65.2673 19.0171 66.609 18.0495 68.1903 17.3089C69.7715 16.5683 71.5684 16.198 73.581 16.198C75.9768 16.198 78.0492 16.7116 79.7982 17.7389C81.5712 18.7662 82.8889 20.1041 83.7514 21.7526L79.2232 24.9061C78.9357 24.2372 78.5644 23.6877 78.1091 23.2577C77.6779 22.8038 77.1987 22.4454 76.6716 22.1826C76.1445 21.8959 75.6055 21.7048 75.0544 21.6092C74.5034 21.4898 73.9643 21.43 73.4372 21.43C72.3112 21.43 71.3288 21.657 70.4903 22.1109C69.6517 22.5648 68.9569 23.1502 68.4059 23.8669C67.8548 24.5836 67.4476 25.3959 67.184 26.3038C66.9205 27.2116 66.7887 28.1314 66.7887 29.0631C66.7887 30.0666 66.9444 31.0341 67.2559 31.9659C67.5673 32.8976 68.0106 33.7218 68.5856 34.4386C69.1846 35.1553 69.8913 35.7287 70.7059 36.1587C71.5445 36.5648 72.4789 36.7679 73.5091 36.7679C74.0362 36.7679 74.5752 36.7082 75.1263 36.5887C75.7013 36.4454 76.2404 36.2423 76.7435 35.9795C77.2706 35.6928 77.7498 35.3345 78.181 34.9044C78.6123 34.4505 78.9597 33.901 79.2232 33.256L84.0389 36.087C83.6556 37.0188 83.0806 37.8549 82.3139 38.5956C81.5712 39.3362 80.7087 39.9573 79.7263 40.459C78.744 40.9608 77.7018 41.343 76.5997 41.6058C75.4977 41.8686 74.4195 42 73.3653 42C71.5205 42 69.8195 41.6297 68.2621 40.8891C66.7288 40.1246 65.3991 39.1212 64.273 37.8788C63.1709 36.6365 62.3084 35.227 61.6855 33.6502C61.0865 32.0734 60.7871 30.4727 60.7871 28.8481Z" fill="black"/>
<path d="M97.934 42C96.0412 42 94.3162 41.6297 92.7589 40.8891C91.2016 40.1485 89.8719 39.1809 88.7698 37.9863C87.6677 36.7679 86.8052 35.3823 86.1823 33.8293C85.5833 32.2764 85.2838 30.6758 85.2838 29.0273C85.2838 27.3549 85.5953 25.7423 86.2182 24.1894C86.8651 22.6365 87.7515 21.2747 88.8776 20.1041C90.0276 18.9096 91.3813 17.9659 92.9386 17.273C94.4959 16.5563 96.197 16.198 98.0418 16.198C99.9345 16.198 101.66 16.5683 103.217 17.3089C104.774 18.0495 106.104 19.029 107.206 20.2474C108.308 21.4659 109.159 22.8515 109.758 24.4044C110.357 25.9573 110.656 27.5341 110.656 29.1348C110.656 30.8072 110.333 32.4198 109.686 33.9727C109.063 35.5256 108.188 36.8993 107.062 38.0939C105.936 39.2645 104.594 40.2082 103.037 40.9249C101.48 41.6416 99.7788 42 97.934 42ZM91.2854 29.099C91.2854 30.0785 91.4292 31.0341 91.7167 31.9659C92.0042 32.8737 92.4235 33.686 92.9745 34.4027C93.5495 35.1195 94.2563 35.6928 95.0949 36.1229C95.9334 36.5529 96.8918 36.7679 97.9699 36.7679C99.096 36.7679 100.078 36.541 100.917 36.087C101.755 35.6331 102.45 35.0478 103.001 34.3311C103.552 33.5904 103.96 32.7662 104.223 31.8584C104.511 30.9266 104.654 29.9829 104.654 29.0273C104.654 28.0478 104.511 27.1041 104.223 26.1962C103.936 25.2645 103.504 24.4522 102.929 23.7594C102.354 23.0427 101.648 22.4812 100.809 22.0751C99.9944 21.6451 99.048 21.43 97.9699 21.43C96.8438 21.43 95.8615 21.657 95.023 22.1109C94.2084 22.541 93.5136 23.1143 92.9386 23.8311C92.3875 24.5478 91.9683 25.372 91.6808 26.3038C91.4172 27.2116 91.2854 28.1433 91.2854 29.099Z" fill="black"/>
<path d="M134.187 41.785V26.5546L128.652 37.628H125.49L119.956 26.5546V41.785H114.062V16.3413H120.459L127.071 29.6365L133.72 16.3413H140.081V41.785H134.187Z" fill="black"/>
<path d="M165.106 41.785V26.5546L159.572 37.628H156.409L150.875 26.5546V41.785H144.981V16.3413H151.378L157.99 29.6365L164.639 16.3413H171V41.785H165.106Z" fill="black"/>
</svg>
