<svg width="89" height="42" viewBox="0 0 89 42" fill="none" xmlns="http://www.w3.org/2000/svg">
<path d="M0 0.234375L12.3742 41.9998H12.8889L20.6228 16.118L28.3592 41.9998H28.874L38.147 10.7043C39.918 4.72751 39.0393 5.38944 44.3239 5.38944H48.6828L40.0665 20.345H43.5252C45.7603 20.345 48.1137 21.1515 49.3522 22.7666C49.5257 22.9906 49.6817 23.2346 49.8264 23.4892C49.8599 23.5479 49.8907 23.609 49.9228 23.6693C50.059 23.9271 50.1862 24.194 50.2955 24.4807C50.73 25.6208 50.9497 26.9906 50.9497 28.5936C50.9497 30.863 50.4507 32.8042 49.4537 34.4206C49.183 34.859 48.8951 35.2321 48.5915 35.5515C48.3973 35.7558 48.1954 35.9331 47.988 36.0891C47.9706 36.1021 47.9523 36.1144 47.9348 36.1271C47.7233 36.2812 47.5083 36.4134 47.2831 36.5176C47.0778 36.6126 46.8635 36.6799 46.6466 36.7332C46.5912 36.7466 46.5354 36.7579 46.4793 36.7687C46.2562 36.8119 46.0298 36.8422 45.7946 36.8422C45.7841 36.8422 45.7747 36.8397 45.7642 36.8396C45.7537 36.8395 45.7442 36.8371 45.7338 36.837C45.7285 36.8369 45.7236 36.835 45.7186 36.8344C45.7064 36.8342 45.6952 36.8321 45.6831 36.8318C45.3738 36.8262 45.0712 36.8027 44.7804 36.7507H44.7753C44.6957 36.7363 44.6227 36.7051 44.5445 36.6873C44.5283 36.6836 44.5122 36.6796 44.4964 36.6745C44.4765 36.6697 44.4578 36.6618 44.438 36.6568C44.2396 36.6108 44.0404 36.5664 43.8523 36.4945C43.5559 36.3813 43.2718 36.2406 42.9978 36.071C42.7237 35.9018 42.4607 35.7041 42.2092 35.478C41.6714 34.8937 41.2664 34.2294 40.8374 33.5813H35.5733C35.9301 34.642 36.3735 35.6014 36.8842 36.4821L36.869 36.51C36.9242 36.6098 36.9982 36.7032 37.0592 36.8016C37.4227 37.3922 37.8142 37.9522 38.2509 38.4574C38.6399 38.9074 39.0566 39.3226 39.5036 39.705C39.7259 39.8953 39.9537 40.0733 40.1857 40.24L40.1883 40.2426C40.4194 40.4085 40.6551 40.5617 40.8957 40.7041C41.0451 40.7925 41.1991 40.8682 41.3522 40.9475C41.3726 40.9582 41.3925 40.97 41.413 40.9805C41.487 41.0212 41.5604 41.0636 41.6362 41.0997C41.6362 41.0997 41.6413 41.1011 41.6438 41.1023C41.8929 41.2204 42.1458 41.327 42.4045 41.4218C42.408 41.4231 42.4111 41.4255 42.4146 41.4268H42.4172C42.674 41.5205 42.9347 41.602 43.2008 41.6728C43.206 41.6742 43.2108 41.6766 43.216 41.6779H43.2186C43.4834 41.7477 43.7535 41.8056 44.0275 41.8528C44.0341 41.854 44.0411 41.8543 44.0478 41.8554C44.2924 41.8968 44.5412 41.9257 44.7933 41.9492C44.7992 41.9498 44.8049 41.9512 44.811 41.9518C44.8202 41.9537 44.8294 41.956 44.8389 41.9569C44.8531 41.9594 44.8674 41.9607 44.882 41.962H44.8846C44.8915 41.9626 44.898 41.9639 44.9049 41.9646H44.9075C45.0593 41.977 45.2166 41.9764 45.3715 41.9823C45.4037 41.9836 45.4356 41.9865 45.4679 41.9874C45.4881 41.9885 45.5083 41.9895 45.5287 41.99C45.607 41.9946 45.6849 42 45.7645 42.0001C45.7748 42.0001 45.7847 42.0001 45.795 42.0001C46.0264 42.0001 46.2468 41.9781 46.472 41.9646V41.9519C46.7143 41.9345 46.9631 41.9318 47.1997 41.9012C47.233 41.8966 47.2656 41.8909 47.2986 41.886C47.743 41.824 48.1734 41.7304 48.5918 41.6121C50.5425 41.0606 52.2181 39.9112 53.6049 38.1331C55.6159 35.5548 56.6224 32.3757 56.6224 28.5938C56.6224 25.5351 55.9332 22.872 54.5583 20.6039C53.5142 18.8814 52.0931 17.5667 50.2958 16.6558C50.2401 16.6276 50.1797 16.6047 50.1234 16.5772C49.8912 16.4642 49.6578 16.3524 49.4134 16.2526C49.1103 16.1283 48.7982 16.014 48.4752 15.9103C51.4934 10.6841 54.5645 5.48806 57.5352 0.234642H41.2507C36.5453 0.234642 35.5995 1.03652 33.9656 6.59163L28.3592 25.6547L20.8814 0.234375H15.4703L16.7077 4.38784C17.7385 7.84684 17.647 9.54488 16.6798 12.819L12.8889 25.6547L5.41371 0.234375H0Z" fill="#005A9C"/>
<path d="M84.2417 0.234375C83.1784 0.234375 82.2242 0.617366 81.5011 1.35219C80.7338 2.13116 80.3066 3.13862 80.3066 4.17983C80.3066 5.22105 80.713 6.18567 81.4582 6.94257C82.2151 7.70985 83.1901 8.12659 84.243 8.12659C85.2725 8.12659 86.2709 7.70985 87.0486 6.95425C87.7938 6.23111 88.1989 5.26519 88.1989 4.17983C88.1989 3.12693 87.7821 2.14154 87.059 1.40672C86.3021 0.639437 85.3154 0.234375 84.2417 0.234375ZM87.6731 4.21359C87.6731 5.12368 87.3212 5.96756 86.6747 6.59203C85.9957 7.25026 85.1518 7.60079 84.2196 7.60079C83.3433 7.60079 82.4774 7.23987 81.8308 6.58165C81.1843 5.92472 80.8221 5.07954 80.8221 4.18113C80.8221 3.28273 81.1947 2.40509 81.8633 1.72609C82.4877 1.08994 83.3316 0.75109 84.2521 0.75109C85.1946 0.75109 86.0385 1.10292 86.6967 1.77024C87.3329 2.40509 87.6731 3.26066 87.6731 4.21359ZM84.3521 1.86761H82.6643V6.34016H83.5082V4.433H84.3417L85.2518 6.34016H86.1943L85.1959 4.30057C85.8425 4.16945 86.2151 3.73063 86.2151 3.09577C86.2151 2.28435 85.601 1.86761 84.3521 1.86761ZM84.1976 2.41548C84.9869 2.41548 85.3478 2.63489 85.3478 3.18276C85.3478 3.70856 84.9869 3.89551 84.2183 3.89551H83.5056V2.41548H84.1976Z" fill="black"/>
<path d="M77.6036 0L78.0424 2.66601C78.452 5.15452 78.0354 6.18518 76.9291 8.30182L75.377 11.2716C75.377 11.2716 74.1852 8.75167 72.2053 7.35733C70.537 6.18239 69.4504 5.92663 67.7509 6.27716C65.5685 6.72766 63.094 9.3372 62.0139 12.5543C60.7221 16.4037 60.7091 18.2667 60.6637 19.9779C60.591 22.7211 61.0233 24.3427 61.0233 24.3427C61.0233 24.3427 59.1395 20.8555 59.1564 15.7481C59.168 12.1025 59.7419 8.79711 61.4283 5.53455C62.9123 2.66666 65.118 0.945145 67.0758 0.742614C69.0999 0.533592 70.6993 1.5086 71.9353 2.56539C73.2323 3.67412 74.5448 6.0967 74.5448 6.0967L77.6036 0Z" fill="black"/>
<path d="M77.9873 30.1696C77.9873 30.1696 76.6151 32.622 75.7608 33.5672C74.9052 34.5123 73.3759 36.1767 71.4869 37.0089C69.5966 37.8411 68.6073 37.9982 66.7404 37.819C64.8748 37.6398 63.1403 36.5597 62.5327 36.1092C61.9251 35.6587 60.3723 34.3318 59.496 33.0946C58.6184 31.856 57.2461 29.3828 57.2461 29.3828C57.2461 29.3828 58.0108 31.8638 58.4898 32.9154C58.7651 33.5204 59.6116 35.3744 60.8138 36.9868C61.9329 38.4915 64.1101 41.0816 67.4168 41.6658C70.7235 42.2513 72.9955 40.7661 73.5576 40.4052C74.1198 40.0455 75.4172 39.1972 76.1675 38.3948C76.9504 37.5575 77.3659 36.9571 77.8878 35.9011C78.267 35.134 78.5951 33.334 78.3827 32.228L77.9873 30.1696Z" fill="black"/>
</svg>
